<?xml version="1.0" encoding="UTF-8"?>
<svg width="1440px" height="439px" viewBox="0 0 1440 439" version="1.1" xmlns="http://www.w3.org/2000/svg" xmlns:xlink="http://www.w3.org/1999/xlink">
    <!-- Generator: Sketch 47.1 (45422) - http://www.bohemiancoding.com/sketch -->
    <title>Fill 1</title>
    <desc>Created with Sketch.</desc>
    <defs></defs>
    <g id="NorthStar" stroke="none" stroke-width="1" fill="none" fill-rule="evenodd">
        <g id="Closed" transform="translate(0.000000, -591.000000)" fill="#272067">
            <g id="background" transform="translate(-22.000000, 591.000000)">
                <path d="M0,76.1664894 C48.1165054,61.8664351 101.682807,68.9979336 119.652293,57.5018922 C162.995074,29.7705748 228.240099,51.6632867 276.826557,36.7991359 C307.892868,27.3000788 517.808955,6.52732504 539.789525,6.52732504 C557.577626,6.52732504 572.401731,3.43508756 589.583842,1.28575605 C618.955852,-2.38704798 649.300745,2.72687871 678.549084,5.19325721 C703.39059,7.28082631 728.112547,3.08921812 754.240238,3.02333823 C763.635159,3.00275076 774.777972,4.32858361 784.045099,5.78205875 C795.727945,7.60610829 805.271271,4.6456306 817.733248,5.21384467 C830.792972,5.8149987 845.394468,6.41203523 858.4006,5.24266713 C875.578588,3.72331209 889.236057,8.68489153 906.092499,6.19380808 C933.860901,2.09278474 957.346142,6.19380808 985.535026,6.19380808 C1013.24571,6.19380808 1038.35518,21.025019 1066.17305,21.025019 C1085.01648,21.025019 1105.22854,30.6928933 1122.40241,38.544953 C1151.15194,51.7003442 1220.91922,45.9811459 1245.28253,57.5018922 C1302.0643,84.3520661 1445.66354,57.8889366 1460.67727,66.7168423 C1467.28546,70.5914035 1475.00257,79.0199123 1483,82.7709487 L1483,439 L0,439 L0,76.1664894 Z" id="Fill-1"></path>
            </g>
        </g>
    </g>
</svg>