<?xml version="1.0" encoding="UTF-8"?>
<svg width="1247px" height="1355px" viewBox="0 0 1247 1355" version="1.1" xmlns="http://www.w3.org/2000/svg" xmlns:xlink="http://www.w3.org/1999/xlink">
    <!-- Generator: Sketch 47.1 (45422) - http://www.bohemiancoding.com/sketch -->
    <title>burst</title>
    <desc>Created with Sketch.</desc>
    <defs></defs>
    <g id="NorthStar" stroke="none" stroke-width="1" fill="none" fill-rule="evenodd" opacity="0.538156703">
        <g id="Closed" transform="translate(-126.000000, -820.000000)" fill="#FFB860">
            <g id="burst" transform="translate(126.000000, 820.000000)">
                <path d="M895.564386,470 C892.881514,470 890.179106,469.058398 887.893455,467.110504 C882.397474,462.431247 881.375117,453.712445 885.620828,447.65313 L1009.47576,270.401982 C1013.72147,264.328291 1021.62032,263.214182 1027.10327,267.886252 C1032.60577,272.56551 1033.62161,281.284311 1029.38241,287.343627 L905.520968,464.594774 C903.046474,468.13836 899.32171,470 895.564386,470" id="Fill-1"></path>
                <path d="M1045.51835,254 C1042.85155,254 1040.1588,253.117857 1037.88132,251.2997 C1032.40498,246.915922 1031.37979,238.754417 1035.60384,233.070993 L1041.56682,225.044166 C1045.79736,219.367476 1053.67447,218.330453 1059.13134,222.707498 C1064.6012,227.091276 1065.6199,235.259515 1061.38287,240.942939 L1055.44584,248.929362 C1052.98019,252.255916 1049.26874,254 1045.51835,254" id="Fill-3"></path>
                <path d="M1157.78489,95.9884054 C1155.13603,95.9884054 1152.46788,95.0557198 1150.21121,93.1262708 C1144.78491,88.4913214 1143.77551,79.8550794 1147.9674,73.8460206 L1158.76857,58.3392315 C1162.96045,52.3372924 1170.76558,51.2266133 1176.1726,55.8686824 C1181.5989,60.5107515 1182.60187,69.1398738 1178.40999,75.1489326 L1167.61524,90.6414823 C1165.17212,94.1443933 1161.49458,95.9884054 1157.78489,95.9884054 M1128.98176,137.332723 C1126.32648,137.332723 1123.66476,136.400038 1121.40808,134.470589 C1115.98178,129.835639 1114.97239,121.206517 1119.15141,115.197458 L1129.97187,99.6693099 C1134.15733,93.6531314 1141.95603,92.5638115 1147.38233,97.1987609 C1152.80221,101.84083 1153.80517,110.469952 1149.61329,116.471891 L1138.81855,131.971561 C1136.36899,135.488711 1132.69788,137.332723 1128.98176,137.332723 M1100.1915,178.662802 C1097.54264,178.662802 1094.88092,177.730116 1092.61782,175.800667 C1087.19151,171.172838 1086.18212,162.536595 1090.374,156.527537 L1101.16232,141.027867 C1105.3542,135.011689 1113.14647,133.915249 1118.56635,138.535959 C1123.99908,143.170908 1125.00205,151.800031 1120.81659,157.816209 L1110.02185,173.308759 C1107.57873,176.825909 1103.90119,178.662802 1100.1915,178.662802 M1071.40123,220 C1068.75237,220 1066.09065,219.067314 1063.83398,217.137865 C1058.40768,212.510036 1057.39828,203.873794 1061.57731,197.864735 L1072.37848,182.357946 C1076.57679,176.348887 1084.36907,175.238208 1089.78894,179.880277 C1095.21524,184.515226 1096.21821,193.144349 1092.02632,199.153407 L1081.24444,214.645957 C1078.79489,218.155988 1075.12378,220 1071.40123,220" id="Fill-5"></path>
                <path d="M1183.51848,53 C1180.85165,53 1178.15888,52.1181863 1175.88137,50.3007077 C1170.40497,45.9185648 1169.37977,37.7601052 1173.60386,32.0788017 L1179.55393,24.0751643 C1183.77153,18.380398 1191.64223,17.3168364 1197.11863,21.7057107 C1202.59503,26.0811222 1203.62023,34.2463132 1199.39614,39.9276167 L1193.44607,47.9312541 C1190.98039,51.2565668 1187.2689,53 1183.51848,53" id="Fill-7"></path>
                <path d="M931.68448,551 C927.063994,551 922.607587,548.258325 920.376102,543.492357 C917.206081,536.744712 919.700094,528.491277 925.935125,525.060633 C929.538317,523.078956 933.364657,520.919709 937.394456,518.604202 C943.583545,515.045707 951.242789,517.609812 954.517821,524.293532 C957.799417,530.984354 955.449794,539.280406 949.267268,542.831798 C945.093079,545.225437 941.135475,547.462814 937.407583,549.515518 C935.569889,550.524113 933.614058,551 931.68448,551" id="Fill-9"></path>
                <path d="M1104.89459,444.823979 C1100.56705,444.823979 1096.36908,442.33237 1094.04983,437.867638 C1090.59687,431.213747 1092.65051,422.716353 1098.63002,418.878124 C1106.76035,413.664468 1114.68985,408.616441 1122.32782,403.806052 C1128.33325,400.025432 1135.97122,402.373017 1139.37236,409.048511 C1142.77997,415.724006 1140.66155,424.214199 1134.65612,427.994819 C1127.07645,432.769202 1119.19878,437.788425 1111.13324,442.958873 C1109.16382,444.226281 1107.01301,444.823979 1104.89459,444.823979 M1044.25724,484.027208 C1039.95562,484.027208 1035.76413,481.557203 1033.44488,477.128477 C1029.95953,470.496189 1031.9743,461.984393 1037.94085,458.117359 L1061.45078,442.872459 C1067.41734,439.005425 1075.06827,441.252193 1078.55362,447.884481 C1082.03249,454.516768 1080.01125,463.028564 1074.03821,466.888397 L1050.54124,482.133298 C1048.56535,483.415108 1046.3951,484.027208 1044.25724,484.027208 M983.522727,523 C979.162798,523 974.925958,520.465184 972.626145,515.957245 C969.225012,509.274549 971.330475,500.791558 977.342382,497.010938 C984.92205,492.229353 992.799722,487.21013 1000.87822,482.032481 C1006.86422,478.201453 1014.51515,480.484227 1017.96163,487.138118 C1021.40811,493.79201 1019.35447,502.289403 1013.36848,506.127633 C1005.23815,511.326886 997.315131,516.382115 989.677158,521.192504 C987.727175,522.416704 985.608755,523 983.522727,523" id="Fill-11"></path>
                <path d="M1163.68592,403 C1159.15062,403 1154.76628,400.357725 1152.48222,395.719538 C1149.20053,389.03572 1151.55022,380.732442 1157.73293,377.180997 C1161.90724,374.780221 1165.8584,372.542811 1169.57984,370.497178 C1175.83475,367.052277 1183.44827,369.758478 1186.61839,376.49912 C1189.79507,383.246865 1187.30754,391.507525 1181.06576,394.938221 C1177.47559,396.919927 1173.64914,399.079205 1169.61266,401.394747 C1167.7224,402.481489 1165.68775,403 1163.68592,403" id="Fill-13"></path>
                <path d="M967.759219,794 C966.934201,794 966.090144,793.904871 965.252434,793.699977 C961.070227,792.697461 957.053025,791.812027 953.213518,791.065629 C946.543566,789.770407 942.044045,782.482044 943.173685,774.791211 C944.296979,767.100377 950.630578,761.875586 957.294184,763.207396 C961.419273,764.012335 965.747444,764.963628 970.240619,766.03932 C976.866147,767.627247 981.118162,775.105869 979.741017,782.745479 C978.535222,789.419161 973.445496,794 967.759219,794" id="Fill-15"></path>
                <path d="M1030.00982,809.98918 C1028.88069,809.98918 1027.73881,809.817797 1026.59693,809.446467 C1018.58461,806.868579 1010.73178,804.390665 1003.10859,802.098415 C996.544363,800.113228 992.659411,792.550947 994.426458,785.195754 C996.199885,777.854844 1002.92998,773.498856 1009.5261,775.476903 C1017.27049,777.819139 1025.26367,780.332758 1033.40995,782.953492 C1039.94866,785.060076 1043.71879,792.700907 1041.83691,800.020395 C1040.28038,806.06165 1035.36199,809.98918 1030.00982,809.98918 M1090.76563,830.255235 C1089.59185,830.255235 1088.39255,830.06957 1087.2124,829.669676 L1063.66027,821.728925 C1057.15345,819.536649 1053.46626,811.845831 1055.4183,804.554907 C1057.38948,797.263983 1064.27268,793.143647 1070.76673,795.328782 L1094.31248,803.269534 C1100.82568,805.461809 1104.51287,813.152627 1102.55445,820.443551 C1100.94688,826.406256 1096.06039,830.255235 1090.76563,830.255235 M1151.6873,850 C1150.62835,850 1149.55026,849.842899 1148.47854,849.521555 C1140.72778,847.18646 1132.74098,844.672841 1124.58832,842.044966 C1118.05598,839.938382 1114.27948,832.297551 1116.16135,824.985204 C1118.04961,817.665716 1124.85625,813.452548 1131.40772,815.551991 C1139.41366,818.129879 1147.27287,820.600652 1154.88329,822.900043 C1161.44752,824.87809 1165.34524,832.447511 1163.57181,839.795563 C1162.09183,845.943933 1157.1224,850 1151.6873,850" id="Fill-17"></path>
                <path d="M1199.76037,866 C1199.0876,866 1198.38943,865.934123 1197.70396,865.80237 C1193.56575,864.989891 1189.24983,864.04566 1184.74984,862.962355 C1178.12997,861.366676 1173.87752,853.886017 1175.26115,846.244326 C1176.63209,838.602635 1183.10598,833.705805 1189.75758,835.301483 C1193.93387,836.304272 1197.95784,837.182628 1201.7914,837.936549 C1208.46839,839.239443 1212.95568,846.537111 1211.82592,854.230039 C1210.81041,861.125128 1205.6313,866 1199.76037,866" id="Fill-19"></path>
                <path d="M849.212257,994 C844.321839,994 839.650098,990.929969 837.522965,985.755596 L832.115673,972.589053 C829.23311,965.576986 832.128926,957.346996 838.583218,954.212105 C845.044136,951.077214 852.59844,954.233725 855.474377,961.252999 L860.888295,974.419542 C863.764232,981.431609 860.868416,989.661599 854.414124,992.789283 C852.724345,993.610841 850.955048,994 849.212257,994" id="Fill-21"></path>
                <path d="M874.136023,1066.13986 C869.49366,1066.13986 865.064883,1063.06745 863.048376,1057.88186 L852.054959,1029.60992 C849.328591,1022.5852 852.067523,1014.34884 858.186145,1011.21873 C864.298485,1008.0742 871.459911,1011.22594 874.205125,1018.24344 L885.211106,1046.55144 C887.931191,1053.56894 885.185978,1061.80531 879.067356,1064.93542 C877.459176,1065.7504 875.788177,1066.13986 874.136023,1066.13986 M902.517886,1139.06272 C897.875523,1139.06272 893.446746,1135.99752 891.436521,1130.81914 L880.43054,1102.52556 C877.69789,1095.50806 880.443104,1087.27169 886.561726,1084.13437 C892.680348,1080.99705 899.848056,1084.15601 902.574423,1091.17351 L913.580405,1119.46709 C916.313054,1126.48459 913.567841,1134.71374 907.455501,1137.85106 C905.847321,1138.68047 904.163757,1139.06272 902.517886,1139.06272 M930.874621,1212 C926.23854,1212 921.809763,1208.92038 919.799538,1203.742 L908.799839,1175.46284 C906.067189,1168.43813 908.812403,1160.20176 914.924743,1157.07166 C921.049647,1153.92712 928.211073,1157.08608 930.943722,1164.10358 L941.943422,1192.40437 C944.676071,1199.42187 941.924576,1207.65824 935.805954,1210.78835 C934.210338,1211.61054 932.526774,1212 930.874621,1212" id="Fill-23"></path>
                <path d="M959.211593,1271 C954.321353,1271 949.649782,1267.92952 947.522727,1262.7616 L942.115632,1249.59314 C939.233174,1242.57284 942.128885,1234.34886 948.582942,1231.21351 C955.043624,1228.07816 962.597653,1231.22793 965.473485,1238.24822 L970.887206,1251.40948 C973.763038,1258.42257 970.873953,1266.65376 964.419897,1269.78911 C962.723554,1270.61078 960.960947,1271 959.211593,1271" id="Fill-25"></path>
                <path d="M603.370664,981 C602.634905,981 601.892747,980.929676 601.137795,980.781995 C594.432789,979.438804 589.979847,972.364196 591.201847,964.994227 L593.498695,951.140373 C594.720695,943.763371 601.169784,938.868812 607.861994,940.226068 C614.573397,941.569258 619.019941,948.636834 617.797941,956.013835 L615.501093,969.853625 C614.419847,976.407834 609.21835,981 603.370664,981" id="Fill-27"></path>
                <path d="M589.110443,1063.64954 C588.347713,1063.64954 587.578351,1063.57825 586.795724,1063.42141 C579.844933,1062.05975 575.228759,1054.89499 576.502187,1047.41655 L581.595896,1017.29606 C582.869323,1009.81762 589.568081,1004.88427 596.485709,1006.21742 C603.443132,1007.57908 608.052674,1014.74383 606.792511,1022.21514 L601.685537,1052.35702 C600.564656,1058.99423 595.17912,1063.64954 589.110443,1063.64954 M575.971592,1141.3212 C575.20223,1141.3212 574.432867,1141.24991 573.656873,1141.1002 C566.69945,1139.73854 562.089908,1132.56666 563.350071,1125.09535 L568.457045,1094.96059 C569.723839,1087.48216 576.382803,1082.54168 583.346858,1083.88195 C590.304281,1085.24362 594.913822,1092.4155 593.65366,1099.88681 L588.546686,1130.02156 C587.419172,1136.66589 582.033636,1141.3212 575.971592,1141.3212 M562.819476,1219 C562.056746,1219 561.287384,1218.92158 560.511389,1218.77187 C553.553966,1217.41021 548.937792,1210.23832 550.21122,1202.76701 L555.304929,1172.64652 C556.578356,1165.16808 563.250584,1160.23474 570.194742,1161.56788 C577.152165,1162.92954 581.768339,1170.0943 580.501544,1177.57273 L575.401203,1207.70036 C574.273689,1214.34469 568.88152,1219 562.819476,1219" id="Fill-29"></path>
                <path d="M552.365239,1282 C551.635821,1282 550.893605,1281.92967 550.138593,1281.78197 C543.43306,1280.43863 538.979767,1273.37027 540.201863,1265.99244 L542.492494,1252.14408 C543.708191,1244.76626 550.164187,1239.89928 556.850525,1241.21449 C563.562456,1242.55783 568.015749,1249.6262 566.800051,1257.00402 L564.503022,1270.85238 C563.421691,1277.40732 558.219784,1282 552.365239,1282" id="Fill-31"></path>
                <path d="M376.375022,925 C372.7096,925 369.051106,923.293009 366.41117,919.941959 C361.484676,913.696104 361.948917,904.099198 367.450515,898.506248 C371.150583,894.738282 374.511131,891.261371 377.469799,888.114844 C382.860534,882.372434 391.313871,882.67922 396.378945,888.791348 C401.430161,894.911341 401.16686,904.516113 395.776125,910.258524 C392.685807,913.55451 389.172821,917.188748 385.292601,921.129773 C382.742741,923.725657 379.555417,925 376.375022,925" id="Fill-33"></path>
                <path d="M321.624642,963.991698 C318.157124,963.991698 314.715057,962.354695 312.284614,959.173618 C307.875459,953.383344 308.479889,944.669338 313.627084,939.715437 L332.714334,921.329528 C337.861529,916.36133 345.617315,917.033288 350.039195,922.809265 C354.454712,928.585243 353.863007,937.299248 348.722175,942.267446 L329.609475,960.6748 C327.293555,962.905128 324.449555,963.991698 321.624642,963.991698 M272.525871,1011.60062 C269.102891,1011.60062 265.705361,1010.00651 263.274918,1006.88262 C258.808501,1001.14953 259.330219,992.435527 264.43924,987.417289 C270.858918,981.105176 277.221335,974.89314 283.475591,968.824075 C288.622786,963.848728 296.372209,964.477795 300.806814,970.246624 C305.235056,976.015453 304.668801,984.72231 299.534331,989.711954 C293.318249,995.745277 286.994007,1001.91442 280.606141,1008.19079 C278.277496,1010.47831 275.388959,1011.60062 272.525871,1011.60062 M224.196954,1060.18174 C220.882135,1060.18174 217.573678,1058.6877 215.15596,1055.72823 C210.562295,1050.11667 210.886778,1041.38837 215.874913,1036.22716 C222.065544,1029.83641 228.3198,1023.45281 234.593143,1017.1121 C239.632177,1012.02238 247.394325,1012.47988 251.937091,1018.14863 C256.473494,1023.81738 256.059937,1032.53854 251.01454,1037.63541 C244.811184,1043.90463 238.626915,1050.21675 232.50627,1056.53601 C230.145813,1058.98079 227.168202,1060.18174 224.196954,1060.18174 M177.445916,1110.67865 C174.334694,1110.67865 171.21711,1109.35618 168.824841,1106.70409 C163.995766,1101.35702 163.938505,1092.62157 168.697592,1087.19587 C174.512841,1080.56207 180.557137,1073.8425 186.766856,1067.08003 C191.627742,1061.7687 199.402616,1061.89737 204.129891,1067.38026 C208.850805,1072.84886 208.736281,1081.58431 203.86267,1086.88848 C197.792924,1093.50798 191.882239,1100.07029 186.194239,1106.56112 C183.795607,1109.30614 180.620761,1110.67865 177.445916,1110.67865 M134.276918,1165 C131.64924,1165 129.008837,1164.0564 126.769266,1162.11201 C121.399386,1157.4512 120.419574,1148.78723 124.56787,1142.75391 C129.409669,1135.72695 134.970421,1128.18529 141.110153,1120.33625 C145.582932,1114.61746 153.345081,1114.04559 158.447739,1119.07812 C163.537672,1124.11066 164.033941,1132.83181 159.561162,1138.55775 C153.758638,1145.97073 148.528731,1153.06918 143.998691,1159.64578 C141.57461,1163.15569 137.948032,1165 134.276918,1165" id="Fill-35"></path>
                <path d="M112.398635,1217 C111.608257,1217 110.804013,1216.9289 109.985902,1216.77958 C102.71997,1215.42151 97.8945031,1208.27567 99.2187331,1200.81696 C100.126975,1195.67622 101.853327,1190.10174 104.349258,1184.24997 C107.295843,1177.2961 115.178825,1174.11069 121.966371,1177.15389 C128.733117,1180.18999 131.839164,1188.2744 128.878713,1195.22116 C127.214759,1199.13893 126.098523,1202.67275 125.550805,1205.73018 C124.379104,1212.35698 118.74246,1217 112.398635,1217" id="Fill-37"></path>
                <path d="M795.988827,398 C794.387171,398 792.758595,397.684731 791.170398,397.011203 C784.508044,394.173786 781.264352,386.120107 783.936024,379.033729 L788.936154,365.706466 C791.601095,358.605757 799.158493,355.159299 805.820847,357.989551 C812.483201,360.819803 815.733622,368.873482 813.06868,375.95986 L808.055091,389.301453 C806.022736,394.711175 801.150469,398 795.988827,398" id="Fill-39"></path>
                <path d="M873.564965,186.90249 C872.01594,186.90249 870.44088,186.585435 868.904871,185.90809 C862.461445,183.054596 859.324342,174.955283 861.908221,167.828753 L872.770927,137.744563 C875.341789,130.618033 882.63783,127.14484 889.100782,129.998334 C895.544208,132.851829 898.674802,140.943935 896.097432,148.077671 L885.234726,178.154656 C883.269156,183.59503 878.556993,186.90249 873.564965,186.90249 M845.565349,264.458451 C844.016324,264.458451 842.441264,264.141396 840.905255,263.464051 C834.461829,260.610557 831.331235,252.511244 833.908606,245.384714 L844.764802,215.300524 C847.342173,208.166788 854.664248,204.686389 861.094657,207.539884 C867.538084,210.393378 870.681695,218.485485 868.104324,225.619221 L857.23511,255.710617 C855.26954,261.150991 850.557378,264.458451 845.565349,264.458451 M817.565733,342 C816.010199,342 814.43514,341.675739 812.905639,341.0056 C806.455705,338.152106 803.325111,330.052794 805.902481,322.919057 L816.75217,292.856485 C819.316523,285.722749 826.612564,282.227939 833.075516,285.088639 C839.525451,287.934928 842.662553,296.027034 840.091691,303.16077 L829.228986,333.252166 C827.269924,338.692541 822.551253,342 817.565733,342" id="Fill-41"></path>
                <path d="M902.993536,105 C901.391548,105 899.762636,104.684787 898.180842,104.011376 C891.517112,101.181619 888.26602,93.1293498 890.931512,86.0442121 L895.925944,72.7192819 C898.584704,65.6269803 906.123469,62.1524689 912.807392,64.9893895 C919.471122,67.8119823 922.728945,75.8499241 920.076915,82.9493896 L915.069022,96.2958117 C913.036247,101.711751 908.156243,105 902.993536,105" id="Fill-43"></path>
                <path d="M386.559865,428 C383.203206,428 379.832619,426.590983 377.221111,423.76512 C374.289257,420.587002 370.960455,417.033147 367.262559,413.142693 C361.837586,407.444 361.552061,397.878337 366.628833,391.788251 C371.698641,385.690336 380.21564,385.377221 385.626686,391.075914 C389.436006,395.075958 392.869269,398.739404 395.891655,402.019283 C401.23306,407.804083 401.386268,417.377574 396.232892,423.381554 C393.600491,426.457909 390.076696,428 386.559865,428" id="Fill-45"></path>
                <path d="M153.75024,200.593434 C150.99895,200.593434 148.241216,199.588955 145.934513,197.530128 C139.278581,191.581614 132.861051,185.896688 126.727026,180.539463 C121.340425,175.83052 120.419032,167.182023 124.678056,161.226385 C128.937079,155.270748 136.752806,154.25202 142.145851,158.960963 C148.350752,164.382303 154.845602,170.131346 161.578854,176.143975 C166.920352,180.924158 167.745095,189.579779 163.428082,195.485549 C160.96674,198.848062 157.371377,200.593434 153.75024,200.593434 M202.964191,245.445939 C200.148467,245.445939 197.313414,244.391592 194.980938,242.240153 C188.582738,236.320136 182.255414,230.485606 176.02474,224.779307 C170.734788,219.927884 170.000251,211.265139 174.381697,205.409237 C178.769587,199.560459 186.611087,198.75545 191.901039,203.599749 C198.16393,209.334544 204.52347,215.197569 210.953887,221.153207 C216.218066,226.026001 216.920386,234.702995 212.506723,240.523277 C210.045381,243.771807 206.514451,245.445939 202.964191,245.445939 M251.624018,291.053585 C248.763191,291.053585 245.883034,289.963618 243.537672,287.740939 C237.300554,281.828046 231.024777,275.908028 224.761886,270.02363 C219.523481,265.100968 218.885594,256.423974 223.331473,250.632188 C227.783795,244.85465 235.631739,244.142253 240.870144,249.057791 C247.158809,254.977809 253.466802,260.926322 259.72325,266.860588 C264.942326,271.804622 265.547996,280.481616 261.076344,286.25203 C258.615002,289.422196 255.129175,291.053585 251.624018,291.053585 M299.832813,337.209776 C296.926883,337.209776 294.008067,336.091313 291.643375,333.811643 C285.56734,327.927245 279.349552,321.935988 273.041558,315.880614 C267.848255,310.900961 267.294131,302.216843 271.791557,296.474925 C276.301869,290.747254 284.149813,290.127469 289.343115,295.107123 C295.683326,301.190992 301.926887,307.210745 308.028695,313.109391 C313.196224,318.117541 313.718132,326.801658 309.194933,332.522205 C306.733591,335.628255 303.292867,337.209776 299.832813,337.209776 M347.558361,384 C344.587998,384 341.611192,382.838793 339.240056,380.473636 C333.447527,374.703221 327.300615,368.619352 320.857312,362.286144 C315.721999,357.242375 315.258081,348.551133 319.826383,342.873331 C324.388242,337.188404 332.249072,336.689726 337.384385,341.733496 C343.872791,348.116571 350.058363,354.228936 355.883109,360.027846 C360.986205,365.11436 361.40502,373.805601 356.804501,379.447784 C354.349603,382.468347 350.953982,384 347.558361,384" id="Fill-47"></path>
                <path d="M104.962511,155 C102.27716,155 99.5648203,154.169124 97.2370664,152.446578 C93.4047062,149.616197 89.8287363,147.028999 86.5361452,144.712005 C80.6459156,140.564382 79.235769,132.43126 83.3717492,126.540825 C87.5077295,120.650391 95.6177592,119.231823 101.514736,123.37269 C104.962511,125.804521 108.707158,128.506555 112.708196,131.472037 C118.497219,135.748007 119.725194,143.90815 115.454271,149.704013 C112.897116,153.169372 108.956802,155 104.962511,155" id="Fill-49"></path>
                <path d="M351.226115,642 C345.291392,642 340.079489,636.966663 339.147433,629.915556 C338.107588,622.132731 342.6791,614.837718 349.362003,613.632969 C353.87011,612.812558 357.940721,612.02171 361.510431,611.245645 C368.186993,609.79699 374.552871,614.904238 375.789271,622.650108 C377.032012,630.395978 372.650716,637.846203 366.005856,639.294858 C362.214228,640.122661 357.902677,640.965246 353.115588,641.830005 C352.481537,641.948262 351.853826,642 351.226115,642" id="Fill-51"></path>
                <path d="M278.66228,646.000021 C272.471896,646.000021 267.147656,640.618431 266.453467,633.344817 C265.714697,625.541143 270.580389,618.517837 277.33122,617.656488 C286.725064,616.463851 295.743154,615.278576 304.258117,614.108025 C310.970735,613.143608 317.110169,618.746057 317.912627,626.542369 C318.715084,634.338682 313.900341,641.40616 307.162248,642.333767 C298.577229,643.51168 289.489083,644.704317 280.025183,645.911678 C279.566636,645.970573 279.108089,646.000021 278.66228,646.000021 M208.905822,654.333756 C202.65812,654.333756 197.314774,648.85646 196.684272,641.523951 C196.015557,633.712915 200.951306,626.755866 207.708505,625.982861 C216.790283,624.944825 225.827479,623.899427 234.730933,622.846667 C241.469026,622.081024 247.512929,627.742368 248.207119,635.546043 C248.88857,643.357079 243.978297,650.328852 237.221098,651.123943 C228.298538,652.176703 219.235866,653.222101 210.128614,654.267498 C209.721017,654.31167 209.307051,654.333756 208.905822,654.333756 M139.098415,662.144792 C132.837975,662.144792 127.488261,656.645411 126.876865,649.290816 C126.220888,641.47978 131.175742,634.537454 137.932942,633.786535 L165.012687,630.782857 C171.718937,630.009851 177.775578,635.752177 178.431555,643.570575 C179.074795,651.381611 174.126308,658.323937 167.362741,659.074856 L140.282995,662.078535 C139.888135,662.122706 139.486906,662.144792 139.098415,662.144792 M69.2782705,670 C63.0496742,670 57.7063282,664.537428 57.0630887,657.212281 C56.381637,649.401245 61.2982795,642.436834 68.0554786,641.649105 C76.4685417,640.662602 85.5630566,639.624567 95.1734368,638.542359 C101.962479,637.850335 107.942696,643.496956 108.605042,651.307992 C109.261019,659.119028 104.318901,666.068715 97.5617022,666.834359 C87.9831656,667.909204 78.9141255,668.94724 70.5265372,669.92638 C70.1062025,669.970552 69.6858678,670 69.2782705,670" id="Fill-53"></path>
                <path d="M13.2179395,675 C7.20432821,675 1.77290026,670.962489 0.34826342,664.986704 C-1.30924675,658.025016 3.10849729,651.063327 10.2248323,649.440274 C13.1836934,648.762885 17.9096521,648.025133 25.0670824,647.113005 C32.3135525,646.174049 38.9435932,651.190757 39.8887849,658.279875 C40.8271274,665.368993 35.7244618,671.867911 28.484841,672.786746 C20.8822117,673.759237 17.6288343,674.342731 16.2247451,674.657952 C15.2179104,674.892691 14.2110757,675 13.2179395,675" id="Fill-55"></path>
                <path d="M591.521498,371 C585.743557,371 580.398265,367.188354 578.632783,361.27569 L574.578455,347.668753 C572.429173,340.428755 576.455588,332.777072 583.566362,330.583778 C590.70505,328.411779 598.213581,332.486052 600.369842,339.72605 L604.417191,353.311692 C606.573452,360.55169 602.560993,368.203373 595.44324,370.410863 C594.138319,370.808353 592.819441,371 591.521498,371" id="Fill-58"></path>
                <path d="M531.656558,163.401345 C526.492771,163.401345 521.715646,159.564559 520.137822,153.605751 L512.523109,124.790558 C510.589807,117.502808 514.182006,109.800657 520.549428,107.592897 C526.93556,105.392282 533.633514,109.507718 535.560579,116.788323 L543.187766,145.61066 C545.108595,152.898411 541.516396,160.600562 535.15521,162.808322 C533.988992,163.208434 532.816538,163.401345 531.656558,163.401345 M551.307632,237.707817 C546.13761,237.707817 541.366721,233.871031 539.788897,227.912224 L532.167947,199.097031 C530.234645,191.802136 533.833081,184.099984 540.18803,181.892225 C546.574162,179.684465 553.278353,183.792756 555.205418,191.087651 L562.832604,219.917133 C564.765906,227.204883 561.161234,234.89989 554.800048,237.114794 C553.633831,237.514906 552.461377,237.707817 551.307632,237.707817 M570.958707,312 C565.788685,312 561.011559,308.163214 559.433735,302.204406 L551.812785,273.396359 C549.88572,266.108608 553.477919,258.406457 559.845342,256.191552 C566.219,253.976648 572.923191,258.092083 574.856493,265.386978 L582.477443,294.209316 C584.410744,301.497066 580.812309,309.199218 574.444887,311.406977 C573.284906,311.807089 572.106215,312 570.958707,312" id="Fill-60"></path>
                <path d="M516.519996,90 C510.742537,90 505.390712,86.1883542 503.632355,80.2685915 L499.578364,66.6616549 C497.429261,59.4216574 501.455341,51.7699737 508.572501,49.5837783 C515.710594,47.4117791 523.211522,51.4860522 525.367603,58.7260498 L529.421593,72.3258883 C531.570697,79.5658859 527.544617,87.2175696 520.434434,89.4108629 C519.129622,89.808353 517.817831,90 516.519996,90" id="Fill-62"></path>
                <path d="M213.22859,832 C208.811671,832 204.546623,829.258238 202.369803,824.474586 C199.2691,817.641827 201.610447,809.243378 207.596702,805.700733 L355.171161,718.563216 C361.157416,715.027786 368.529494,717.690181 371.630197,724.52294 C374.7309,731.355699 372.389553,739.754148 366.403298,743.296793 L218.835167,830.441525 C217.044353,831.502154 215.120651,832 213.22859,832" id="Fill-64"></path>
                <path d="M23.755593,949 C18.7870571,949 13.989359,946.162215 11.5406823,941.211026 C8.05274158,934.138966 10.6864927,925.438913 17.427472,921.779664 L26.9374491,916.619375 C33.6641919,912.960126 41.9711854,915.708297 45.4591261,922.787824 C48.9470668,929.859884 46.3133157,938.552469 39.5794546,942.211719 L30.0694775,947.386943 C28.0478956,948.484718 25.8839487,949 23.755593,949" id="Fill-66"></path>
                <path d="M109.417324,895.727749 C105.041318,895.727749 100.815775,892.996726 98.6591189,888.23181 C95.5871371,881.425814 97.9067968,873.053074 103.843872,869.531492 L122.332186,858.557093 C128.256723,855.035511 135.566785,857.687478 138.638767,864.493474 C141.717018,871.292283 139.397359,879.665023 133.466553,883.193792 L114.978238,894.175378 C113.197743,895.231853 111.29186,895.727749 109.417324,895.727749 M60.1151517,925 C55.7328757,925 51.5136028,922.268977 49.3569462,917.504061 C46.2849644,910.698065 48.6046241,902.325325 54.5416991,898.803743 L73.0237445,887.829344 C78.9420114,884.307762 86.2583435,886.952542 89.3365946,893.765725 C92.4148457,900.564534 90.095186,908.937274 84.1643804,912.466043 L65.6697963,923.440442 C63.8893008,924.496917 61.9896875,925 60.1151517,925" id="Fill-68"></path>
                <path d="M162.758825,869 C157.789746,869 152.991523,866.169582 150.542579,861.218217 C147.054257,854.145905 149.681177,845.445543 156.415774,841.778695 L165.926792,836.618223 C172.668508,832.958843 180.962172,835.71458 184.457613,842.779423 C187.945936,849.851735 185.319015,858.552097 178.577299,862.211477 L169.073401,867.379418 C167.051597,868.477231 164.887414,869 162.758825,869" id="Fill-70"></path>
                <path d="M1049.87295,1040 C1046.78231,1040 1043.69167,1038.6744 1041.32343,1036.02319 L902.577536,880.381563 C897.828502,875.057877 897.803375,866.388279 902.527281,861.029148 C907.244906,855.677107 914.927535,855.65584 919.676568,860.972438 L1058.42246,1016.61406 C1063.1715,1021.93775 1063.19662,1030.60734 1058.47272,1035.96647 C1056.10448,1038.65313 1052.98872,1040 1049.87295,1040" id="Fill-72"></path>
                <path d="M1097.85944,1086 C1094.77085,1086 1091.68227,1084.7148 1089.31079,1082.13058 L1082.58007,1074.7925 C1077.82453,1069.59642 1077.80566,1061.15279 1082.52975,1055.92907 C1087.26641,1050.71226 1094.94698,1050.68462 1099.70881,1055.8807 L1106.40808,1063.19114 C1111.16991,1068.38031 1111.20137,1076.82394 1106.47728,1082.05457 C1104.1058,1084.68716 1100.98576,1086 1097.85944,1086" id="Fill-74"></path>
                <path d="M1135.71805,1129.44216 C1132.55107,1129.44216 1129.3841,1128.09972 1126.95738,1125.40766 L1113.67154,1110.6839 C1108.79877,1105.29261 1108.77303,1096.52009 1113.6136,1091.08572 C1118.44774,1085.66571 1126.32656,1085.62982 1131.18644,1091.02829 L1144.47872,1105.75923 C1149.34504,1111.15771 1149.36436,1119.93022 1144.53022,1125.35741 C1142.09705,1128.07819 1138.91077,1129.44216 1135.71805,1129.44216 M1171.15339,1168.72467 C1167.98642,1168.72467 1164.81944,1167.38223 1162.39272,1164.69017 L1149.10688,1149.96641 C1144.23412,1144.56794 1144.20837,1135.79542 1149.04895,1130.36823 C1153.88952,1124.94822 1161.76833,1124.91233 1166.62179,1130.3108 L1179.91406,1145.04174 C1184.78039,1150.43303 1184.7997,1159.20555 1179.96556,1164.63274 C1177.53239,1167.36069 1174.34611,1168.72467 1171.15339,1168.72467 M1206.57586,1208 C1203.40888,1208 1200.23547,1206.65756 1197.80875,1203.97268 L1184.52935,1189.24892 C1179.65658,1183.85045 1179.63084,1175.07793 1184.47141,1169.65074 C1189.30555,1164.22355 1197.18437,1164.18766 1202.04425,1169.58613 L1215.33653,1184.32425 C1220.20285,1189.71554 1220.22217,1198.48806 1215.38802,1203.91525 C1212.95486,1206.63602 1209.76858,1208 1206.57586,1208" id="Fill-76"></path>
                <path d="M1233.85653,1242 C1230.7611,1242 1227.66567,1240.70789 1225.29376,1238.11676 L1218.58071,1230.7925 C1213.82432,1225.59642 1213.80544,1217.15279 1218.53038,1211.92907 C1223.26789,1206.71226 1230.94984,1206.68462 1235.71253,1211.8807 L1242.41929,1219.20496 C1247.17568,1224.40104 1247.19456,1232.84467 1242.46962,1238.06839 C1240.09143,1240.69407 1236.97712,1242 1233.85653,1242" id="Fill-78"></path>
                <path d="M690.760073,391 C690.522734,391 690.291481,390.99276 690.048056,390.971042 C683.572953,390.514946 678.637513,383.897943 679.020907,376.194998 L686.530566,226.146842 C686.907874,218.443897 692.561418,212.536376 698.951322,213.028669 C705.426424,213.484765 710.36795,220.101768 709.97847,227.804713 L702.474897,377.852868 C702.103674,385.273469 696.930895,391 690.760073,391" id="Fill-80"></path>
                <path d="M706.206141,175 C705.939617,175 705.679928,174.992356 705.413404,174.969425 C698.135262,174.487869 692.59294,167.501478 693.023478,159.368524 L693.638532,147.879962 C694.06907,139.739365 700.410963,133.51735 707.586596,134.029481 C714.864738,134.511037 720.40706,141.497428 719.976522,149.630382 L719.361468,161.118944 C718.944598,168.953791 713.135752,175 706.206141,175" id="Fill-82"></path>
                <path d="M715.395837,82.7887344 C715.121816,82.7887344 714.854822,82.7818832 714.580801,82.7613296 C707.097929,82.3297047 701.399704,76.0677186 701.842353,68.7780541 L702.903305,51.4445475 C703.338927,44.1480319 709.86624,38.5369086 717.250746,39.0301942 C724.719566,39.4686702 730.424817,45.7306564 729.975142,53.0203208 L728.921216,70.3469763 C728.49262,77.3694443 722.520374,82.7887344 715.395837,82.7887344 M712.578342,129 C712.304322,129 712.030301,128.986298 711.749254,128.972595 C704.280434,128.534119 698.575183,122.272133 699.024858,114.982469 L700.071758,97.6695155 C700.50738,90.3729999 707.034693,84.8372397 714.398121,85.2346086 C721.880993,85.6593823 727.586244,91.9145173 727.150621,99.2041817 L726.096695,116.558242 C725.675125,123.58071 719.695854,129 712.578342,129" id="Fill-84"></path>
                <path d="M713.717024,41 C713.460372,41 713.210301,40.9923569 712.953648,40.9694275 C705.945067,40.4879103 700.608016,33.5020897 701.022608,25.3697995 L701.614883,13.8821754 C702.029475,5.74224218 708.064094,-0.509838008 715.046352,0.0328242088 C722.054933,0.514341387 727.391984,7.50016203 726.977392,15.6324522 L726.385117,27.1200763 C725.983687,34.9542843 720.389983,41 713.717024,41" id="Fill-86"></path>
                <path d="M915.113343,670 C909.468634,670 904.41414,665.580574 903.246269,659.172057 C901.908869,651.853039 906.153388,644.716122 912.708534,643.231307 L1040.46481,614.270411 C1047.05135,612.792599 1053.4244,617.520194 1054.75553,624.832208 C1056.08665,632.151225 1051.84841,639.288143 1045.29326,640.772958 L917.543268,669.72685 C916.727014,669.90895 915.91076,670 915.113343,670" id="Fill-89"></path>
                <path d="M1106.37072,632 C1100.13915,632 1094.55917,627.299286 1093.26988,620.475429 C1091.80037,612.690569 1096.47924,605.10685 1103.72282,603.52008 L1113.96782,601.285192 C1121.2114,599.72077 1128.27477,604.749268 1129.73041,612.526678 C1131.19993,620.311537 1126.51412,627.902706 1119.27054,629.482026 L1109.04634,631.709465 C1108.14522,631.903155 1107.25104,632 1106.37072,632" id="Fill-91"></path>
                <path d="M1183.41702,607.342931 C1177.80038,607.342931 1172.77102,602.812365 1171.60896,596.242686 C1170.27821,588.739609 1174.49537,581.423213 1181.02417,579.901057 L1196.54334,576.275169 C1203.0534,574.767374 1209.4385,579.606678 1210.75675,587.102575 C1212.08126,594.605651 1207.86409,601.922048 1201.33529,603.444203 L1185.83486,607.062911 C1185.02267,607.249591 1184.21047,607.342931 1183.41702,607.342931 M1142.05131,617 C1136.42842,617 1131.40531,612.469434 1130.24325,605.899755 C1128.91874,598.396679 1133.13591,591.080282 1139.66471,589.558127 L1155.17763,585.939418 C1161.68769,584.402903 1168.07279,589.263748 1169.39729,596.759644 C1170.72179,604.26272 1166.50463,611.579117 1159.97583,613.101272 L1144.46291,616.719981 C1143.65696,616.91384 1142.84476,617 1142.05131,617" id="Fill-93"></path>
                <path d="M1225.28788,599 C1219.56086,599 1214.42629,594.746904 1213.24776,588.589335 C1211.89723,581.556921 1216.20364,574.699476 1222.86074,573.272805 L1232.24439,571.260659 C1238.88238,569.840717 1245.39297,574.362997 1246.74987,581.395411 C1248.10677,588.427825 1243.80673,595.28527 1237.156,596.718671 L1227.74049,598.737546 C1226.91871,598.912515 1226.09692,599 1225.28788,599" id="Fill-95"></path>
                <path d="M376.365565,535 C374.619359,535 372.860072,534.601123 371.172726,533.759855 L247.427499,471.759868 C241.077062,468.576105 238.251739,460.286716 241.122843,453.237472 C243.987407,446.188228 251.462741,443.062483 257.826258,446.246246 L381.571485,508.238981 C387.928462,511.422744 390.747245,519.719386 387.876141,526.761377 C385.763689,531.939526 381.172539,535 376.365565,535" id="Fill-98"></path>
                <path d="M203.346553,448 C201.459357,448 199.558024,447.582767 197.734442,446.702785 L188.036939,441.999432 C181.166697,438.676741 178.113256,429.998296 181.209106,422.624653 C184.312024,415.258596 192.397988,411.973835 199.261162,415.296526 L208.972801,420.007465 C215.835975,423.337742 218.889416,432.016186 215.786498,439.382244 C213.503485,444.798686 208.541644,448 203.346553,448" id="Fill-100"></path>
                <path d="M128.821234,411.734494 C127.131903,411.734494 125.429918,411.333846 123.791204,410.481558 L109.188297,402.883814 C103.0447,399.685914 100.305073,391.359719 103.08899,384.279176 C105.860252,377.205917 113.092107,374.04444 119.242031,377.256908 L133.857592,384.861937 C140.007516,388.059836 142.734488,396.386031 139.956899,403.466575 C137.913252,408.66043 133.465313,411.734494 128.821234,411.734494 M167.777081,432 C166.094077,432 164.385765,431.599352 162.74705,430.747064 L148.150471,423.149321 C142.000547,419.951421 139.26092,411.625226 142.044836,404.544682 C144.816099,397.464139 152.060608,394.309946 158.204205,397.51513 L172.813439,405.120159 C178.963363,408.318058 181.690335,416.651538 178.912746,423.724797 C176.875425,428.925937 172.427487,432 167.777081,432" id="Fill-102"></path>
                <path d="M91.341358,391 C89.4610516,391 87.5595387,390.582706 85.7357828,389.702596 L76.0232225,384.990971 C69.1523284,381.660208 66.1127353,372.980499 69.2159478,365.613369 C72.3262291,358.246238 80.4200293,354.976173 87.269717,358.299348 L96.9681397,363.003386 C103.839034,366.334149 106.885696,375.013858 103.789552,382.380988 C101.506323,387.798219 96.5369416,391 91.341358,391" id="Fill-104"></path>
                <path d="M504.573669,395 C500.676505,395 496.830873,392.974281 494.408834,389.192939 L417.277186,268.630672 C413.315606,262.43979 414.655457,253.882016 420.266086,249.510728 C425.876714,245.139439 433.638835,246.624967 437.600415,252.80874 L514.725622,373.363899 C518.68076,379.554781 517.34735,388.119663 511.736722,392.483844 C509.553022,394.182605 507.053683,395 504.573669,395" id="Fill-106"></path>
                <path d="M398.347532,224 C394.378756,224 390.455901,222.094802 387.989356,218.531747 L382.328111,210.356107 C378.287176,204.533553 379.638528,196.484927 385.358812,192.367024 C391.059417,188.262492 398.970728,189.626213 403.005103,195.448766 L408.686028,203.657831 C412.713843,209.480384 411.349371,217.529011 405.635647,221.640228 C403.41838,223.231236 400.873116,224 398.347532,224" id="Fill-108"></path>
                <path d="M312.15564,86.6506898 C308.250889,86.6506898 304.410574,84.6286394 301.981381,80.8541454 L290.280015,62.5989326 C286.317273,56.4192628 287.651074,47.8769868 293.263348,43.5136149 C298.862735,39.1431481 306.633575,40.6188901 310.602761,46.7985599 L322.304126,65.0537727 C326.266868,71.2334425 324.926624,79.7757185 319.31435,84.1390904 C317.136453,85.8347748 314.636381,86.6506898 312.15564,86.6506898 M343.367872,135.335987 C339.456678,135.335987 335.622805,133.313937 333.193612,129.532348 L321.492247,111.28423 C317.529505,105.10456 318.863306,96.5551893 324.47558,92.1989123 C330.08141,87.8284455 337.845807,89.3041875 341.814993,95.4838573 L353.516358,113.73907 C357.4791,119.91874 356.138855,128.461016 350.526582,132.824388 C348.348684,134.520072 345.848613,135.335987 343.367872,135.335987 M374.57366,184 C370.662466,184 366.82215,181.985045 364.392957,178.203456 L352.698035,159.955338 C348.735293,153.768573 350.075538,145.226297 355.687812,140.862925 C361.306529,136.506648 369.058039,137.98239 373.020781,144.154965 L384.722146,162.403083 C388.684888,168.582753 387.344644,177.125029 381.73237,181.495495 C379.554473,183.184085 377.047958,184 374.57366,184" id="Fill-110"></path>
                <path d="M279.349457,38 C275.374254,38 271.464649,36.0945719 268.998187,32.5377727 L263.324011,24.3477745 C259.283211,18.5245187 260.647637,10.4749205 266.361171,6.3632071 C272.074705,2.25817945 279.979192,3.63543629 284.006872,9.45200641 L289.681048,17.6486903 C293.715288,23.4719461 292.350862,31.5215443 286.637328,35.6332577 C284.420136,37.231143 281.874957,38 279.349457,38" id="Fill-112"></path>
                <path d="M732.308367,1109 C726.179871,1109 721.04355,1103.28759 720.66241,1095.87377 L713.021452,945.830703 C712.634262,938.127276 717.534639,931.502619 723.971677,931.032014 C730.324017,930.51073 735.944326,936.418621 736.337566,944.136528 L743.978524,1094.17235 C744.365714,1101.87578 739.471387,1108.50044 733.028299,1108.97104 C732.786305,1108.99276 732.550361,1109 732.308367,1109" id="Fill-114"></path>
                <path d="M747.797201,1332 C740.869343,1332 735.061967,1325.95467 734.645203,1318.12096 L734.023472,1306.63407 C733.593043,1298.50229 739.133963,1291.51692 746.410263,1291.03543 C753.604577,1290.46987 759.924368,1296.74449 760.354797,1304.8839 L760.976528,1316.37079 C761.406957,1324.50257 755.866037,1331.48794 748.589737,1331.96943 C748.323281,1331.99236 748.063657,1332 747.797201,1332" id="Fill-116"></path>
                <path d="M744.58268,1238.78741 C737.486277,1238.78741 731.538749,1233.38086 731.097413,1226.364 L730.025597,1209.03428 C729.57025,1201.73648 735.24457,1195.46653 742.698245,1195.02797 C750.228978,1194.55516 756.5618,1200.13301 757.017146,1207.42397 L758.095968,1224.75369 C758.544309,1232.0515 752.876994,1238.32144 745.416314,1238.76 C745.136101,1238.78056 744.855888,1238.78741 744.58268,1238.78741 M747.461872,1285 C740.365469,1285 734.417941,1279.5866 733.976605,1272.56974 L732.897783,1255.25373 C732.435431,1247.96277 738.102746,1241.68597 745.563426,1241.23371 C752.954053,1240.7746 759.433986,1246.32505 759.896338,1253.616 L760.97516,1270.96628 C761.423501,1278.25724 755.749181,1284.52718 748.295506,1284.97259 C748.015293,1284.9863 747.73508,1285 747.461872,1285" id="Fill-118"></path>
                <path d="M736.80048,1195 C729.888799,1195 724.090364,1188.97638 723.653262,1181.14874 L723.024927,1169.65188 C722.580995,1161.51847 728.119901,1154.52404 735.379897,1154.02717 C742.605745,1153.53794 748.90275,1159.71444 749.346682,1167.8555 L749.975017,1179.33706 C750.418949,1187.47048 744.893702,1194.47255 737.626876,1194.96942 C737.346858,1194.99236 737.073669,1195 736.80048,1195" id="Fill-120"></path>
                <path d="M383.56199,1131 C380.879208,1131 378.183403,1130.05842 375.891317,1128.11057 C370.402032,1123.43141 369.373198,1114.7128 373.618766,1108.64643 L497.476048,931.399135 C501.715105,925.339951 509.600661,924.204303 515.109481,928.890647 C520.605277,933.569803 521.621088,942.288415 517.382032,948.354786 L393.518238,1125.60208 C391.043827,1129.1384 387.325699,1131 383.56199,1131" id="Fill-122"></path>
                <path d="M216.512746,1355 C213.84048,1355 211.155243,1354.11855 208.872142,1352.29509 C203.404376,1347.91474 202.379575,1339.75962 206.6085,1334.08065 L212.562722,1326.06684 C216.778675,1320.38113 224.639805,1319.31801 230.120543,1323.70508 C235.594795,1328.0787 236.619596,1336.23382 232.397157,1341.91952 L226.436449,1349.94006 C223.965252,1353.25728 220.2617,1355 216.512746,1355" id="Fill-124"></path>
                <path d="M305.705943,1233.76576 C303.014733,1233.76576 300.297331,1232.81469 297.99245,1230.84719 C292.472522,1226.11359 291.444493,1217.31431 295.713761,1211.18677 L307.34948,1194.45943 C311.599104,1188.32462 319.535228,1187.19204 325.074799,1191.91839 C330.607823,1196.63747 331.629304,1205.444 327.373132,1211.57155 L315.724317,1228.31341 C313.229545,1231.89265 309.490662,1233.76576 305.705943,1233.76576 M274.668628,1278.38651 C271.977418,1278.38651 269.260015,1277.42818 266.955135,1275.46068 C261.428659,1270.73434 260.407178,1261.9278 264.669898,1255.80751 L276.312165,1239.08018 C280.561789,1232.94537 288.497913,1231.79827 294.037484,1236.53187 C299.570507,1241.25822 300.591989,1250.05749 296.329269,1256.18504 L284.687002,1272.9269 C282.19223,1276.50614 278.453347,1278.38651 274.668628,1278.38651 M243.631313,1323 C240.933554,1323 238.216152,1322.04892 235.917819,1320.08143 C230.391344,1315.34782 229.369863,1306.54855 233.632583,1300.421 L245.27485,1283.69367 C249.524474,1277.55886 257.460597,1276.41902 263.000169,1281.15262 C268.526644,1285.8717 269.554674,1294.67824 265.291954,1300.80579 L253.649686,1317.54764 C251.154915,1321.12689 247.416032,1323 243.631313,1323" id="Fill-126"></path>
                <path d="M335.509498,1188 C332.837581,1188 330.146208,1187.11836 327.863406,1185.28779 C322.396352,1180.89981 321.384655,1172.74299 325.613029,1167.06284 L331.566475,1159.06082 C335.794849,1153.37393 343.654954,1152.32405 349.128493,1156.7053 C354.595546,1161.08656 355.620213,1169.24337 351.39184,1174.92353 L345.425423,1182.95247 C342.961034,1186.26365 339.257964,1188 335.509498,1188" id="Fill-128"></path>
            </g>
        </g>
    </g>
</svg>