<svg xmlns="http://www.w3.org/2000/svg" viewBox="0 0 239.99 239.99"><defs><style>.cls-1{fill:#34446a;}.cls-2{fill:none;stroke:#fff;stroke-miterlimit:10;stroke-width:2.33px;}</style></defs><title>day19</title><g id="Layer_2" data-name="Layer 2"><g id="Layer_1-2" data-name="Layer 1"><polygon class="cls-1" points="239.99 239.99 0 239.99 0 0 239.99 239.99"/><path class="cls-2" d="M108.59,148.28v18.54h-47V148.28h8.13a3.22,3.22,0,0,0,3.35-3.11V107H61.57V88.83H69c8,0,10.17-3.83,10.17-5.74H97.1v62.45a2.78,2.78,0,0,0,2.75,2.75Z"/><path class="cls-2" d="M147.35,83c24.4,0,37.2,19.26,37.2,41.75,0,21.05-9.21,42.35-36.25,42.35-13.76,0-29.67-7.78-29.67-21.41,0-6.34,2.75-10.89,10.41-10.89,3,0,9.69.72,9.69,7.9,0,1.91-.6,2.27-.6,4.43,0,3,4.55,4.55,7.54,4.55,10.65,0,11-13.28,11.13-26.68a19.42,19.42,0,0,1-15.91,8.37c-13,0-25.12-9.45-25.12-23.57C115.76,92.9,127.25,83,147.35,83Zm.84,36.85c4.67,0,8.61-4.9,8.61-11.12s-3.95-11.13-8.61-11.13-8.49,4.9-8.49,11.13S143.4,119.81,148.18,119.81Z"/></g></g></svg>