<svg xmlns="http://www.w3.org/2000/svg" viewBox="0 0 102.88 62.44"><defs><style>.cls-1{fill:#e65c7d;}.cls-2{fill:#fff;}</style></defs><title>day14</title><g id="Layer_2" data-name="Layer 2"><g id="Layer_1-2" data-name="Layer 1"><path class="cls-1" d="M29.26,34.18c1.1,8.84,6.91,13.69,15.11,14.67l-.07,6.06L43,54.9a23.07,23.07,0,0,1-14.56-5l-4,4.73-3.85-4.83A23.06,23.06,0,0,1,5.9,54.45l-1.35,0,.07-6.06c8.23-.78,14.15-5.49,15.47-14.3L10.87,34,11,27.22l9.43.11v-.94c.1-8-2.07-12.89-7.39-13-1.82,0-3.17.57-5.28,1.89l-1.34-.69.06-5.32a15.18,15.18,0,0,1,8-2.6,12.23,12.23,0,0,1,8.44,3.67L26.7,6.86l3,4.42a27.89,27.89,0,0,1,8.41-4.41l1.7,3.86c-5.23,3.57-9.53,7.83-10.51,16.71l9.3.11-.08,6.74Z"/><path class="cls-1" d="M24.34,61.78l-4.76-6A28.5,28.5,0,0,1,5.85,58.95L0,58.87.18,44.27l4-.38c4.58-.43,7.83-2.24,9.72-5.39L6.31,38.4l.19-15.74,9.24.11c-.29-2.62-1-4.82-2.8-4.84-.57,0-1,.07-2.83,1.2L7.95,20.5,1.85,17.36,2,6.76l2.13-1.3A19.78,19.78,0,0,1,14.49,2.21,16.16,16.16,0,0,1,22.6,4.52L27.49,0l3.43,5.09a31.83,31.83,0,0,1,5.78-2.51l3.85-1.23,4.85,11-3.09,2.11c-3.53,2.41-6.05,4.79-7.46,8.57l8.26.1-.19,15.74-7.61-.09c1.81,3.2,5,5.08,9.58,5.63l4,.48-.18,14.61L42.9,59.4a28.27,28.27,0,0,1-13.65-3.47Zm-3-18.18,3.15,4,3.24-3.87a22.73,22.73,0,0,1-3-8.95l-.11-.9-.13.89A22.72,22.72,0,0,1,21.37,43.61Zm1.94-27.49A26.38,26.38,0,0,1,24.9,26.18a26.69,26.69,0,0,1,3-9.48l-2-3Z"/><path class="cls-1" d="M83.21,34.84c1.1,8.84,6.91,13.69,15.11,14.67l-.07,6.06-1.35,0a23.06,23.06,0,0,1-14.56-5l-4,4.73L74.53,50.5a23.07,23.07,0,0,1-14.68,4.6l-1.35,0L58.58,49c8.63-.84,14.82-5.48,16.14-14.29l-30.85-.38.07-6.06C57.67,24.89,66,18,69.74,7.39a21.85,21.85,0,0,1,6.28,4l4-3.86,3.38,4.62A28.32,28.32,0,0,1,92,7.53l1.7,3.86C88.51,15,84.21,19.22,83.23,28.1l14.68.18L97.83,35ZM74.88,28a24.94,24.94,0,0,0-2.24-9.66A27.29,27.29,0,0,1,61,27.83Z"/><path class="cls-1" d="M78.29,62.44l-4.76-6A28.83,28.83,0,0,1,59.8,59.6L54,59.54l.18-14.6,4-.39c4.87-.47,8.32-2.28,10.31-5.39L39.32,38.8l.17-14,3.37-.84c12.2-3,19.39-8.75,22.62-18l1.57-4.5,4.4,1.82a26,26,0,0,1,4.2,2.21L80.55.67,84.44,6a34.6,34.6,0,0,1,6.17-2.74L94.5,2l4.87,11L96.28,15.1c-3.53,2.41-6.05,4.79-7.46,8.57l13.65.17-.19,15.74-13-.16c1.81,3.2,5,5.08,9.58,5.63l4,.48-.18,14.61-5.85-.07A28.27,28.27,0,0,1,83.2,56.59ZM75.63,44.66l2.83,3.56,3.24-3.87a22.17,22.17,0,0,1-2.77-7.63A21.2,21.2,0,0,1,75.63,44.66ZM76.9,16.81a27.52,27.52,0,0,1,2.23,8.29,25.94,25.94,0,0,1,2.62-7.54l-2.34-3.2Z"/><path class="cls-2" d="M29.26,34.18c1.1,8.84,6.91,13.69,15.11,14.67l-.07,6.06L43,54.9a23.07,23.07,0,0,1-14.56-5l-4,4.73-3.85-4.83A23.06,23.06,0,0,1,5.9,54.45l-1.35,0,.07-6.06c8.23-.78,14.15-5.49,15.47-14.3L10.87,34,11,27.22l9.43.11v-.94c.1-8-2.07-12.89-7.39-13-1.82,0-3.17.57-5.28,1.89l-1.34-.69.06-5.32a15.18,15.18,0,0,1,8-2.6,12.23,12.23,0,0,1,8.44,3.67L26.7,6.86l3,4.42a27.89,27.89,0,0,1,8.41-4.41l1.7,3.86c-5.23,3.57-9.53,7.83-10.51,16.71l9.3.11-.08,6.74Z"/><path class="cls-2" d="M83.21,34.84c1.1,8.84,6.91,13.69,15.11,14.67l-.07,6.06-1.35,0a23.06,23.06,0,0,1-14.56-5l-4,4.73L74.53,50.5a23.07,23.07,0,0,1-14.68,4.6l-1.35,0L58.58,49c8.63-.84,14.82-5.48,16.14-14.29l-30.85-.38.07-6.06C57.67,24.89,66,18,69.74,7.39a21.85,21.85,0,0,1,6.28,4l4-3.86,3.38,4.62A28.32,28.32,0,0,1,92,7.53l1.7,3.86C88.51,15,84.21,19.22,83.23,28.1l14.68.18L97.83,35ZM74.88,28a24.94,24.94,0,0,0-2.24-9.66A27.29,27.29,0,0,1,61,27.83Z"/></g></g></svg>