<svg xmlns="http://www.w3.org/2000/svg" viewBox="0 0 384.36 384.41"><defs><style>.cls-1{fill:#8cbdd6;}</style></defs><title>day11bg</title><g id="Layer_2" data-name="Layer 2"><g id="Layer_1-2" data-name="Layer 1"><path class="cls-1" d="M0,384.17c.41,0,.83.05,1.24.06H27.5l-.4-1.42a3.27,3.27,0,0,1,2-.36c.35,0,.7,0,1.05,0,1.12,0,1.14,0,1.4-1.09.12-.53.22-1.06.34-1.63.51-.17,1-.3,1.46.2l-.25.63,1,.57c.68-.35,1.4-.69,2.09-1.09s.72-.37,1.05.18a8,8,0,0,1,.36.74l-2.06,2.95a.87.87,0,0,0,.07.18.13.13,0,0,0,.08,0l100.25,0a1.67,1.67,0,0,0,.38,0c.05,0,.09-.08.22-.19l-.83-.55a1,1,0,0,1-.52-1.12.92.92,0,0,1,.92-.7l1.44-.19c.47.27,1,.58,1.47.83s1,.13,1.16-.53a7.62,7.62,0,0,1,.43-1.29c0,.2.1.39.14.59.09.46.38.55.82.62a11.63,11.63,0,0,0,3.51-.13c1.24-.17,1.53.3,1.1,1.5a5.72,5.72,0,0,0-.15,1.15H290.9a5.14,5.14,0,0,1,.42-.84c.31-.41.62-.8,1.27-.55a5.17,5.17,0,0,0,1.31.12l-.12,1.3c1.47.08,2.93-.19,4.41,0a37.26,37.26,0,0,0,4.51,0H384l.12-.12s.06,0,.06-.07c0-.32.05-.64.05-1q0-73.56,0-147.12s-.06-.1-.13-.19a4.9,4.9,0,0,1-1.35,1,5.85,5.85,0,0,1-1.83-.12c.27-.33.44-.54.6-.76a4.27,4.27,0,0,0,.88-1.44,2.43,2.43,0,0,1,1.07-1.17,1.59,1.59,0,0,0,.78-1.69,2.45,2.45,0,0,1,0-.58,1.12,1.12,0,0,0-.64-1.17c-1.32-.83-2.63-1.68-4-2.56.28-.56.84-.64,1.4-.71l3.23-.41V225q0-47.92,0-95.84a4.32,4.32,0,0,1,0-.48.81.81,0,0,0-.69-1,12,12,0,0,1-1.42-.55c-.79-.34-1-.25-1,.59s-.09,1.6-.18,2.39a2,2,0,0,1-1.23,1.8,15.84,15.84,0,0,1-1.05-5.85c-1,0-1.53.68-2.2,1.07s-1.28.82-2,1.27l-.62-1c.2-.9,1.14-1.16,1.67-1.84l-2.28-1c.08-.55.33-.73.73-.74l1.63-.06,1.19-.08a1.8,1.8,0,0,0-1-1.11,4.52,4.52,0,0,1-1.71-2.56c-.25-.57-.08-.79.5-1a1.56,1.56,0,0,1,2,.47,11.82,11.82,0,0,0,2.61,2c.22-.87.4-1.6.58-2.33,0-.19.06-.38.11-.57.26-1.07.69-1.29,1.73-.84.2.09.39.2.65.33a6.6,6.6,0,0,0-1,4,13.6,13.6,0,0,0,2.92-.58v-1.08q0-59.78,0-119.56c0-.32,0-.64-.06-1,.06,0,.18.06.18.1,0,.26,0,.51,0,.77V384.36H.86C.58,384.35.21,384.57,0,384.17Z"/><path class="cls-1" d="M0,227.43c.53,0,.77-.23.8-.82a1.78,1.78,0,0,1,2.42-1.68c.2,1.18,0,2.45.58,3.69l.89-.37c.68-.26,1.35-.57,2.06-.77a1.64,1.64,0,0,1,1.54.26,8.61,8.61,0,0,0,1.21.66l-2.76,1.47c.77,1,1.91,1.2,2.88,1.75-1.45.66-1.45.66-1.48,1.36H4.5c0,.43,0,.81,0,1.18.06,1.21.18,2.42.19,3.64a3.32,3.32,0,0,1-.39,1.35,1.07,1.07,0,0,1-1.29.57,1.14,1.14,0,0,1-1-1c-.16-.94-.3-1.89-.44-2.84-.09-.56-.16-1.11-.26-1.76a3.42,3.42,0,0,0-.57.07c-.26.08-.52.2-.77.3v-2.69c.69-.59.69-.67,0-1Z"/><path class="cls-1" d="M146.17,0A8.86,8.86,0,0,1,146,1.64a8.59,8.59,0,0,1-.79,1.46l.48,1a5.7,5.7,0,0,1-2.81.58c-.25,0-.51,0-.77,0a1.15,1.15,0,0,0-1.13,1.27c0,.51,0,1,0,1.53a1.9,1.9,0,0,1-1.14,1.75c-.11-.41-.24-.78-.3-1.16s-.07-.82-.1-1.19c-.58-.28-.93.08-1.32.26a2.32,2.32,0,0,1-2.45-.43l2.52-3a4,4,0,0,0-.82-.1c-1.62.2-3.23.42-4.85.62a10.31,10.31,0,0,1-1.34,0,.63.63,0,0,1-.67-.49A2.7,2.7,0,0,1,132,2.91c1.44-.24,2.87-.57,4.31-.87,0,0,.08-.09.2-.24-.29-.18-.58-.34-.86-.52-.57-.38-.61-.51-.45-1.28Z"/><path class="cls-1" d="M32.87,7.08c-.27.88-.53,1.77-.81,2.65a1.75,1.75,0,0,1-.24.52c-.27.36-.58.37-.84,0a3.49,3.49,0,0,1-.42-.84c-.13-.35-.21-.73-.31-1.11h-.59a2.13,2.13,0,0,1-2.11-.76,2.72,2.72,0,0,0-1-.64c-.35-.18-.73-.29-.66-.84a3.57,3.57,0,0,1,1.68-.71c.6-.17,1.19-.38,1.79-.58a1.5,1.5,0,0,0-1-1.42l-.26-.12a1.41,1.41,0,0,1-.89-1.7c.57-.06,1.19-.14,1.81-.18a9.89,9.89,0,0,1,1.05,0c1.27.05,1.36,0,1.43-1.39h6.15a38.6,38.6,0,0,0-2.88,3.85l1.61.37-.7.63,1,.6c.09.5.07.93-.55,1.11-.14,0-.24.2-.37.29A1.63,1.63,0,0,1,34,7.11a1.09,1.09,0,0,0-1.17,0c0-.38-.22-.51-.56-.4a.34.34,0,0,0-.15.29c.15.34.41.16.65.11Z"/><path class="cls-1" d="M296.77,0,298,.48l-.73,1,.54.85-.54-.1a1.66,1.66,0,0,0-.54-.1,6.71,6.71,0,0,0-2.3,1.44,2.82,2.82,0,0,0,2.1,1.83,2,2,0,0,1-.42,2.25,2.58,2.58,0,0,1-1.26.19c-.17,0-.34-.15-.52-.23-.69-.29-1-.14-1,.62s0,1.23-.88,1.4c-1-1-.56-2.47-1.26-3.65-.76-.24-1.34.63-2.13.48-.26-.61.21-1.07.38-1.66l-.89-.38.8-1.24c-.24-.84-1.05-1-1.69-1.31,0-.1-.07-.17-.06-.22.3-1.33.3-1.31,1.71-1a4.72,4.72,0,0,0,1.23,0c.37,0,.47-.28.38-.62h2.69V1.23c1,0,1.32-.82,1.92-1.23Z"/><path class="cls-1" d="M0,122a4.35,4.35,0,0,1,3-.15,3.18,3.18,0,0,1,.34.22L1,123.22v.18l3.09.56,0,.18-3.1.83a12.8,12.8,0,0,0,2.75,2,1.58,1.58,0,0,1-2.09,1.14c-.58-.16-1.15-.36-1.73-.54Z"/><path class="cls-1" d="M295.62,0c-.6.41-1,1.18-1.92,1.23V0Z"/><path class="cls-1" d="M0,230.88c.69.29.69.37,0,1Z"/><path class="cls-1" d="M164,362.86l-.71-2.58a6.18,6.18,0,0,0-.81.24c-.64.29-1.25.65-1.91.9a.94.94,0,0,1-1.4-.56.78.78,0,0,1,.15-1c.67-.68,1.33-1.37,2-2,.26-.26.56-.49.95-.83-1.15-.76-2.55-.57-3.55-1.4.25-.5.3-1.13,1.22-1.2a3.47,3.47,0,0,0-.55-.63,11.34,11.34,0,0,0-1.1-.58,2.71,2.71,0,0,1-1.16-1.48,1,1,0,0,1,.46-1.31c.48-.31,1-.58,1.6-.94a12,12,0,0,0,1.22,1.31c1,.82,2.08,1.6,3.14,2.36.69.49.93.37,1-.49.07-.69.05-1.4.09-2.09a4.83,4.83,0,0,1,.1-.85.92.92,0,0,1,.91-.72c.36,0,.53.24.37.56a3.92,3.92,0,0,0-.55,1.09c-.13,1-.16,2-.22,3.06a2.76,2.76,0,0,0,2-.07,12.63,12.63,0,0,0,1.22-.56,6.52,6.52,0,0,1,3-.87c.08.67-.44,1.16-.63,1.86a12.72,12.72,0,0,1,4.71,1.58,3.09,3.09,0,0,1-3,1.6c-1,0-2,0-3,.07l-.09.24c.24.22.47.46.73.65q1.08.8,2.18,1.57c.24.17.53.3.39.66s-.5.26-.75.21a11,11,0,0,1-1.56-.44c-1-.36-2-.78-2.95-1.15a14.1,14.1,0,0,0-1.73-.53,1.1,1.1,0,0,0-1.45,1.06c-.06.92,0,1.84,0,2.77a3.43,3.43,0,0,1-.06.44Z"/><path class="cls-1" d="M339.81,90.11a1.79,1.79,0,0,1-2.15.61,9.33,9.33,0,0,0-1.2-.33,6.61,6.61,0,0,0-.5,3.53,1.19,1.19,0,0,1-.61,1.27,4,4,0,0,1-1.93.82l-.82-5c-.52.14-.91.23-1.29.35-1,.32-1.93.66-2.91,1a5.47,5.47,0,0,1-1,.12l-.09-.23L328.77,91c1.2-1,2.41-1.89,3.6-2.86a1,1,0,0,0,0-1.65,17.54,17.54,0,0,0-3.2-2.57,3.18,3.18,0,0,1-.66-.54A.81.81,0,0,1,329,82a4,4,0,0,1,3.48.8c.41.36.77.22.93-.31a3.88,3.88,0,0,0,.09-.57c.09-.63.15-1.26.27-1.89s.49-.92,1.15-.75a2.75,2.75,0,0,1,.85.42c.62.43,1.21.91,1.83,1.34a4.31,4.31,0,0,0,.86.34c-.15.43-.6.76-.35,1.36.1.24-.31.7-.57,1.21h.75a2.47,2.47,0,0,1,1.61.48,8.07,8.07,0,0,0,1.45.7l-.57,1.17.85.44c-1,.77-2.27.55-3.29,1.14C338.58,88.77,339.39,89.3,339.81,90.11Z"/><path class="cls-1" d="M101.83,329.86c.45.28.82.44,1.32,0a3,3,0,0,1,1.17-.36c.87-.19,1.74-.36,2.71-.57-.08.69-.11,1.25-.21,1.8a1.36,1.36,0,0,1-1,.94c-.42.16-.86.25-1.28.39-.23.08-.45.2-.79.36l1.46,1.88-.72,1.2-1.35-.43c-.67-.22-1.32-.48-2-.67s-.91-.08-1.19.59c-.55,1.33-1.06,2.67-1.56,4a3,3,0,0,0,0,.76c0,.3-.07.6-.13,1.13a3,3,0,0,1-.55-1.59,21.79,21.79,0,0,0-.39-2.93c-.19-.83-.44-.9-1.25-.63-.6.2-1.18.44-1.87.71l.22-.68-.5-.16,1.08-1,1.43-1.41c.55-.54.5-1-.17-1.33a17.75,17.75,0,0,0-1.62-.81A3.85,3.85,0,0,1,93,329.88a1.72,1.72,0,0,1,.18-2.52l2.08.51A5.79,5.79,0,0,0,96,328c.66.07.89-.1.95-.75s0-1.21.06-1.82c0-.36.09-.72.15-1.13l.67.05a1.78,1.78,0,0,1,1.91,1.53,2.54,2.54,0,0,1-.15,1.2,3.2,3.2,0,0,0-.08,1.93,14,14,0,0,0,1.1-1.77,1.4,1.4,0,0,1,1.44-.87c.73,0,1.46,0,2.3,0a3.31,3.31,0,0,1-1.41,1.67A2.3,2.3,0,0,0,101.83,329.86Z"/><path class="cls-1" d="M324,169.21a10.83,10.83,0,0,0-3.24,1.58c.24.84.42,1,1.16,1.05l4.59.42a4.17,4.17,0,0,1-1.68.88c-.5.18-1,.42-1.51.66l2.19,3.69c-.08.13-.2.31-.29.5-.32.69-.58.83-1.24.42-.84-.52-1.61-1.13-2.42-1.69a5.56,5.56,0,0,0-.87-.56c-.7-.31-.91-.17-.93.62a5.66,5.66,0,0,0,.09,1.43c.35,1.45-.39,2.36-1.46,3.19-.62-.45-.55-1.14-.69-1.72a15.86,15.86,0,0,1-.33-2c-.07-.63-.08-1.26-.12-2a3,3,0,0,0-2.36.79c-.48.47-.87,1-1.33,1.51a10.28,10.28,0,0,1-.84.73l-.17-.12.74-1.83c-.08-.14-.09-.21-.14-.25-.95-.73-.86-1.48.23-2a4.67,4.67,0,0,1,.9-.34,2.61,2.61,0,0,0,1.61-1.27c.31-.47.27-.6-.21-.91s-1.21-.72-1.79-1.11a1.32,1.32,0,0,1-.37-2.11,10.15,10.15,0,0,1,1.46-1.21c.62.4,1.19.78,1.78,1.14a1.92,1.92,0,0,0,.71.26c.5.07.69-.13.73-.63.1-1.35.63-1.73,2-1.34.32.09.62.24,1,.39-.26.52-.85.83-.49,1.48a11,11,0,0,1,1.71-.12A10.31,10.31,0,0,1,324,169.21Z"/><path class="cls-1" d="M18.83,98.35a4,4,0,0,1,1-.52c1-.18,2.09-.29,3.13-.41a.71.71,0,0,1,.89.53s0,.06,0,.09a.72.72,0,0,0,.9.51c.44-.09.37-.45.39-.76a1.8,1.8,0,0,1,2.47-1.64,12.58,12.58,0,0,0,.49,3.64c.29-.09.55-.16.8-.26.71-.27,1.42-.57,2.14-.84a1.56,1.56,0,0,1,1.54.2c.36.26.77.44,1.27.73l-2.75,1.46c.79,1,1.93,1.21,2.91,1.77-1.42.59-1.42.59-1.58,1.19a8.29,8.29,0,0,1-3.56.1c0,.47,0,.87,0,1.28.06,1.21.16,2.42.18,3.63a2.9,2.9,0,0,1-.32,1.18,1.18,1.18,0,0,1-1.32.73,1.27,1.27,0,0,1-1-1.11c-.16-.91-.28-1.83-.41-2.74-.08-.55-.17-1.11-.28-1.79a1.83,1.83,0,0,0-.63.19,21.45,21.45,0,0,0-1.9,1.6c-.64.63-1.23,1.23-2.24.8a2.4,2.4,0,0,0-.64-.06,3,3,0,0,1,.25-.46,5.07,5.07,0,0,0,1.25-1.88c.12-.45.69-.8,1.1-1.15s.86-.57,1.24-.9a10.83,10.83,0,0,0,.93-1.07Z"/><path class="cls-1" d="M55.59,211.6l-2.88,3.08c1.35.67,2.8.71,4,1.66-1.32.58-2.77.18-4.12.79a4.34,4.34,0,0,0,3,1.7l-.92.72a4.61,4.61,0,0,1-2.16.95.65.65,0,0,0-.61.88c.08.44.11.89.23,1.32a1.57,1.57,0,0,1-.29,1.44,6,6,0,0,1-2.39,1.59l-.32-1a6,6,0,0,1-.36-2.9,5.67,5.67,0,0,0-.11-1.46c-.56-.14-.75.22-1,.45a11.42,11.42,0,0,0-1,1.07,2.38,2.38,0,0,1-1.65.9,1.51,1.51,0,0,1-.16-1.36c.09-.45.54-.85.18-1.35.49-.58.25-1.53,1-2a2.93,2.93,0,0,0,.57-.51s.05-.11.1-.22c-.34-.76-1.21-.69-1.81-1s-1.26-.6-1.89-.89c-.12-1.18-.09-1.26,1.06-1.45a14.76,14.76,0,0,1,1.9-.13,9.23,9.23,0,0,1,1.4,0,5,5,0,0,1,.9.29c.49.16.72,0,.85-.44a10.12,10.12,0,0,0,.2-1,3.27,3.27,0,0,1,1.69-2.34l.38,2.05a11.53,11.53,0,0,1,2-.77A11.14,11.14,0,0,1,55.59,211.6Z"/><path class="cls-1" d="M15.16,51.91l.37,2.15c1.29-.71,2.56-1.33,4-.78l-2.7,3c1.31.71,2.8.66,4,1.8l-4.06.5a3.38,3.38,0,0,0,2.81,1.85,6.44,6.44,0,0,1-3.63,1.85,9.44,9.44,0,0,0,.23,1.83,1.73,1.73,0,0,1-.5,1.91,5.13,5.13,0,0,1-2.15,1.23l-.31-1a5.47,5.47,0,0,1-.34-2.81,2,2,0,0,0-.28-1.58c-.51.08-.75.47-1,.79-1.49,1.61-1,1.33-2.56,1.77a11.19,11.19,0,0,1,0-1.3c.05-.52.55-1,.24-1.54.5-.63.29-1.69,1.23-2.07a3.22,3.22,0,0,0,.54-.34c-.4-1-1.27-.91-1.88-1.25s-1.31-.63-2-.93c0-1.16.08-1.32,1.15-1.44a20.54,20.54,0,0,1,2.19,0,2.47,2.47,0,0,0,.66,0,1.55,1.55,0,0,1,1.19.17c.62.29.85.15,1-.53.06-.28.13-.56.17-.85A3.34,3.34,0,0,1,15.16,51.91Z"/><path class="cls-1" d="M360.41,177c-.46-.46-1-.38-1.55-.48-.31-.06-.64,0-1-.07-.6-.11-1.23-.21-1.32-1a.36.36,0,0,0-.14-.24c-.76-.46-.56-1-.15-1.72.79,0,1.65-.05,2.5-.06a8.55,8.55,0,0,0,3.85-.47,1.23,1.23,0,0,0,.81-1.06c.14-1.26.36-2.52.55-3.78,0-.09,0-.21.05-.28a2.5,2.5,0,0,1,.67-.75c.17-.09.5.13.76.22a15.07,15.07,0,0,0-.08,4.44c1.33-.78,2-2.33,3.59-2.47a1.37,1.37,0,0,1-.1,1.44c-.08.13-.22.24-.3.37a.64.64,0,0,0,.3,1c1.09.52,2.19,1,3.33,1.53l-.51,1.08c-1,.28-2.15-.23-3.24.31.51.79,1.46.56,2.11,1a1.85,1.85,0,0,1-1.9,1.3c-.92,0-1.85-.06-2.78-.08s-1.09.06-1.15,1.06-.08,1.78-.11,2.73a3.56,3.56,0,0,1-.85-2.59c-.47-.14-.7.13-1,.37-.78.71-1.55,1.43-2.37,2.09a1.45,1.45,0,0,1-.94.3.86.86,0,0,1-.79-1.35c.39-.8.9-1.54,1.35-2.3Z"/><path class="cls-1" d="M192.47,106.77c-.65.37-1.16.61-1.62.92s-.85.65-1.48,1.13l1.45.31,1.37.29c-.79.94-1.89,1.26-2.93,1.91a14,14,0,0,0,2.51,1.72,3.39,3.39,0,0,1,0,.72c-.09.43-.34.68-.83.55l-2.12-.57-2.16-.61c-.47.85-.44,3.59,0,4.93l-1.23,1.14a13.06,13.06,0,0,1-1-2.63,26.29,26.29,0,0,1-.48-2.72c-1.4.23-2.24,1.55-3.68,1.89l.36-1-.76-.54.43-.84c-.63-.44-1.68-.49-1.41-1.67,1.24-.43,2.64-.45,4.07-1a14.87,14.87,0,0,0-3.9-2.33l.24-1-.52-.73c.61-.33,1.17-.67,1.76-.94a.85.85,0,0,1,.94.27c.8.72,1.63,1.43,2.48,2.09.61.48.87.36,1-.39.26-1.15.53-2.3.78-3.46a.81.81,0,0,1,.92-.77,1.81,1.81,0,0,1,.19,1.57,9.34,9.34,0,0,0-.19,3.37,7.71,7.71,0,0,0,1-.43,8.57,8.57,0,0,1,2.74-1.34A3.44,3.44,0,0,1,192.47,106.77Z"/><path class="cls-1" d="M242.79,326l.4-1-.76-.55.41-.77c-.49-.55-1.68-.48-1.43-1.71,1.21-.54,2.68-.41,4.06-1.07a15,15,0,0,0-3.81-2.35c.15-.62.31-1.22-.47-1.69l.87-.4a4.86,4.86,0,0,0,.69-.28c.71-.45.79-.4,1.37.13.82.76,1.69,1.45,2.56,2.14a2.18,2.18,0,0,0,.66.19c.21-.8.41-1.56.59-2.32s.31-1.24.4-1.87a.75.75,0,0,1,1-.72,2,2,0,0,1,.16,1.48,27,27,0,0,0-.3,2.95,1.84,1.84,0,0,0,.15.49,7.62,7.62,0,0,0,.93-.43,8.05,8.05,0,0,1,2.93-1.37,2.8,2.8,0,0,1,1.76.19A9.27,9.27,0,0,0,252,319.1l2.64.58.06.18-2.87,1.74c.69.88,1.77,1.14,2.58,1.8,0,.14,0,.27-.07.39-.21.8-.36.92-1.13.74s-1.4-.41-2.11-.61-1.34-.34-2.1-.54a15.26,15.26,0,0,0,.12,5.06L248,329.49a13.31,13.31,0,0,1-1.34-5.45C245.09,324.39,244.21,325.63,242.79,326Z"/><path class="cls-1" d="M77,261.6c.37-.84.3-1.91,1.5-2.3,0,.3-.06.56-.08.82a10.34,10.34,0,0,0-.08,1.24,2.28,2.28,0,0,0,.24.66,2.71,2.71,0,0,0,.55-.3c.58-.51,1.13-1,1.7-1.55s.88-.62,1.61,0c.21.19.41.39.67.64l-1.59,1.56c.81.59,1.83.41,2.53,1.07l-2.7.91a3.67,3.67,0,0,0,2.26,1.41.8.8,0,0,1,.75.76l-.57.71a2.08,2.08,0,0,1-2.51.79c-.54-.19-1.06-.43-1.59-.62-.32-.12-.66-.18-1-.28-.39.94.05,1.83-.09,2.75l-.78.37,1,.17-.72,1a3.47,3.47,0,0,1-.41-.71c-.15-.52-.23-1.05-.37-1.58-.2-.8-.51-.89-1.1-.34s-1,1-1.5,1.47c-.78.74-1,.8-2.28.5a8.62,8.62,0,0,1,1.32-2.39,8.33,8.33,0,0,1-2.57-1.55c1.83-.2,2.92-1.27,4.15-2.24a9.46,9.46,0,0,0-3-1.84,1.92,1.92,0,0,1-.8-.67,1,1,0,0,1-.18-.93.91.91,0,0,0,0-.21l2.25-.87a1.11,1.11,0,0,1,1.5.35,5.69,5.69,0,0,0,1.41,1.11C76.59,261.68,76.82,261.6,77,261.6Z"/><path class="cls-1" d="M95,103.79c-.06.71-.14,1.34-.15,2a2.63,2.63,0,0,0,.23.76,3.7,3.7,0,0,0,.62-.36c.6-.53,1.17-1.09,1.77-1.62s.72-.49,1.31,0c.27.22.52.47.86.78L98,107l2.59.86,0,.17-2.5.83a2.72,2.72,0,0,0,2,1.46c.54.11.54.11.79.75a.31.31,0,0,1,0,.09c-1.58,2-1.94,1.86-4.43.94-.4-.15-.81-.28-1.35-.46,0,.45-.06.72,0,1,0,.67.05,1.34.13,2a.77.77,0,0,1-.27.84c-.12.09,0,.42-.06.69a1.23,1.23,0,0,1-.7-1,12.72,12.72,0,0,0-.37-1.58c-.18-.64-.53-.74-1-.27s-1,1-1.5,1.48c-.87.83-1,.87-2.42.52l1.4-2.39a9,9,0,0,1-2.6-1.48,7.88,7.88,0,0,0,4.19-2.28,9,9,0,0,0-2.14-1.47,2.28,2.28,0,0,0-.69-.31,1.44,1.44,0,0,1-1.06-1,2.53,2.53,0,0,1-.07-.9l2.11-.81c.9-.36,1-.32,1.65.33a11.4,11.4,0,0,0,1.34,1c.33.23.58.11.72-.29.08-.21.11-.43.18-.65A1.72,1.72,0,0,1,95,103.79Z"/><path class="cls-1" d="M249.8,165.78l-2-.33-.44-1.75,2.93-.35c.58.51.89,1.25,1.81,1.37l.76-4.56,1.57.18a8.06,8.06,0,0,0,.08,3.6,7.35,7.35,0,0,0,.87-.21,4.41,4.41,0,0,1,4.11.47c-.57.82-1.66.05-2.28.88l2,.54c0,.52-.24.68-.72.73-.92.1-1.84.24-2.75.39a5.84,5.84,0,0,0-.88.3,20.17,20.17,0,0,0,4.2,3.84c-1.2,0-2.38.22-3.35-.72a1.52,1.52,0,0,0-1.38-.51c0,.3-.09.6-.12.91-.12,1.33-.27,2.66-.34,4-.07,1.16-.44,1.88-2.12,1.33,0-.58-.07-1.21-.07-1.84,0-.91,0-1.82,0-2.73,0-.14-.1-.37-.19-.39a.67.67,0,0,0-.51.11c-.49.41-.94.87-1.41,1.3-.29.27-.52.72-1,.41a1.37,1.37,0,0,1-.37-1.31,4.94,4.94,0,0,1,1.07-2.2,3.68,3.68,0,0,0,.38-.72l-2.16-.36-.33-1,2.68-1.12Z"/><path class="cls-1" d="M41.06,272l3.27.57v.18l-3.07.82a13,13,0,0,0,2.78,2,1.6,1.6,0,0,1-2.2,1.11c-.79-.26-1.55-.59-2.33-.87a8,8,0,0,0-.84-.2c-.08.84-.13,1.59-.21,2.34a15.05,15.05,0,0,1-.24,1.51,1.88,1.88,0,0,1-1.05,1.18,16,16,0,0,1-1.07-6,8.68,8.68,0,0,0-1.14.48c-.62.39-1.21.84-1.83,1.23-.4.25-.82.46-1.25.69l-.63-1c.23-.27.46-.59.74-.87s.62-.53,1-.86c-.8-.47-1.74-.46-2.31-1.15.11-.46.42-.54.8-.56.89,0,1.78-.11,2.75-.17a1.62,1.62,0,0,0-.88-1c-1.06-.56-1.38-1.63-1.81-2.6-.28-.65-.1-.9.61-1.11a1.33,1.33,0,0,1,.28-.06l.95-.05c.5.45,1,.91,1.48,1.33s1,.81,1.7,1.32c.19-.59.35-1,.47-1.46s.23-1.13.37-1.68c.2-.77.48-.95,1.25-.78a7,7,0,0,1,1.07.45,6.78,6.78,0,0,0-1,4c1.62,0,3.1-1.09,4.75-.19C42.82,271.14,41.91,271.29,41.06,272Z"/><path class="cls-1" d="M322.42,348.52a20.7,20.7,0,0,0,4.16,3.82c-1.14.1-2.25.29-3.18-.61a2,2,0,0,0-1.41-.63,5.71,5.71,0,0,0-.29,2.13c-.13,1.17-.22,2.35-.39,3.51a1.16,1.16,0,0,1-1.65.74.86.86,0,0,1-.31-.54,5.62,5.62,0,0,1-.07-1.05c0-1,0-2.08,0-3.13a1.19,1.19,0,0,0-.09-.33c-.42-.21-.63.08-.86.29-.47.43-.91.89-1.38,1.33s-1,.35-1.12-.31a3.31,3.31,0,0,1,.65-2.5c.23-.37.49-.73.83-1.23l-2.26-.4-.3-.92,2.76-1.15c-.66-.81-1.62-.18-2.15-.71l-.42-1.66,2.92-.37c.54.51.91,1.19,1.81,1.42.15-.93.28-1.8.43-2.66.08-.5.19-1,.28-1.49a.48.48,0,0,1,.69-.44l.92.22a8.64,8.64,0,0,0,0,3.54,9.13,9.13,0,0,0,1.09-.25,4.28,4.28,0,0,1,4,.52c-.57.87-1.67.07-2.33.86l2,.57c0,.54-.24.69-.73.74-1,.1-2,.26-2.93.42A4,4,0,0,0,322.42,348.52Z"/><path class="cls-1" d="M133.44,233.66a5.47,5.47,0,0,0,.14,2.57,3.39,3.39,0,0,0,.61-.13,4.24,4.24,0,0,0,.58-.34,4,4,0,0,1,3.85-.51,16.66,16.66,0,0,0-1.74,1,19.74,19.74,0,0,0-1.6,1.41,1.54,1.54,0,0,0,1.22.38,11.71,11.71,0,0,1,1.69.24,1.53,1.53,0,0,1,.7.57c-1.45-.14-2.41,1-3.74,1.18.87.8,1.56,1.8,3,1.5a6.57,6.57,0,0,1,.26.8,1.21,1.21,0,0,1-1.52,1.48c-.5-.1-1-.3-1.46-.44s-.9-.23-1.47-.38a3.28,3.28,0,0,1-1.92,3.64,13.48,13.48,0,0,1-.75-4.79c-.43-.35-.72-.12-1,.08-.53.36-1,.75-1.57,1.1-.29.19-.61.32-1.09.57a4.83,4.83,0,0,1,1.9-3.5c-.3-.26-.5-.45-.72-.62-1-.81-2.07-1.59-3.07-2.43a1.3,1.3,0,0,1,.21-2.16,6.18,6.18,0,0,1,1.7-.59,1.26,1.26,0,0,1,1.44.87,3.61,3.61,0,0,0,1.44,1.6c.62.44,1,.3,1.22-.41s.45-1.26.69-1.88A1,1,0,0,1,133.44,233.66Z"/><path class="cls-1" d="M355,215.92a6.75,6.75,0,0,0-3.41,2.36c.35.37.78.28,1.17.32a11.12,11.12,0,0,1,1.6.2,1.86,1.86,0,0,1,.81.59c-1.43-.1-2.42,1-3.76,1.11a3.23,3.23,0,0,0,3,1.6,5.52,5.52,0,0,1,.27.77,1.23,1.23,0,0,1-1.43,1.51A6.58,6.58,0,0,1,352,224a3.42,3.42,0,0,0-1.8-.31,3.32,3.32,0,0,1-2,3.48,8.73,8.73,0,0,1-.57-2.48c-.06-.82-.15-1.63-.25-2.62a8,8,0,0,0-1,.44c-.49.31-.93.68-1.42,1s-.71.37-1.19.61a4.75,4.75,0,0,1,1.89-3.48c-.26-.25-.45-.46-.66-.63-1-.82-2.06-1.6-3.06-2.44a1.34,1.34,0,0,1,.23-2.23,5,5,0,0,1,1.16-.44c1.13-.29,1.55-.09,2,1a3.7,3.7,0,0,0,1.64,1.54c.4.25.69,0,.9-.54l.69-1.89a1.09,1.09,0,0,1,1-.77c.24.84-.28,1.77.31,2.62a5.29,5.29,0,0,0,.6-.21c.37-.18.74-.38,1.1-.59A3.53,3.53,0,0,1,355,215.92Z"/><path class="cls-1" d="M365.43,68.23a29.92,29.92,0,0,1,1.37-5.86c-.19,1.84-.35,3.67-.37,5.5a1.44,1.44,0,0,0,1.59-.39c.86-.76,1.72-1.52,2.62-2.25s1.17-.7,2.15-.16a.83.83,0,0,1,.5,1,.81.81,0,0,1-1,.53c-1-.25-1.39.46-2,1.06l1.52.65-1.91.95c1.07.73,2.36.86,3.27,1.81a3.56,3.56,0,0,1-1.92.77c-.8,0-1.59-.07-2.39-.12-.38,0-.76-.08-1.15-.08a1.27,1.27,0,0,0-1.34,1.2,30.05,30.05,0,0,0,.27,3.14c0,.25.27.48.43.76l-.63,1.83h-.24c-.77-1.15-.85-2.58-1.4-4l-.86.59c-.49.35-1,.69-1.48,1.06a1,1,0,0,1-1.44,0c0-.13.08-.4,0-.54a1.35,1.35,0,0,1,.22-1.86c.48-.55,1-1.08,1.5-1.62l.52-.58c-1.48-1.1-3-.32-4.63-.29l.71-1.41-.45-1.74a1.47,1.47,0,0,1,1.44-.67c1.43.13,2.86.3,4.28.46C364.84,68.09,365.08,68.16,365.43,68.23Z"/><path class="cls-1" d="M316.81,208.11l1.46.61-2.07.94c.72.33,1.24.6,1.78.81a9.91,9.91,0,0,1,1.67.93,3.7,3.7,0,0,1-2,.83c-.77,0-1.53-.07-2.3-.12-.41,0-.83-.08-1.24-.08a1.26,1.26,0,0,0-1.35,1.29c0,1,.13,2,.26,3a3.43,3.43,0,0,0,.44.91l-.69,2c-.92-1.36-1-2.76-1.51-4.12-.3.17-.51.27-.71.4-.58.4-1.16.8-1.71,1.23a1.08,1.08,0,0,1-1.41.05c0-.2.08-.47,0-.62a1.34,1.34,0,0,1,.19-1.78c.51-.58,1-1.12,1.57-1.69.16-.18.31-.37.51-.63a3.85,3.85,0,0,0-2.64-.46,17.55,17.55,0,0,1-2,.26l.72-1.43-.45-1.74a1.48,1.48,0,0,1,1.51-.67c1.43.13,2.86.31,4.28.47.21,0,.43.08.73.14a29.26,29.26,0,0,1,1.45-5.83,3.93,3.93,0,0,1,0,.4c-.14,1.4-.31,2.79-.43,4.19,0,.31.09.87.25.91a1.56,1.56,0,0,0,1.06-.21,7.57,7.57,0,0,0,1-.87c.73-.62,1.46-1.25,2.22-1.83a1.64,1.64,0,0,1,2.2.38,1,1,0,0,1,0,.88,1.24,1.24,0,0,1-.91.36A1.8,1.8,0,0,0,316.81,208.11Z"/><path class="cls-1" d="M44.23,156.71c.78,1,2.07,1.54,2.7,2.9-1.36-.05-2.39-.81-3.65-.93a7.91,7.91,0,0,0-.2,1.51,7.2,7.2,0,0,1-.49,2.3.68.68,0,0,1-.76.57.88.88,0,0,1-.9-.57c-.13-.36-.17-.75-.27-1.12s-.31-1-.48-1.6a4.37,4.37,0,0,0-.71.15c-.27.11-.51.27-.77.4-1,.48-1.2.36-1.37-.76l-2.79-.6-.14-.84a13.17,13.17,0,0,0,4.89-2,2.68,2.68,0,0,0-2.09-.81,1.53,1.53,0,0,1-1.1-.44,16.2,16.2,0,0,0-1.57-1c.91-1,1.35-1.08,2.54-.47a7.76,7.76,0,0,0,2.92.77l.62-3.9,2.33-.21.39,4c.51-.24.88-.39,1.22-.59.61-.34,1.2-.73,1.82-1.07.22-.12.57-.3.7-.22.67.44,1.55.61,2,1.38a3.21,3.21,0,0,1-1.26,1.1c-1.12.55-2.2,1.17-3.3,1.77A2.18,2.18,0,0,0,44.23,156.71Z"/><path class="cls-1" d="M15.93,343.49c.52-.26.9-.42,1.25-.61.64-.36,1.26-.75,1.9-1.11.19-.1.5-.25.62-.18a14.61,14.61,0,0,1,2,1.27A2.75,2.75,0,0,1,20.5,344c-1.22.62-2.41,1.31-3.66,2,.69,1.17,2.15,1.58,2.64,3a26.42,26.42,0,0,1-3.46-1,1.93,1.93,0,0,0-.33,1.47,8.08,8.08,0,0,1-.48,2.31.77.77,0,0,1-.91.64c-.54,0-.72-.34-.84-.75s-.13-.62-.2-.93a6.58,6.58,0,0,0-.22-.83c-.34-.91-.4-.93-1.3-.46a8.54,8.54,0,0,1-.78.38c-.64.25-.84.13-1-.56L9.94,349l-2.76-.6L7,347.55a13.8,13.8,0,0,0,4.9-2,2.75,2.75,0,0,0-2.1-.81,1.53,1.53,0,0,1-1.1-.43,16.23,16.23,0,0,0-1.57-1,1.78,1.78,0,0,1,2.53-.51,9.82,9.82,0,0,0,2.43.78c.38.1.59-.14.64-.52.14-1.1.29-2.2.44-3.33l2.38-.24Z"/><path class="cls-1" d="M256.47,130.74a3.64,3.64,0,0,1-1.92-.17c-1.18-.47-2.39-.89-3.59-1.32-.83-.3-1.15-.12-1.33.79-.13.63-.23,1.26-.34,1.89-.16,1-.79,1.29-1.61.75-.41-.27-.65-.1-.93.13L245.28,134a1.89,1.89,0,0,1-1.67.2l1.39-1.94c.61-.86,1.22-1.71,1.8-2.59a2.36,2.36,0,0,0,.16-.75l-6,.43c1.91-.8,3.92-1.21,5.84-2.16-1-1.21-2.4-1.64-3.26-2.72l.1-.23c.54.1,1.09.18,1.63.29s.92.25,1.39.36c.62.14.77.06.82-.56s0-1.4.06-2.1a9.92,9.92,0,0,1,0-1.24.74.74,0,0,1,1.12-.62c.76.3,1.51.63,2.38,1-.17,1.15-1,2.24-.69,3.69a7.54,7.54,0,0,0,.91-.77c.59-.7,1.13-1.45,1.72-2.15a.62.62,0,0,1,.56-.16c.6.34,1.31.52,1.67,1.2a7.57,7.57,0,0,0,.62.85l-3,2.08,2.21,1.26-2.67.39C253.68,128.93,255.09,129.66,256.47,130.74Z"/><path class="cls-1" d="M231.18,274.84c-.26,1.19-.95,2.26-.72,3.61.23-.11.43-.15.53-.27.7-.82,1.41-1.64,2.06-2.5.24-.32.42-.4.78-.24a4.1,4.1,0,0,1,2.09,2.08l-3,2,2.17,1.26-2.41.37,0,.24,4,2.75a3.25,3.25,0,0,1-1.69-.06l-3.77-1.4c-.91-.34-1.28-.14-1.46.85-.1.57-.18,1.14-.28,1.7-.07.4-.08.88-.59,1s-.77.28-1.12-.19-.57-.05-.83.16c-.44.37-.86.76-1.33,1.1-.69.5-.72.48-1.82.3l1.21-1.73c.62-.89,1.26-1.77,1.86-2.67a4.53,4.53,0,0,0,.32-.9,37.57,37.57,0,0,1-6.2.35,47.23,47.23,0,0,0,6-2c-1-1.15-2.34-1.67-3.36-2.72a1.51,1.51,0,0,1,1.2-.08c.59.13,1.17.3,1.76.45.84.22,1,.11,1.07-.79,0-.67,0-1.34,0-2,0-.26,0-.51,0-.77.06-.93.45-1.18,1.33-.82S230.42,274.52,231.18,274.84Z"/><path class="cls-1" d="M87.92,187.19c-.06-.46-.11-.92-.18-1.37s-.15-.85-.24-1.37c-1.28.3-1.94,1.39-3.05,1.84l-.53-1.45-1.83-.3v-1.11l3.51-1.88a6,6,0,0,0-.68-.48,23.62,23.62,0,0,0-2.59-1.23c-1.43-.51-1.31-1.9-.34-2.79a2.62,2.62,0,0,0,.36-.3c.34-.45.68-.37,1,0,.65.57,1.29,1.14,2,1.69a2.65,2.65,0,0,0,1.73.86c.05-.26.12-.5.14-.73.09-.86.14-1.72.24-2.57a7.93,7.93,0,0,1,.3-1.07c.22.34.38.48.38.62a7.3,7.3,0,0,1-.09,1,7.51,7.51,0,0,0,.16,3.06,5.83,5.83,0,0,0,.85-.41c.5-.35,1-.72,1.44-1.11a2.55,2.55,0,0,1,1.93-.58c.59,0,1.19,0,1.78,0a9.85,9.85,0,0,1,1,.13,6,6,0,0,1-2.26,2.65l1.5.36a5.29,5.29,0,0,1-1.59,2.2c.31.29.62.59.94.88.51.46.63.85.36,1.22a1.07,1.07,0,0,1-1.45.28c-.84-.39-1.67-.8-2.53-1.13a3.19,3.19,0,0,0-1.31-.19c-.62,0-.74.23-.74.88s.07,1,.07,1.53a7.67,7.67,0,0,1-.09.88Z"/><path class="cls-1" d="M56.55,346.27c.26,1.43-.46,2.93.21,4.47a3.91,3.91,0,0,0,.72-.32,13,13,0,0,0,1.36-1.06,2.62,2.62,0,0,1,2-.67c.62,0,1.25,0,1.87,0a6.67,6.67,0,0,1,1,.17,7.34,7.34,0,0,1-2.18,2.62l1.36.32c-.14.78-.28,1-1.53,2.2l1,.94c.45.41.56.8.32,1.15a1,1,0,0,1-1.36.35c-.93-.42-1.84-.89-2.79-1.26s-.89-.25-1.86.13v3l-.22,0c0-.26-.09-.52-.12-.79s-.08-.76-.14-1.14c-.14-.9-.33-1-1.1-.45-.34.23-.66.5-1,.76s-.46.35-.7.51a2.43,2.43,0,0,1-.33.16c-.07,0-.16-.07-.16-.1A1.59,1.59,0,0,0,51,355.75a2.09,2.09,0,0,1-.44-.08v-1.1l3.54-1.88a7,7,0,0,0-.74-.5c-.86-.43-1.73-.83-2.59-1.24a1.54,1.54,0,0,1-.41-2.68c.19-.17.38-.33.57-.49a.56.56,0,0,1,.85,0c.6.53,1.21,1,1.82,1.56a6.75,6.75,0,0,0,.89.72,7.66,7.66,0,0,0,1.13.44l.1-1c.09-.89.16-1.78.27-2.67a2.16,2.16,0,0,1,.31-.62Z"/><path class="cls-1" d="M210.16,170.39l2.69,2.06c.45.35.88.74,1.34,1.08.62.46.9.34,1-.42a24,24,0,0,0,.19-5.09c0-.08.07-.17.11-.24s.14,0,.19,0c.87.44.92,1.22.9,2.06s0,1.9,0,3c1.06-.17,1.58-1.24,2.72-1.45-.81.92-1.88,1.32-2.43,2.34a24.67,24.67,0,0,1,3.4-1.49,22.19,22.19,0,0,0-2.68,3l4.41.34,0,.2-3.35.71c.35,1,2.3,2.25,3.83,2.47l.31.68a3,3,0,0,1-1.08.06,19.31,19.31,0,0,1-3.6-1.27,2.23,2.23,0,0,0-1.93-.37l-.91,6c-1.09-.84-1.2-3.08-.31-4.7-.58-.45-1,0-1.31.33-.81.73-1.57,1.51-2.36,2.25a8.41,8.41,0,0,1-1,.88c-.31.21-.69.37-1,0a.68.68,0,0,1,0-1c.77-1.09,1.58-2.16,2.4-3.22.54-.7,1.12-1.37,1.72-2.1-.5-.36-.83-.55-1.38-.3a8.06,8.06,0,0,1-1.76.42c-.47.1-.92.19-1.31-.29a1.21,1.21,0,0,1-.06-1.47h3.29c-.07-.21-.08-.35-.15-.41a7.27,7.27,0,0,0-2.63-1.72c-.44-.15-.89-.26-.94-.81a1.8,1.8,0,0,1,1-1.37C209.72,170.49,210,170.44,210.16,170.39Z"/><path class="cls-1" d="M54.82,36.37c1.36-.11,2.52-.48,3.78.06-.8.39-1.65.56-2.1,1.4a3.29,3.29,0,0,0,.37.17,3.12,3.12,0,0,0,.38.07l-.34.57,2.78,1.56A4.29,4.29,0,0,1,58,42.49c-.52.31-1.07-.05-1.53-.32a2.39,2.39,0,0,0-1.57-.28,1.53,1.53,0,0,0-.26.1,6.36,6.36,0,0,0-.11.89c0,1.65-1,2.45-2.53,3a15.68,15.68,0,0,1-.65-1.44c-.17-.5-.26-1-.41-1.68l-2.36,1.09c-.31-1.08.46-1.72.8-2.55l-.9-.46c.43-.88,1.56-.77,2.2-1.52L47.38,37.1c0-.88.31-1.24,1.18-1.3.44,0,.89,0,1.34,0a6.88,6.88,0,0,0,1-.09.83.83,0,0,0,.77-.84,1.33,1.33,0,0,1,.84-1.37,2.87,2.87,0,0,1,2.33,0,.6.6,0,0,1,.33.79C55.06,35,55,35.6,54.82,36.37Z"/><path class="cls-1" d="M260.53,366.16l-.89,5.92c-1-.7-1.26-2.83-.36-4.73-.55-.35-.91.06-1.25.36-.81.73-1.57,1.5-2.36,2.25a13.26,13.26,0,0,1-1,.89.78.78,0,0,1-1.05,0,.67.67,0,0,1,0-1c.75-1.07,1.53-2.11,2.33-3.15.45-.58.94-1.12,1.4-1.69a3.42,3.42,0,0,0,.3-.58,1.34,1.34,0,0,0-1.3-.19,13,13,0,0,1-1.77.41c-.47.09-.92.18-1.3-.3a1.38,1.38,0,0,1-.11-1.44h3a1.61,1.61,0,0,0,.35-.1,1.48,1.48,0,0,0-.22-.4,7.08,7.08,0,0,0-2.66-1.66c-.41-.12-.81-.3-.84-.8a1.86,1.86,0,0,1,.93-1.36,8,8,0,0,1,.85-.15l3.92,3.07c.66.51,1,.39,1.06-.41a26.79,26.79,0,0,0,.21-5,1.28,1.28,0,0,1,.1-.37l1,.73v4.34c1.14-.13,1.64-1.23,2.82-1.44l-2.48,2.17.11.15,3.26-1.59.12.17a15.68,15.68,0,0,0-2.72,3l4.42.34,0,.17-3.62.78a8.08,8.08,0,0,0,3.55,2.34c.46.12.46.11.7.75a2.81,2.81,0,0,1-1,.05,16.58,16.58,0,0,1-3.51-1.23A2.23,2.23,0,0,0,260.53,366.16Z"/><path class="cls-1" d="M226.37,90.85a4.48,4.48,0,0,0,2.27,1.06l-.43.35c-.34.29-.16.56,0,.83a1.29,1.29,0,0,1,.12,1.67.88.88,0,0,1-1.15.4,10.27,10.27,0,0,1-1-.34,3,3,0,0,0-2.13-.19c-.43.09-.63.27-.69.65s-.08,1-.14,1.53c-.12,1.14-.19,2.28-.39,3.4a5.57,5.57,0,0,1-.79,1.43,16.31,16.31,0,0,1-.42-6.66,4.06,4.06,0,0,0-.94.33c-.49.35-.94.77-1.41,1.15s-.7.53-1.21.93a4.5,4.5,0,0,1,1.11-2.34c.57-.63,1.1-1.3,1.7-2-.92-.56-1.91-.1-2.92-.55l2.14-1.4c-.26-.6-.79-.72-1.21-1s-.78-.36-.77-.87a1.17,1.17,0,0,1,.74-1,2,2,0,0,1,.78-.35c.31,0,.82.11.9.31.35.84,1,.81,1.84.89.27-1.27.53-2.5.79-3.74a5.58,5.58,0,0,1,.11-.65c.18-.53.46-.68.94-.43s1.48.38,1.61,1.39c-1.17.74-1.11,2.11-1.42,3.31a.73.73,0,0,0,.21.64,1,1,0,0,0,.69,0c.48-.16.93-.42,1.41-.55a3.07,3.07,0,0,1,2.06.19c.43.19.88.32,1.49.53A20.86,20.86,0,0,1,226.37,90.85Z"/><path class="cls-1" d="M258.57,262.85a2.41,2.41,0,0,0-.22.57c-.19,1.49-.39,3-.52,4.47-.08.85,0,.85-.83,1.59-.75-2.06-.45-4.18-.39-6.39-1.53.21-2.13,1.71-3.45,2.16.2-1.87,1.93-2.7,2.65-4.22-.87-.42-1.81-.09-2.73-.39.44-.82,1.44-.83,2-1.51-.12-.55-.67-.62-1-.88s-.62-.31-.74-.56a1.07,1.07,0,0,1,0-.89,2,2,0,0,1,1.52-.88.85.85,0,0,1,.72.34c.31.82,1,.77,1.78.91.12-.49.24-1,.34-1.45.18-.84.37-1.68.5-2.53s.45-1.12,1.33-.75c.6.25,1.19.46,1.39,1.25-1.26.76-1.16,2.18-1.5,3.4a.62.62,0,0,0,.2.56.83.83,0,0,0,.69,0,3.71,3.71,0,0,1,3.74-.26c.34.16.71.23,1.08.43a14.48,14.48,0,0,1-3.6,1c.44.66.61.75,2.06,1.17l-.65.61c.17.3.34.56.49.84a1.23,1.23,0,0,1-.23,1.58.78.78,0,0,1-.87.24,7,7,0,0,1-.81-.3A3.51,3.51,0,0,0,258.57,262.85Z"/><path class="cls-1" d="M361.53,326.68c-1,.79-.85,1.81-.87,2.95a4,4,0,0,0,.81-.19c.54-.27,1.06-.59,1.59-.89a2.52,2.52,0,0,1,3.09.22l-2.85,1.84,2.83,1-2.72,1.12,2.18,1.42a2.62,2.62,0,0,1-1.83.25,24.79,24.79,0,0,1-2.69-.68c-.74-.22-.89-.12-1,.65-.08,1-.21,1.91-.3,2.86,0,.47-.07,1-.07,1.43a.8.8,0,0,1-.49.85c-.41.15-.66-.18-.82-.49a2.07,2.07,0,0,1-.2-.73c-.09-.79-.14-1.59-.22-2.39,0-.21-.06-.43-.09-.68-.55,0-.86.33-1.21.57-.78.55-1.54,1.12-2.33,1.65-.14.1-.37.07-.75.13l.61-.88c-.69-.89-.16-1.54.47-2.16l-.38-.49,2.16-2.1-2.84-2.07c-.61-.45-.63-.61-.09-1.19l-.31-.68c.13,0,.22-.13.28-.1.63.21,1.27.42,1.88.68.79.33,1.56.73,2.36,1.07a5.49,5.49,0,0,0,.88.22l.78-4A2.52,2.52,0,0,1,361.53,326.68Z"/><path class="cls-1" d="M220.49,351a24.59,24.59,0,0,0-.41,5.7c-.65-.37-.49-1-.66-1.4a4.52,4.52,0,0,1-.09-1.42c0-.49,0-1,0-1.56-1.49.26-2.28,1.63-3.65,1.81-.48-.3-.51-.63-.24-1.12a6.56,6.56,0,0,1,1.57-1.91c.66-.54,1.3-1.11,2-1.69a1.17,1.17,0,0,0-1.27-.62l-3.93.21-.48,0c-.27,0-.58,0-.54-.36a.75.75,0,0,1,.45-.5c.86-.25,1.73-.44,2.6-.67a7.28,7.28,0,0,0,.71-.27,5.68,5.68,0,0,0-.61-.58c-.64-.43-1.28-.85-1.94-1.24a1.29,1.29,0,0,1-.25-2.3c.8-.7.9-.67,1.83-.18a12.4,12.4,0,0,1,2.75,2,2.72,2.72,0,0,0,1.6.9l.5-2.46,1.28-.25c.07.15.13.23.11.26a6.42,6.42,0,0,0-.83,2.91c-.12.8.3,1.15,1.08.93a5.27,5.27,0,0,0,.77-.38,5,5,0,0,1,3.18-.82l-.92,1.34.93.44a1,1,0,0,1-.84.62c-.6.11-1.19.23-1.79.36a5.55,5.55,0,0,0-.77.32c1.18,1.59,3,2.47,4,4.11a1.35,1.35,0,0,1-1.37,0l-3.79-1.84Z"/><path class="cls-1" d="M151.74,151.25c-.43-.29-.47-.59-.23-1.06a7.15,7.15,0,0,1,1.93-2.23c.56-.46,1.1-.94,1.64-1.4a1.25,1.25,0,0,0-1.32-.63l-3.93.2c-.31,0-.62,0-.9,0-.21-.64.14-.77.54-.87q1.26-.3,2.51-.63a3.67,3.67,0,0,0,.55-.25c-.44-.74-1.21-1-1.79-1.46a4.4,4.4,0,0,0-.66-.38,1.28,1.28,0,0,1-.28-2.24c.92-.8,1-.67,1.83-.23a13.66,13.66,0,0,1,2.74,2,2.33,2.33,0,0,0,1.64.8c.09-.39.18-.78.26-1.18s.13-.75.21-1.18l1.27-.25c.06.15.13.24.11.26a6.53,6.53,0,0,0-.8,2.92c-.11.8.31,1.13,1.09.89a7.16,7.16,0,0,0,.77-.39,5.32,5.32,0,0,1,3.15-.83l-.92,1.35,1,.45a1.24,1.24,0,0,1-1.08.65,9.84,9.84,0,0,0-2.23.56,2.41,2.41,0,0,0,1,1.32q1.22,1.08,2.41,2.2a4.58,4.58,0,0,1,.5.72,1.53,1.53,0,0,1-1.39,0l-3.78-1.86c-.25-.12-.51-.22-.9-.39a26.83,26.83,0,0,0-.5,5.63c-.93-1.32-.6-2.82-.71-4.32C154,149.7,153.17,151,151.74,151.25Z"/><path class="cls-1" d="M345,140.64l-2.17.41c.23.92.24.93,1.5,2.2a3.17,3.17,0,0,1-2.14-.08,8.05,8.05,0,0,0-3-.81,8,8,0,0,0-.17,1.2c0,1.35-.42,1.86-1.91,2.08l-.71-2.3c-.42-.2-.68.07-.94.3s-.55.54-.86.76a4.71,4.71,0,0,1-.83.36c-.18-1.57,1.37-2.16,1.53-3.53l-2.5-.47v-.14l3-1.2c-.9-.69-1.62-1.25-2.35-1.79a1.32,1.32,0,0,1-.17-2,3.83,3.83,0,0,1,2.43-1c.19.25.36.49.54.7.59.67.69.67,1.52.25a1.28,1.28,0,0,1,1.51.08,5.46,5.46,0,0,0,1.32.54,1.06,1.06,0,0,1-.52,1.29l.2.1a5.57,5.57,0,0,0,1.44-.39,1.64,1.64,0,0,1,1.63,0,9.34,9.34,0,0,0,1,.31l-2.43,1.61Z"/><path class="cls-1" d="M67.81,79.57c-.07,1-.15,1.74-.17,2.46,0,1.37-.37,1.82-1.89,2.41l-.65-3.18-2.5.94A.88.88,0,0,1,62.54,81a11.77,11.77,0,0,1,2.16-2.65c.76-.56.65-1.23-.1-1.81s-1.7-1.35-2.58-2a8.83,8.83,0,0,0-1.27-.65c-.26-.13-.6-.25-.47-.6a1,1,0,0,1,.54-.57,5.64,5.64,0,0,1,3.84.19,4.41,4.41,0,0,0,.52.24.57.57,0,0,0,.77-.38c0-.12.08-.24.12-.36.37-1.2.7-1.42,2-1.39-.09.9-.19,1.81-.27,2.71a1.78,1.78,0,0,0,.07.66c.13.42.53.58.81.26,1.08-1.25,2.41-1.11,3.79-.78a1.18,1.18,0,0,1,.26.11s0,0,.05.07l-3,2.57c.47,1.2,1.85.75,2.5,1.62l-1.25.35c-.12.6.37.5.64.78a6.33,6.33,0,0,1-1,1.3,1.17,1.17,0,0,1-1.35-.11Z"/><path class="cls-1" d="M143.72,115.32a2.23,2.23,0,0,0,2.09,1.13,6.94,6.94,0,0,1,1.41.17c0,.86-.79.81-1.34,1.16.45.66.84,1.25,1.26,1.84.11.15.32.25.39.41a.82.82,0,0,1,.06.62.67.67,0,0,1-.56.27,3.45,3.45,0,0,1-2-.76c-.27-.27-.59-.49-.86-.76a1.83,1.83,0,0,0-2.33-.42,2.15,2.15,0,0,0-1.33,1.13,3.34,3.34,0,0,0-.19.93c-.05.73-.06,1.47-.11,2.2a3.19,3.19,0,0,1-.15.58c-.19,0-.34,0-.49-.05-1.76-.32-1.46-.33-1.42-1.83a11.05,11.05,0,0,1,.23-1.41,3,3,0,0,0-.7-.06c-.82.12-1.64.25-2.44.43a1.92,1.92,0,0,1-2-.63c.81-.48,1.58-1,2.39-1.42,1-.53,2.07-1,3.11-1.5s1-1.06.17-1.62a20.5,20.5,0,0,0-2.06-1.2c-.35-.18-.61-.39-.62-.77a1.05,1.05,0,0,1,.52-.84c1.08-.83,2.24-.55,3.4-.34.13,0,.24.18.35.29s.13.23.22.31c1.2.94,1.39,1.2,2.28-.21.32-.51.76-1,1-1.49a1.17,1.17,0,0,1,1.28-.6c.63,0,.8.33.48.87-.49.82-1,1.63-1.49,2.45C144.1,114.56,143.92,114.93,143.72,115.32Z"/><path class="cls-1" d="M21.23,183.13c-.09,1-.19,1.83-.26,2.72a1.73,1.73,0,0,0,.08.66c.14.43.52.57.81.24,1-1.16,2.27-1.13,3.61-.8.15,0,.31.06.67.12-.64.51-1.18.9-1.68,1.35s-.94.94-1.43,1.45c.52,1.06,1.93.62,2.56,1.55l-1.33.27c-.11.59.37.54.64.8a5.12,5.12,0,0,1-.92,1.25,1.26,1.26,0,0,1-1.43-.09,2.78,2.78,0,0,0-1.57-.72,17.3,17.3,0,0,0-.15,2.2A2.37,2.37,0,0,1,19,196.55c-.58-.95-.46-2-.78-3.17l-2.52.95a.94.94,0,0,1,0-1.3,11.73,11.73,0,0,1,2.17-2.64c.7-.51.59-1.21-.11-1.75-.88-.68-1.75-1.38-2.66-2a7.51,7.51,0,0,0-1.19-.59c-.26-.12-.56-.18-.53-.57a.68.68,0,0,1,.6-.64,6.12,6.12,0,0,1,3.76.19,5.1,5.1,0,0,0,.52.23c.38.09.7,0,.83-.41l.09-.27C19.6,183.28,19.92,183.06,21.23,183.13Z"/><path class="cls-1" d="M361.12,262.16c-.92.33-1.37,1.21-2.15,1.61-.69-.76-.37-1.39.23-2a9.22,9.22,0,0,0,1.23-1.72c-1.43-.1-2.75.5-4.1.45-.07-.08-.13-.11-.15-.17-.36-1-.29-1.24.66-1.72.65-.33,1.35-.54,2.19-.87l-1.36-1.3.11-.21c.44.13.89.23,1.32.38s1,.41,1.53.57c.74.22,1,0,1.08-.74.13-1,.24-2,.38-2.94.2-1.37.82-1.67,2.21-1.05a6.94,6.94,0,0,0-.37,3.73c.43.24.71.06,1-.24a4.06,4.06,0,0,1,3-1.34,3.27,3.27,0,0,1,1,.2,13.41,13.41,0,0,0-3,2.33l1.16.32c.65.2,1.37.3,1.53,1.18l-2.39.42-.06.21c1.26.87,2.74,1.39,4,2.29a1.68,1.68,0,0,1-1.51.19,12.42,12.42,0,0,1-3.55-1.4c-.27-.14-.56-.26-.82-.37-.46.39-.33.83-.33,1.23a12.06,12.06,0,0,1-.34,3.62c0,.12-.06.25-.1.37-.13.4-.25.82-.77.86s-.76-.39-.88-1-.29-1.48-.45-2.22A3.24,3.24,0,0,0,361.12,262.16Z"/><path class="cls-1" d="M145.7,312l-.21,2.8a1,1,0,0,0,1.31-.25,2.65,2.65,0,0,1,2.27-.73l.49.82-1.24,1.08,1.11.54a.73.73,0,0,1-.77.42,2.26,2.26,0,0,0-2.3,1.66,8.13,8.13,0,0,0,4.61,1.74c-.14.86-.34,1-1.15,1a9.92,9.92,0,0,1-3.6-1c-1-.44-1.35-.26-1.67.78-.15.48-.05,1.11-.79,1.28-.15,0-.2.49-.32.83a2.26,2.26,0,0,0-1.4,1.07,1.35,1.35,0,0,1-1.48.34.93.93,0,0,1-.32-.62,4.29,4.29,0,0,1,.88-2.57c.46-.83.94-1.65,1.42-2.49a1,1,0,0,0-1.33-.47c-.81.19-1.62.38-2.44.51a9.58,9.58,0,0,1-1.42,0c.19-1.14,1.27-1.49,1.71-2.38L137.88,315l.11-.16c.23.05.47.09.7.16.48.16,1,.33,1.44.52a2.94,2.94,0,0,0,2.38-.4.7.7,0,0,0,.26-.56,7.48,7.48,0,0,0-.18-1.51.92.92,0,0,1,.35-1.1,1.17,1.17,0,0,1,1.32-.21,2.74,2.74,0,0,0,.79.17Z"/><path class="cls-1" d="M296.56,150.7a11.43,11.43,0,0,0-2.7,3.38,3.14,3.14,0,0,0,1.62.37,3.16,3.16,0,0,1,1.68.62,12.59,12.59,0,0,1-4.69,1.82,2,2,0,0,0-1.94,2.61,2,2,0,0,1-.81,2.19c-.32-.34-.55-.84-1.08-.64a7.25,7.25,0,0,0-1.12.69,5.27,5.27,0,0,1,.61-4.52c-.81-.55-1.72,0-2.44-.44-.36-.57-.07-1,.39-1.46l-1.77-.87a8.89,8.89,0,0,1-.94-.48c-.5-.32-.95-.68-.58-1.39.07-.14,0-.36,0-.66l3.11.67,2.15.51c.47.11.82,0,.93-.51s.24-.85.3-1.29a15.81,15.81,0,0,1,1-3.86c.14-.35.29-.56.76-.27a10,10,0,0,0-.68,3.62c0,.77,0,1.54,0,2.3a2.48,2.48,0,0,0,.24.68,2.11,2.11,0,0,0,.73-.29,16.58,16.58,0,0,0,1.74-1.88A2.65,2.65,0,0,1,296.56,150.7Z"/><path class="cls-1" d="M300.79,321.18c-1.33.93-1.92,2.23-2.85,3.31.5.54,1.12.38,1.65.47a3.14,3.14,0,0,1,1.72.64,15.52,15.52,0,0,1-2.49,1.22,26,26,0,0,1-2.79.63,1.81,1.81,0,0,0-1.33,1.45,3.21,3.21,0,0,0,0,1.14,2,2,0,0,1-.67,2.09c-.42-.22-.8-.58-1.15-.56s-.75.41-1.27.72a5.73,5.73,0,0,1,.78-4.71l-2.54-.22a1,1,0,0,1,.4-1.46c-.32-.19-.54-.34-.78-.46-.57-.29-1.16-.54-1.72-.84-.87-.46-.91-.57-.79-1.56a4.47,4.47,0,0,0,0-.61l6,1.32a9.43,9.43,0,0,0,.48-1.7,14.71,14.71,0,0,1,1-4.05c.13-.33.24-.61.71-.34a1.11,1.11,0,0,1,0,.35,11,11,0,0,0-.6,4.53,12,12,0,0,0,0,1.24c0,.17.13.42.25.46a.73.73,0,0,0,.6-.11c.6-.57,1.15-1.18,1.72-1.78.22-.23.42-.48.63-.73C298.58,320.66,299.59,321,300.79,321.18Z"/><path class="cls-1" d="M370.35,370.77c1.27-.6,2.13-1.89,3.66-1.84a1.09,1.09,0,0,1-.27,1.16c-.51.61-.46.76.31,1l3,1.07-.38.76c-1,.29-2.15-.14-3.27.29.62.55,1.34.47,1.94.69a1.37,1.37,0,0,1-1.48,1c-.8,0-1.6,0-2.4,0-1.82,0-1.74-.39-1.9,1.8,0,.28,0,.56-.08.89-.84-.38-.66-1.18-.89-1.93a7.56,7.56,0,0,0-.91.43q-1.13.72-2.23,1.49a1.55,1.55,0,0,1-1.46.19c-.56-.18-.7-.52-.36-1s.87-1.09,1.31-1.64l.39-.49a10,10,0,0,0-1.05-.24c-.51-.06-1,0-1.53-.11s-1.14-.12-1.37-.83c-.07-.23-.4-.38-.65-.59l.42-.84c1.4,0,2.8,0,4.2,0a15.89,15.89,0,0,0,2.25-.37.93.93,0,0,0,.75-.87c.15-.88.3-1.76.52-2.61a1.45,1.45,0,0,1,.57-.81c.2-.12.56,0,.85,0C370.35,368.55,370,369.62,370.35,370.77Z"/><path class="cls-1" d="M141.7,190a3.64,3.64,0,0,1,.32,2.58c-.05.23.14.52.24.83a1,1,0,0,0-.78.89c-.14.76-.8,1.11-1.3,1.63-.57-.25-1.11-.51-1.67-.73s-.78-.08-.8.53a7.07,7.07,0,0,1-.35,2.64,7.49,7.49,0,0,1-.63,1l-.24,0a9.53,9.53,0,0,1-.27-1.15c-.13-1.14-.22-2.29-.32-3.43,0-.16,0-.32,0-.48-.17-1.06-.66-1.35-1.69-1-.78.28-1.54.61-2.31.92-.2.08-.4.12-.7.21a2.84,2.84,0,0,1,.76-1.88,10.61,10.61,0,0,1,1.62-1c-.46-.58-.81-1.19-1.63-1.24-.58,0-.66-.5-.64-1.08,1.63-.45,3.28.39,4.93-.08.26-.93.58-1.87.78-2.83.1-.48.28-.66.74-.67a2.42,2.42,0,0,1,1.57.26c-.22.63-.48,1.24-.63,1.88a3.83,3.83,0,0,0-.11,2.06,5.53,5.53,0,0,0,2.35-.66,3.43,3.43,0,0,1,1.67-.31,1.06,1.06,0,0,1,1,.53C143.09,189.89,142.25,189.39,141.7,190Zm-2.36,1.22a2.55,2.55,0,0,0,1.84.61c-.09-.48,0-1-.49-1.2S139.8,190.76,139.34,191.19Z"/><path class="cls-1" d="M84.15,19.53a8.59,8.59,0,0,1-.26-1.09c-.12-1.14-.21-2.29-.31-3.43a6.05,6.05,0,0,0-.09-.76c-.18-.8-.6-1.08-1.38-.83s-1.67.63-2.5.94c-.22.08-.45.15-.76.24a2.94,2.94,0,0,1,2.35-2.79,2.28,2.28,0,0,0-2.13-1.48l-.15-1c1.66-.42,3.27.36,4.93-.06l1-3.38A2.66,2.66,0,0,1,87,6,7.22,7.22,0,0,0,86.13,10a5.3,5.3,0,0,0,2.4-.65A3.61,3.61,0,0,1,90.29,9a1,1,0,0,1,1,.65l-2,.4a3.84,3.84,0,0,1,.38,2.62,1.84,1.84,0,0,0,.17.79c-.22.27-.54.5-.62.79A3.48,3.48,0,0,1,87.8,16.1c-.53-.23-1-.49-1.58-.69s-.82-.13-.84.55A8.32,8.32,0,0,1,85,18.59,1.4,1.4,0,0,1,84.15,19.53Zm4.53-7.39.15-.22c-.12-.42,0-1-.6-1.14a1.14,1.14,0,0,0-1.21.76Z"/><path class="cls-1" d="M188.73,323.72a21.33,21.33,0,0,1-2.55-2.26c.27-.37.55-.25.81-.14.75.29,1.5.56,2.23.89a1.14,1.14,0,0,0,1.4-.16,5.79,5.79,0,0,1,1.25-.62c0-.46.07-1.08.1-1.71a5.32,5.32,0,0,1,0-.76.56.56,0,0,1,.68-.52,3.29,3.29,0,0,1,2.27,1.18,2.62,2.62,0,0,0-1,2.47c.52.16,1.06.35,1.6.47a1,1,0,0,0,1.16-.62c.07-.17.17-.33.3-.58l2.15.86-1.1.71.77.32c-1.34.62-2.74.85-3.48,2.22l3.19,1.53c-1.62.54-3.13,0-4.73-.17-.06.42-.13.75-.14,1.09,0,.7,0,1.41,0,2.11s0,.82-1,1.08c-.25-.51-.51-1-.76-1.58s-.51-.71-1.06-.27-1.15,1-1.77,1.54c-.36-.08-.3-.31-.13-.61a9.9,9.9,0,0,1,2-2.68,1.34,1.34,0,0,0,.49-1.08,1.08,1.08,0,0,0-1.38-1.1c-1.23.21-2.46.39-3.69.57a2,2,0,0,1-1.32-.38,2.92,2.92,0,0,1,1.7-.94,7.49,7.49,0,0,0,1.2-.31A5.17,5.17,0,0,0,188.73,323.72Z"/><path class="cls-1" d="M166.37,263.79c0-.49.09-1.19.08-1.88,0-.94.23-1.18,1.11-1a3.47,3.47,0,0,1,1.74.94,11.81,11.81,0,0,0-.83,1.71c-.23.77-.11.9.68,1.13l.18.06c1.28.4,1.44.33,2.08-.89a5.3,5.3,0,0,1,2.16.78l-.85.57.43.5c-1.19.55-2.54.8-3.31,2.13l3.07,1.54a2.33,2.33,0,0,1-.67.22c-1-.06-2-.14-3-.23-.3,0-.61-.09-1-.14,0,.41-.1.71-.11,1,0,.74,0,1.47-.06,2.21s0,.79-1,1.09l-.79-1.7c-.25-.54-.47-.63-.94-.26-.65.5-1.25,1.07-1.88,1.61-.31-.18-.21-.4-.08-.64a9.12,9.12,0,0,1,1.93-2.61,1.45,1.45,0,0,0,.53-1.08,1.06,1.06,0,0,0-1.25-1.17c-1.2.18-2.39.38-3.59.56a1.68,1.68,0,0,1-1.48-.38,2.73,2.73,0,0,1,1.62-.9,11.3,11.3,0,0,0,1.21-.28,4.59,4.59,0,0,0,.82-.52c-.74-1-1.89-1.35-2.49-2.35.37-.31.7-.15,1,0,.75.28,1.49.57,2.22.9a.92.92,0,0,0,1-.07C165.32,264.39,165.76,264.16,166.37,263.79Z"/><path class="cls-1" d="M76.23,151.63a5.23,5.23,0,0,1-.3-.91c-.05-.34-.23-.57-.52-.58a1.17,1.17,0,0,0-.65.3,1.43,1.43,0,0,0-.33.46,1.05,1.05,0,0,1-1.14.56c-.69-1.08.64-1.84.5-2.85-.81-.28-1.52.21-2.4.19a5.41,5.41,0,0,1,1.82-1.27c.47-.2.95-.38,1.41-.6.79-.37.92-1,.28-1.57s-1.34-1.07-2-1.59c-.33-.25-.7-.45-1-.71-.53-.42-.47-1.06.16-1.27a7.62,7.62,0,0,1,2-.34c.26,0,.55.26.81.44a6.58,6.58,0,0,1,.64.62,3.19,3.19,0,0,0,.3-.75,7.06,7.06,0,0,0,0-1.34,1.13,1.13,0,0,1,.73-1.31l2.31,1.25c-.23.61-1,1.13-.49,2a3.54,3.54,0,0,0,.67-.35,9.31,9.31,0,0,0,.8-.82c.69-.76,1.14-.77,1.82,0,.27.3.51.62.85,1-1.45.86-3.09,1.52-3.91,3.13.24.48.63.4,1,.39.83,0,1.66-.07,2.49-.09a1.19,1.19,0,0,1,.54.15c-.89.36-1.85.51-3,1.06l1.14.68a2.14,2.14,0,0,1-1.54.23,8.27,8.27,0,0,0-.84-.2c-.39-.08-.63.06-.64.48a2.19,2.19,0,0,0,0,.85,2.72,2.72,0,0,1-.33,2.2A.84.84,0,0,1,76.23,151.63Z"/><path class="cls-1" d="M111.45,368.91a3.34,3.34,0,0,0,0,1.12,3,3,0,0,1-.41,2.38.68.68,0,0,1-.69.41c-.38,0-.49-.26-.6-.51s-.05-.38-.11-.56a.6.6,0,0,0-1-.29,2.66,2.66,0,0,0-.46.61,1,1,0,0,1-1.16.5c-.6-1.06.66-1.82.55-3l-2.37.35a4.49,4.49,0,0,1,1.63-1.22c.46-.22.94-.4,1.41-.6,1-.41,1.1-1,.33-1.72-.6-.52-1.24-1-1.88-1.47-.33-.25-.7-.45-1-.71-.57-.44-.5-1.12.16-1.33a6.75,6.75,0,0,1,1.78-.33,1.86,1.86,0,0,1,.92.43,6.2,6.2,0,0,1,.73.72,7.94,7.94,0,0,0,.26-1.06,5.78,5.78,0,0,0,0-1.15,1,1,0,0,1,.76-1.23l2.28,1.22c-.17.61-1,1.1-.53,2a1.85,1.85,0,0,0,.57-.21,8.29,8.29,0,0,0,.89-.87c.78-.86,1.21-.87,1.94,0l.79,1c-1.46.87-3.1,1.51-3.9,3.13.2.48.58.39.92.39,1.08,0,2.16,0,3.26,0a20.63,20.63,0,0,0-2.89,1l.67.8a1.65,1.65,0,0,1-1.37.18C112.4,368.84,111.95,368.51,111.45,368.91Z"/><path class="cls-1" d="M250.28,76.44c-.51-.8.75-1.23.1-2l-.75-.25c.13-.66.68-.9,1.14-1.23a3.35,3.35,0,0,0-1.41-1.36,14.82,14.82,0,0,1-1.5-1.3c.28-1.09.71-1.36,1.77-1.22a18,18,0,0,0,2,.14.85.85,0,0,0,.89-.57,1.79,1.79,0,0,1,2.25-.88l.71.26c.49.16.55.31.27.73a1.48,1.48,0,0,0-.41,1.28l3.32,1.13,0,.18-2.08.75c.81.52,1.55.27,2.26.39l-.77.58c0,.22.2.5.12.61-.51.68-.91,1.49-1.76,1.83a3,3,0,0,1-1,.2.72.72,0,0,0-.81.74c0,.19-.06.38-.1.57-.18,1.12-.43,1.43-1.62,2a5.1,5.1,0,0,1-.57-2c-.05-.22,0-.45-.08-.66-.11-.48-.29-.59-.75-.41S250.68,76.25,250.28,76.44Z"/><path class="cls-1" d="M159.83,84.18c.05.74.54.73.93.84a4.91,4.91,0,0,1-.09.72c-.21.71-.38.77-1.1.56a11,11,0,0,0-1.22-.23,5.08,5.08,0,0,1-.75-.12c-1-.33-1.34,0-1.36,1a19.26,19.26,0,0,1-.32,2.55c-.09.53-.47.8-1.08.94-.84-1.54-.28-3.3-.7-4.95-1.58.26-2.4,1.61-3.73,2.34a3.54,3.54,0,0,1,1.13-2.41c.63-.57,1.28-1.11,2-1.72-.11-.12-.25-.28-.39-.42-.79-.74-1.62-1.44-2.37-2.23s-.61-1.38.46-1.74a4.6,4.6,0,0,0,.64-.21c.71-.37,1.37-.57,1.83.37a.92.92,0,0,0,.37.3c.62.38,1,.27,1-.48a2,2,0,0,1,1.65-1.84c0,1,0,2,0,3a6.27,6.27,0,0,0,0,.67c.06.56.39.77.94.58.33-.12.63-.3,1-.45a2.74,2.74,0,0,1,2.7,0,5.49,5.49,0,0,0-2.82,1.41c.11.54.48.66.93.69l2.95.19c.08,0,.16.08.32.16-.39.54-.93.33-1.38.37S160.35,84.16,159.83,84.18Z"/><path class="cls-1" d="M266.51,229.42l-1.8.68-.17-.16.57-1.7-1-.39c.07-.71.74-.84,1.2-1.34l-3-2.53c.34-1.06.66-1.29,1.65-1.2.63.06,1.26.16,1.89.17a1,1,0,0,0,1.16-.63,1.71,1.71,0,0,1,2.07-.9c.3.09.6.2.9.3s.5.31.21.68a1.46,1.46,0,0,0-.43,1.31l3.4,1.15V225l-2.12.71c.79.53,1.5.3,2.24.38l-.79.63c.14.29.35.58,0,.9a10.83,10.83,0,0,0-.81.94,2.25,2.25,0,0,1-1.59.77c-.9.06-.9.08-1.06,1a4.57,4.57,0,0,0-.08.47c-.07,1-.76,1.46-1.7,1.88Z"/><path class="cls-1" d="M177.28,223.35a5.43,5.43,0,0,0-3.11,1.43.87.87,0,0,0,.91.72l2.86.17a2.33,2.33,0,0,1,.42.12c-.35.64-.91.39-1.36.43s-.93,0-1.42,0c-.06.7.45.71.91,1l-.42,1.33c-1-.2-1.94-.31-2.81-.56s-1.3,0-1.33,1-.13,1.58-.22,2.36a1.36,1.36,0,0,1-1.15,1.26,1.91,1.91,0,0,1-.3-.6c-.11-1-.18-2-.27-3,0-.4-.05-.81-.09-1.3-1.62.2-2.44,1.57-3.74,2.28a3.24,3.24,0,0,1,1.13-2.42c.62-.58,1.28-1.1,2-1.69l-2.35-2.21a5.58,5.58,0,0,1-.59-.62c-.49-.63-.39-1.12.33-1.43a15.1,15.1,0,0,1,1.63-.57.7.7,0,0,1,.84.27,3.23,3.23,0,0,0,.94.78c.33.18.62,0,.7-.37a2.63,2.63,0,0,0,.06-.38c0-1,.67-1.37,1.57-1.66a3.17,3.17,0,0,1,.09.55c0,.93-.05,1.85-.08,2.78s.35,1.15,1.2.78a1.48,1.48,0,0,0,.26-.12A3.66,3.66,0,0,1,177.28,223.35Z"/><path class="cls-1" d="M298.68,255c-1.38-.5-2.39.41-3.63.79a1.83,1.83,0,0,1,.79-1.43l1.79-1.12c.91-.56,1-.72.17-1.49a20.16,20.16,0,0,0-2.37-2.09,1.8,1.8,0,0,1-.8-1.63c1.23-.47,2.53,0,3.77-.16l.87,1c.25-.48.4-.82.6-1.12.48-.72,1.19-.85,1.75-.27a1.73,1.73,0,0,1,.34.94,4,4,0,0,1-.09,1c0,.28-.07.55-.12.91a3,3,0,0,0,.81,0c1.23-.4,1.35-.07,2.07.68a3.72,3.72,0,0,0-2.65,1.6c.39,0,.78,0,1.17-.06a5.58,5.58,0,0,1,2.37,0,5.82,5.82,0,0,1,.83.38c-.15.46-.44.54-.72.43-.87-.35-1.51.21-2.38.49l.69.47s0,.12-.08.14a1.75,1.75,0,0,1-1.35.33,2.53,2.53,0,0,0-1,0,.71.71,0,0,0-.48.38,17.36,17.36,0,0,0-.33,2c-.09.85-.08,1.71-.21,2.56,0,.24-.37.51-.63.62a.7.7,0,0,1-.63-.25,2.09,2.09,0,0,1-.33-1c-.09-1.2-.13-2.41-.2-3.62C298.74,255.35,298.71,255.19,298.68,255Z"/><path class="cls-1" d="M313.67,116.2c1.09-.14,2.18-.75,2.84.57a5.58,5.58,0,0,0-2.74,1.36c.54.46,1,.21,1.51.14a4.62,4.62,0,0,1,2.18,0,6.25,6.25,0,0,1,.83.41c-.51.78-1.08.07-1.55.27s-1,.35-1.57.58l.74.51a1.61,1.61,0,0,1-1.58.46,2.53,2.53,0,0,0-.76,0,.63.63,0,0,0-.65.58,28,28,0,0,0-.47,4.05c0,.21,0,.5-.11.61s-.62.47-.77.39a1.41,1.41,0,0,1-.67-.84,12.85,12.85,0,0,1-.16-2c0-.82-.07-1.64-.1-2.49a2.48,2.48,0,0,0-1.9,0c-.55.23-1.09.48-1.73.77a1.59,1.59,0,0,1,.73-1.43c.62-.4,1.24-.78,1.87-1.16.8-.48.86-.7.19-1.38a21.33,21.33,0,0,0-2.42-2.17,1.85,1.85,0,0,1-.82-1.74,15.76,15.76,0,0,1,3.8,0l.72.89a3.67,3.67,0,0,0,.4-.44,5,5,0,0,1,.42-.75c.29-.32.61-.67,1.15-.43s.89.59.85,1.22c0,.32-.07.64-.1,1Z"/><path class="cls-1" d="M274.07,294.93c.73-1.45,2.38-1.71,3.5-2.88-1.52-.2-2.87.61-4.33.06l2.65-1.56-1.32-1c1.25-.38,2.18.35,3.2.18a4.55,4.55,0,0,0,.09-2.17c-.12-.55-.18-1.13.36-1.48a1.63,1.63,0,0,1,1.73,0c.67.33.92,1.06,1.55,1.4l-.44,1.51a1.07,1.07,0,0,0,1.31-.17c.31-.32.67-.6,1-.9a1.66,1.66,0,0,1,1.71-.26.58.58,0,0,1,.34.41c0,.13-.16.32-.3.42s-.52.26-.73.44c-.36.32-.8.65-.16,1.26a2,2,0,0,0-1.86,1.09l2.56,1.81a2.22,2.22,0,0,1-1.28-.06l-2-.62c-.9-.27-1.11-.11-1.25.84s-.35,2.07-.55,3.1a.82.82,0,0,1-.66.73c-.77.15-1,0-1.25-.76-.19-.6-.36-1.2-.56-1.86a4.8,4.8,0,0,0-1.95.74C274.75,295.55,274.75,295.54,274.07,294.93Z"/><path class="cls-1" d="M277.31,100.26c-.72.34-1.35.62-2,.93s-.66.34-1.3-.28c.67-1.45,2.39-1.69,3.51-2.88-1.54-.17-2.9.6-4.32.06l2.71-1.61-1.29-.86.15-.23c1-.25,1.88.42,2.89.31a3.74,3.74,0,0,0,.2-1.93c0-.16-.05-.32-.07-.47-.14-1.19.68-1.86,1.78-1.38.43.19,1,.31,1.12.92.88.4.74,1,.41,1.73a1.18,1.18,0,0,0,0,.39.93.93,0,0,0,1.22-.17c.29-.29.63-.54.92-.84a1.62,1.62,0,0,1,1.77-.33.73.73,0,0,1,.39.47c0,.09-.19.29-.33.39s-.57.3-.8.51c-.42.37-.41.43-.27,1.13a2.27,2.27,0,0,0-1.68,1.12L284.88,99a5.88,5.88,0,0,1-2.61-.47c-.34-.07-.66-.24-1-.32a.61.61,0,0,0-.85.52c-.1.5-.11,1-.2,1.52-.13.72-.29,1.44-.48,2.15s-.51.57-1.15.62c-.45,0-.58-.32-.68-.67C277.73,101.76,277.55,101.12,277.31,100.26Z"/><path class="cls-1" d="M114.37,284.78c0,.83-.55,1.5-.12,2.37a3.51,3.51,0,0,0,1-.56,2,2,0,0,1,2.42-.56c.24.08.48.15.84.26l-.71,1,.46.83c-1.53-.41-2.37.57-3.48,1.25.7.84,1.13,1.77,2.3,1.85a2.06,2.06,0,0,1-.42,2.22.74.74,0,0,1-.58.24,4.33,4.33,0,0,1-1.19-.24c-.76-.28-1-.16-1,.66s-.08,1.21-.92,1.33c-1-1-.53-2.51-1.27-3.73l-2,.62c-.38-.69.2-1.13.32-1.71l-.89-.38.78-1.22c-.2-.88-1.07-1-1.68-1.37a1.5,1.5,0,0,1,0-.32c.29-1.18.29-1.15,1.48-.91a11.88,11.88,0,0,0,1.72.1c.13-.69.17-1.32.72-1.69.15-.1.33-.25.49-.24C113.18,284.6,113.74,284.7,114.37,284.78Z"/><path class="cls-1" d="M113.31,37.1a6.87,6.87,0,0,0-.55-1.27,3.78,3.78,0,0,0-.82-.63c-.23-.18-.43-.38-.65-.57l.11-.16,2.3.49c.1-.42.19-.75.25-1.08.23-1.42.42-2.84.68-4.25a1.27,1.27,0,0,1,.53-.72c.1-.07.44.15.63.29a3.66,3.66,0,0,1,.71.65,1.26,1.26,0,0,1,.26,1.4,11.54,11.54,0,0,0-.39,1.17c.36,0,.61,0,.84,0a12.7,12.7,0,0,1,1.42.11.62.62,0,0,1,.51.71.82.82,0,0,1-.46.49,2.13,2.13,0,0,0-1.27,1.38,1.46,1.46,0,0,0,1.34-.41c.37-.3.67-.75,1.2-.7a2.66,2.66,0,0,1,1.74.67,9.37,9.37,0,0,1-.78.83,1.36,1.36,0,0,1-.73.38,6.83,6.83,0,0,0-3.07,1.23c-.47.26-.9.58-1.49,1-.08.68-.19,1.52-.29,2.38s-.19,1.72-.27,2.57c-.06.6-.06.6-.8,1.39-.14-.57-.28-1.06-.4-1.57s-.18-.94-.27-1.41-.33-.52-.7-.39l-1.23.46.17-2c-.92-.12-1.68.42-2.77.45.64-.49,1.1-.87,1.58-1.2a7.16,7.16,0,0,0,1.84-1.35C112.6,37.2,113,37.2,113.31,37.1Z"/><path class="cls-1" d="M120.62,71.36c-.25,1-.42,1.79-.62,2.55-.15.58-.37,1.1-1.17,1.15l-.43-3.35c-.92,0-1.52.95-2.46.58-.55-1.08.83-1.4,1-2.28-1.57-.19-3,.67-4.54.61a1.24,1.24,0,0,1,1-1.07c1.13-.34,2.27-.62,3.41-.93l1-.28c-.26-.79-.88-1.1-1.37-1.53a3,3,0,0,1-.55-.52.69.69,0,0,1,.36-1.14c.41-.17.83-.32,1.3-.49a1.68,1.68,0,0,1,1.18.93c.37.74.78.69,1.18-.06.13-.25.25-.52.4-.76s.48-.68,1-.6l-.19,2.19c.49.32.73-.06,1-.16a2.24,2.24,0,0,1,1-.18l-1.43,1.83,1.1.41c-.51.39-.26.74,0,1.13.57.8,1.1,1.64,1.67,2.45A.93.93,0,0,1,124.4,73c-.3.38-.63.41-1.18.07s-.89-.62-1.33-.92Z"/><path class="cls-1" d="M322.42,38.81c.4-.44.77-.89,1.19-1.3s.68-1,1.58-1a4.89,4.89,0,0,1-.29.77c-.78,1.31-1.58,2.62-2.43,4a12.2,12.2,0,0,0,2.66.35,3.36,3.36,0,0,1,2.3.69,6.56,6.56,0,0,0-3.25.2l1.31,1.12c-1.13-.07-1.93-1-3.16-1,0,.46,0,.86,0,1.27,0,.7,0,1.4-.09,2.1a.9.9,0,0,1-.9,1c-.9-.77-.24-2-.83-3a5,5,0,0,0-.68.49,2.78,2.78,0,0,1-2.42.62c-.51,0-.75-.48-.93-.88a7.75,7.75,0,0,1-.64-5.58c.13-.43.36-.62.87-.46.82.26,1.61.6,2.4.94.29.12.54.35.82.49.58.31.8.18.87-.48.13-1.27.25-2.54.37-3.81.07-.76.13-1.52.23-2.28a.79.79,0,0,1,.37-.51l.32,6.19Zm-3.61,2.35-1.13-.1c-.14.74-.34,1.38.17,2a.59.59,0,0,0,.91.15,5.25,5.25,0,0,0,.59-.65l-1.48-.71Z"/><path class="cls-1" d="M70.38,306.88c-.52-.45-1.06-.89-1.56-1.37a2.52,2.52,0,0,1-.54-.76.63.63,0,0,1,.09-.53,1.79,1.79,0,0,1,2.81.09c.2.34.4.66.88.59.62-.6.57-1.81,1.79-2l-.19,2.55,1.95-.79.08.14-1.48,1.9,1.17.29c-.08.11-.3.29-.31.48a1.29,1.29,0,0,0,.27.68c.56.85,1.15,1.69,1.7,2.54a1,1,0,0,1-.1,1.2.76.76,0,0,1-1.11.09c-.46-.34-.93-.67-1.4-1s-.72-.47-1.16-.75A7.22,7.22,0,0,0,73,311c-.17.65-.31,1.3-.47,2a1.16,1.16,0,0,1-1.11,1L71,310.54c-.89,0-1.52.94-2.46.59-.32-.42-.13-.8.19-1.16l.94-1.09c-1.67-.28-3.08.64-4.64.54a1.23,1.23,0,0,1,1-1.06c1-.31,2-.56,2.94-.82.48-.13,1-.23,1.45-.34Z"/><path class="cls-1" d="M194.55,207.32l.68-.57c-.33-.8-.24-1.06.48-1.45l1.27-.67s.12,0,.24,0c.52.49.46,1.57,1.52,1.63a6.14,6.14,0,0,0,.7-2.62c.24-1.06.3-1.21,1.53-1.45a8.74,8.74,0,0,0-.26,3.72c1.27-.47,2.36-1.19,3.68-.87,0,.68-.43,1.15-.8,1.7a3.61,3.61,0,0,0,2.61.79c.06.73-.59.93-.8,1.26l-3.2-.27c.22,1.11,1.52.67,1.75,1.53a1.26,1.26,0,0,1-1.71.57c-.5-.16-1-.31-1.67-.5l-.46,4a.6.6,0,0,1-.91-.5c-.15-.78-.24-1.57-.32-2.35a9.6,9.6,0,0,1,0-1,1.73,1.73,0,0,0-1.45.37c-.79.54-1.66.28-2.5.26-.09,0-.18-.15-.32-.28l2.5-2Z"/><path class="cls-1" d="M203.66,68c.44.93,1.53.6,1.82,1.39a1.25,1.25,0,0,1-1.71.61c-.5-.18-1-.31-1.67-.5l-.48,4c-.5.22-.77,0-.85-.38-.17-.77-.28-1.56-.38-2.34a8.82,8.82,0,0,1,0-1.1,1.32,1.32,0,0,0-1.35.26,3.9,3.9,0,0,1-2.58.32c-.09,0-.18-.15-.33-.3l2.5-2-2.66-1.24.77-.5c-.08-.29-.26-.59-.18-.79a1.73,1.73,0,0,1,.63-.67,7.79,7.79,0,0,1,.93-.5c.6-.32.71-.28,1,.38s.32.75,1.19,1.12a10.43,10.43,0,0,0,.37-1.14c.14-.65.22-1.32.34-2s.74-.88,1.47-1.06a8.12,8.12,0,0,0-.22,3.73c1.24-.36,2.3-1.19,3.65-.79,0,.66-.42,1.13-.78,1.66a3.49,3.49,0,0,0,2.6.78C207.48,68,207,68.26,206,68A9.39,9.39,0,0,0,203.66,68Z"/><path class="cls-1" d="M172.82,178.26l-.28-.53c.39-.43.77-.89,1.2-1.32,1-1,1-1.18-.35-1.82a7.25,7.25,0,0,1-1.45-.9,2.17,2.17,0,0,1-.52-.89.77.77,0,0,1,.92-1,11.15,11.15,0,0,0,1.21.31c.82.18,1.18,0,1.12-.79a6.8,6.8,0,0,1,0-1c0-.28.06-.55.08-.8,1.61-.18,2.18.52,1.77,2a7.2,7.2,0,0,0-.13,1.1l.19.07a12.88,12.88,0,0,1,.8-1.24,1.32,1.32,0,0,1,.73-.5,15,15,0,0,1,1.84,0c-.28,1.12-1.77,1.27-1.74,2.49.32.31.6.18,1,.07.87-.28,1.78-.45,2.78-.7a8.09,8.09,0,0,0-.07.87c0,.75-.42,1.07-1.07,1.25-.39.11-.76.26-1.24.44l1.06,1.39-.51.9c-.67-.23-1.35-.47-2-.69-1-.3-1.08-.25-1.45.66s-.66,1.67-.93,2.52a6.7,6.7,0,0,0-.15,1.27c-.43-.28-.38-.65-.4-1a5,5,0,0,0-.62-2.7Z"/><path class="cls-1" d="M210.76,134.1l.93,1.21.15-.08,0,.71c.36.64,1.32.2,1.58,1a2.87,2.87,0,0,1-1.89.79,1.71,1.71,0,0,0-1.86,1.54c-.11.43-.21.87-.28,1.31a3.81,3.81,0,0,1-1.34,2,.82.82,0,0,1-1.34-.49,5.85,5.85,0,0,1,0-1.32c0-.63,0-1.25,0-1.89-.89-.18-1.44.56-2.27.7a1,1,0,0,1,.74-.77,2.58,2.58,0,0,0,1.47-1c-.46-.48-.92-.22-1.38,0l-1.5.74.66-1.19-2.3-.6c.53-.42.57-.83.22-1.23.5-.8,1.37-1,2.05-1.44.17-.11.55,0,.8.11.59.23,1.15.51,1.81.8.6-1.19.21-2.33.15-3.48a1.26,1.26,0,0,1,1.45.53,6.06,6.06,0,0,0,1.3,1.08v.69l-.79.68C209.9,135,210.28,134.18,210.76,134.1Z"/><path class="cls-1" d="M276.29,61.16l1.17-1-1-.93.08-.21,1.58-.08c1-.05,1.17-.28,1.39-1.22a2.67,2.67,0,0,0-.61-2.56,18.57,18.57,0,0,1-1.24-1.58c-.14-.19-.31-.5-.25-.64a.85.85,0,0,1,.63-.31,3.23,3.23,0,0,1,.93.12c.33.08.66.19,1.1.32.06.87,0,1.9,1,2.54.56-.59.46-1.32.59-2s.25-1.3.37-1.93c1.05,0,1.15.12.82.94a13.06,13.06,0,0,0-.68,4.8c.39.25.72,0,1-.18a7.17,7.17,0,0,1,2.89-.93h.52c-.38,1.34-1.61,1.78-2.55,2.62a3.33,3.33,0,0,0,1.81.2c.56,0,1.12,0,1.85,0l-2.7,1.31c.33.63,1,.8,1.59,1.16a3.9,3.9,0,0,1-3.31-.89,1.15,1.15,0,0,0-1-.11c-.18.07-.27.53-.28.82-.06,1.21-.06,2.43-.1,3.64a1,1,0,0,1-.73,1c-.86-1.65-.42-3.44-.63-5.14-.66-.19-1.16.19-1.7.3a16.51,16.51,0,0,1-1.87.33C276.86,61.6,276.63,61.36,276.29,61.16Zm4.56-2.83c-.18-.49-.4-.84-.93-.88a.8.8,0,0,0-.13,1.12C280.13,58.93,280.47,58.6,280.85,58.33Z"/><path class="cls-1" d="M193.91,11.29c-1.31-.7-2,.45-3.06.55l.73-1-2.39-.62c.55-.41.57-.82.23-1.22.5-.8,1.37-1,2.05-1.44.18-.11.55,0,.8.1.59.23,1.15.51,1.84.83a3.54,3.54,0,0,0,.29-.87,15.84,15.84,0,0,0-.07-1.81c0-.31-.24-.73.19-.8a1.61,1.61,0,0,1,1,.34c.27.18.42.55.68.76a3.14,3.14,0,0,0,.79.34v.86c-.16.3-.78.25-.62.85.68.16,1.06-.47,1.68-.62.17.44.15,1.06.82,1.06.08,1,.08,1,1.09,1.31a2.49,2.49,0,0,1,.55.37,2.34,2.34,0,0,1-1.79.9c-1.36.11-1.76.5-2,1.9a4.65,4.65,0,0,1-1.4,2.86.89.89,0,0,1-1.54-.41,4.7,4.7,0,0,1,0-1.23c0-.62.06-1.25.09-1.84-.65-.28-1,.1-1.45.28s-.79.37-1.18.55l-.1-.19Z"/><path class="cls-1" d="M360,23.65a10.51,10.51,0,0,0-1.23.22,4.61,4.61,0,0,1-2.36-.16.77.77,0,0,1-.44-.53c0-.13.2-.38.37-.48a3.38,3.38,0,0,1,.8-.28,1.91,1.91,0,0,0,1.38-1.13c-.38-.48-1.31-.34-1.34-1.24l1.76-1.19c-.17-.7-.72-1.29-.36-2.08.53.2,1,.37,1.52.58a.66.66,0,0,1,.26.37c.11.31.22.64.64.58s.38-.46.45-.75c.31-1.27.6-2.55.92-3.82a4.69,4.69,0,0,1,.3-.68,1.39,1.39,0,0,1,.46,1.58c-.25.89-.49,1.78-.75,2.71-.17.1-.52.19-.61.39a3.38,3.38,0,0,0-.36,1.55c0,.39.47.76.77,1.1.07.08.39,0,.52-.05a7.86,7.86,0,0,0,1.15-1c.63-.71.51-1.07-.48-1.45a4.48,4.48,0,0,1,.34-.32c.84-.64,1.07-.58,1.58.37a1.61,1.61,0,0,0,.34.44c.54.48.62.73.14,1.24s-1.17,1.08-1.76,1.61c-.19.17-.39.31-.65.53a3.09,3.09,0,0,0,.6.51,2,2,0,0,1,1.1,1.87c0,.37.1.74.15,1.1a1.56,1.56,0,0,1-1.82-.54c-.55-.57-1.16-1.07-1.88-1.72a17.78,17.78,0,0,0-.36,1.77c-.07.69,0,1.42-.09,2.09a5.79,5.79,0,0,1-.75,1.72c-.19.32-.63.16-.66-.25a8.14,8.14,0,0,1,0-1.53c.07-.73.21-1.45.31-2.18C360,24.36,360,24.11,360,23.65Zm-.2-2h-.88c0,.11,0,.28,0,.33C359.19,22.21,359.43,22.11,359.79,21.64Z"/><path class="cls-1" d="M279.68,197.45c.25-1.16-.53-1.91-1.1-2.73-.29-.42-.66-.78-1-1.17s-.23-.78.34-.84a3.36,3.36,0,0,1,1,.1c.36.08.71.22,1.15.36a2.82,2.82,0,0,0,1,2.61c.71-1.33.42-2.79,1-4,1,0,1.08.13.73,1a16.41,16.41,0,0,0-.78,4.32c-.07.51.22.7.72.5s1.11-.49,1.65-.76a5,5,0,0,1,2.17-.39c-.38,1.32-1.6,1.78-2.59,2.65a20.87,20.87,0,0,0,3.23.21c-.56.78-1.49.77-2.23,1.25a3.69,3.69,0,0,0,1.46,1.09,3.13,3.13,0,0,1-2.92-.69,2.27,2.27,0,0,0-.4-.26c-.69-.29-1.11,0-1.12.74,0,1.24,0,2.49-.07,3.73,0,.43-.11.83-.72.93-.83-1.61-.44-3.36-.58-5.18-.4.07-.73.1-1,.17-.8.18-1.6.4-2.41.55-.42.08-.43,0-.76-.54l1.1-.9-1.24-.87a4.42,4.42,0,0,1,.73-.26c.29,0,.57,0,.86,0,1.29,0,1.31-.06,1.65-1.36a1.07,1.07,0,0,1,.14-.25c0,.46-.21.93.24,1.4l.93-.4C280.64,197.76,280.33,197.39,279.68,197.45Z"/><path class="cls-1" d="M162.7,49.75c0-.62-.06-1.25-.15-1.86-.13-.89-.23-.94-1.12-.69a12.28,12.28,0,0,1-1.57.41,10.16,10.16,0,0,1-1.61,0c-.62,0-.87-.52-1.06-1-.07-.17.13-.56.32-.7A5.07,5.07,0,0,1,160,44.52c.39,0,.74-.44,1.11-.67a2.83,2.83,0,0,0-1.35-1.77,1.38,1.38,0,0,1-.52-1.52.65.65,0,0,1,1.05-.53,2.54,2.54,0,0,1,1.18,1.34c.17.4.33.83.91.92.37-.74-.16-1.43-.05-2.18.7-.32,1.42,0,2.13-.08a5.1,5.1,0,0,1,.6,3.22c.95.1,1.48-.79,2.14-.81l.59.91a8.63,8.63,0,0,0-2.39,1.52c.35,1,1.42.74,2.12,1.35l-1.71.54.41,1.2c-.38.38-.76.14-1.12,0-.53-.24-1.06-.51-1.78-.86a3.82,3.82,0,0,1-.41,2.67Z"/><path class="cls-1" d="M96.74,227.47l2.13,1.82,0,.2a1.76,1.76,0,0,1-.65.06c-.61-.19-1.2-.44-1.79-.67s-1.24-.52-1.87-.72-1.06,0-1.13.74,0,1.34,0,2l-.19,0-.46-1.62c-.23.09-.45.15-.67.25s-.67.37-1,.53-.56.18-.78-.12a.67.67,0,0,1-.07-.88c.35-.45.73-.88,1.11-1.31.23-.25.49-.48.84-.82l-2.35-.9.73-1.16c-.21-.14-.45-.28-.67-.45a3.25,3.25,0,0,1-.65-.55c-.64-.83-.55-1.28.34-1.84l.32-.2a1.27,1.27,0,0,1,.2-.07c.52.49,1,1,1.59,1.48s1.08.84,1.69,1.3a4.64,4.64,0,0,0,.33-1.9,6.25,6.25,0,0,1,0-.85c.07-.35.3-.54.65-.46l-.45,3.26a1.82,1.82,0,0,0,1.59-.11c.49-.24,1-.51,1.46-.72a6.08,6.08,0,0,1,1-.21l-.39,1.25,2.94,1.05a1.77,1.77,0,0,1-1.82,1.28c-.63,0-1.27,0-1.91,0Z"/><path class="cls-1" d="M231.49,28.15c-.38.3-1-.5-1.34.22.33.49,1.14.36,1.33,1.06.14.53.52,1,.21,1.61l.72,1.19-.18.18-1.66-1.18c-.18-.13-.33-.3-.52-.42-.76-.48-1.28-.29-1.51.57a2.3,2.3,0,0,0,0,.84,9,9,0,0,1-.68,3.16c0,.08-.19.13-.34.23-.3-1.25.16-2.5-.21-3.73-1.15.17-2.13.81-3.3.48a1.51,1.51,0,0,1-.16-1.45,10.26,10.26,0,0,0,.23-2.06c.17.25.28.39.38.55a1.45,1.45,0,0,0,2,.61,4.66,4.66,0,0,0,1-.63c.45-.39.41-.83-.13-1a6.73,6.73,0,0,0-3-.79,3,3,0,0,1-1.7-.77l1.11-.36-.85-.72.78-1.4c.51.26,1.05.49,1.55.8s1.21.84,1.82,1.25,1.08.32,1.18-.5c.16-1.27.26-2.54.38-3.81,0-.35,0-.79.44-.83s.47.42.6.73a1.9,1.9,0,0,0,.48.75l-.7,4.48c.5.47.63.51,1.53.36Zm-6.71-2.91-.11.08c0,.09.06.22.13.26a1.11,1.11,0,0,0,.36.08l0-.12Z"/><path class="cls-1" d="M270.43,24.53c-.12.54-.24,1-.31,1.47a3.72,3.72,0,0,0-.07,1,.83.83,0,0,0,1.33.63,2.91,2.91,0,0,1,1.77-.53c0,.77-.71,1.19-1,1.82a1.76,1.76,0,0,0,2.07,1.23l-.27.7.68.49c-.21.19-.37.47-.55.47a1.87,1.87,0,0,1-1-.21,1.35,1.35,0,0,0-1.36-.06c-.23.1-.48.16-.73.24-1.44.47-1.14.2-1.33,1.7-.11.82-.12,1.64-.17,2.49-.56.08-.63-.23-.64-.62a2.73,2.73,0,0,0-.32-1.54c-2,.6-2,.6-2.69.38l1-2c-.58-.77-1.89-.43-2.32-1.4.18-.56.62-.6,1-.64s1.09,0,1.63-.06a7.76,7.76,0,0,0,1.32-.22c.4-.1.49-.47.19-.71a13.53,13.53,0,0,0-1.27-.83c-.45-.28-.91-.55-1.54-.92a5.07,5.07,0,0,1,.83-.54c.68-.25,1.37-.45,2.06-.67a1.49,1.49,0,0,0,1.05-1.1C269.91,24.94,269.87,24.6,270.43,24.53Z"/><path class="cls-1" d="M234.58,206.91a9.62,9.62,0,0,1,.95-.48c.65-.23,1.31-.41,2-.66a1.43,1.43,0,0,0,1-1c.07-.33.11-.71.62-.8-.11.53-.24,1-.32,1.51a3.92,3.92,0,0,0-.07,1,.83.83,0,0,0,1.37.64,2.41,2.41,0,0,1,1.84-.44l-1.06,1.73c.58,1.1.71,1.19,1.93,1.37l-.1.63.48.37a.51.51,0,0,1-.57.6c-.34-.07-.66-.23-1-.33a1.53,1.53,0,0,0-.72-.13c-.68.18-1.34.43-2,.65a.65.65,0,0,0-.44.66c-.08,1-.18,2.09-.27,3.18-.49.14-.65-.11-.65-.52a3.93,3.93,0,0,0-.25-1.63,5.41,5.41,0,0,1-2.62.61c0-.88.67-1.41.91-2.23l-1.5-.6c-.39-.15-.88-.28-.78-.8s.54-.47.94-.51l2.76-.23c.27,0,.56-.06.55-.39a.78.78,0,0,0-.34-.5c-.44-.3-.92-.54-1.37-.83S235.1,207.28,234.58,206.91Z"/><path class="cls-1" d="M187.18,288.66c.35-.56.51-.64,1.24-.48a1.15,1.15,0,0,0,1.18-.16c-.51-.83-1.55-1.08-2.22-1.94,1.47.19,2.65.95,4,1.18a12.38,12.38,0,0,0-.37-6c.77.2,1.32.4,1.59,1.07a6,6,0,0,1,.52,2.61,1.58,1.58,0,0,0,0,.19c.05,1,.15,1.08,1.32.71-.3.29-.5.47-.67.67s-.56.25-.44.65c2.61.23,5.23-.39,7.86.22l-1.77.47c-1.08.28-2.17.55-3.24.85a8.8,8.8,0,0,0-1,.45l1.47.76c-1.25.21-2.32-.43-3.49-.24l-1,3.59-1.16.53c0-.7,0-1.36,0-2,0-.44.11-.89.12-1.33,0-.7-.13-.81-.85-.82-.25,0-.51,0-.76,0A2.81,2.81,0,0,1,187.18,288.66Zm5.56-3.78c-.36.55-.35.66,0,1.22Z"/><path class="cls-1" d="M124.4,155.73l-3.12-.4c0,.89-.07,1.65-.13,2.41a2.32,2.32,0,0,1-.21.92c-.26.47-.72.46-.92,0a15.07,15.07,0,0,1-.5-1.74c-.06-.21-.09-.42-.14-.7l-1.59.59a3.71,3.71,0,0,1,1.85-2.32c-.41-.31-.69-.54-1-.74-.82-.55-1.65-1.09-2.46-1.65a2.48,2.48,0,0,1-.57-.61.59.59,0,0,1,.26-1,7.13,7.13,0,0,1,1.63-.54,1.32,1.32,0,0,1,.78.29c.24.15.42.4.65.56.54.38.8.27.95-.39s.5-.86,1.51-.59a5.77,5.77,0,0,0,.06,2.72c.61.09.88-.4,1.24-.67.92-.67.9-.69,2-.06l-1.79,1.56,2.12.29-1.73.94Z"/><path class="cls-1" d="M342.51,297.28c-1.31.82-2.95,1.06-3.89,2.42a1.64,1.64,0,0,0,1.7,1.13,3.22,3.22,0,0,1,1.23.09l-.86.84.69.76a1.32,1.32,0,0,1-1.16.22,4.86,4.86,0,0,0-2.71.36c-.37.1-.43.42-.43.77,0,.76,0,1.53,0,2.4-.83-.86-.59-2-1-2.89l-1.15-.22-.25-1.3c.23-.16.45-.28.64-.44a.77.77,0,0,0,.09-1.3,5.93,5.93,0,0,0-2.46-1.72c-.81-.26-1-1.15-.49-2.06.6.31,1.22.61,1.82.94a8.73,8.73,0,0,1,.88.58c.33.24.66.62,1.1.38s.27-.72.29-1.13a9.57,9.57,0,0,1,.24-1.61c.08-.36.13-.35.71-.33-.07.71-.14,1.43-.21,2.14a1.53,1.53,0,0,0,0,.48c.08.35.1.9.32,1,.45.22.55-.37.81-.62a5.64,5.64,0,0,1,1-.84A3.53,3.53,0,0,1,342.51,297.28Z"/><path class="cls-1" d="M206.74,252.91c-.8-.72-.63-1.72-1-2.6l-1.22-.26-.2-1.26c.2-.14.41-.27.6-.43.52-.41.58-.84.14-1.3a4.71,4.71,0,0,0-2.37-1.69c-.76-.16-.86-.8-1-1.38s.3-.78.78-.54c.71.36,1.39.78,2.08,1.18a4.23,4.23,0,0,0,.39.27c.28.12.63.36.85.28.41-.14.37-.58.36-1a8.39,8.39,0,0,1,.18-1.61c.08-.43.32-.68.84-.47a6.89,6.89,0,0,0,0,3.9c.75-.78,1.22-1.64,2.14-1.9a3.88,3.88,0,0,1,2.77,0c-.59.66-1.42.7-2.06,1.08a5.87,5.87,0,0,0-1.82,1.4c.55,1.51,1.77,1.2,3,1.23l-.93.89.73.8a1.65,1.65,0,0,1-1.33.15,4.83,4.83,0,0,0-2.61.43c-.18,0-.37.43-.39.68C206.71,251.44,206.74,252.17,206.74,252.91Z"/><path class="cls-1" d="M12.37,302.72a7.63,7.63,0,0,0,.07,2.81c.49-.35.87-.6,1.23-.87.73-.55.74-.55,1.62,0l-1.52,1.38,1.78.29-1.45.84,1,1-2.75-.35L12.25,309c0,.54-.08,1.08-.12,1.62,0,.33-.22.59-.52.57a.79.79,0,0,1-.52-.44,7.62,7.62,0,0,1-.34-1.19c-.07-.27-.12-.54-.17-.77-.61-.13-.92.63-1.54.29a4.62,4.62,0,0,1,1.73-2,21.89,21.89,0,0,0-2.79-2,2.42,2.42,0,0,1-.78-.66c-.29-.4-.19-.69.21-1a1.92,1.92,0,0,1,2.52.09,5.52,5.52,0,0,0,.85.47,4.43,4.43,0,0,1,.63-1.13C11.57,302.7,12,302.77,12.37,302.72Z"/><path class="cls-1" d="M231.67,27.06l1.21-.91c.34.12.5.37.35.66-.07.14-.35.21-.55.23A8.86,8.86,0,0,1,231.67,27.06Z"/><path class="cls-1" d="M32.87,7.08l-.09,0c-.23.06-.5.23-.65-.11a.34.34,0,0,1,.15-.29c.34-.12.55,0,.56.4Z"/><path class="cls-1" d="M139.34,191.19c.46-.43.84-.77,1.34-.59s.4.72.49,1.2A2.55,2.55,0,0,1,139.34,191.19Z"/><path class="cls-1" d="M88.68,12.14,87,11.54a1.14,1.14,0,0,1,1.21-.76c.62.1.48.71.6,1.14Z"/><path class="cls-1" d="M318.81,41.16l-.95.68,1.48.71a5.25,5.25,0,0,1-.59.65.59.59,0,0,1-.91-.15c-.51-.6-.31-1.24-.17-2Z"/><path class="cls-1" d="M280.85,58.33c-.38.27-.72.6-1.05.23a.8.8,0,0,1,.13-1.12C280.45,57.49,280.67,57.84,280.85,58.33Z"/><path class="cls-1" d="M359.79,21.64c-.37.47-.6.57-.86.33-.06-.05,0-.22,0-.33Z"/><path class="cls-1" d="M279.68,197.45c.65-.06,1,.32,1.19,1l-.93.4c-.45-.47-.28-.94-.24-1.4Z"/><path class="cls-1" d="M224.78,25.24l.41.31,0,.12a1.11,1.11,0,0,1-.36-.08c-.07,0-.09-.17-.13-.26Z"/><path class="cls-1" d="M192.74,284.88v1.22C192.39,285.54,192.38,285.42,192.74,284.88Z"/></g></g></svg>