<svg xmlns="http://www.w3.org/2000/svg" viewBox="0 0 295.55 295.58"><defs><style>.cls-1{fill:#fff;}.cls-2{fill:#34446a;}.cls-3{fill:none;}</style></defs><title>day16</title><g id="Layer_2" data-name="Layer 2"><g id="Layer_1-2" data-name="Layer 1"><path class="cls-1" d="M141.16,175.95h-33v-13.6h6a1.7,1.7,0,0,0,1.78-1.61V135.29H108.2V121.93h5.54c5.26,0,6.41-2.46,6.41-3.4V118h13.2V161a1.39,1.39,0,0,0,1.37,1.37h6.44Zm-32-1h31v-11.6h-5.44a2.4,2.4,0,0,1-2.37-2.37V119H121.11c-.31,1.58-2.09,3.9-7.36,3.9H109.2v11.36H117v26.44a2.7,2.7,0,0,1-2.78,2.61h-5Z"/><path class="cls-1" d="M169.45,176.11c-18,0-24.41-15-24.41-29,0-18.34,9.34-29.29,25-29.29,11.64,0,20.1,6.54,20.1,15.54,0,5.46-2.83,8.47-8,8.47-2.37,0-6.84-1.35-6.84-6.44a5.6,5.6,0,0,1,.21-1.53,5.29,5.29,0,0,0,.2-1.48c0-1.64-2.76-2.83-4.62-2.83-6.37,0-6.79,7.51-6.88,15.84a13.33,13.33,0,0,1,10.14-4.65c9.38,0,16.19,6.95,16.19,16.52C190.52,168.38,181.85,176.11,169.45,176.11Zm.57-57.25c-7.21,0-24,2.76-24,28.29,0,13.52,6.15,28,23.41,28,11.82,0,20.07-7.32,20.07-17.8,0-9-6.39-15.52-15.19-15.52a12.26,12.26,0,0,0-10.24,5.4l-.92,1.31v-1.6c.08-9,.16-18.3,7.9-18.3,2.35,0,5.62,1.46,5.62,3.83a6.29,6.29,0,0,1-.23,1.72,4.65,4.65,0,0,0-.18,1.29c0,5.38,5.6,5.44,5.84,5.44,4.63,0,7-2.51,7-7.47C189.11,125,181.08,118.87,170,118.87Zm-.57,47.32c-3.52,0-6.27-3.54-6.27-8.06s2.76-8.06,6.27-8.06,6.35,3.62,6.35,8.06S173,166.19,169.45,166.19Zm0-15.12c-3,0-5.27,3.1-5.27,7.06s2.32,7.06,5.27,7.06,5.35-3.17,5.35-7.06S172.4,151.07,169.45,151.07Z"/><path class="cls-1" d="M139.31,156.85v12.6h-32v-12.6h5.53a2.19,2.19,0,0,0,2.28-2.11V128.79h-7.81V116.43h5c5.45,0,6.91-2.6,6.91-3.9h12.2V155a1.89,1.89,0,0,0,1.87,1.87Z"/><path class="cls-1" d="M168.09,169.61c-16.59,0-23.91-13.17-23.91-28.46,0-14.31,6.1-28.79,24.48-28.79,10.65,0,19.6,5.77,19.6,15,0,4.88-2.28,8-7.48,8-2,0-6.34-1.06-6.34-5.94,0-1.3.41-1.54.41-3,0-2-3.09-3.33-5.12-3.33-7.24,0-7.32,8.7-7.4,17.81A12.83,12.83,0,0,1,173,135.3c8.86,0,15.69,6.42,15.69,16C188.67,162.78,179.48,169.61,168.09,169.61Zm0-9.92c3.17,0,5.85-3.33,5.85-7.56s-2.68-7.56-5.85-7.56-5.77,3.33-5.77,7.56S164.84,159.69,168.09,159.69Z"/><path class="cls-2" d="M147.44,213c-1.7,0-3.43-.08-5.12-.23l.27-3.29c1.61.13,3.25.21,4.86.21Zm7.17-.35-.34-3.28c1.61-.17,3.23-.4,4.82-.69l.6,3.25C158,212.23,156.3,212.48,154.61,212.65Zm-19.39-.86c-1.67-.33-3.35-.72-5-1.18l.89-3.18c1.56.43,3.15.81,4.74,1.12Zm31.44-1.56-1-3.16c1.55-.47,3.09-1,4.6-1.59l1.2,3.07C169.92,209.18,168.29,209.74,166.66,210.23Zm-43.23-1.93c-1.58-.64-3.15-1.34-4.68-2.1l1.47-3c1.45.72,2.94,1.39,4.44,2ZM178,205.58l-1.53-2.92c1.43-.75,2.85-1.56,4.22-2.43l1.76,2.79C181,203.93,179.54,204.79,178,205.58Zm-65.52-2.93c-1.43-.92-2.84-1.91-4.2-2.94l2-2.63c1.29,1,2.63,1.92,4,2.8Zm75.82-3.77-2.05-2.58c1.26-1,2.5-2.07,3.69-3.18l2.25,2.42C191,196.69,189.66,197.82,188.33,198.88ZM102.85,195c-1.23-1.17-2.43-2.41-3.57-3.67l2.45-2.21c1.08,1.2,2.22,2.38,3.39,3.49Zm94.34-4.69-2.5-2.16c1.05-1.22,2.08-2.5,3-3.81l2.66,2C199.38,187.73,198.3,189.08,197.19,190.36ZM94.78,185.78c-1-1.38-1.94-2.82-2.82-4.28l2.82-1.71c.84,1.38,1.74,2.75,2.68,4.06Zm109.54-5.44-2.86-1.65c.81-1.4,1.57-2.85,2.27-4.31l3,1.42C206,177.34,205.17,178.87,204.31,180.34ZM88.58,175.17c-.72-1.55-1.38-3.14-2-4.73l3.09-1.15c.56,1.51,1.19,3,1.87,4.49Zm120.84-6-3.12-1.08c.53-1.53,1-3.09,1.41-4.66l3.19.83C210.48,165.9,210,167.55,209.43,169.16ZM84.5,163.59c-.41-1.65-.76-3.34-1-5l3.26-.54c.26,1.59.6,3.2,1,4.76Zm127.83-6.37-3.27-.47c.23-1.6.4-3.23.51-4.84l3.29.21C212.75,153.81,212.57,155.53,212.33,157.21ZM82.67,151.43c-.07-1.21-.1-2.44-.1-3.64,0-1.7.07-3.43.2-5.12l3.29.26c-.12,1.61-.19,3.25-.19,4.87,0,1.14,0,2.31.09,3.46Zm127-6.35c-.07-1.62-.2-3.25-.4-4.85l3.28-.4c.21,1.68.35,3.4.42,5.11ZM87,136.17l-3.24-.62c.32-1.67.71-3.35,1.15-5l3.18.87C87.63,133,87.26,134.58,87,136.17Zm121.09-2.64c-.37-1.57-.81-3.14-1.3-4.69l3.14-1c.52,1.63,1,3.29,1.37,4.94ZM90.21,125l-3.07-1.22c.63-1.58,1.33-3.16,2.08-4.69l3,1.46C91.47,122,90.81,123.46,90.21,125Zm114.1-2.49c-.66-1.48-1.39-2.94-2.16-4.36l2.89-1.58c.81,1.49,1.58,3,2.28,4.59ZM95.53,114.57l-2.78-1.77c.92-1.44,1.9-2.86,2.92-4.22l2.63,2C97.33,111.86,96.4,113.21,95.53,114.57Zm103-2.24c-.92-1.32-1.92-2.62-2.95-3.88l2.55-2.1c1.08,1.32,2.13,2.69,3.1,4.08Zm-95.86-7-2.4-2.26c1.17-1.24,2.4-2.45,3.66-3.59l2.22,2.44C105,103,103.8,104.18,102.69,105.36ZM191,103.44c-1.16-1.13-2.38-2.23-3.62-3.26l2.11-2.54c1.31,1.09,2.59,2.24,3.81,3.43Zm-79.55-5.79L109.51,95c1.38-1,2.81-2,4.26-2.85l1.72,2.81C114.12,95.79,112.76,96.7,111.45,97.65Zm70.46-1.53c-1.35-.89-2.75-1.74-4.17-2.53l1.6-2.89c1.49.83,3,1.72,4.39,2.66Zm-60.42-4.4-1.4-3c1.54-.72,3.13-1.39,4.72-2L126,89.82C124.46,90.39,123,91,121.5,91.72Zm50.12-1.09c-1.5-.62-3-1.2-4.57-1.7l1-3.14c1.61.53,3.23,1.13,4.81,1.79Zm-39.14-2.84-.81-3.2c1.65-.42,3.34-.78,5-1.07l.56,3.25C135.64,87,134,87.38,132.47,87.78Zm28-.61c-1.58-.33-3.19-.6-4.8-.8l.41-3.27c1.69.21,3.4.5,5.06.85ZM144,86l-.2-3.29c1.7-.1,3.42-.14,5.13-.11l-.06,3.3C147.25,85.85,145.61,85.89,144,86Z"/><path class="cls-2" d="M147.92,226.81v-3.27c1.6,0,3.23-.05,4.85-.16l.21,3.27C151.29,226.75,149.59,226.81,147.92,226.81Zm-7.08-.3c-1.67-.15-3.37-.35-5-.6l.49-3.24c1.59.24,3.21.43,4.82.57Zm19.18-.64-.5-3.23c1.6-.25,3.2-.55,4.77-.9l.71,3.2C163.36,225.29,161.69,225.61,160,225.87Zm-31.16-1.34c-1.64-.4-3.28-.86-4.88-1.37l1-3.12c1.53.48,3.11.92,4.67,1.31Zm43-1.45-1-3.12c1.53-.49,3.07-1,4.57-1.62l1.2,3C175,222,173.44,222.57,171.84,223.08Zm-54.51-2.36c-1.56-.65-3.11-1.36-4.61-2.11l1.46-2.93c1.44.71,2.92,1.39,4.42,2Zm65.76-2.22-1.46-2.93c1.44-.72,2.87-1.5,4.27-2.31l1.65,2.83C186.08,216.95,184.59,217.76,183.09,218.51Zm-76.58-3.32c-1.44-.88-2.86-1.82-4.23-2.79l1.89-2.67c1.31.93,2.68,1.83,4.06,2.67Zm87-2.92-1.89-2.67c1.31-.93,2.61-1.92,3.86-2.93l2.06,2.54C196.22,210.26,194.86,211.29,193.49,212.26Zm-96.82-4.2c-1.28-1.09-2.55-2.23-3.75-3.4l2.27-2.36c1.16,1.12,2.37,2.21,3.6,3.26Zm106.15-3.56-2.28-2.35c1.15-1.12,2.29-2.29,3.37-3.49l2.43,2.2C205.21,202.1,204,203.33,202.82,204.5ZM88,199.51c-1.1-1.27-2.17-2.59-3.19-3.93l2.61-2c1,1.29,2,2.55,3.06,3.77Zm122.82-4.12-2.61-2c1-1.28,1.91-2.62,2.8-4l2.73,1.8C212.86,192.67,211.88,194.06,210.87,195.4Zm-130-5.64c-.89-1.42-1.75-2.89-2.55-4.37l2.88-1.56c.77,1.41,1.59,2.82,2.45,4.19Zm136.6-4.58-2.88-1.55c.76-1.42,1.49-2.88,2.16-4.35l3,1.36C219,182.16,218.22,183.69,217.42,185.17ZM75.18,179c-.66-1.54-1.28-3.12-1.85-4.7l3.08-1.1c.54,1.52,1.14,3,1.77,4.51Zm147.16-5L219.25,173c.54-1.52,1-3.07,1.46-4.63l3.15.89C223.41,170.85,222.9,172.48,222.34,174.06ZM71.25,167.53c-.42-1.63-.79-3.29-1.1-4.94l3.22-.61c.3,1.58.65,3.17,1.06,4.73Zm154.22-5.2-3.22-.6c.29-1.57.54-3.19.73-4.79l3.25.39C226,159,225.78,160.68,225.47,162.33ZM69.15,155.57c-.17-1.68-.28-3.38-.33-5.05l3.27-.11c.05,1.61.16,3.24.32,4.84Zm157.62-5.31-3.27-.1q0-1.18,0-2.37t0-2.49l3.27-.11q0,1.29,0,2.59T226.77,150.26ZM72.16,143.61l-3.27-.18c.09-1.68.24-3.38.43-5l3.25.38C72.38,140.37,72.24,142,72.16,143.61ZM223,138.53c-.2-1.6-.45-3.22-.74-4.79l3.22-.61c.31,1.65.57,3.33.77,5Zm-149.3-6.45-3.2-.68c.35-1.65.75-3.3,1.21-4.92l3.15.88C74.4,128.91,74,130.49,73.67,132.07Zm147-5c-.44-1.54-.93-3.1-1.47-4.62l3.09-1.09c.56,1.59,1.08,3.21,1.54,4.83ZM77,120.91l-3.06-1.16c.6-1.57,1.25-3.15,2-4.68l3,1.36C78.15,117.89,77.52,119.4,77,120.91Zm139.7-4.71c-.67-1.46-1.4-2.92-2.16-4.34l2.88-1.55c.8,1.48,1.56,3,2.26,4.53ZM81.92,110.37l-2.85-1.62c.83-1.46,1.72-2.92,2.65-4.32l2.73,1.8C83.57,107.57,82.71,109,81.92,110.37ZM211,106c-.89-1.34-1.83-2.68-2.81-4l2.61-2c1,1.34,2,2.73,2.93,4.13ZM88.44,100.73l-2.56-2c1-1.32,2.15-2.62,3.27-3.86L91.58,97C90.49,98.22,89.44,99.46,88.44,100.73Zm115.42-3.87c-1.08-1.18-2.21-2.36-3.38-3.49L202.75,91c1.22,1.18,2.4,2.4,3.52,3.64ZM96.35,92.19l-2.22-2.4c1.23-1.14,2.52-2.25,3.82-3.32L100,89C98.77,90,97.53,91.09,96.35,92.19Zm99-3.33c-1.25-1-2.55-2-3.87-2.93l1.89-2.67c1.37,1,2.73,2,4,3.06ZM105.47,85l-1.83-2.71c1.39-.94,2.83-1.84,4.28-2.7l1.65,2.83C108.19,83.19,106.8,84.06,105.47,85Zm80.32-2.7c-1.4-.82-2.84-1.59-4.28-2.3L183,77c1.5.75,3,1.55,4.46,2.4Zm-70.21-3-1.39-3c1.52-.71,3.08-1.39,4.64-2l1.2,3C118.54,77.88,117,78.52,115.59,79.21Zm59.72-2c-1.5-.58-3-1.13-4.58-1.62l1-3.12c1.61.51,3.22,1.08,4.78,1.69Zm-48.84-2.11-.92-3.14c1.62-.48,3.27-.9,4.9-1.26l.71,3.2C129.6,74.22,128,74.63,126.46,75.09Zm37.7-1.27c-1.56-.34-3.17-.65-4.77-.89l.5-3.24c1.67.26,3.35.57,5,.93Zm-26.31-1.13-.43-3.25c1.67-.22,3.37-.39,5-.5l.21,3.27C141.08,72.32,139.45,72.48,137.85,72.69Zm14.79-.49c-1.61-.1-3.24-.15-4.85-.15V68.77c1.68,0,3.38.05,5.06.16Z"/><path class="cls-2" d="M147.87,245.07c-.59,0-1.16,0-1.74,0l.05-3.32c.56,0,1.12,0,1.68,0q1.64,0,3.27-.06l.12,3.32Q149.57,245.07,147.87,245.07Zm-8.9-.39c-1.7-.15-3.41-.35-5.09-.59l.47-3.29c1.62.23,3.27.42,4.92.57Zm19.43-.18-.36-3.31c1.63-.18,3.28-.4,4.9-.66l.53,3.28C161.8,244.08,160.1,244.32,158.41,244.5Zm-31.58-1.69c-1.65-.36-3.33-.78-5-1.23l.88-3.21c1.59.44,3.21.84,4.8,1.19Zm43.69-.4-.77-3.23c1.59-.38,3.2-.81,4.78-1.28l.95,3.19C173.83,241.56,172.17,242,170.52,242.4Zm-55.5-3c-1.61-.58-3.22-1.2-4.79-1.86l1.29-3.07c1.51.63,3.07,1.24,4.62,1.79Zm67.25-.63-1.18-3.11c1.52-.58,3.06-1.21,4.57-1.87l1.34,3C185.43,237.54,183.84,238.19,182.26,238.79Zm-78.55-4.25c-1.51-.77-3-1.59-4.51-2.45l1.66-2.88c1.43.83,2.89,1.62,4.35,2.36Zm89.73-.82-1.56-2.93c1.45-.77,2.9-1.59,4.3-2.44l1.71,2.85C196.44,232.07,194.94,232.92,193.44,233.72ZM93.13,228.27c-1.41-1-2.81-2-4.16-3l2-2.65c1.3,1,2.65,2,4,2.89Zm110.77-1L202,224.56c1.34-.95,2.67-1.94,4-3l2.06,2.61C206.66,225.26,205.28,226.29,203.89,227.27ZM83.42,220.73c-1.27-1.12-2.54-2.3-3.75-3.49L82,214.87c1.17,1.15,2.39,2.29,3.62,3.37Zm130-1.17-2.25-2.45c1.21-1.11,2.41-2.27,3.56-3.44l2.37,2.33C216,217.21,214.72,218.41,213.46,219.56ZM74.74,212c-1.12-1.28-2.23-2.6-3.28-3.93L74.06,206c1,1.29,2.08,2.57,3.17,3.8ZM222,210.71l-2.54-2.15c1.07-1.26,2.11-2.56,3.1-3.86l2.64,2C224.17,208.06,223.09,209.41,222,210.71ZM67.22,202.32c-1-1.41-1.88-2.86-2.76-4.31l2.85-1.72c.85,1.4,1.75,2.8,2.67,4.16Zm162.12-1.46L226.55,199c.9-1.38,1.77-2.8,2.6-4.22l2.88,1.67C231.17,198,230.27,199.43,229.34,200.86ZM61,191.74c-.77-1.51-1.5-3.07-2.19-4.62l3-1.35c.66,1.5,1.38,3,2.12,4.46Zm174.41-1.59-3-1.45c.72-1.49,1.41-3,2-4.52l3.06,1.29C236.85,187,236.14,188.61,235.39,190.15ZM56.13,180.46c-.57-1.6-1.11-3.24-1.59-4.87l3.19-.95c.47,1.58,1,3.16,1.54,4.7ZM240,178.75l-3.15-1.06c.52-1.56,1-3.15,1.45-4.73l3.2.89C241.09,175.49,240.58,177.14,240,178.75ZM52.75,168.65c-.36-1.66-.69-3.36-1-5l3.28-.54c.26,1.62.58,3.25.93,4.86Zm190.45-1.77-3.26-.65c.32-1.61.6-3.25.84-4.88l3.29.48C243.82,163.51,243.53,165.21,243.2,166.88ZM50.89,156.5c-.15-1.7-.26-3.42-.32-5.11l3.32-.12c.06,1.64.16,3.3.31,4.94Zm193.94-1.8-3.32-.23c.12-1.64.19-3.3.22-4.94l3.32.06C245,151.28,244.95,153,244.83,154.7Zm-191-6.91H50.51c0-1.7,0-3.42.13-5.12l3.32.17C53.88,144.49,53.83,146.15,53.83,147.79Zm187.77-5.2c-.09-1.64-.22-3.3-.4-4.93l3.31-.35c.18,1.69.32,3.41.41,5.1Zm-187-6.65-3.3-.42c.21-1.69.47-3.39.77-5.06l3.27.59C55,132.67,54.78,134.32,54.57,135.94Zm185.64-5.14c-.29-1.61-.64-3.24-1-4.84l3.23-.77c.39,1.66.75,3.35,1.05,5ZM56.8,124.29l-3.22-.83c.43-1.65.9-3.31,1.41-4.93l3.17,1C57.67,121.09,57.21,122.69,56.8,124.29Zm180.55-5c-.49-1.55-1-3.13-1.62-4.67l3.11-1.17c.6,1.6,1.17,3.23,1.68,4.84ZM60.48,113l-3.09-1.23c.63-1.57,1.31-3.16,2-4.72l3,1.39C61.75,110,61.09,111.48,60.48,113ZM233,108.24c-.68-1.48-1.42-3-2.2-4.42l2.94-1.56c.8,1.51,1.57,3.05,2.28,4.58Zm-167.46-6-2.91-1.61c.83-1.49,1.71-3,2.61-4.42L68.1,98C67.23,99.39,66.38,100.82,65.58,102.26Zm161.79-4.44c-.88-1.39-1.8-2.78-2.74-4.11l2.72-1.92c1,1.38,1.93,2.82,2.84,4.26ZM72,92.26l-2.68-2c1-1.37,2.06-2.74,3.14-4.05L75,88.35C74,89.62,73,90.94,72,92.26ZM220.43,88.2c-1-1.26-2.12-2.52-3.24-3.74l2.46-2.24c1.16,1.27,2.29,2.57,3.35,3.87ZM79.6,83.15l-2.41-2.29c1.16-1.22,2.38-2.44,3.62-3.62l2.29,2.41C81.9,80.79,80.72,82,79.6,83.15Zm132.74-3.63c-1.2-1.13-2.44-2.25-3.68-3.31l2.15-2.53c1.29,1.1,2.58,2.25,3.82,3.42Zm-124-4.45-2.11-2.57c1.32-1.08,2.68-2.13,4-3.14l2,2.68C90.88,73,89.57,74,88.29,75.06Zm114.92-3.15c-1.33-1-2.7-1.92-4.07-2.82L201,66.31c1.42.93,2.84,1.91,4.22,2.92ZM97.93,68.14l-1.77-2.82c1.44-.9,2.92-1.78,4.4-2.6l1.62,2.9C100.75,66.42,99.32,67.27,97.93,68.14Zm95.28-2.62c-1.44-.8-2.92-1.57-4.4-2.28l1.45-3c1.53.74,3.06,1.54,4.55,2.36Zm-84.86-3-1.4-3c1.54-.71,3.12-1.4,4.7-2l1.24,3.09C111.37,61.14,109.84,61.79,108.35,62.48Zm74.12-2c-1.53-.61-3.1-1.18-4.66-1.71l1.06-3.15c1.61.54,3.23,1.14,4.82,1.77Zm-63.06-2.25-1-3.17c1.62-.51,3.28-1,4.93-1.42l.83,3.22C122.57,57.24,121,57.7,119.41,58.19Zm51.76-1.43c-1.6-.41-3.22-.78-4.82-1.1L167,52.4c1.66.33,3.34.72,5,1.14Zm-40.25-1.42-.59-3.27c1.67-.3,3.37-.57,5.06-.78l.42,3.3C134.19,54.79,132.54,55,130.93,55.34Zm28.58-.78c-1.63-.2-3.28-.37-4.92-.48l.24-3.32c1.7.12,3.41.29,5.1.5ZM142.72,54l-.18-3.32c1.69-.09,3.42-.14,5.12-.14v3.32C146,53.83,144.35,53.88,142.72,54Z"/><path class="cls-2" d="M147.79,269.82h-.18v-3.3h.18c1.57,0,3.17,0,4.75-.09l.13,3.3C151,269.79,149.4,269.82,147.79,269.82Zm-7.27-.22c-1.69-.1-3.39-.24-5.05-.41l.33-3.28c1.62.16,3.27.3,4.92.39Zm19.23-.37-.32-3.28c1.64-.16,3.29-.36,4.9-.58l.46,3.27C163.14,268.87,161.44,269.07,159.75,269.24Zm-31.32-1c-1.66-.26-3.34-.57-5-.9l.65-3.23c1.61.33,3.24.62,4.85.88Zm43.35-.83-.64-3.24c1.6-.32,3.22-.68,4.81-1.07l.78,3.21C175.09,266.76,173.43,267.13,171.78,267.46Zm-55.24-1.68c-1.62-.43-3.26-.9-4.87-1.4l1-3.15c1.57.48,3.16.94,4.74,1.36Zm67-1.29-1-3.16c1.56-.48,3.14-1,4.68-1.54l1.1,3.11C186.8,263.46,185.18,264,183.57,264.48ZM105,262.09c-1.57-.59-3.16-1.22-4.71-1.87l1.28-3c1.51.64,3.05,1.25,4.58,1.82ZM195,260.35l-1.28-3c1.51-.63,3-1.3,4.51-2l1.4,3C198.12,259,196.56,259.7,195,260.35ZM93.8,257.26c-1.52-.75-3-1.54-4.5-2.34L90.88,252c1.42.78,2.89,1.54,4.37,2.27ZM206,255.09l-1.57-2.9c1.43-.78,2.87-1.6,4.28-2.44l1.7,2.83C208.93,253.45,207.45,254.29,206,255.09Zm-122.8-3.74c-1.42-.89-2.85-1.82-4.24-2.77l1.87-2.72c1.35.92,2.74,1.83,4.12,2.7Zm133.19-2.59L214.51,246c1.36-.93,2.71-1.89,4-2.86l2,2.65C219.15,246.82,217.76,247.81,216.37,248.76ZM73.21,244.4c-1.34-1-2.66-2.11-3.94-3.18l2.13-2.52c1.24,1,2.53,2.09,3.83,3.1Zm152.86-3-2.12-2.53c1.25-1,2.49-2.13,3.71-3.24l2.22,2.44C228.63,239.23,227.35,240.35,226.07,241.42ZM64,236.5q-1.25-1.19-2.48-2.42l-1.12-1.14,2.36-2.3,1.1,1.11q1.2,1.2,2.42,2.35Zm171-3.34-2.36-2.31c1.15-1.18,2.29-2.39,3.38-3.59l2.45,2.21C237.34,230.71,236.17,232,235,233.16ZM55.57,227.72c-1.1-1.27-2.19-2.58-3.25-3.9l2.58-2.06c1,1.28,2.09,2.56,3.16,3.79Zm187.49-3.65L240.48,222c1-1.27,2-2.58,3-3.91l2.66,2C245.14,221.42,244.1,222.77,243.06,224.07Zm-195-5.92c-1-1.38-1.93-2.79-2.84-4.2L48,212.16c.89,1.37,1.82,2.75,2.76,4.09Zm202.13-3.92-2.77-1.8c.9-1.38,1.77-2.79,2.6-4.19l2.84,1.68C252,211.36,251.1,212.81,250.18,214.23ZM41.54,207.88c-.83-1.46-1.64-3-2.41-4.46l2.94-1.51c.75,1.46,1.53,2.92,2.34,4.34Zm214.75-4.16-2.93-1.51c.75-1.46,1.48-2.95,2.17-4.43l3,1.39C257.81,200.69,257.06,202.22,256.29,203.72ZM36.08,197c-.67-1.53-1.33-3.1-1.95-4.68l3.07-1.21c.6,1.53,1.24,3.07,1.89,4.56Zm225.23-4.36-3.07-1.21c.6-1.52,1.18-3.08,1.71-4.62l3.12,1.08C262.52,189.49,261.93,191.08,261.31,192.65Zm-229.57-7c-.52-1.6-1-3.23-1.47-4.85l3.18-.89c.44,1.58.92,3.16,1.43,4.72Zm233.46-4.51-3.18-.9c.44-1.57.86-3.17,1.24-4.77l3.21.77C266.09,177.87,265.66,179.52,265.2,181.13ZM28.57,173.9c-.36-1.64-.69-3.32-1-5l3.25-.57c.28,1.61.6,3.24,1,4.84Zm239.36-4.62-3.25-.58c.29-1.6.54-3.24.76-4.87l3.27.44C268.48,166,268.22,167.64,267.92,169.29ZM26.57,161.91c-.19-1.66-.35-3.36-.48-5l3.29-.25c.12,1.64.28,3.29.47,4.91Zm242.89-4.68-3.29-.25c.13-1.63.22-3.29.28-4.92l3.3.12C269.68,153.85,269.59,155.55,269.46,157.22ZM25.77,149.78q0-1,0-2,0-1.54,0-3.08l3.3.08q0,1.5,0,3,0,1,0,1.93Zm240.72-4.63c0-1.64-.11-3.29-.21-4.93l3.29-.21c.11,1.68.18,3.38.22,5.06Zm-237-7.24-3.29-.27c.14-1.68.32-3.38.52-5L30,133C29.77,134.61,29.6,136.26,29.47,137.9Zm236.18-4.56c-.2-1.64-.44-3.28-.7-4.88l3.26-.54c.27,1.64.51,3.33.72,5ZM31,126.17l-3.25-.6c.31-1.66.65-3.33,1-5l3.22.73C31.66,122.94,31.33,124.56,31,126.17Zm232.61-4.49c-.36-1.61-.76-3.22-1.18-4.79l3.19-.86c.43,1.61.84,3.27,1.21,4.92Zm-229.89-7-3.17-.92c.47-1.63,1-3.26,1.51-4.84L35.22,110C34.7,111.49,34.21,113.07,33.75,114.66Zm226.73-4.38c-.52-1.57-1.08-3.13-1.65-4.65l3.09-1.17c.59,1.56,1.16,3.16,1.7,4.78ZM37.6,103.48l-3.06-1.23c.62-1.55,1.29-3.12,2-4.66l3,1.36C38.86,100.44,38.21,102,37.6,103.48Zm218.58-4.23c-.67-1.49-1.38-3-2.11-4.46l3-1.47c.75,1.51,1.48,3.05,2.17,4.58ZM42.55,92.74l-2.92-1.53c.79-1.5,1.61-3,2.44-4.44l2.86,1.65C44.11,89.83,43.31,91.28,42.55,92.74Zm208.27-4c-.82-1.42-1.67-2.84-2.55-4.23l2.79-1.76c.9,1.42,1.78,2.89,2.62,4.34ZM48.55,82.56,45.8,80.74c.92-1.39,1.88-2.79,2.87-4.17l2.68,1.93C50.38,79.84,49.44,81.2,48.55,82.56Zm195.87-3.8c-1-1.33-2-2.66-3-4l2.6-2c1,1.32,2.06,2.69,3,4.06ZM55.54,73,53,70.94c1.06-1.3,2.16-2.6,3.28-3.86l2.47,2.18C57.64,70.49,56.57,71.75,55.54,73Zm181.51-3.53c-1.08-1.22-2.2-2.45-3.33-3.64l2.39-2.28c1.17,1.22,2.32,2.48,3.42,3.74ZM63.44,64.22,61.1,61.9l.39-.39c1.2-1.2,2.43-2.38,3.66-3.51l2.23,2.43c-1.19,1.1-2.39,2.25-3.56,3.42ZM228.81,61c-1.19-1.11-2.42-2.22-3.67-3.29l2.15-2.5c1.28,1.1,2.55,2.24,3.77,3.38ZM72.6,55.88l-2.09-2.55c1.3-1.06,2.64-2.12,4-3.13l2,2.63C75.17,53.82,73.86,54.85,72.6,55.88Zm147.18-2.53c-1.3-1-2.64-2-4-2.91l1.89-2.7c1.37,1,2.75,2,4.09,3ZM82.12,48.84,80.29,46.1c1.41-.94,2.85-1.85,4.28-2.72l1.71,2.82C84.89,47,83.49,47.93,82.12,48.84ZM210,46.65c-1.4-.86-2.83-1.71-4.25-2.5l1.61-2.88c1.46.82,2.92,1.68,4.37,2.57ZM92.28,42.79l-1.54-2.92c1.49-.79,3-1.55,4.53-2.28l1.42,3C95.22,41.28,93.73,42,92.28,42.79ZM199.68,41c-1.46-.71-3-1.4-4.48-2.06l1.32-3c1.55.67,3.1,1.39,4.6,2.12ZM103,37.79l-1.24-3.06c1.56-.64,3.16-1.25,4.74-1.81L107.61,36C106.08,36.58,104.53,37.17,103,37.79Zm85.79-1.46c-1.55-.57-3.12-1.11-4.66-1.6l1-3.14c1.59.51,3.2,1.06,4.79,1.65Zm-74.62-2.44-.93-3.17c1.6-.47,3.25-.92,4.89-1.33l.8,3.2C117.34,33,115.73,33.43,114.18,33.89Zm63.33-1.07c-1.58-.41-3.19-.79-4.8-1.13l.69-3.23c1.65.35,3.31.74,4.93,1.16Zm-51.83-1.7-.61-3.24c1.64-.31,3.33-.59,5-.84l.48,3.27C128.92,30.55,127.28,30.82,125.68,31.12Zm40.24-.68c-1.62-.25-3.26-.47-4.89-.65l.37-3.28c1.67.19,3.36.41,5,.67Zm-28.52-.93-.29-3.29c1.67-.15,3.38-.26,5.06-.34l.15,3.3C140.69,29.25,139,29.37,137.4,29.51Zm16.75-.28c-1.64-.09-3.3-.14-4.93-.16l0-3.3c1.67,0,3.38.08,5.07.17Z"/><path class="cls-2" d="M147.79,295.58h-.53l0-3.21h.51q2.15,0,4.29-.06l.09,3.21Q150,295.58,147.79,295.58Zm-7.4-.18c-1.63-.08-3.28-.19-4.9-.32l.26-3.2c1.58.13,3.2.24,4.8.32Zm18.66-.24-.24-3.2c1.6-.12,3.21-.27,4.79-.44l.35,3.19C162.32,294.88,160.67,295,159,295.16Zm-30.4-.81c-1.63-.21-3.27-.45-4.86-.71l.52-3.17c1.56.26,3.16.49,4.75.7Zm42.11-.54-.5-3.17c1.59-.25,3.18-.53,4.74-.82l.6,3.15C174,293.27,172.38,293.55,170.76,293.81ZM117,292.37c-1.6-.34-3.21-.71-4.79-1.1l.77-3.12c1.55.38,3.12.74,4.69,1.08Zm65.3-.85-.75-3.12c1.56-.37,3.13-.78,4.66-1.2l.85,3.09C185.52,290.73,183.92,291.14,182.32,291.52Zm-76.73-2.06c-1.55-.46-3.13-1-4.69-1.48l1-3c1.52.51,3.07,1,4.59,1.45Zm88.08-1.15-1-3c1.53-.5,3.06-1,4.55-1.57l1.1,3C196.8,287.27,195.24,287.81,193.67,288.32Zm-99.25-2.67c-1.52-.59-3.06-1.21-4.56-1.86l1.26-3c1.47.63,3,1.24,4.46,1.82Zm110.29-1.43-1.24-3c1.48-.62,3-1.27,4.39-1.92l1.33,2.92C207.73,282.93,206.22,283.59,204.71,284.22ZM83.58,280.94c-1.48-.71-3-1.46-4.4-2.22l1.49-2.84c1.41.74,2.85,1.47,4.3,2.17Zm131.79-1.68-1.47-2.85c1.41-.72,2.83-1.49,4.23-2.27l1.56,2.8C218.27,277.74,216.81,278.52,215.38,279.25ZM73.16,275.38c-1.41-.83-2.82-1.69-4.2-2.56l1.71-2.71c1.35.85,2.73,1.7,4.11,2.5Zm152.45-1.93-1.69-2.73c1.35-.84,2.71-1.71,4-2.6l1.78,2.67C228.38,271.7,227,272.59,225.62,273.45ZM63.22,269c-1.33-.93-2.67-1.9-4-2.88l1.92-2.57c1.29,1,2.6,1.91,3.9,2.82Zm172.14-2.16-1.9-2.58c1.29-1,2.57-1.93,3.82-2.91l2,2.52C238,264.88,236.68,265.88,235.37,266.85Zm-181.54-5c-1.26-1-2.52-2.12-3.74-3.19l2.12-2.41c1.19,1.05,2.42,2.1,3.66,3.12Zm190.74-2.38-2.1-2.42c1.21-1,2.41-2.13,3.58-3.21l2.18,2.35C247,257.31,245.8,258.42,244.57,259.49ZM45,254c-1.17-1.13-2.34-2.3-3.47-3.47l2.3-2.23c1.11,1.15,2.25,2.29,3.4,3.4Zm208.13-2.59-2.29-2.25c1.12-1.14,2.24-2.31,3.31-3.48l2.36,2.17C255.45,249.05,254.31,250.25,253.16,251.42ZM36.9,245.49c-1.08-1.22-2.15-2.48-3.18-3.74l2.47-2c1,1.23,2.06,2.46,3.12,3.66Zm224.19-2.8-2.46-2.06c1-1.22,2-2.48,3-3.74l2.53,2C263.18,240.15,262.14,241.44,261.09,242.69ZM29.46,236.35c-1-1.29-1.94-2.63-2.88-4l2.63-1.84c.92,1.32,1.87,2.62,2.82,3.89Zm238.85-3-2.62-1.86c.93-1.31,1.84-2.64,2.72-4l2.67,1.77C270.19,230.65,269.25,232,268.3,233.35Zm-245.53-6.7c-.87-1.38-1.73-2.79-2.55-4.19L23,220.84c.8,1.37,1.64,2.75,2.5,4.1Zm252-3.18L272,221.83c.81-1.36,1.62-2.76,2.4-4.17l2.81,1.55C276.41,220.65,275.59,222.08,274.75,223.47Zm-257.87-7c-.76-1.45-1.5-2.92-2.21-4.38l2.89-1.4c.69,1.42,1.41,2.86,2.16,4.28ZM280.4,213.1l-2.88-1.42c.71-1.44,1.4-2.9,2.06-4.35l2.92,1.32C281.84,210.13,281.13,211.63,280.4,213.1ZM11.83,205.83c-.64-1.5-1.26-3-1.85-4.54l3-1.16c.58,1.48,1.18,3,1.81,4.44ZM285.2,202.3l-3-1.18c.59-1.48,1.16-3,1.7-4.51l3,1.08C286.39,199.24,285.8,200.79,285.2,202.3ZM7.64,194.83c-.51-1.53-1-3.11-1.48-4.69l3.07-.92c.46,1.54,1,3.08,1.45,4.58Zm281.47-3.68-3.07-.94c.47-1.53.92-3.09,1.33-4.62l3.1.84C290.05,188,289.6,189.58,289.12,191.15ZM4.34,183.5c-.39-1.59-.77-3.2-1.1-4.79L6.38,178c.33,1.55.69,3.13,1.08,4.68Zm287.77-3.76-3.13-.69c.34-1.54.66-3.13,1-4.71l3.15.59C292.79,176.54,292.46,178.16,292.11,179.74ZM2,172c-.26-1.6-.5-3.23-.72-4.86l3.18-.42c.21,1.59.44,3.19.7,4.76Zm292.22-3.82L291,167.7c.22-1.58.41-3.18.58-4.77l3.19.33C294.61,164.88,294.41,166.53,294.19,168.14ZM.52,160.26c-.14-1.62-.25-3.27-.33-4.9l3.21-.16c.08,1.6.19,3.21.32,4.8Zm294.81-3.85-3.2-.19c.09-1.58.16-3.19.2-4.8l3.21.08C295.49,153.14,295.42,154.79,295.33,156.4ZM0,148.48v-.69q0-2.12.06-4.23l3.21.09q-.06,2.06-.06,4.14v.67Zm292.33-3.79c0-1.61-.09-3.23-.18-4.81l3.21-.17c.09,1.61.15,3.26.18,4.91ZM3.61,136.93l-3.2-.24c.12-1.64.27-3.29.45-4.9l3.19.35C3.88,133.72,3.73,135.33,3.61,136.93Zm288-3.76c-.16-1.59-.35-3.2-.56-4.77l3.18-.43c.22,1.61.41,3.25.57,4.88ZM4.92,125.47,1.75,125c.25-1.62.53-3.25.83-4.84l3.15.6C5.44,122.29,5.17,123.88,4.92,125.47ZM290,121.75c-.29-1.58-.61-3.17-.94-4.71l3.14-.68c.34,1.58.67,3.2,1,4.82ZM7.14,114.16,4,113.41c.38-1.58.79-3.18,1.22-4.76l3.09.85C7.91,111,7.51,112.61,7.14,114.16Zm280.37-3.66c-.41-1.54-.85-3.09-1.31-4.62l3.07-.93c.47,1.57.92,3.16,1.34,4.73ZM10.26,103.05l-3.05-1c.51-1.56,1-3.13,1.6-4.66l3,1.1C11.29,100,10.76,101.53,10.26,103.05ZM284.1,99.48c-.53-1.49-1.09-3-1.68-4.5l3-1.17c.6,1.54,1.18,3.08,1.72,4.6ZM14.28,92.21l-3-1.23c.62-1.49,1.29-3,2-4.51l2.92,1.33C15.54,89.26,14.89,90.75,14.28,92.21Zm265.54-3.43c-.65-1.45-1.33-2.92-2-4.34L280.67,83c.71,1.46,1.41,3,2.08,4.44ZM19.15,81.73l-2.85-1.47c.75-1.46,1.53-2.92,2.33-4.34l2.8,1.56C20.65,78.88,19.88,80.3,19.15,81.73ZM274.7,78.47c-.77-1.4-1.56-2.8-2.37-4.17l2.76-1.63c.83,1.4,1.64,2.83,2.43,4.26ZM24.84,71.68,22.11,70c.86-1.39,1.76-2.79,2.66-4.14l2.67,1.78C26.56,69,25.69,70.31,24.84,71.68ZM268.77,68.6c-.86-1.32-1.77-2.65-2.7-4l2.62-1.85c1,1.35,1.88,2.71,2.76,4.06ZM31.31,62.12l-2.58-1.9c1-1.31,2-2.62,3-3.91l2.52,2C33.24,59.55,32.26,60.84,31.31,62.12Zm230.76-2.9c-1-1.26-2-2.53-3-3.75l2.47-2.05c1,1.25,2.07,2.54,3.07,3.83ZM38.52,53.1,36.1,51c1.08-1.24,2.18-2.47,3.28-3.66l2.35,2.18C40.66,50.68,39.58,51.89,38.52,53.1ZM254.65,50.4c-1.07-1.17-2.18-2.35-3.3-3.5l2.3-2.24c1.14,1.17,2.28,2.38,3.37,3.57ZM46.42,44.7l-2.25-2.29c1.16-1.14,2.36-2.28,3.56-3.38l2.17,2.36C48.73,42.47,47.56,43.58,46.42,44.7Zm200.12-2.5C245.38,41.1,244.18,40,243,39l2.11-2.41c1.23,1.07,2.45,2.18,3.64,3.3ZM55,36.94,52.9,34.48c1.25-1,2.53-2.09,3.82-3.09l2,2.53C57.44,34.9,56.18,35.92,55,36.94Zm182.85-2.29c-1.24-1-2.53-2-3.81-2.93l1.91-2.58c1.31,1,2.63,2,3.9,3ZM64.08,29.89l-1.86-2.62c1.33-.94,2.69-1.88,4-2.78L68,27.17C66.71,28.05,65.38,29,64.08,29.89Zm164.42-2.07c-1.33-.9-2.69-1.78-4-2.62l1.71-2.72c1.38.87,2.77,1.77,4.12,2.68ZM73.73,23.59l-1.65-2.75c1.4-.84,2.83-1.66,4.25-2.45l1.55,2.81C76.5,22,75.1,22.77,73.73,23.59Zm145-1.84c-1.4-.79-2.82-1.56-4.23-2.29l1.48-2.85c1.44.75,2.9,1.54,4.33,2.34ZM83.84,18.08l-1.42-2.88c1.45-.72,2.94-1.42,4.43-2.1L88.17,16C86.71,16.69,85.26,17.38,83.84,18.08Zm124.55-1.6c-1.45-.67-2.94-1.33-4.41-1.95l1.25-3c1.5.63,3,1.3,4.5,2Zm-114-3.08-1.19-3c1.51-.6,3.06-1.19,4.6-1.74l1.09,3C97.34,12.24,95.83,12.82,94.35,13.4Zm103.37-1.34c-1.52-.56-3.05-1.09-4.55-1.59l1-3c1.54.51,3.1,1.05,4.65,1.62ZM105.23,9.57l-.94-3.07c1.56-.48,3.14-.94,4.72-1.37l.84,3.1C108.3,8.66,106.75,9.11,105.23,9.57Zm81.5-1.06c-1.53-.43-3.09-.83-4.65-1.21l.76-3.12c1.59.39,3.2.81,4.76,1.24ZM116.38,6.63l-.69-3.13c1.59-.35,3.21-.68,4.81-1l.59,3.15C119.52,6,117.93,6.29,116.38,6.63Zm59.12-.77c-1.56-.3-3.15-.58-4.73-.84l.51-3.17c1.62.26,3.25.55,4.84.86ZM127.73,4.59l-.44-3.18c1.62-.22,3.26-.42,4.88-.59L132.5,4C130.92,4.17,129.32,4.37,127.73,4.59Zm36.37-.47c-1.58-.18-3.19-.33-4.79-.46l.25-3.2c1.63.13,3.28.29,4.89.47Zm-24.89-.66L139,.26c1.62-.1,3.27-.17,4.91-.21L144,3.26C142.41,3.3,140.8,3.37,139.21,3.46Zm13.39-.17c-1.58-.05-3.2-.08-4.81-.08V0c1.65,0,3.3,0,4.91.08Z"/><rect class="cls-3" x="69.79" y="4.03" width="155.99" height="289.51"/></g></g></svg>