<svg xmlns="http://www.w3.org/2000/svg" viewBox="0 0 205.02 174.76"><defs><style>.cls-1,.cls-2,.cls-3{fill:#8cbdd6;}.cls-1,.cls-3{stroke:#8cbdd6;stroke-miterlimit:10;}.cls-1{stroke-width:2px;}.cls-3{stroke-width:1.7px;}.cls-4{fill:#fff;}</style></defs><title>day15</title><g id="Layer_2" data-name="Layer 2"><g id="Layer_1-2" data-name="Layer 1"><path class="cls-1" d="M138.52,53.09a1.47,1.47,0,0,0,1.28-1.64l-.56-4.51,1.57-2c7.92-10.16,7.54-19.45,5.83-25.46a32.92,32.92,0,0,0-11-16.2l-2.49-2a1.48,1.48,0,0,0-2.07.26l-1.94,2.49c-14.43,18.52-2.94,35.35,5.16,41.66l2,1.57.56,4.52A1.48,1.48,0,0,0,138.52,53.09ZM131.45,5.88l1-1.33,1.33,1a29.9,29.9,0,0,1,10,14.69c2.19,7.67.47,15.24-5.08,22.51l-2.14-17.25a1.47,1.47,0,0,0-2.92.36l2.14,17.26C128.53,37.29,118.64,22.33,131.45,5.88Z"/><path class="cls-2" d="M182.79,49.45A14.05,14.05,0,0,0,163.24,46a13.91,13.91,0,0,0-3,2.85l-7.55-4.1,12-8.38c3.73,1,15.59,3.41,26.85-4.46C204.81,22.62,205,7.61,205,7a2.34,2.34,0,0,0-1.54-2.2c-.61-.2-14.76-5.17-28,4.11C164.17,16.74,162.33,28.69,162,32.55L137.31,49.8A2.32,2.32,0,1,0,140,53.6l8.43-5.89L158,52.94a14,14,0,1,0,24.79-3.48Zm5.79-32.64a2.31,2.31,0,0,0-3.23-.57l-18,12.59A27.18,27.18,0,0,1,178.1,12.69c8.82-6.16,18.35-4.86,22.13-4-.47,3.84-2.5,13.19-11.37,19.39A27.32,27.32,0,0,1,170,32.64l18-12.58A2.33,2.33,0,0,0,188.58,16.82Zm-25,46.05a9.29,9.29,0,0,1-1.37-7.65l8,4.31a2.32,2.32,0,0,0,2.22-4.08l-8-4.33a9.87,9.87,0,0,1,1.51-1.31,9.39,9.39,0,1,1-2.33,13.06Z"/><path class="cls-2" d="M40.44,162.13a15.4,15.4,0,0,0,19.71-21.67l9.3-7.59,10.29,4.64a2.55,2.55,0,0,0,2.09-4.64L51.67,119.27c-1.13-4.1-5.55-16.62-19.31-22.82-16.23-7.31-30.49.94-31.11,1.28A2.57,2.57,0,0,0,0,100.42c.13.69,3.42,16.85,19.64,24.16,13.76,6.2,26.07,1.22,29.89-.66l14.65,6.6-7.31,6A15.28,15.28,0,0,0,53.08,134a15.41,15.41,0,1,0-12.64,28.11Zm-19.38-51,22,9.91a30,30,0,0,1-21.27-1.07C10.95,115,6.85,105.36,5.56,101.31c3.9-1.71,13.92-5.06,24.7-.2a29.85,29.85,0,0,1,14.91,15.23l-22-9.92a2.55,2.55,0,0,0-2.1,4.66Zm21.45,46.41A10.31,10.31,0,1,1,51,138.7a10.84,10.84,0,0,1,1.89,1.11l-7.74,6.3a2.55,2.55,0,1,0,3.23,3.95l7.71-6.28a10.21,10.21,0,0,1,.08,8.53A10.34,10.34,0,0,1,42.51,157.49Z"/><path class="cls-3" d="M95.67,139.12l.82-4.93,2.28-1.63c9.18-6.56,22.57-24.49,7.59-45.48l-2-2.83a1.62,1.62,0,0,0-2.26-.38l-2.83,2a36.16,36.16,0,0,0-12.81,17.27c-2.15,6.51-3,16.69,5.23,28.21l1.63,2.28-.82,4.92a1.62,1.62,0,0,0,3.19.53Zm1.56-9.45,3.14-18.84a1.61,1.61,0,0,0-3.18-.53l-3.14,18.83c-5.76-8.23-7.29-16.62-4.54-24.93a32.84,32.84,0,0,1,11.62-15.66l1.51-1.08L103.73,89C117,107.6,105.49,123.57,97.23,129.67Z"/><path class="cls-2" d="M58.17,127.8l104.67,46.86c1.31.59,3.34-1.41,3.34-1.41a2.48,2.48,0,0,0-1.31-3.11L60.21,123.25Z"/><path class="cls-4" d="M42.1,93.22V69.75a1.36,1.36,0,0,1,1.51-1.51h8.44a1.36,1.36,0,0,1,1.51,1.51v.83a1.36,1.36,0,0,1-1.51,1.51H46.49v7.46h4.39a1.36,1.36,0,0,1,1.51,1.51v.83a1.36,1.36,0,0,1-1.51,1.51H46.49v9.8A1.36,1.36,0,0,1,45,94.73H43.61A1.36,1.36,0,0,1,42.1,93.22Z"/><path class="cls-4" d="M61.52,94.73H60.16a1.36,1.36,0,0,1-1.51-1.51V69.75a1.36,1.36,0,0,1,1.51-1.51h1.36A1.36,1.36,0,0,1,63,69.75V93.22A1.36,1.36,0,0,1,61.52,94.73Z"/><path class="cls-4" d="M69.62,93.22V69.75a1.36,1.36,0,0,1,1.51-1.51h8.44a1.36,1.36,0,0,1,1.51,1.51v.83a1.36,1.36,0,0,1-1.51,1.51H74v7.46H78.4a1.36,1.36,0,0,1,1.51,1.51v.83a1.36,1.36,0,0,1-1.51,1.51H74v9.8a1.36,1.36,0,0,1-1.51,1.51H71.13A1.36,1.36,0,0,1,69.62,93.22Z"/><path class="cls-4" d="M97.59,69.75v.83a1.36,1.36,0,0,1-1.51,1.51H93.16V93.22a1.36,1.36,0,0,1-1.51,1.51H90.28a1.36,1.36,0,0,1-1.51-1.51V72.09H85.85a1.36,1.36,0,0,1-1.51-1.51v-.83a1.36,1.36,0,0,1,1.51-1.51H96.08A1.36,1.36,0,0,1,97.59,69.75Z"/><path class="cls-4" d="M112.58,94.73h-8.71a1.36,1.36,0,0,1-1.51-1.51V69.75a1.36,1.36,0,0,1,1.51-1.51h8.59A1.36,1.36,0,0,1,114,69.75v.83a1.36,1.36,0,0,1-1.51,1.51h-5.72v7.27h4.54a1.36,1.36,0,0,1,1.51,1.51v.83a1.36,1.36,0,0,1-1.51,1.51h-4.54v7.65h5.83a1.36,1.36,0,0,1,1.51,1.51v.83A1.36,1.36,0,0,1,112.58,94.73Z"/><path class="cls-4" d="M129.76,94.73h-8.71a1.36,1.36,0,0,1-1.51-1.51V69.75a1.36,1.36,0,0,1,1.51-1.51h8.59a1.36,1.36,0,0,1,1.51,1.51v.83a1.36,1.36,0,0,1-1.51,1.51h-5.72v7.27h4.54A1.36,1.36,0,0,1,130,80.88v.83a1.36,1.36,0,0,1-1.51,1.51h-4.54v7.65h5.83a1.36,1.36,0,0,1,1.51,1.51v.83A1.36,1.36,0,0,1,129.76,94.73Z"/><path class="cls-4" d="M139.22,94.73h-1a1.36,1.36,0,0,1-1.51-1.51V69.75a1.36,1.36,0,0,1,1.51-1.51h1.59a1.64,1.64,0,0,1,1.7,1.25l5.15,15.14V69.75a1.36,1.36,0,0,1,1.51-1.51h1a1.36,1.36,0,0,1,1.51,1.51V93.22a1.36,1.36,0,0,1-1.51,1.51h-1.36a1.64,1.64,0,0,1-1.7-1.25l-5.38-16V93.22A1.36,1.36,0,0,1,139.22,94.73Z"/></g></g></svg>