<svg xmlns="http://www.w3.org/2000/svg" viewBox="0 0 91.3 102.6"><defs><style>.cls-1{fill:#8cbdd6;stroke:#8cbdd6;stroke-linejoin:round;stroke-width:1.04px;}.cls-2{fill:#34446a;}.cls-3{fill:#fff;}</style></defs><title>day1</title><g id="Layer_2" data-name="Layer 2"><g id="Layer_1-2" data-name="Layer 1"><path class="cls-1" d="M11.24,71.56A5.43,5.43,0,1,0,9.33,79,5.43,5.43,0,0,0,11.24,71.56ZM8,76.7a2.76,2.76,0,1,1,1-3.78A2.76,2.76,0,0,1,8,76.7Z"/><path class="cls-1" d="M50.86,93.88a5.43,5.43,0,1,0-1.91,7.44A5.43,5.43,0,0,0,50.86,93.88ZM47.59,99a2.76,2.76,0,1,1,1-3.78A2.76,2.76,0,0,1,47.59,99Z"/><path class="cls-1" d="M10.63,25.48a5.43,5.43,0,1,0-1.91,7.44A5.43,5.43,0,0,0,10.63,25.48ZM7.35,30.62a2.76,2.76,0,1,1,1-3.78A2.76,2.76,0,0,1,7.35,30.62Z"/><path class="cls-1" d="M89.7,24.51a5.43,5.43,0,1,0-1.91,7.44A5.43,5.43,0,0,0,89.7,24.51Zm-3.27,5.14a2.76,2.76,0,1,1,1-3.78A2.76,2.76,0,0,1,86.43,29.65Z"/><path class="cls-1" d="M50.08,3.19a5.43,5.43,0,1,0-1.91,7.44A5.43,5.43,0,0,0,50.08,3.19ZM46.83,8.31a2.76,2.76,0,1,1,1-3.78A2.76,2.76,0,0,1,46.83,8.31Z"/><path class="cls-1" d="M90,70.4a5.43,5.43,0,1,0-1.91,7.44A5.43,5.43,0,0,0,90,70.4Zm-3.25,5.13a2.76,2.76,0,1,1,1-3.78A2.76,2.76,0,0,1,86.77,75.53Z"/><polygon class="cls-1" points="77.65 33.99 81.56 31.68 79.68 28.5 75.77 30.81 77.42 24.38 73.84 23.46 71.27 33.47 18.25 64.82 8.34 62.28 7.42 65.86 13.75 67.49 9.85 69.79 11.73 72.98 15.76 70.6 14.08 77.12 17.66 78.04 20.26 67.93 73.15 36.65 83.16 39.23 84.08 35.64 77.65 33.99"/><polygon class="cls-1" points="55.18 88.68 47.87 81.37 47.24 20.38 54.58 13.04 51.97 10.42 47.18 15.21 47.17 14.45 47.13 10.27 47.13 10.15 43.43 10.19 43.48 15.02 38.88 10.42 36.27 13.04 43.54 20.31 44.18 81.37 36.87 88.68 39.48 91.29 44.23 86.55 44.28 91.32 44.28 91.32 44.28 91.38 47.98 91.34 47.98 91.28 47.98 91.28 47.93 86.66 52.57 91.29 55.18 88.68"/><polygon class="cls-1" points="81.95 69.04 80.46 68.2 78.08 66.86 84.48 65.22 83.56 61.63 73.43 64.24 20 34.13 17.26 24.14 13.7 25.12 15.46 31.57 11.27 29.21 9.46 32.43 9.52 32.47 9.48 32.54 13.46 34.78 7.22 36.49 8.19 40.05 18.14 37.33 71.7 67.51 74.24 77.4 77.82 76.48 76.17 70.02 80.19 72.29 82 69.07 81.95 69.04 81.95 69.04"/><polygon class="cls-1" points="32.38 56.6 42.35 50.84 32.38 45.09 32.37 45.09 22.4 50.84 32.37 56.6 32.38 56.6 32.38 56.6"/><polygon class="cls-1" points="57.36 41.84 57.33 30.33 47.38 36.11 47.37 36.11 47.37 36.12 47.41 47.63 57.36 41.85 57.36 41.84 57.36 41.84"/><polygon class="cls-1" points="44.14 36.86 34.18 31.09 34.16 42.6 34.16 42.6 34.16 42.61 44.12 48.38 44.15 36.87 44.14 36.87 44.14 36.86"/><polygon class="cls-1" points="59.36 56.25 69.22 50.31 59.15 44.74 59.15 44.74 59.14 44.73 49.28 50.68 59.35 56.25 59.36 56.25 59.36 56.25"/><polygon class="cls-1" points="57.49 59.16 47.37 53.68 47.69 65.19 47.69 65.19 47.69 65.2 57.82 70.67 57.5 59.16 57.5 59.16 57.49 59.16"/><polygon class="cls-1" points="44.17 64.8 44.04 53.28 34.14 59.15 34.13 59.16 34.13 59.16 34.26 70.67 44.17 64.81 44.17 64.8 44.17 64.8"/><path class="cls-2" d="M22.42,34.65,24.91,36c4.55,0,4,1.68,4,6.45l2.49,17.28c0,4.77-5.49,8.29-10,8.29H21c-4.55,0-8.49-1.89-8.49-6.66V42.46C12.5,37.64,17.88,34.65,22.42,34.65ZM21.16,63.44c1.63,0,1.31-.63,1.31-2.88V43.27c0-2.25.32-2.88-1.31-2.88s-2.75.63-2.75,2.88V60.56C18.41,62.81,19.53,63.44,21.16,63.44Z"/><path class="cls-2" d="M41.61,67.67H39c-1.12,0-2.43-.63-2.43-1.8V38c0-1.8,2.57-2.44,4.38-3h1.8c1,0-.32,1.68,0,2.67l5.07,18V38c0-1.17,1.67-2.6,4.56-3h1.12c1.12,0-.36,1.82-.36,3L55.6,64.32c0,1.17-1.65,3.35-2.77,3.35h-3a1.87,1.87,0,0,1-1.93-1.49l-6.09-19,2.38,17.17C44.22,65.53,42.72,67.67,41.61,67.67Z"/><path class="cls-2" d="M74.38,67.67H62.8c-1.12,0-2.74-.63-2.74-1.8v-27c0-2.05,2.9-3.9,5.44-3.9l7,1.19c1.12,0,4.48-.67,4.48.5v1c0,1.17-1.29,3.1-2.41,3.1H66.06v8.64h5.15c1.12,0,4.44-.49,4.44.68v1c0,1.17-1.4,3-2.51,3L66.06,54v9.09h6.61c1.12,0,4.48-1,4.48.19v1C77.15,65.43,75.5,67.67,74.38,67.67Z"/><path class="cls-3" d="M23.45,34.62h.35c4.57,0,7.59,1.81,7.59,6.39V59.13c0,4.57-3,6.39-7.59,6.39h-.35c-4.57,0-7.59-1.81-7.59-6.39V41C15.86,36.39,18.88,34.62,23.45,34.62Zm.17,26.49c1.64,0,2.76-.6,2.76-2.76V41.78c0-2.16-1.12-2.76-2.76-2.76s-2.76.6-2.76,2.76V58.35C20.86,60.51,22,61.12,23.63,61.12Z"/><path class="cls-3" d="M42.69,65.17H41.57a1.55,1.55,0,0,1-1.73-1.73V36.69A1.55,1.55,0,0,1,41.57,35h1.81a1.87,1.87,0,0,1,1.94,1.42l5.87,17.26v-17A1.55,1.55,0,0,1,52.92,35H54a1.55,1.55,0,0,1,1.73,1.73V63.44A1.55,1.55,0,0,1,54,65.17H52.49a1.87,1.87,0,0,1-1.94-1.42L44.42,45.54V63.44A1.55,1.55,0,0,1,42.69,65.17Z"/><path class="cls-3" d="M75.42,65.17H65.5a1.55,1.55,0,0,1-1.73-1.73V36.69A1.55,1.55,0,0,1,65.5,35h9.79A1.55,1.55,0,0,1,77,36.69v.95a1.55,1.55,0,0,1-1.73,1.73H68.78v8.28H74a1.55,1.55,0,0,1,1.73,1.73v.95A1.55,1.55,0,0,1,74,52.05H68.78v8.72h6.65a1.55,1.55,0,0,1,1.73,1.73v.95A1.55,1.55,0,0,1,75.42,65.17Z"/></g></g></svg>