<svg xmlns="http://www.w3.org/2000/svg" viewBox="0 0 74.05 57.21"><defs><style>.cls-1{fill:#fff;}</style></defs><title>day11</title><g id="Layer_2" data-name="Layer 2"><g id="Layer_1-2" data-name="Layer 1"><path class="cls-1" d="M32.12,44.54V57.21H0V44.54H5.56a2.2,2.2,0,0,0,2.29-2.12V16.34H0V3.92H5.07C10.54,3.92,12,1.31,12,0H24.27V42.66a1.9,1.9,0,0,0,1.88,1.88Z"/><path class="cls-1" d="M74,44.54V57.21H41.93V44.54h5.56a2.2,2.2,0,0,0,2.29-2.12V16.34H41.93V3.92H47c5.48,0,6.95-2.62,6.95-3.92H66.2V42.66a1.9,1.9,0,0,0,1.88,1.88Z"/></g></g></svg>