<svg xmlns="http://www.w3.org/2000/svg" viewBox="0 0 96.72 64.59"><defs><style>.cls-1{fill:#e65c7d;}.cls-2{fill:#34446a;}.cls-3{fill:#fff;}</style></defs><title>day10</title><g id="Layer_2" data-name="Layer 2"><g id="Layer_1-2" data-name="Layer 1"><path class="cls-1" d="M28.27,49.87,21.17,38.1a.41.41,0,0,1,.35-.62h5.39a.41.41,0,0,0,.36-.61L20.08,24a.41.41,0,0,1,.36-.61h3.34a.41.41,0,0,0,.38-.57L14.54.25a.41.41,0,0,0-.76,0L4.17,22.82a.41.41,0,0,0,.38.57H7.89a.41.41,0,0,1,.36.61L1.05,36.86a.41.41,0,0,0,.36.61H6.8a.41.41,0,0,1,.35.62L.06,49.87a.41.41,0,0,0,.35.62H10.93a.41.41,0,0,1,.41.42l-.42,13.25a.41.41,0,0,0,.41.42h5.8a.41.41,0,0,0,.41-.42l-.42-13.25a.41.41,0,0,1,.41-.42H27.91A.41.41,0,0,0,28.27,49.87Z"/><path class="cls-1" d="M62.16,49.87,55.06,38.1a.41.41,0,0,1,.35-.62h5.39a.41.41,0,0,0,.36-.61L54,24a.41.41,0,0,1,.36-.61h3.34a.41.41,0,0,0,.38-.57L48.44.25a.41.41,0,0,0-.76,0L38.06,22.82a.41.41,0,0,0,.38.57h3.34a.41.41,0,0,1,.36.61l-7.2,12.86a.41.41,0,0,0,.36.61H40.7a.41.41,0,0,1,.35.62L34,49.87a.41.41,0,0,0,.35.62H44.83a.41.41,0,0,1,.41.42l-.42,13.25a.41.41,0,0,0,.41.42H51a.41.41,0,0,0,.41-.42L51,50.92a.41.41,0,0,1,.41-.42H61.81A.41.41,0,0,0,62.16,49.87Z"/><path class="cls-1" d="M96.66,49.87,89.57,38.1a.41.41,0,0,1,.35-.62h5.39a.41.41,0,0,0,.36-.61L88.47,24a.41.41,0,0,1,.36-.61h3.34a.41.41,0,0,0,.38-.57L82.94.25a.41.41,0,0,0-.76,0L72.56,22.82a.41.41,0,0,0,.38.57h3.34a.41.41,0,0,1,.36.61l-7.2,12.86a.41.41,0,0,0,.36.61H75.2a.41.41,0,0,1,.35.62l-7.1,11.78a.41.41,0,0,0,.35.62H79.33a.41.41,0,0,1,.41.42l-.42,13.25a.41.41,0,0,0,.41.42h5.8a.41.41,0,0,0,.41-.42l-.42-13.25a.41.41,0,0,1,.41-.42H96.31A.41.41,0,0,0,96.66,49.87Z"/><path class="cls-2" d="M21.86,27.69A50.81,50.81,0,0,1,25.5,21.1l-3.17,0h.09c.14,0-4.6-2.63-4.79-3.85,0-.93,3,.09,3.24-.4.28.15.47-.44,2.5-.39h2.55c1,0,2,0,2.5-1l1.75-2.59c.38-.64,1.42-2.54,1.89-3.27a28.31,28.31,0,0,1,3.59-4.64l1.18-1.07A2.85,2.85,0,0,1,38.35,3C38.82,3,40,4.83,40,5.81c0,1.37-1.37,2.44-2.22,3.42s-5,6.74-5,6.94l3.73.15c.66-.2,1.56-2.07,3.17-2.07.8.24,3.59,3,3.59,3.83,0,1.37-1.37,2.39-3.12,2.69-2.74.49-7.23-.15-9.83.44-1.18,1.32-6.14,11-7.23,13.87-1.51,3.18-1.51,3.57-1.56,5.47,0,.34.14,1.12,1.28,1.12a6.46,6.46,0,0,0,2.93-1.07c1.37-.44,6.61-5.13,7.13-5.86l.28-.44c.52-.44,1.13-1.07,1.65-1.07s1.28-.39,1.61-.15.28,1.12.28,1.71c0,1.22-3.07,4.84-4.2,6.06-2.65,3.22-7.46,5.67-10.87,5.67-2.79,0-6.9-5.05-6.85-7.64C14.91,34.7,20.16,31.21,21.86,27.69Z"/><path class="cls-2" d="M31.26,39.51c.47-6.15,2.08-10.4,6.8-15.58,2.41-2.49,5.74-5.87,8.39-5.78s4.88,5.92,4.65,7.44a12.86,12.86,0,0,1-2.83,6.74c-1.51,2.05-6.49,7.76-10.51,7.76H36.35c-.52.93-.55,1.81,1,2.25a9,9,0,0,0,6.09-1.66c2.93-1.81,6.52-6.15,8.41-6.35.76,0,3.89-2.52,3.84-2-.14,2.39-7.05,9.8-11.44,12.29a15.69,15.69,0,0,1-7.89,1.86C34.66,46.4,30.88,43.42,31.26,39.51Zm5.39-4.88c3.21-.44,7.61-3.37,8.83-5.52.9-1.12,1.61-3.42.57-4.4-1.89-.64-5.2,1.66-6.57,3.81a16.41,16.41,0,0,0-2.88,6.1Z"/><path class="cls-2" d="M57.25,39.36c.71-1.17,1.09-3.17,1.7-4,1.13-2.39,3.73-8.4,1.89-8.69-.94.2-3.21,3-3.73,4.1-1.13,1.76-3.68,6.1-5,7-.95.64-1.13.73-1.7.44s-2.14-1.6-2.24-2.87c0-.2,3.23-2.41,4-3.63s1.51-2.39,2.46-4C56.35,25,59.51,22,62.59,22c2.13,0,2.79,2,2.79,3.86,0,.1-.71,3.81-.66,3.86l1.13-1.51L68.77,25c1.28-.88,2.53-4.23,4.28-4.23,2,0,4.08,3.36,3.94,5.6l-.19,1.37c-1,3-2.27,6.4-3.69,10.4-.28.83-.28,3,.66,3.13,1.23-.1,4.11-3.47,4.82-5,.09-.2,1.82-6,3.14-6.3,1.23,0,2.39,2.49,2.39,3.13a4.15,4.15,0,0,1-.19.73L83.61,35c-.76,2.44-3.12,5.57-4.77,7.52C77.56,43.61,75,46.2,72.55,46.2c-2.08,0-3.73-2.69-3.73-3.66,0-.29.09-.73.09-1s0-.93,0-1.32a8.11,8.11,0,0,1,.28-2.78l.47-1.51A36.42,36.42,0,0,1,71,32.28c.76-1.81,1.28-4.1.24-4-.71.1-2.41,1.91-2.93,2.64-.9,1.17-1.13.88-4.2,6.06l-.95,1.9A28.72,28.72,0,0,0,60.65,43c-.71.68-1.51,3.47-3.12,3.47-1.28,0-3.89-3.52-4.12-4.79C53.64,40,56.58,40.93,57.25,39.36Z"/><path class="cls-3" d="M19.89,25.2a48.62,48.62,0,0,1,3.63-6.37l-3.16,0h.09c.14,0-2.83-.57-3-1.75,0-.9,1.18-1.89,1.46-2.36.28.14.47-.42,2.5-.38h2.55c1,0,2,0,2.5-1l1.75-2.5c.38-.61,1.42-2.45,1.89-3.16a27.49,27.49,0,0,1,3.58-4.48l1.18-1a2.87,2.87,0,0,1,1.51-.75c.47,0,1.7,1.75,1.7,2.69,0,1.32-1.37,2.36-2.22,3.3s-5,6.51-5,6.7l3.73.14a35.77,35.77,0,0,1,4.76-.09c.8.24,2,1,2,1.79,0,1.32-1.37,2.31-3.11,2.59-2.74.47-7.22-.14-9.81.42-1.18,1.27-6.13,10.62-7.22,13.4-1.51,3.07-1.51,3.44-1.56,5.28,0,.33.14,1.08,1.27,1.08a6.61,6.61,0,0,0,2.92-1c1.37-.42,6.61-5,7.12-5.66l.28-.42c.52-.42,1.13-1,1.65-1s1.27-.38,1.6-.14.28,1.08.28,1.65c0,1.18-3.07,4.67-4.2,5.85C28,41,23.15,43.36,19.75,43.36a5,5,0,0,1-5-4.91C14.8,34.44,18.19,28.59,19.89,25.2Z"/><path class="cls-3" d="M29.28,36.61c.47-5.94,2.08-10,6.79-15,2.41-2.41,7.22-3.77,9.86-3.68s3.4,3.82,3.16,5.28a12.21,12.21,0,0,1-2.83,6.51c-1.51,2-7,5.95-11,5.95H33.81c-.52.9,0,3.3,1.56,3.73a9.22,9.22,0,0,0,6.09-1.6C44.38,36,48,31.8,49.85,31.61a1,1,0,0,1,.94,1.23c-.14,2.31-4.15,6.28-8.54,8.68a16.11,16.11,0,0,1-7.88,1.79C32.68,43.26,28.9,40.39,29.28,36.61Zm5.38-4.72c3.21-.42,7.6-3.26,8.82-5.33.9-1.09,1.6-3.3.57-4.25-1.89-.61-5.19,1.6-6.56,3.68a15.62,15.62,0,0,0-2.88,5.9Z"/><path class="cls-3" d="M55.23,36.47c.71-1.13,1.09-3.07,1.7-3.87,1.13-2.31,3.73-8.12,1.89-8.4-.94.19-3.21,2.88-3.73,4-1.13,1.7-3.68,5.9-5,6.75-.94.61-1.13.71-1.7.42s-.61-1.18-.71-2.41c0-.19,1.7-2.69,2.5-3.87s1.51-2.31,2.45-3.82c1.7-2.69,4.86-5.57,7.93-5.57,2.12,0,2.78,1.89,2.78,3.73,0,.09-.71,3.68-.66,3.73l1.13-1.46,2.93-3.11C68,21.7,69.52,20,71.27,20A3.7,3.7,0,0,1,75,23.87l-.19,1.32c-1,2.92-2.26,6.18-3.68,10-.28.8-.28,2.93.66,3,1.23-.09,4.1-3.35,4.81-4.86.09-.19,2.41-3.82,3.73-4.15,1.23,0,1.79.47,1.79,1.08a4,4,0,0,1-.19.71l-.33,1.18c-.75,2.36-3.11,5.38-4.77,7.27-1.27,1.08-3.87,3.59-6.27,3.59-2.08,0-3.73-2.59-3.73-3.54,0-.28.09-.71.09-.94s0-.9,0-1.27a7.6,7.6,0,0,1,.28-2.69l.47-1.46A34.62,34.62,0,0,1,69,29.63c.75-1.75,1.27-4,.24-3.82-.71.09-2.41,1.84-2.92,2.55-.9,1.13-1.13.85-4.2,5.85L61.17,36a27.7,27.7,0,0,0-2.55,4c-.71.66-1.51,3.35-3.11,3.35-1.27,0-2-1-2.22-2.26C53.53,39.49,54.57,38,55.23,36.47Z"/></g></g></svg>