<svg xmlns="http://www.w3.org/2000/svg" viewBox="0 0 372.06 212.13"><defs><style>.cls-1{fill:#e65c7d;}.cls-2{fill:#fff;stroke:#fff;stroke-miterlimit:10;stroke-width:0.35px;}</style></defs><title>day17</title><g id="Layer_2" data-name="Layer 2"><g id="Layer_1-2" data-name="Layer 1"><rect class="cls-1" x="97.62" width="36" height="212.13"/><rect class="cls-1" y="152.96" width="372.06" height="36"/><path class="cls-2" d="M85.2,117.28c5.68,3,13.39,2.25,13.39-4.57,0-5.05-6.64-6-8.52-7.49-3-2.32-1.4-8.85,7.78-5.13a1.22,1.22,0,0,1-1,2.25c-5.57-2.25-6.53,0-5.31,1s9.44,2.51,9.44,9.37-6,9.92-12.87,8.26A15.31,15.31,0,0,1,84,119.45,1.24,1.24,0,0,1,85.2,117.28ZM97.55,97.4c-3.32-1.18-7.3-1.81-9.74.88-2,2.1-2.51,6,.15,8.26,3.21,2.88,7.78,2.25,8,6.16a3.75,3.75,0,0,1-3.69,3.72,12.31,12.31,0,0,1-7.82-2.21,1.23,1.23,0,0,1,1.44-2c2.84,2.07,7.82,2.43,7.6.59s-3.8-1.44-7.23-4.43C81,103.7,84.2,94.37,91.8,94a16.23,16.23,0,0,1,6.6,1.07A1.24,1.24,0,0,1,97.55,97.4Z"/><path class="cls-2" d="M120.68,120a1.24,1.24,0,0,1-1.25,1.22H106.66a1.23,1.23,0,0,1-1.22-1.22V95.33a1.23,1.23,0,0,1,1.22-1.22h12.76a1.24,1.24,0,1,1,0,2.47H107.92v22.17h11.51A1.24,1.24,0,0,1,120.68,120Zm0-19.73a1.24,1.24,0,0,1-1.25,1.22h-6.6V104h4.31a1.24,1.24,0,1,1,0,2.47h-5.53a1.24,1.24,0,0,1-1.25-1.22v-4.94a1.21,1.21,0,0,1,1.25-1.22h7.82A1.21,1.21,0,0,1,120.68,100.28Zm-2.29,9.85a1.24,1.24,0,0,1-1.25,1.25h-4.31v2.43h6.6a1.24,1.24,0,1,1,0,2.47h-7.82a1.24,1.24,0,0,1-1.25-1.22v-4.94a1.24,1.24,0,0,1,1.25-1.22h5.53A1.24,1.24,0,0,1,118.39,110.12Z"/><path class="cls-2" d="M145.65,94.19a1.25,1.25,0,0,1,.66,1.62L135.8,121.59a1.23,1.23,0,0,1-2.29,0L123,95.81a1.23,1.23,0,1,1,2.29-.92l9.4,23,9.37-23A1.27,1.27,0,0,1,145.65,94.19Zm-16.41,0a1.29,1.29,0,0,1,1.62.7l3.84,9.33,3.8-9.33a1.24,1.24,0,0,1,1.59-.7,1.3,1.3,0,0,1,.7,1.62l-5,12.13a1.25,1.25,0,0,1-2.29,0l-4.9-12.13A1.23,1.23,0,0,1,129.24,94.19Z"/><path class="cls-2" d="M164.87,120a1.24,1.24,0,0,1-1.25,1.22H150.85a1.23,1.23,0,0,1-1.22-1.22V95.33a1.23,1.23,0,0,1,1.22-1.22h12.76a1.24,1.24,0,1,1,0,2.47H152.11v22.17h11.51A1.24,1.24,0,0,1,164.87,120Zm0-19.73a1.24,1.24,0,0,1-1.25,1.22H157V104h4.31a1.24,1.24,0,1,1,0,2.47h-5.53a1.24,1.24,0,0,1-1.25-1.22v-4.94a1.21,1.21,0,0,1,1.25-1.22h7.82A1.21,1.21,0,0,1,164.87,100.28Zm-2.29,9.85a1.24,1.24,0,0,1-1.25,1.25H157v2.43h6.6a1.24,1.24,0,1,1,0,2.47h-7.82a1.24,1.24,0,0,1-1.25-1.22v-4.94a1.24,1.24,0,0,1,1.25-1.22h5.53A1.24,1.24,0,0,1,162.58,110.12Z"/><path class="cls-2" d="M171,121.26a1.26,1.26,0,0,1-1.22-1.25V95.33A1.2,1.2,0,0,1,171,94.15a1.17,1.17,0,0,1,1.22,1.18V120A1.24,1.24,0,0,1,171,121.26Zm3.76-26.89a1.17,1.17,0,0,1,1.7.29L185,106.8V95.33a1.23,1.23,0,0,1,1.25-1.18,1.2,1.2,0,0,1,1.22,1.18v15.34a1.19,1.19,0,0,1-.55,1,1.2,1.2,0,0,1-1.7-.29L174.5,96.07A1.19,1.19,0,0,1,174.79,94.37ZM187.4,121a1.28,1.28,0,0,1-1.73-.33l-8.48-12.13V120a1.24,1.24,0,0,1-1.25,1.22,1.2,1.2,0,0,1-1.18-1.22V104.66a1.09,1.09,0,0,1,.52-1,1.14,1.14,0,0,1,1.7.29l10.73,15.34A1.32,1.32,0,0,1,187.4,121Zm3.73.22a1.26,1.26,0,0,1-1.22-1.25V95.33a1.24,1.24,0,0,1,2.47,0V120A1.27,1.27,0,0,1,191.13,121.26Z"/><path class="cls-2" d="M196.11,95.37a1.21,1.21,0,0,1,1.25-1.22h17.22a1.17,1.17,0,0,1,1.18,1.22,1.2,1.2,0,0,1-1.18,1.22H197.36A1.24,1.24,0,0,1,196.11,95.37Zm0,4.94a1.24,1.24,0,0,1,1.25-1.25h6.12a1.24,1.24,0,0,1,1.25,1.25V120a1.24,1.24,0,0,1-1.25,1.25,1.27,1.27,0,0,1-1.25-1.25V101.49h-4.87A1.21,1.21,0,0,1,196.11,100.31Zm19.66,0a1.17,1.17,0,0,1-1.18,1.18h-4.94V120a1.24,1.24,0,1,1-2.47,0V100.31a1.24,1.24,0,0,1,1.22-1.25h6.2A1.21,1.21,0,0,1,215.77,100.31Z"/><path class="cls-2" d="M235,120a1.24,1.24,0,0,1-1.25,1.22H221a1.23,1.23,0,0,1-1.22-1.22V95.33A1.23,1.23,0,0,1,221,94.12h12.76a1.24,1.24,0,1,1,0,2.47H222.22v22.17h11.51A1.24,1.24,0,0,1,235,120Zm0-19.73a1.24,1.24,0,0,1-1.25,1.22h-6.6V104h4.31a1.24,1.24,0,1,1,0,2.47h-5.53a1.24,1.24,0,0,1-1.25-1.22v-4.94a1.21,1.21,0,0,1,1.25-1.22h7.82A1.21,1.21,0,0,1,235,100.28Zm-2.29,9.85a1.24,1.24,0,0,1-1.25,1.25h-4.31v2.43h6.6a1.24,1.24,0,1,1,0,2.47h-7.82a1.24,1.24,0,0,1-1.25-1.22v-4.94a1.24,1.24,0,0,1,1.25-1.22h5.53A1.24,1.24,0,0,1,232.7,110.12Z"/><path class="cls-2" d="M255.16,120a1.24,1.24,0,0,1-1.25,1.22H241.15a1.23,1.23,0,0,1-1.22-1.22V95.33a1.23,1.23,0,0,1,1.22-1.22h12.76a1.24,1.24,0,1,1,0,2.47H242.4v22.17h11.51A1.24,1.24,0,0,1,255.16,120Zm0-19.73a1.24,1.24,0,0,1-1.25,1.22h-6.6V104h4.31a1.24,1.24,0,1,1,0,2.47h-5.53a1.24,1.24,0,0,1-1.25-1.22v-4.94a1.21,1.21,0,0,1,1.25-1.22h7.82A1.21,1.21,0,0,1,255.16,100.28Zm-2.29,9.85a1.24,1.24,0,0,1-1.25,1.25h-4.31v2.43h6.6a1.24,1.24,0,1,1,0,2.47h-7.82a1.24,1.24,0,0,1-1.25-1.22v-4.94a1.24,1.24,0,0,1,1.25-1.22h5.53A1.24,1.24,0,0,1,252.87,110.12Z"/><path class="cls-2" d="M261.32,121.26A1.26,1.26,0,0,1,260.1,120V95.33a1.2,1.2,0,0,1,1.22-1.18,1.17,1.17,0,0,1,1.22,1.18V120A1.24,1.24,0,0,1,261.32,121.26Zm3.76-26.89a1.17,1.17,0,0,1,1.7.29l8.48,12.13V95.33a1.23,1.23,0,0,1,1.25-1.18,1.2,1.2,0,0,1,1.22,1.18v15.34a1.19,1.19,0,0,1-.55,1,1.2,1.2,0,0,1-1.7-.29l-10.7-15.34A1.19,1.19,0,0,1,265.08,94.37ZM277.7,121a1.28,1.28,0,0,1-1.73-.33l-8.48-12.13V120a1.24,1.24,0,0,1-1.25,1.22A1.2,1.2,0,0,1,265,120V104.66a1.09,1.09,0,0,1,.52-1,1.14,1.14,0,0,1,1.7.29L278,119.31A1.32,1.32,0,0,1,277.7,121Zm3.73.22A1.26,1.26,0,0,1,280.2,120V95.33a1.24,1.24,0,0,1,2.47,0V120A1.27,1.27,0,0,1,281.42,121.26Z"/></g></g></svg>