<svg xmlns="http://www.w3.org/2000/svg" viewBox="0 0 134.38 154.45"><defs><style>.cls-1{fill:#34446a;}.cls-2{fill:#fff;stroke:#fff;stroke-miterlimit:10;stroke-width:0.92px;}</style></defs><title>day13</title><g id="Layer_2" data-name="Layer 2"><g id="Layer_1-2" data-name="Layer 1"><g id="Simple_Snowflake" data-name="Simple Snowflake"><path class="cls-1" d="M133.18,112.55l-15.44-8.89,10.53-2.84A2.37,2.37,0,0,0,127,96.25l-15.13,4.08L97.33,91.89l26.62-7.13a2.37,2.37,0,0,0-1.24-4.57L91.49,88.56,72,77.2,91.52,65.92l31.22,8.37a2.14,2.14,0,0,0,.62.09,2.37,2.37,0,0,0,.62-4.66L97.36,62.59l14.57-8.43,15.13,4.08a2.14,2.14,0,0,0,.62.09,2.37,2.37,0,0,0,.62-4.66l-10.53-2.84,15.41-8.92a2.38,2.38,0,0,0-2.35-4.14l-15.47,8.86L118.2,36.1a2.37,2.37,0,1,0-4.57-1.24L109.56,50,95,58.42l7.13-26.62a2.37,2.37,0,1,0-4.57-1.24l-8.4,31.19L69.6,73.06V50.45L92.45,27.61a2.38,2.38,0,0,0-3.37-3.37L69.6,43.72V27L80.69,15.87a2.38,2.38,0,0,0-3.37-3.37L69.6,20.23V2.38a2.38,2.38,0,1,0-4.76,0V20.19l-7.72-7.72a2.38,2.38,0,0,0-3.37,3.37L64.85,26.93V43.75L45.36,24.27A2.38,2.38,0,0,0,42,27.64L64.85,50.49V73.12L45.3,61.85,36.9,30.57a2.37,2.37,0,1,0-4.57,1.24l7.13,26.62L24.83,50,20.75,34.89a2.37,2.37,0,1,0-4.57,1.24L19,46.66,3.61,37.73a2.35,2.35,0,0,0-3.24.9,2.35,2.35,0,0,0,.9,3.24l15.44,8.89L6.18,53.6a2.34,2.34,0,0,0-1.67,2.9,2.4,2.4,0,0,0,2.28,1.76,2.14,2.14,0,0,0,.62-.09L22.54,54.1l14.57,8.43L10.5,69.66a2.34,2.34,0,0,0-1.67,2.9,2.4,2.4,0,0,0,2.28,1.76,2.14,2.14,0,0,0,.62-.09L43,65.86,62.5,77.13,43,88.4,11.7,80.07a2.37,2.37,0,1,0-1.24,4.57l26.62,7.13L22.51,100.2,7.38,96.12a2.37,2.37,0,1,0-1.24,4.57l10.53,2.84-15.47,9a2.39,2.39,0,0,0-.9,3.24,2.33,2.33,0,0,0,2.07,1.17,2.23,2.23,0,0,0,1.17-.31L19,107.7l-2.84,10.53a2.35,2.35,0,0,0,1.67,2.9,2.14,2.14,0,0,0,.62.09,2.37,2.37,0,0,0,2.28-1.76l4.08-15.13,14.57-8.43L32.3,122.59a2.35,2.35,0,0,0,1.67,2.9,2.14,2.14,0,0,0,.62.09,2.37,2.37,0,0,0,2.28-1.76L45.24,92.6,64.78,81.33v22.6L41.93,126.79a2.37,2.37,0,1,0,3.33,3.37l19.48-19.48V127.5L53.67,138.58A2.37,2.37,0,1,0,57,141.95l7.72-7.72v17.85a2.38,2.38,0,1,0,4.76,0V134.26L77.2,142a2.37,2.37,0,1,0,3.33-3.37L69.45,127.53V110.7l19.48,19.48a2.37,2.37,0,0,0,3.33-3.37L69.42,104V81.33L89,92.6l8.52,31.22a2.4,2.4,0,0,0,2.28,1.76,2.14,2.14,0,0,0,.62-.09,2.34,2.34,0,0,0,1.67-2.9L94.92,96l14.57,8.43,4.08,15.13a2.4,2.4,0,0,0,2.28,1.76,2.14,2.14,0,0,0,.62-.09,2.34,2.34,0,0,0,1.67-2.9l-2.84-10.53,15.44,8.89a2.38,2.38,0,0,0,1.17.31,2.43,2.43,0,0,0,2.07-1.17A2.3,2.3,0,0,0,133.18,112.55Z"/></g><path class="cls-2" d="M50.5,114.54a3.3,3.3,0,0,1-3.33-3.33V49.11H24.78a3.26,3.26,0,0,1-3.23-3.23,3.19,3.19,0,0,1,3.23-3.23H50.5a3.19,3.19,0,0,1,3.23,3.23v65.34A3.28,3.28,0,0,1,50.5,114.54ZM21.55,59a3.28,3.28,0,0,1,3.23-3.33H37.4A3.3,3.3,0,0,1,40.72,59v52.23a3.28,3.28,0,1,1-6.55,0v-49H24.78A3.26,3.26,0,0,1,21.55,59Z"/><path class="cls-2" d="M71,106.33c20.74,8.31,35.5-6.06,29.93-20.54-1.86-5-5.77-6.55-3.23-9.59C108,64.76,99.6,44.32,77.11,48.62c-4.89.88-8.8,4-10.47,0a3.37,3.37,0,0,1,1.86-4.21c26.11-10.66,46.17,9,38.63,28.85a19.63,19.63,0,0,1-2.74,5.09c11.74,16.73-1.47,41.47-28.46,36.19a35.23,35.23,0,0,1-7.43-2.15C64.59,110.73,66.93,104.57,71,106.33Zm2.05-13.6c1.86,1,10.47,4.4,13.69,1.27,2-1.86.78-5.58-2.74-5.58-2.93,0-7.73.68-7.73-3.33s4.79-3.33,7.73-3.33c13,0,13.89,19.27.1,20.05A28.79,28.79,0,0,1,70,98.6C66.15,96.64,68.89,90.58,73.1,92.73ZM70.26,58.11A26.37,26.37,0,0,1,84.15,55C97.94,55.66,97.06,75,84.05,75c-2.93,0-7.73.68-7.73-3.33,0-6.65,11.35,0,11.35-6.75,0-2.15-1.76-3.33-3.81-3.42a19.77,19.77,0,0,0-11,2.64C69,65.93,66,60,70.26,58.11Z"/></g></g></svg>