<svg xmlns="http://www.w3.org/2000/svg" viewBox="0 0 144.49 71.09"><defs><style>.cls-1{fill:#e65c7d;}.cls-2{fill:#34446a;}.cls-3{fill:#fff;}</style></defs><title>day12</title><g id="Layer_2" data-name="Layer 2"><g id="Layer_1-2" data-name="Layer 1"><path class="cls-1" d="M44,61.23c-18,1.42-33.59,5-44,9.86V29.76c10.45-4.87,26-8.44,44-9.85Z"/><path class="cls-1" d="M100.46,61.23c18,1.42,33.59,5,44,9.86V29.76c-10.45-4.87-26-8.44-44-9.85Z"/><path class="cls-2" d="M44.3,32.26c-13.46-1.8-25-4.85-33.32-8.73V51.67C19.3,55.54,30.84,58.6,44.3,60.4Z"/><path class="cls-2" d="M133.77,52.53c-13.46,1.8-25,4.85-33.32,8.73V33.11c8.31-3.87,19.86-6.92,33.32-8.72Z"/><path class="cls-1" d="M133.77,10.91C120.18,4.32,97.38,0,71.55,0,46.22,0,23.81,4.15,10.13,10.53V51.86c13.68-6.37,36.09-10.53,61.42-10.53,25.83,0,48.63,4.32,62.22,10.91Z"/><path class="cls-3" d="M32.16,12.57l.15.66c.17.78-.21,1.31-1.1,1.51l-2.62.61,4.06,16.73a1.12,1.12,0,0,1-.93,1.5l-1.1.28A1.12,1.12,0,0,1,29.1,33L24.67,16.35l-2.6.71c-.88.25-1.47,0-1.69-.8l-.19-.65c-.22-.77.13-1.33,1-1.58,3.7-1,5.56-1.52,9.3-2.37C31.41,11.46,32,11.78,32.16,12.57Z"/><path class="cls-3" d="M57.56,8.92c-.77,7.73-1.09,11.6-1.57,19.34a1.24,1.24,0,0,1-1.23,1.27l-1.09.12a1.26,1.26,0,0,1-1.5-.95c-1.68-5.32-2.57-8-4.42-13.25-.39,5.58-.54,8.37-.76,13.95a1.27,1.27,0,0,1-1.19,1.31l-1.2.2a1.24,1.24,0,0,1-1.52-.9c-2.53-7.33-3.86-11-6.66-18.22-.3-.82.06-1.37,1-1.54L38.57,10a1.31,1.31,0,0,1,1.66.9c1.72,5.49,2.55,8.24,4.16,13.76.15-5.83.26-8.74.59-14.58,0-.75.54-1.2,1.38-1.32l1.05-.14a1.38,1.38,0,0,1,1.68.91c1.86,5.54,2.74,8.32,4.42,13.9.09-5.74.16-8.62.37-14.37a1.31,1.31,0,0,1,1.36-1.3l.95-.08C57.14,7.62,57.63,8,57.56,8.92Z"/><path class="cls-3" d="M72.72,28.66c-2.87,0-4.3,0-7.17.11a1.12,1.12,0,0,1-1.3-1.18L63.4,8.47c0-.8.44-1.26,1.35-1.29,3.2-.12,4.8-.14,8-.12.92,0,1.41.45,1.39,1.25V9c0,.8-.5,1.23-1.4,1.22-2.09,0-3.14,0-5.23,0l.13,5.92c1.61,0,2.41,0,4,0,.87,0,1.34.44,1.33,1.24V18c0,.8-.47,1.23-1.33,1.23-1.58,0-2.37,0-4,0l.14,6.23c2,0,2.93-.05,4.89,0A1.12,1.12,0,0,1,74,26.76v.68A1.12,1.12,0,0,1,72.72,28.66Z"/><path class="cls-3" d="M88.77,27.57l-.08.74a1.12,1.12,0,0,1-1.37,1.1c-2.67-.26-4-.36-6.69-.5a1.12,1.12,0,0,1-1.19-1.3l.9-19.11c0-.8.55-1.21,1.47-1.16l1.27.07c.92.06,1.38.52,1.32,1.32L83.22,25.85c1.76.12,2.64.2,4.4.36A1.12,1.12,0,0,1,88.77,27.57Z"/><path class="cls-3" d="M106.77,11.76c-3.08,7.21-4.53,10.84-7.28,18.15a1.27,1.27,0,0,1-1.54.87l-1.67-.26a1.27,1.27,0,0,1-1.2-1.3c-.37-7.8-.64-11.7-1.35-19.51-.07-.88.48-1.28,1.42-1.16l1.3.17a1.34,1.34,0,0,1,1.34,1.34c.2,6,.26,9.06.29,15.09,1.88-5.73,2.87-8.58,4.92-14.26a1.34,1.34,0,0,1,1.69-.86l1.08.2C106.71,10.39,107.11,10.94,106.77,11.76Z"/><path class="cls-3" d="M116.21,34.83c-2.79-.79-4.19-1.15-7-1.81a1.12,1.12,0,0,1-.95-1.49l4.24-18.66c.18-.78.76-1.1,1.66-.88,3.14.74,4.7,1.14,7.81,2,.89.25,1.25.81,1,1.58l-.19.65c-.22.77-.81,1-1.69.8-2-.57-3.05-.84-5.1-1.36l-1.44,5.75c1.57.39,2.36.6,3.92,1a1.16,1.16,0,0,1,1,1.55l-.19.65a1.16,1.16,0,0,1-1.62.83c-1.54-.42-2.31-.63-3.86-1l-1.52,6c1.91.48,2.87.73,4.77,1.27a1.12,1.12,0,0,1,.89,1.54l-.19.65A1.13,1.13,0,0,1,116.21,34.83Z"/></g></g></svg>