<svg xmlns="http://www.w3.org/2000/svg" viewBox="0 0 152.61 222.72"><defs><style>.cls-1{fill:#71518e;}.cls-2{fill:#fff;}</style></defs><title>day18</title><g id="Layer_2" data-name="Layer 2"><g id="Layer_1-2" data-name="Layer 1"><g id="Fir_Leaf" data-name="Fir Leaf"><path class="cls-1" d="M70.05,173.1v8.33L13.57,143.79a6.26,6.26,0,1,0-6.95,10.42L70.1,196.44v20a6.24,6.24,0,0,0,12.47,0v-20L146,154.17A6.26,6.26,0,1,0,139,143.74L82.57,181.43V173.1l67.26-44.86a6.26,6.26,0,1,0-6.95-10.42L82.57,158v-8.33l63.52-42.32A6.26,6.26,0,1,0,139.14,97L82.57,134.7v-8.33l55.77-37.19a6.26,6.26,0,1,0-6.95-10.42L82.57,111.36V103l46.1-30.74a6.26,6.26,0,0,0-6.95-10.42L82.57,88V79.64l35.15-23.43a6.26,6.26,0,0,0-6.95-10.42l-28.2,18.8V56.26l23.25-15.5a6.26,6.26,0,0,0-6.95-10.42L82.57,41.2V33l10.6-7.08a6.26,6.26,0,0,0-6.95-10.42l-3.65,2.45V6.24a6.24,6.24,0,0,0-12.47,0V17.91l-3.65-2.45A6.26,6.26,0,0,0,59.5,25.88L70.1,33v8.33L53.8,30.42a6.26,6.26,0,0,0-6.95,10.42L70.1,56.35v8.33L41.9,45.88A6.26,6.26,0,0,0,35,56.3L70.1,79.73v8.33L30.94,62A6.26,6.26,0,1,0,24,72.38l46.1,30.74v8.24L21.23,78.8a6.26,6.26,0,1,0-6.95,10.42L70.1,126.37v8.33L13.53,97A6.26,6.26,0,1,0,6.58,107.4L70.1,149.71V158L9.74,117.82a6.26,6.26,0,1,0-6.95,10.42Z"/></g><path class="cls-2" d="M40.4,117c1.6,11.66,9.35,18,20.21,19.14v8H58.83a30.49,30.49,0,0,1-19.32-6.32l-5.16,6.32-5.16-6.32a30.48,30.48,0,0,1-19.32,6.32H8.08v-8c10.86-1.16,18.61-7.48,20.21-19.14H16.09v-8.9H28.56v-1.25c0-10.51-2.94-17-10-17-2.4,0-4.18.8-6.95,2.58L9.86,91.5v-7c3.56-2.23,7-3.56,10.51-3.56a16.17,16.17,0,0,1,11.22,4.72l5-4.72,4,5.79a36.84,36.84,0,0,1,11-6l2.32,5.07c-6.86,4.81-12.46,10.51-13.62,22.26H52.59V117Z"/><path class="cls-2" d="M147.86,117H132.54c5.08,2.76,7.75,6.32,7.75,11.13,0,9.53-11.31,16-36.24,16h-.89c-24.22,0-35.79-6.5-35.88-16C67.19,123.28,70,119.72,75,117H60.6v-8.9H74.94c-4.18-2.49-6.32-5.88-6.32-10.24,0-11.58,12.64-16.92,34.72-16.92h.89c22.44,0,34.72,5.34,34.72,16.92,0,4.36-2,7.75-6.23,10.24h15.14Zm-43.63,18.25c14.69,0,21.9-3.21,21.81-9.35s-6.59-9.35-21.81-9.35h-.89c-14.87,0-21.37,3.29-21.81,9.35.27,6.14,7.48,9.35,21.81,9.35Zm-.89-45.41c-11.31,0-20.57,2.67-20.92,8.9.36,7.48,9.62,9.79,20.92,9.79h.89c11.75,0,20.92-2.31,20.92-9.79,0-6.23-9.17-8.9-20.92-8.9Z"/></g></g></svg>