<svg xmlns="http://www.w3.org/2000/svg" xmlns:xlink="http://www.w3.org/1999/xlink" viewBox="0 0 184.63 185.05"><defs><style>.cls-1,.cls-10,.cls-11,.cls-12,.cls-13,.cls-14,.cls-15,.cls-16,.cls-17,.cls-18,.cls-19,.cls-4,.cls-5,.cls-6,.cls-7,.cls-8,.cls-9{fill:none;}.cls-2{fill:#fff;}.cls-3{clip-path:url(#clip-path);}.cls-10,.cls-11,.cls-12,.cls-13,.cls-14,.cls-15,.cls-16,.cls-17,.cls-18,.cls-19,.cls-4,.cls-5,.cls-6,.cls-7,.cls-8,.cls-9{stroke:#8cbdd6;stroke-linecap:round;stroke-miterlimit:10;stroke-width:3.67px;}.cls-5{stroke-dasharray:2.61 4.35;}.cls-6{stroke-dasharray:3.99 6.3;}.cls-7{stroke-dasharray:3.66 5.78;}.cls-8{stroke-dasharray:3.85 6.08;}.cls-9{stroke-dasharray:3.76 5.93;}.cls-10{stroke-dasharray:3.75 5.93;}.cls-11{stroke-dasharray:3.8 5.99;}.cls-12{stroke-dasharray:3.65 5.76;}.cls-13{stroke-dasharray:4.06 6.4;}.cls-14{stroke-dasharray:4 6.32;}.cls-15{stroke-dasharray:3.16 5.26;}.cls-16{stroke-dasharray:2.77 4.61;}.cls-17{stroke-dasharray:3.48 6.7;}.cls-18{stroke-dasharray:2.41 4.02;}.cls-19{stroke-dasharray:2.99 4.99;}</style><clipPath id="clip-path"><rect class="cls-1" x="32.44" y="6.01" width="127" height="165.33"/></clipPath></defs><title>day2</title><g id="Layer_2" data-name="Layer 2"><g id="Layer_1-2" data-name="Layer 1"><path class="cls-2" d="M127.64,95.87a35.14,35.14,0,0,0,.21,15.27l-4.58,4.54-4.13-4.18a31,31,0,0,1-15.61,4.45c-12.39.17-15.55-3-23.94-2.88-5.44.07-9.34.85-13.07,3.29-1.62-1.58-2.45-3.64-2.5-7.4-.14-10.15,9.35-17.87,28.4-22.69L90,79l7.16-2.73,2.75,8c9.56-2.69,14.56-5.31,14.51-9.23-.06-4.64-5.94-8.08-15.54-7.87C84.65,67.51,76.17,73,72.39,82.94L65,79.68c1.86-4.5,1.76-12-.22-16.23l5.38-3.83L75.44,66c5.46-4.39,12.62-6.65,20.38-6.75l3.28,0c19.66-.27,27.83,6.66,28.12,16.17.28,9-8.12,14.26-24.22,18l2.33,6.92-7.4,2.26L95.41,95c-13.07,2.81-20.31,6-22.63,11.5A28.77,28.77,0,0,1,82,105c4.64-.06,13.14,2.22,19.3,2.14,10.15-.14,15.69-4.29,18.91-14.33Z"/><g class="cls-3"><path class="cls-4" d="M132.34,61l18.08-23.44"/><path class="cls-4" d="M154.68,32.7l.87-1.13"/><path class="cls-5" d="M158.21,28.13,173.91,7.78"/><path class="cls-4" d="M175.24,6.06l.87-1.13"/><path class="cls-4" d="M138.09,71.51l1.69-.88"/><path class="cls-6" d="M145.29,67.58c7.53-4.27,17.05-10,24-13.84"/><path class="cls-4" d="M172.08,52.24l1.69-.88"/><path class="cls-4" d="M141.38,103.33q.9.15,1.87.36"/><path class="cls-7" d="M148.87,105.05c7.76,2.09,17.16,5.24,24.46,7"/><path class="cls-4" d="M176.14,112.73q1,.2,1.87.36"/><path class="cls-4" d="M124.84,128.36l.78,1.74"/><path class="cls-8" d="M128.1,135.65l15,33.51"/><path class="cls-4" d="M144.3,171.93l.78,1.74"/><path class="cls-4" d="M90.38,126.88,90,128.75"/><path class="cls-9" d="M89,134.58l-6.41,35.23"/><path class="cls-4" d="M82,172.74l-.34,1.87"/><path class="cls-4" d="M56.87,119.1c-.42.39-.89.82-1.41,1.28"/><path class="cls-10" d="M51,124.28c-10,8.63-26.72,22.58-32.55,31.56"/><path class="cls-4" d="M17,158.44a8.31,8.31,0,0,0-.58,1.81"/><path class="cls-4" d="M119.71,52.47l.71-1.77"/><path class="cls-11" d="M122.64,45.14l13.42-33.57"/><path class="cls-4" d="M137.18,8.78,137.88,7"/><path class="cls-4" d="M56.94,54.87l-1.38-1.31"/><path class="cls-12" d="M51.32,49.67C42.13,41.39,26.76,28.2,17.63,21.16"/><path class="cls-4" d="M15.33,19.42l-1.54-1.11"/><path class="cls-4" d="M53.57,82.66,51.69,83"/><path class="cls-13" d="M45.35,83.82C33.73,85.2,15.79,86.74,6.89,87.71"/><path class="cls-4" d="M3.72,88.08c-.88.11-1.52.21-1.88.3"/><path class="cls-4" d="M88.55,47.64,88,45.82"/><path class="cls-14" d="M86.16,39.77,78.1,13.15"/><path class="cls-4" d="M77.18,10.12,76.63,8.3"/><path class="cls-4" d="M31.78,109.17,53.94,97.69"/><path class="cls-4" d="M3,123.79l1.27-.66"/><path class="cls-15" d="M9,120.71l12.62-6.53"/><path class="cls-4" d="M23.92,113l1.27-.66"/><path class="cls-4" d="M135.08,115.25c7,7,19.54,19.49,26.54,26.45"/><path class="cls-4" d="M161.62,141.7l1,1"/><path class="cls-16" d="M165.9,146l14.06,14"/><path class="cls-4" d="M181.6,161.56l1,1"/><path class="cls-4" d="M103.39,50.55l1.17-19.7"/><path class="cls-4" d="M105.51,21.53l.09-1.43"/><path class="cls-17" d="M106,13.42l.41-6.81"/><path class="cls-4" d="M106.6,3.26l.09-1.43"/><path class="cls-4" d="M135.9,87.57l19.34-3.93"/><path class="cls-4" d="M163.45,81.55l1.4-.28"/><path class="cls-18" d="M168.79,80.46l10.63-2.16"/><path class="cls-4" d="M181.39,77.9l1.4-.28"/><path class="cls-4" d="M55.48,68.94l-18-8.13"/><path class="cls-4" d="M29.77,57.45l-1.3-.59"/><path class="cls-18" d="M24.81,55.21l-9.88-4.46"/><path class="cls-4" d="M13.09,49.91l-1.3-.59"/><path class="cls-4" d="M74.4,51.3,63,35.18"/><path class="cls-4" d="M58.7,28.39l-.82-1.16"/><path class="cls-19" d="M55,23.15,42.63,5.62"/><path class="cls-4" d="M41.19,3.58l-.82-1.16"/><path class="cls-4" d="M109.46,145.38l-1.2-19.7"/><path class="cls-4" d="M111.45,174.61l-.09-1.43"/><path class="cls-17" d="M111,166.5l-.42-6.81"/><path class="cls-4" d="M110.33,156.34l-.09-1.43"/><path class="cls-4" d="M60,149.86l14.2-26"/><path class="cls-4" d="M41,183.21,41.7,182"/><path class="cls-16" d="M43.91,177.91l9.51-17.39"/><path class="cls-4" d="M54.53,158.49l.69-1.25"/></g></g></g></svg>