<svg xmlns="http://www.w3.org/2000/svg" viewBox="0 0 588.65 510.27"><defs><style>.cls-1{fill:#fff;}.cls-2,.cls-3,.cls-4,.cls-5{fill:none;}.cls-2{stroke:#e65c7d;}.cls-2,.cls-3,.cls-4{stroke-linecap:round;stroke-linejoin:round;stroke-width:3.98px;}.cls-3{stroke:#34446a;}.cls-4{stroke:#8cbdd6;}</style></defs><title>day24</title><g id="Layer_2" data-name="Layer 2"><g id="Layer_1-2" data-name="Layer 1"><path class="cls-1" d="M232.23,288.53c-2.18-3.16-2.73-7-2.73-10.69,0-29.12,35.67-27.49,35.67-42.1,0-5.24-3.93-9.27-9.82-9.27-2.51,0-7.09,1.53-7.09,4.47,0,2.07,1.31,2.84,1.31,5.89,0,5.67-3.93,9.93-9.82,9.93-6.54,0-9.93-6.22-9.93-12.11,0-17.34,14.18-22.69,29-22.69,18.1,0,30.43,6.76,30.43,23,0,23.45-25.85,23.78-38,28.79-5.56,2.29-12.43,6.76-12.43,12.76a9.55,9.55,0,0,0,.22,1.75c3.05-8.73,11.67-11.67,19.31-11.67,4.58,0,9.38,2.07,13.85,2.07,6,0,8.51-3.93,8.51-10.69h8.4v6c0,15.38-1.75,24.76-19.41,24.76-11.45,0-15.81-6-23.78-6.43-3.49,0-5.78.76-5.78,4a16.35,16.35,0,0,0,.22,2.18Z"/><path class="cls-1" d="M332,212.18h18.76v39.48h9.49v14.62h-9.49v2.84a2.54,2.54,0,0,0,2.51,2.51h7v16.91h-40.9V271.62h6.44a2.94,2.94,0,0,0,3.05-2.83v-2.51h-33V254.94Zm-3.16,39.48V235.74l-13.74,15.92Z"/><polygon id="Star-20" class="cls-2" points="294.33 344.61 223.21 378.31 216.85 299.87 152.08 255.13 216.85 210.4 223.21 131.96 294.33 165.66 365.45 131.96 371.8 210.4 436.57 255.13 371.8 299.87 365.45 378.31 294.33 344.61"/><polygon id="Star-20-2" data-name="Star-20" class="cls-2" points="294.33 365.39 206.68 406.92 198.85 310.26 119.03 255.13 198.85 200 206.68 103.34 294.33 144.88 381.97 103.34 389.81 200 469.62 255.13 389.81 310.26 381.97 406.92 294.33 365.39"/><polygon id="Star-20-3" data-name="Star-20" class="cls-2" points="294.33 388.73 188.13 439.05 178.64 321.93 81.93 255.13 178.64 188.34 188.13 71.22 294.33 121.54 400.52 71.22 410.01 188.34 506.72 255.13 410.01 321.93 400.52 439.05 294.33 388.73"/><polygon id="Star-20-4" data-name="Star-20" class="cls-2" points="294.33 415.61 166.76 476.05 155.36 335.37 39.2 255.13 155.36 174.9 166.76 34.21 294.33 94.66 421.89 34.21 433.29 174.9 549.45 255.13 433.29 335.37 421.89 476.05 294.33 415.61"/><polygon id="Star-20-5" data-name="Star-20" class="cls-2" points="294.33 439.02 148.16 508.28 135.09 347.07 1.99 255.13 135.09 163.19 148.16 1.99 294.33 71.25 440.5 1.99 453.56 163.19 586.66 255.13 453.56 347.07 440.5 508.28 294.33 439.02"/><polygon id="Star-20-6" data-name="Star-20" class="cls-3" points="294.33 344.61 223.21 378.31 216.85 299.87 152.08 255.13 216.85 210.4 223.21 131.96 294.33 165.66 365.45 131.96 371.8 210.4 436.57 255.13 371.8 299.87 365.45 378.31 294.33 344.61"/><polygon id="Star-20-7" data-name="Star-20" class="cls-4" points="294.33 365.39 206.68 406.92 198.85 310.26 119.03 255.13 198.85 200 206.68 103.34 294.33 144.88 381.97 103.34 389.81 200 469.62 255.13 389.81 310.26 381.97 406.92 294.33 365.39"/><polygon id="Star-20-8" data-name="Star-20" class="cls-2" points="294.33 388.73 188.13 439.05 178.64 321.93 81.93 255.13 178.64 188.34 188.13 71.22 294.33 121.54 400.52 71.22 410.01 188.34 506.72 255.13 410.01 321.93 400.52 439.05 294.33 388.73"/><polygon id="Star-20-9" data-name="Star-20" class="cls-3" points="294.33 415.61 166.76 476.05 155.36 335.37 39.2 255.13 155.36 174.9 166.76 34.21 294.33 94.66 421.89 34.21 433.29 174.9 549.45 255.13 433.29 335.37 421.89 476.05 294.33 415.61"/><rect class="cls-5" x="135.33" y="96.13" width="318" height="318"/><rect class="cls-5" x="141.33" y="96.13" width="306" height="318"/></g></g></svg>