<svg xmlns="http://www.w3.org/2000/svg" xmlns:xlink="http://www.w3.org/1999/xlink" viewBox="0 0 219.71 215.66"><defs><style>.cls-1{fill:none;}.cls-2{fill:#e65c7d;}.cls-3{clip-path:url(#clip-path);}.cls-4{fill:#34446a;}.cls-5{fill:#fff;}</style><clipPath id="clip-path"><circle class="cls-1" cx="108.25" cy="124.31" r="91.34"/></clipPath></defs><title>day20</title><g id="Layer_2" data-name="Layer 2"><g id="Layer_1-2" data-name="Layer 1"><circle class="cls-2" cx="108.25" cy="124.31" r="91.34"/><path class="cls-2" d="M126.1,16.06h-1.78a16.06,16.06,0,0,0-32.13,0H90.4a3.56,3.56,0,0,0-3.55,3.55V48.13a3.56,3.56,0,0,0,3.55,3.55H126.1a3.56,3.56,0,0,0,3.55-3.55V19.62A3.56,3.56,0,0,0,126.1,16.06ZM108.25,5.4a10.67,10.67,0,0,1,10.66,10.66H97.59A10.67,10.67,0,0,1,108.25,5.4Z"/><g class="cls-3"><rect class="cls-4" y="77.14" width="219.71" height="82.7"/></g><path class="cls-5" d="M40.19,116.23a50.17,50.17,0,0,1,3.74-6.56l-3.26,0h.1c.15,0-2.92-.58-3.11-1.8,0-.92,1.22-1.94,1.51-2.43.29.15.49-.44,2.58-.39h2.63c1,0,2.09,0,2.58-1l1.8-2.58c.39-.63,1.46-2.53,1.94-3.26a28.26,28.26,0,0,1,3.69-4.62l1.22-1.07a3,3,0,0,1,1.56-.78c.49,0,1.75,1.8,1.75,2.77,0,1.36-1.41,2.43-2.29,3.4s-5.1,6.71-5.1,6.9l3.84.15a36.68,36.68,0,0,1,4.91-.1c.83.24,2,1.07,2,1.85,0,1.36-1.41,2.38-3.21,2.67-2.82.49-7.44-.15-10.11.44-1.21,1.31-6.32,10.94-7.44,13.81C40,126.73,40,127.12,39.95,129c0,.34.15,1.12,1.31,1.12a6.81,6.81,0,0,0,3-1.07c1.41-.44,6.81-5.1,7.34-5.83l.29-.44c.54-.44,1.17-1.07,1.7-1.07s1.31-.39,1.65-.15.29,1.12.29,1.7c0,1.21-3.16,4.81-4.33,6-2.72,3.21-7.68,5.64-11.18,5.64a5.2,5.2,0,0,1-5.15-5.06C34.94,125.75,38.44,119.73,40.19,116.23Z"/><path class="cls-5" d="M61.39,129a7.23,7.23,0,0,0-.68.54c-1.12,1.8-3.94,4.81-7,4.86-2.67,0-3.79-1.94-4.18-4l0-1.51a30.38,30.38,0,0,1,.73-6.27,2,2,0,0,0,.34-1.12,44.38,44.38,0,0,1,3.45-8l.58-1.17c.15-.34.78-2.67,2.92-2.67,1.65,0,2.14.19,2.24,1.94a6.11,6.11,0,0,1-1.36,3.16h0c-1.85,3-4.62,9.19-4.38,13.42a6.3,6.3,0,0,0,.15,1.07c0-.15.19-.15.24-.15,1.65-.73,4.08-3.79,5.54-5.83a49.25,49.25,0,0,0,4.86-8.51v0c.53-1.26.68-2.92,2.48-2.92a2.58,2.58,0,0,1,2.77,2.58c0,.73-.58.73-.53,1.51l-1,2.19c-1.22,1.94-2.77,6-2.58,8.75a10.77,10.77,0,0,0,.39,2.72h.19s.63-.49.92-.68c2-1,3.79-3.45,5-5.69h0l.2-.39.49-1.22a16.46,16.46,0,0,1,.15-2.19l.24-1.41c.49-1.85,2.33-7.19,5-7.24s2.77,2.33,2.87,3.65-.34,1.6-.78,2.77c-.68,1.94-1.9,3.69-1.85,4.57,0,.49.78.83,1.31.83a8.37,8.37,0,0,0,3.79-1.26l.92-.53c.63-.49,1.31-1.26,2.14-1.26a2.41,2.41,0,0,1,2,1.56c.2,3.79-5.2,6-8.36,6h-.29a11,11,0,0,1-3.69-1c-.24,0-.34,0-.49.19-1.7,3.06-5.15,8.56-10.6,8.56h-.24c-2.62-1.31-3.26-3.26-3.6-5.88A.44.44,0,0,0,61.39,129Z"/><path class="cls-5" d="M83.65,128c.49-6.13,2.14-10.36,7-15.51,2.48-2.48,7.44-3.89,10.16-3.79s3.5,3.94,3.26,5.45a12.57,12.57,0,0,1-2.92,6.71c-1.56,2-7.24,6.13-11.38,6.13H88.32c-.53.92,0,3.4,1.6,3.84a9.5,9.5,0,0,0,6.27-1.65c3-1.8,6.71-6.13,8.65-6.32a1.07,1.07,0,0,1,1,1.26c-.15,2.38-4.28,6.47-8.8,8.95a16.59,16.59,0,0,1-8.12,1.85C87.15,134.85,83.26,131.88,83.65,128Zm5.54-4.86c3.31-.44,7.83-3.35,9.09-5.49.92-1.12,1.65-3.4.58-4.37-1.95-.63-5.35,1.65-6.76,3.79-1.21,1.75-2.62,3.94-3,6.08Z"/><path class="cls-5" d="M110.39,127.84c.73-1.17,1.12-3.16,1.75-4,1.17-2.38,3.84-8.36,1.94-8.65-1,.19-3.31,3-3.84,4.08-1.17,1.75-3.79,6.08-5.15,7-1,.63-1.17.73-1.75.44s-.63-1.22-.73-2.48c0-.19,1.75-2.77,2.58-4s1.56-2.38,2.53-3.94c1.75-2.77,5-5.74,8.17-5.74,2.19,0,2.87,1.94,2.87,3.84,0,.1-.73,3.79-.68,3.84l1.17-1.51,3-3.21c1.31-.87,2.87-2.62,4.67-2.62a3.81,3.81,0,0,1,3.79,4l-.19,1.36c-1.07,3-2.33,6.37-3.79,10.35-.29.83-.29,3,.68,3.11,1.26-.1,4.23-3.45,5-5,.1-.19,2.48-3.94,3.84-4.28,1.26,0,1.85.49,1.85,1.12a4,4,0,0,1-.19.73l-.34,1.22c-.78,2.43-3.21,5.54-4.91,7.49-1.31,1.12-4,3.7-6.46,3.7-2.14,0-3.84-2.67-3.84-3.65,0-.29.1-.73.1-1s0-.92,0-1.31a7.83,7.83,0,0,1,.29-2.77l.49-1.51a35.35,35.35,0,0,1,1.46-3.65c.78-1.8,1.31-4.08.24-3.94-.73.1-2.48,1.9-3,2.63-.92,1.17-1.17.88-4.33,6l-1,1.9a28.38,28.38,0,0,0-2.62,4.08c-.73.68-1.56,3.45-3.21,3.45-1.31,0-2-1.07-2.29-2.33C108.64,131,109.71,129.4,110.39,127.84Z"/><path class="cls-5" d="M138,116.23a50.17,50.17,0,0,1,3.74-6.56l-3.26,0h.1c.15,0-2.92-.58-3.11-1.8,0-.92,1.22-1.94,1.51-2.43.29.15.49-.44,2.58-.39h2.63c1,0,2.09,0,2.58-1l1.8-2.58c.39-.63,1.46-2.53,1.94-3.26a28.26,28.26,0,0,1,3.69-4.62l1.22-1.07a3,3,0,0,1,1.56-.78c.49,0,1.75,1.8,1.75,2.77,0,1.36-1.41,2.43-2.29,3.4s-5.1,6.71-5.1,6.9l3.84.15a36.68,36.68,0,0,1,4.91-.1c.83.24,2,1.07,2,1.85,0,1.36-1.41,2.38-3.21,2.67-2.82.49-7.44-.15-10.11.44-1.21,1.31-6.32,10.94-7.44,13.81-1.56,3.16-1.56,3.55-1.6,5.44,0,.34.15,1.12,1.31,1.12a6.81,6.81,0,0,0,3-1.07c1.41-.44,6.81-5.1,7.34-5.83l.29-.44c.54-.44,1.17-1.07,1.7-1.07s1.31-.39,1.65-.15.29,1.12.29,1.7c0,1.21-3.16,4.81-4.33,6-2.72,3.21-7.68,5.64-11.18,5.64a5.2,5.2,0,0,1-5.15-5.06C132.7,125.75,136.2,119.73,138,116.23Z"/><path class="cls-5" d="M174.17,130a71.35,71.35,0,0,1-2.87,7c-.1.29-1.22,2.53-1.85,4.13,2.82.49,8.22,5.74,9.09,5.74,0,1.46.29,3.26-1.51,3.26-2.82,0-6.27-4.57-9.19-5l-.73,1.46c-3.35,4.47-7.54,9.19-12.64,10a3.55,3.55,0,0,1-.58.24,3.5,3.5,0,0,1-.73-.53l-1.12-.19a7.45,7.45,0,0,1-3.16-5.49c0-3.5,2.77-6.51,5.88-8.46,2.33-1.75,7.44-2.58,10-2.19a10.46,10.46,0,0,0,2.38-3.74,75.27,75.27,0,0,0,3.65-8.07,1.82,1.82,0,0,0,0-.49c-.1,0-.2-.24-.24-.1a2.26,2.26,0,0,0-.24.49L164.84,133a8.5,8.5,0,0,1-4.08,1.75,4.23,4.23,0,0,1-2.53-1.46c-2-2.29-1.85-3.31-2.14-6.22-.24-1,1.9-7,2.43-8,.34-1.17,1.26-3.11,1.26-4l-.19-.15c-1.6-2.53-4.91,3.16-7.83,8.7-.54,1-3.21,1.17-3.84.73s1-3.69,1.36-4.28c1-1,2.87-5.3,3.84-6.56s2.67-3.06,3.26-3.5c1.07-1,2.77-1.12,4.47-1.12.92,0,3.31,1.36,3.31,2.33v.15a12.75,12.75,0,0,1-.68,5.25c-1.17,3.5-2.58,7.1-2.58,10.94a1.33,1.33,0,0,0,1.31,1.26c1.7,0,8.07-5.64,9.33-8.51a30,30,0,0,0,2.92-6.17c.29-1.6.92-3.65,2.92-3.65l1,0c.53.44,1.6,1.51,1.6,2.09a29.32,29.32,0,0,1-1.95,4.81c-.29.73-1.6,4.42-1.9,5.2-.58,1.94-1.6,5.69-1.9,7.39ZM154,152.3c2,0,3.94-1.9,5.35-3.16a22.69,22.69,0,0,0,1.75-2.38c.39-.53,1.36-1.85,1.36-1.9v-.34c-1.07-.44-4.67.58-5.3,1.17-1.46,0-4.13,3.55-4.13,5.3C153.07,151.71,153.27,152.3,154,152.3Z"/></g></g></svg>