<svg xmlns="http://www.w3.org/2000/svg" viewBox="0 0 293.68 74.52"><defs><style>.cls-1{fill:#fff;}</style></defs><title>day23</title><g id="Layer_2" data-name="Layer 2"><g id="Layer_1-2" data-name="Layer 1"><path class="cls-1" d="M5.78,30.13A54.72,54.72,0,0,1,9.87,23l-3.55-.05h.11c.16,0-3.18-.64-3.39-2,.05-1,1.33-2.12,1.64-2.65.32.16.53-.48,2.81-.42h2.86c1.11,0,2.28-.05,2.81-1.11l2-2.81c.42-.69,1.59-2.76,2.12-3.55a30.9,30.9,0,0,1,4-5L22.6,4.19a3.23,3.23,0,0,1,1.7-.85c.53,0,1.91,2,1.91,3,0,1.48-1.54,2.65-2.49,3.71s-5.57,7.32-5.57,7.53l4.19.16a40.24,40.24,0,0,1,5.36-.11c.9.27,2.23,1.17,2.23,2,0,1.49-1.54,2.6-3.5,2.92-3.08.53-8.11-.16-11,.48C14.06,24.5,8.49,35,7.27,38.14c-1.7,3.45-1.7,3.87-1.75,5.94,0,.37.16,1.22,1.43,1.22a7.42,7.42,0,0,0,3.29-1.17c1.54-.48,7.43-5.57,8-6.36l.32-.48c.58-.48,1.27-1.17,1.86-1.17.42,0,1.43-.42,1.8-.16s.32,1.22.32,1.86c-.05,1.33-3.45,5.25-4.72,6.58-3,3.5-8.38,6.15-12.2,6.15A5.67,5.67,0,0,1,0,45C.05,40.52,3.87,33.95,5.78,30.13Z"/><path class="cls-1" d="M28.91,44a7.91,7.91,0,0,0-.74.58c-1.22,2-4.3,5.25-7.64,5.3-2.92,0-4.14-2.12-4.56-4.35l-.05-1.64a33.17,33.17,0,0,1,.79-6.84,2.18,2.18,0,0,0,.37-1.22,48.48,48.48,0,0,1,3.77-8.7l.64-1.27c.16-.37.85-2.92,3.18-2.92,1.8,0,2.33.21,2.44,2.12.05.85-.53,2-1.48,3.45h.05c-2,3.24-5,10-4.77,14.64a6.93,6.93,0,0,0,.16,1.17c0-.16.21-.16.26-.16,1.8-.79,4.46-4.14,6-6.36a53.68,53.68,0,0,0,5.3-9.28v.05c.58-1.38.74-3.18,2.71-3.18a2.82,2.82,0,0,1,3,2.81c0,.8-.64.8-.58,1.64l-1.06,2.39c-1.33,2.12-3,6.58-2.81,9.55a11.77,11.77,0,0,0,.42,3h.21c.05,0,.69-.53,1-.74,2.17-1.11,4.14-3.77,5.46-6.21H41l.21-.42.53-1.33a18,18,0,0,1,.16-2.39l.26-1.54c.53-2,2.55-7.85,5.41-7.9s3,2.55,3.13,4-.37,1.75-.85,3c-.74,2.12-2.07,4-2,5,0,.53.85.9,1.43.9a9.13,9.13,0,0,0,4.14-1.38l1-.58c.69-.53,1.43-1.38,2.33-1.38a2.62,2.62,0,0,1,2.17,1.7C59.14,39.62,53.25,42,49.8,42h-.32c-.74.16-3.18-.69-4-1.06-.27.05-.37,0-.53.21-1.86,3.34-5.62,9.33-11.56,9.33H33.1c-2.86-1.43-3.55-3.55-3.92-6.42A.47.47,0,0,0,28.91,44Z"/><path class="cls-1" d="M53.2,43c.53-6.68,2.33-11.3,7.64-16.92,2.7-2.71,8.11-4.24,11.08-4.14s3.82,4.3,3.55,5.94a13.73,13.73,0,0,1-3.18,7.32c-1.7,2.23-7.9,6.68-12.41,6.68H58.29c-.58,1,0,3.71,1.75,4.19a10.36,10.36,0,0,0,6.84-1.8c3.29-2,7.32-6.68,9.44-6.9a1.16,1.16,0,0,1,1.06,1.38c-.16,2.6-4.67,7.05-9.6,9.76a18.1,18.1,0,0,1-8.86,2C57,50.44,52.77,47.21,53.2,43Zm6-5.3c3.61-.48,8.54-3.66,9.92-6,1-1.22,1.8-3.71.64-4.77C67.68,26.2,64,28.69,62.43,31c-1.33,1.91-2.86,4.3-3.24,6.63Z"/><path class="cls-1" d="M82.37,42.8c.8-1.27,1.22-3.45,1.91-4.35,1.27-2.6,4.19-9.12,2.12-9.44-1.06.21-3.61,3.24-4.19,4.46-1.27,1.91-4.14,6.63-5.62,7.58-1.06.69-1.27.8-1.91.48s-.69-1.33-.8-2.71c0-.21,1.91-3,2.81-4.35.79-1.17,1.7-2.6,2.76-4.3,1.91-3,5.46-6.26,8.91-6.26,2.39,0,3.13,2.12,3.13,4.19-.05.11-.8,4.14-.74,4.19L92,30.66l3.29-3.5c1.43-1,3.13-2.86,5.09-2.86a4.16,4.16,0,0,1,4.14,4.35l-.21,1.49c-1.17,3.29-2.55,6.95-4.14,11.3-.32.9-.32,3.29.74,3.39,1.38-.11,4.61-3.77,5.41-5.46.11-.21,2.71-4.3,4.19-4.67,1.38,0,2,.53,2,1.22a4.44,4.44,0,0,1-.21.79L112,38c-.85,2.65-3.5,6-5.36,8.17-1.43,1.22-4.35,4-7.05,4-2.33,0-4.19-2.92-4.19-4,0-.32.11-.8.11-1.06s-.05-1-.05-1.43a8.54,8.54,0,0,1,.32-3l.53-1.64a38.9,38.9,0,0,1,1.59-4c.85-2,1.43-4.46.27-4.3-.8.11-2.71,2.07-3.29,2.86-1,1.27-1.27,1-4.72,6.58l-1.06,2.07a30.87,30.87,0,0,0-2.86,4.46c-.8.74-1.7,3.77-3.5,3.77-1.43,0-2.23-1.17-2.49-2.55C80.46,46.2,81.63,44.5,82.37,42.8Z"/><path class="cls-1" d="M112.44,30.13A54.77,54.77,0,0,1,116.53,23L113,22.91h.11c.16,0-3.18-.64-3.39-2,.05-1,1.33-2.12,1.64-2.65.32.16.53-.48,2.81-.42H117c1.11,0,2.28-.05,2.81-1.11l2-2.81c.42-.69,1.59-2.76,2.12-3.55a30.85,30.85,0,0,1,4-5l1.33-1.17a3.24,3.24,0,0,1,1.7-.85c.53,0,1.91,2,1.91,3,0,1.48-1.54,2.65-2.49,3.71s-5.57,7.32-5.57,7.53l4.19.16a40.22,40.22,0,0,1,5.36-.11c.9.27,2.23,1.17,2.23,2,0,1.49-1.54,2.6-3.5,2.92-3.08.53-8.12-.16-11,.48-1.33,1.43-6.9,11.93-8.12,15.06-1.7,3.45-1.7,3.87-1.75,5.94,0,.37.16,1.22,1.43,1.22a7.43,7.43,0,0,0,3.29-1.17c1.54-.48,7.42-5.57,8-6.36l.32-.48c.58-.48,1.27-1.17,1.86-1.17.42,0,1.43-.42,1.8-.16s.32,1.22.32,1.86c-.05,1.33-3.45,5.25-4.72,6.58-3,3.5-8.38,6.15-12.2,6.15A5.67,5.67,0,0,1,106.66,45C106.72,40.52,110.53,33.95,112.44,30.13Z"/><path class="cls-1" d="M152,45.19c-.85,3-2.07,5-3.13,7.69-.11.32-1.33,2.76-2,4.51,3.08.53,9,6.26,9.92,6.26,0,1.59.32,3.55-1.64,3.55-3.08,0-6.84-5-10-5.46l-.8,1.59c-3.66,4.88-8.22,10-13.79,10.93a3.88,3.88,0,0,1-.64.26,3.82,3.82,0,0,1-.8-.58l-1.22-.21a8.13,8.13,0,0,1-3.45-6c0-3.82,3-7.11,6.42-9.23,2.55-1.91,8.12-2.81,10.93-2.39,1.17-.9,2-2.81,2.6-4.08a82.27,82.27,0,0,0,4-8.8,2,2,0,0,0,.05-.53c-.11,0-.21-.27-.27-.11a2.49,2.49,0,0,0-.26.53l-6,5.36a9.28,9.28,0,0,1-4.46,1.91,4.61,4.61,0,0,1-2.76-1.59c-2.23-2.49-2-3.61-2.33-6.79-.27-1.06,2.07-7.69,2.65-8.75.37-1.27,1.38-3.39,1.38-4.4l-.21-.16c-1.75-2.76-5.36,3.45-8.54,9.49-.58,1.11-3.5,1.27-4.19.8s1.11-4,1.49-4.67c1.11-1.11,3.13-5.78,4.19-7.16s2.92-3.34,3.55-3.82c1.17-1.06,3-1.22,4.88-1.22,1,0,3.61,1.49,3.61,2.55v.16a13.91,13.91,0,0,1-.74,5.73c-1.27,3.82-2.81,7.74-2.81,11.93a1.45,1.45,0,0,0,1.43,1.38c1.86,0,8.8-6.15,10.18-9.28a32.64,32.64,0,0,0,3.18-6.74c.32-1.75,1-4,3.18-4l1.06.05c.58.48,1.75,1.64,1.75,2.28a32,32,0,0,1-2.12,5.25c-.32.8-1.75,4.83-2.07,5.68-.64,2.12-1.75,6.21-2.07,8.06ZM130,69.48c2.23,0,4.3-2.07,5.83-3.45a24.68,24.68,0,0,0,1.91-2.6c.42-.58,1.49-2,1.49-2.07V61c-1.17-.48-5.09.64-5.78,1.27-1.59,0-4.51,3.87-4.51,5.78C128.94,68.85,129.15,69.48,130,69.48Z"/><path class="cls-1" d="M180.23,37.18a11.52,11.52,0,0,0-1.49-.11c-1.86,0-6.9.79-8.91,1.11a44.2,44.2,0,0,1-6.1.53c-1.59,0-2.55-.74-2.55-2.39,0-1.33.32-1.91,1.43-2.28a34.07,34.07,0,0,1,3.55-.53,32.3,32.3,0,0,0,3.61-.64c1.17-.16,5.73-.69,7.21-.69a21.75,21.75,0,0,1,3.5.16c1.27.21,1.75,2,1.75,2.49C182.24,36.28,181.45,36.7,180.23,37.18Z"/><path class="cls-1" d="M190.14,30.13A54.66,54.66,0,0,1,194.23,23l-3.55-.05h.11c.16,0-3.18-.64-3.39-2,.05-1,1.33-2.12,1.64-2.65.32.16.53-.48,2.81-.42h2.86c1.11,0,2.28-.05,2.81-1.11l2-2.81c.42-.69,1.59-2.76,2.12-3.55a31,31,0,0,1,4-5L207,4.19a3.23,3.23,0,0,1,1.7-.85c.53,0,1.91,2,1.91,3,0,1.48-1.54,2.65-2.49,3.71s-5.57,7.32-5.57,7.53l4.19.16a40.24,40.24,0,0,1,5.36-.11c.9.27,2.23,1.17,2.23,2,0,1.49-1.54,2.6-3.5,2.92-3.08.53-8.12-.16-11,.48-1.33,1.43-6.9,11.93-8.12,15.06-1.7,3.45-1.7,3.87-1.75,5.94,0,.37.16,1.22,1.43,1.22a7.43,7.43,0,0,0,3.29-1.17c1.54-.48,7.43-5.57,8-6.36l.32-.48c.58-.48,1.27-1.17,1.86-1.17.42,0,1.43-.42,1.8-.16s.32,1.22.32,1.86c-.05,1.33-3.45,5.25-4.72,6.58-3,3.5-8.38,6.15-12.2,6.15A5.67,5.67,0,0,1,184.36,45C184.42,40.52,188.23,33.95,190.14,30.13Z"/><path class="cls-1" d="M200.11,42.8a3.43,3.43,0,0,0,.37-.64c1.86-5.41,8-21.11,11.56-28.22C214.38,8.7,219.21,0,223.82,0c1.38,0,3,1.86,3.55,2.71.8,1.91.74,3,.69,5.36-.16,4.3-2.65,9.33-4.62,12.41a18.3,18.3,0,0,1-5.67,5.36h.32a4.16,4.16,0,0,1,4.14,4.35L222,31.67c-1.17,3.29-2.71,5.73-4.3,10.08-.32.9-.64,3.39.74,3.39,2,0,4.83-4.08,5.62-5.78.11-.21,3.34-4.35,4.19-4.67,1.38,0,1.8.32,1.8,1a4.42,4.42,0,0,1-.21.8l-.37,1.33a28.56,28.56,0,0,1-5.14,8.38c-1.43,1.22-4.35,4-7.05,4-2.33,0-4.19-2.92-4.19-4,0-.32-.16-.8-.16-1.06s-.05-1-.05-1.43a9,9,0,0,1,.58-3l.53-1.64A22.42,22.42,0,0,1,215.12,36c.85-2,1.27-4.46.11-4.3a5.58,5.58,0,0,0-3.08,1.48c-1,1.27-.48.11-3.92,5.73l-1.06,2.07c-.21.37-.9,1.8-3.24,5.83-.79.74-1.7,3.77-3.5,3.77-1.43,0-2.23-1.17-2.49-2.55C198.21,46.2,199.37,44.5,200.11,42.8ZM220.22,17c1.7-2.49,3.77-6.63,3.92-9.44.05-1.38-.21-1.64-.85-2H223c-.85-.05-1.64.74-2.44,2.39-1.64,1.7-4.61,8.54-4.61,8.54a45.39,45.39,0,0,0-2.81,6.42,4.72,4.72,0,0,1-.16.85c-.53,1.38-.11.05-.69,1.59C214.7,24.19,217.46,21.22,220.22,17Z"/><path class="cls-1" d="M235,42.22a60.39,60.39,0,0,1,7.16-11.14l-.05-.42c-.74.05-1.75.32-2.49.32-1,.05-2.23-.74-3-1-.32-.05-4.3,6.68-5,7.64-.8,1.54-3.29,4-5.09,4.35-1,.21-3.13.21-3.13-1.22a45.69,45.69,0,0,0,6-8.33c.37-.69,3.24-4.77,3.18-5.57-.05-.53-.69-.9-.74-1.7-.16-2.55,1.59-4.93,2.86-6.47a7.12,7.12,0,0,1,4.46-2c1.33,0,3.29.69,3.34,1.91.11,1.64-1.22,4.19-2.33,5.73l-.85,1.22c.27.16,1.27,1,1.7,1a7.72,7.72,0,0,0,5.2-2.28h-.05a3.08,3.08,0,0,1,2.92-1.49,2.33,2.33,0,0,1,2.49,2.07,3.55,3.55,0,0,1-.48,1.17l-.21.48-4.67,6.1a10.49,10.49,0,0,1-1.06,1.33v-.05a43.7,43.7,0,0,0-4.24,7l-1.11,2.28c-.53,1.17-.48,1.86-.16,2.28.9,1.06,3.66-.85,6.52-3.55,2.12-2,4.51-5.73,5.25-6.26.58.11,2.12-.16,2.6.32l.21.32c-.74,4.88-4.56,8.91-8.49,11.72a12.67,12.67,0,0,1-8.43,2.39c-1.54-.26-3.18-2.71-3.18-3C234.11,45,234.59,44.77,235,42.22Z"/><path class="cls-1" d="M248.49,43c.53-6.68,2.33-11.3,7.64-16.92,2.71-2.71,8.12-4.24,11.09-4.14s3.82,4.3,3.55,5.94a13.73,13.73,0,0,1-3.18,7.32c-1.7,2.23-7.9,6.68-12.41,6.68h-1.59c-.58,1,0,3.71,1.75,4.19a10.36,10.36,0,0,0,6.84-1.8c3.29-2,7.32-6.68,9.44-6.9a1.17,1.17,0,0,1,1.06,1.38c-.16,2.6-4.67,7.05-9.6,9.76a18.11,18.11,0,0,1-8.86,2C252.31,50.44,248.06,47.21,248.49,43Zm6-5.3c3.61-.48,8.54-3.66,9.92-6,1-1.22,1.8-3.71.64-4.77-2.12-.69-5.83,1.8-7.37,4.14-1.33,1.91-2.86,4.3-3.24,6.63Z"/><path class="cls-1" d="M269.49,43c.53-6.68,2.33-11.3,7.64-16.92,2.71-2.71,8.12-4.24,11.09-4.14s3.82,4.3,3.55,5.94a13.74,13.74,0,0,1-3.18,7.32c-1.7,2.23-7.9,6.68-12.41,6.68h-1.59c-.58,1,0,3.71,1.75,4.19a10.36,10.36,0,0,0,6.84-1.8c3.29-2,7.32-6.68,9.44-6.9a1.16,1.16,0,0,1,1.06,1.38c-.16,2.6-4.67,7.05-9.6,9.76a18.11,18.11,0,0,1-8.86,2C273.31,50.44,269.06,47.21,269.49,43Zm6-5.3c3.61-.48,8.54-3.66,9.92-6,1-1.22,1.8-3.71.64-4.77-2.12-.69-5.83,1.8-7.37,4.14-1.33,1.91-2.86,4.3-3.24,6.63Z"/></g></g></svg>