<svg xmlns="http://www.w3.org/2000/svg" viewBox="0 0 478.62 278.21"><defs><style>.cls-1{fill:#8cbdd6;}</style></defs><title>day23-bg</title><g id="Layer_2" data-name="Layer 2"><g id="Layer_1-2" data-name="Layer 1"><path class="cls-1" d="M71.6,49.71a13.74,13.74,0,0,0,1.54,6,2.52,2.52,0,0,0,3.93.51l1.8-1.77c2.3-2.26-1.24-5.8-3.54-3.54l-1.8,1.77,3.93.51a8,8,0,0,1-.86-3.51c-.07-3.21-5.07-3.22-5,0Z"/><path class="cls-1" d="M121.66,61.38A18.76,18.76,0,0,1,123,67.22L127.66,66l-1.4-2.52c-1.56-2.81-5.88-.29-4.32,2.52l1.4,2.52c1.17,2.11,4.8,1.24,4.66-1.26a23,23,0,0,0-1.52-7.17,2.58,2.58,0,0,0-3.08-1.75,2.52,2.52,0,0,0-1.75,3.08Z"/><path class="cls-1" d="M231.74,14.32a7.8,7.8,0,0,0-6.17,1.3,2.59,2.59,0,0,0-.9,3.42,6.3,6.3,0,0,0,10,1.31,2.56,2.56,0,0,0,0-3.54,2.52,2.52,0,0,0-3.54,0,4.31,4.31,0,0,0-.33.35c.15-.11-.4.11-.09,0-.4.1,0,.05-.26.08a2.75,2.75,0,0,1-.68,0c.2,0-.42-.21-.4-.2-.17-.1,0,.08-.22-.18.22.27-.19-.37-.2-.38l-.9,3.42a3,3,0,0,1,2.32-.79,2.57,2.57,0,0,0,3.08-1.75,2.52,2.52,0,0,0-1.75-3.08Z"/><path class="cls-1" d="M167,224.83c-3,1.47-2.9,6.16-.1,7.75a4.28,4.28,0,0,0,5-.72,4.37,4.37,0,0,0,1.24-4.62,2.57,2.57,0,0,0-3.08-1.75c-1.16.37-2.28,1.78-1.75,3.08.09.21,0,.42.09.15s.16-.71,0-.34c.12-.28.23-.3,0-.06s.45-.38,0,0c.11-.09.37-.26.1-.08-.45.3.34-.13.06,0s-.11,0,.26,0l.33,0,.3.14q-.26-.16,0,0c.36.34-.23-.48.25.29-.19-.31.08.14.06.21s-.05-.68-.06-.1,0,0,0-.11c0-.44-.09.44,0,.16s-.32.54-.06.13-.07.1-.13.17c-.4.39-.27.18,0,.06a2.52,2.52,0,0,0,.9-3.42,2.56,2.56,0,0,0-3.42-.9Z"/><path class="cls-1" d="M87.34,243l3-4a2.51,2.51,0,0,0-.9-3.42,2.57,2.57,0,0,0-3.42.9l-3,4a2.51,2.51,0,0,0,.9,3.42,2.57,2.57,0,0,0,3.42-.9Z"/><path class="cls-1" d="M46.38,195.5c-.21-.11-.27-.11-.31-.23.13.41,0-.34,0-.39l-.64,2.43c-.47.42-.87.32-1.39.26-.27,0,.28.18,0,0s0,.09,0,0l-.08-.39c.21.18-1.17,1.4-1.48,1.68H45.9L43.81,197a2.57,2.57,0,0,0-3.54,0,2.52,2.52,0,0,0,0,3.54l2.1,1.75a2.58,2.58,0,0,0,3.54,0,7.91,7.91,0,0,0,2.83-4.17,4.57,4.57,0,0,0-2.21-4.89c-1.71-1-4.34-.68-5.18,1.33s.84,4.33,2.52,5.24c2.83,1.54,5.35-2.77,2.52-4.32Z"/><path class="cls-1" d="M362.87,251a2.62,2.62,0,0,1,.2.3q.19.37,0-.11l.05.17q.09.41,0-.14s0,.52,0,.54q.08-.55,0-.14t0-.1a2.5,2.5,0,1,0,4.32,2.52,5.42,5.42,0,0,0-.27-5.57,2.56,2.56,0,0,0-3.42-.9,2.53,2.53,0,0,0-.9,3.42Z"/><path class="cls-1" d="M426.81,223.79a9.14,9.14,0,0,1-1.47-2.49l-.07.07q-.16.14.16-.16s-.13.13-.14.1l.26-.07a.29.29,0,0,1-.22,0c-.39-.47-.37,1.05-.82-.81-.19-.78.28-.54-.38-.41-.5.1-1,.19-1.49.26a7.88,7.88,0,0,0-4.29,1.69,2.52,2.52,0,0,0,0,3.54,2.56,2.56,0,0,0,3.54,0c.65-.53,2.26-.36,3-.52a6.23,6.23,0,0,0,3.56-2.12,4,4,0,0,0-1.9-6.46,5.14,5.14,0,0,0-5.71,2.67c-1.45,3,.56,6,2.4,8.26a2.52,2.52,0,0,0,3.54,0,2.56,2.56,0,0,0,0-3.54Z"/><path class="cls-1" d="M425.27,274.44l-.79-1.15a2.5,2.5,0,1,0-4.32,2.52L421,277a2.5,2.5,0,0,0,4.32-2.52Z"/><path class="cls-1" d="M469,134.81a1.63,1.63,0,0,1,.45.77l0-.09a1.24,1.24,0,0,1,0,.72q-.07.4,0,.15c.11-.38-.29.6-.1.24s-.42.49-.14.19-.54.34-.19.14-.63.2-.24.1-.51,0-.63,0a1.77,1.77,0,0,1-.92-.46,2.7,2.7,0,0,0,1.77.73,2.5,2.5,0,0,0,1.77-4.27,3.54,3.54,0,0,0-3.13-.87,4,4,0,0,0-2,1.08,3.89,3.89,0,0,0-1.08,2,3.6,3.6,0,0,0,.87,3.13,2.51,2.51,0,0,0,3.54,0,2.57,2.57,0,0,0,0-3.54Z"/><path class="cls-1" d="M273.37,99.36c-.16-.3.09.22.11.26-.17-.41.07.5,0,.25,0-.09,0-.43,0,0s0,0,0,0-.26.58-.09.27-.13.16-.17.21c.27-.29-.43.24-.18.12s-.65.22-.21.08L270,99.4l1.06,2.49A2.5,2.5,0,0,0,272.6,103a2.55,2.55,0,0,0,1.93-.25,2.52,2.52,0,0,0,1.15-1.49,2.94,2.94,0,0,0-.25-1.93l-1.06-2.49a2.5,2.5,0,0,0-2.82-1.15,4.31,4.31,0,0,0-2.49,6.15,2.52,2.52,0,0,0,3.42.9,2.55,2.55,0,0,0,.9-3.42Z"/><path class="cls-1" d="M378.51,61,376,54.33l-1.15,2.82c-.9.43-.08-.4-.16.3,0,.29.1-.28-.05.05a1.81,1.81,0,0,1-1.55.87,2.54,2.54,0,0,0-2.41,3.16,4.67,4.67,0,0,0,4.37,3.54,2.52,2.52,0,0,0,2.5-2.5,2.56,2.56,0,0,0-2.5-2.5l.45.13-2.41,3.16c3.32-.23,6.72-2.53,6.55-6.2a5.13,5.13,0,0,0-7.32-4.34,2.5,2.5,0,0,0-1.15,2.82l2.47,6.71c1.1,3,5.94,1.7,4.82-1.33Z"/><path class="cls-1" d="M403.55,54.3a4.24,4.24,0,0,0-3.63-1,5,5,0,0,0-2.44,1.3c-1.48,1.37-2.16,3.92-.86,5.64a2.74,2.74,0,0,0,1.49,1.15,2.55,2.55,0,0,0,1.93-.25c1-.66,1.74-2.3.9-3.42-.06-.08-.11-.19-.17-.26s.2.49.13.27,0,.67,0,.27,0,.29,0,.32.16-.44,0,0,0,0,0,0A1.66,1.66,0,0,0,401,58c-.06.14-.41.44-.11.17l.18-.17c.15-.16-.52.31-.15.14.56-.26-.46.13,0,0s-.62,0,0,0c0,0-.66-.11-.33,0q-.59-.28-.33-.13t-.25-.21a2.56,2.56,0,0,0,3.54,0,2.53,2.53,0,0,0,0-3.54Z"/><path class="cls-1" d="M391.6,13.71v-2a2.5,2.5,0,0,0-5,0v2a2.5,2.5,0,0,0,5,0Z"/><path class="cls-1" d="M473.1,36.2c-.7-.08-.19,0,0,0,.43.11-.31-.19-.07,0,0,0,.36.18.35.21q-.39-.32-.18-.14l.18.17.11.12q.21.25,0,0t0,0l.08.14c.27.4-.1-.47,0,0,0,.18.11.69,0,0a2.56,2.56,0,0,0,2.5,2.5,2.53,2.53,0,0,0,2.5-2.5,6,6,0,0,0-5.5-5.5,2.51,2.51,0,0,0-2.5,2.5,2.57,2.57,0,0,0,2.5,2.5Z"/><path class="cls-1" d="M276.43,268.06l-.88-3.63-1.15,2.82a2.61,2.61,0,0,1,.36-.23q-.41.16,0,0t0,0h.43q-.46-.06,0,0t0,0q.36.23,0,0a2.61,2.61,0,0,1,.3.31,2.5,2.5,0,0,0,3.54-3.54,5.57,5.57,0,0,0-7.09-.9,2.6,2.6,0,0,0-1.15,2.82l.88,3.63a2.5,2.5,0,0,0,4.82-1.33Z"/><path class="cls-1" d="M4.87,90.61a11.27,11.27,0,0,0-4.74,6c-.67,1.94,1.35,3.41,3.08,3.08a11,11,0,0,0,7.26-5.17c1.67-2.76-2.65-5.27-4.32-2.52a6.15,6.15,0,0,1-4.27,2.87L5,97.94a5.8,5.8,0,0,1,2.44-3c2.72-1.7.21-6-2.52-4.32Z"/><path class="cls-1" d="M26,114.93a3.84,3.84,0,0,0,4.65,1.74,3.9,3.9,0,0,0,2.76-4.61,2.52,2.52,0,0,0-3.08-1.75,2.56,2.56,0,0,0-1.75,3.08q-.07-.73,0-.35.13-.75,0-.38.31-.66.13-.33.46-.55.21-.27c-.32.28.53-.4.19-.14l-.18.1q.66-.26.3-.14c-.58.18.55,0,.15,0-.25,0-.5-.13.26.05q-.36-.1.32.16-.32-.18.27.23c-.25-.25.34.62.1.09a2.51,2.51,0,0,0-3.42-.9,2.57,2.57,0,0,0-.9,3.42Z"/><path class="cls-1" d="M29.67,87c-.05-.13-.09-.26-.14-.39s-.06-.27,0-.07,0,.17,0,0,.09-.54,0-.18.1-.27.1-.27c-.15.51.33-.36,0,0,.06-.07.34-.48.2-.22q-.18.13,0,0t-.13,0a2.58,2.58,0,0,0,1.75-3.08,2.52,2.52,0,0,0-3.08-1.75A5.75,5.75,0,0,0,25.15,84a5.56,5.56,0,0,0-.29,4.35A2.57,2.57,0,0,0,27.93,90,2.52,2.52,0,0,0,29.67,87Z"/><path class="cls-1" d="M21.71.36l-3,2.07a2.55,2.55,0,0,0-.9,3.42,2.53,2.53,0,0,0,3.42.9l3-2.07a2.55,2.55,0,0,0,.9-3.42,2.53,2.53,0,0,0-3.42-.9Z"/><path class="cls-1" d="M23.45,265.38a5.4,5.4,0,0,0-4.17,5.35,2.5,2.5,0,0,0,5,0c0-.08,0-.57,0-.16s0-.05.06-.15c.09-.42-.19.29,0,.07l.08-.14q.15-.23-.15.17a1.26,1.26,0,0,0,.22-.24c.32-.35-.28.14-.06,0,.5-.22-.1,0-.09,0a3,3,0,0,1,.47-.13,2.51,2.51,0,0,0,1.75-3.08,2.56,2.56,0,0,0-3.08-1.75Z"/><path class="cls-1" d="M173.48,120.05a4.72,4.72,0,0,0-5.57-3.09,4.62,4.62,0,0,0-4,4.47c.15,5.14,8.49,6,9.58.94a2.56,2.56,0,0,0-1.75-3.08,2.53,2.53,0,0,0-3.08,1.75q-.11.4.1-.12-.2.35.13-.12c-.45.33.49-.31,0,0q-.36.18.15-.06l-.32.08.33,0h-.34q-.42,0,.16,0l-.33-.08c-.48-.15.48.2,0,0q.43.36.13.1t0,0a.76.76,0,0,1,.22.44q-.1-.4,0,.17c.08-.56,0,.5,0,0q-.24.53,0,.18-.35.44-.07.16-.42.3-.18.15l.22-.12q-.52.2-.13.07l.33-.08c-.45.19-.3,0,0,0s.22,0-.17,0l.31.09-.31-.12q.34.21-.12-.12.27.29-.09-.14.19.35-.06-.13a2.5,2.5,0,0,0,4.82-1.33Z"/><path class="cls-1" d="M328.18,186.92l1.37-2.54-4.57-.6.8,2.55A2.5,2.5,0,1,0,330.6,185l-.8-2.55a2.52,2.52,0,0,0-2.08-1.79,2.49,2.49,0,0,0-2.49,1.19l-1.37,2.54a2.5,2.5,0,1,0,4.32,2.52Z"/></g></g></svg>