<svg xmlns="http://www.w3.org/2000/svg" viewBox="0 0 306.87 306.87"><defs><style>.cls-1{fill:#e65c7d;}.cls-2{fill:#8cbdd6;stroke:#8cbdd6;stroke-miterlimit:10;}.cls-3{fill:#fff;}</style></defs><title>day21</title><g id="Layer_2" data-name="Layer 2"><g id="Layer_1-2" data-name="Layer 1"><g id="snowflake"><path class="cls-1" d="M303.19,149.75H282.3l5.59-5.59a3.78,3.78,0,0,0,1.11-2.64,3.67,3.67,0,0,0-1.11-2.64,3.78,3.78,0,0,0-5.34,0l-10.87,10.87H258.35l17.57-17.57a3.74,3.74,0,0,0-2.64-6.39H249.63a3.67,3.67,0,0,0-2.95-1.47H223.89L240,108.23a3.84,3.84,0,0,0,1.11-3.13L257.8,88.39A3.74,3.74,0,0,0,255.15,82H230.28l9.46-9.46h15.42a3.75,3.75,0,1,0,0-7.49h-7.86L262,50.31A3.78,3.78,0,0,0,256.69,45L241.95,59.7V51.84a3.76,3.76,0,0,0-3.75-3.75,3.8,3.8,0,0,0-3.75,3.75V67.2L225,76.66V51.84a3.71,3.71,0,0,0-2.27-3.44,3.79,3.79,0,0,0-4.12.8L201.9,65.91A3.84,3.84,0,0,0,198.77,67L182.67,83.11V60.26a3.58,3.58,0,0,0-1.47-2.95V33.66a3.71,3.71,0,0,0-2.27-3.44,3.79,3.79,0,0,0-4.12.8L157.25,48.59V35.2l10.87-10.87a3.78,3.78,0,0,0,1.11-2.64A3.67,3.67,0,0,0,168.12,19a3.78,3.78,0,0,0-5.34,0l-5.59,5.59V3.75a3.75,3.75,0,0,0-7.49,0V24.63L144.1,19a3.78,3.78,0,0,0-6.45,2.64,3.67,3.67,0,0,0,1.11,2.64L149.63,35.2V48.52L132.06,31a3.66,3.66,0,0,0-4.12-.8,3.74,3.74,0,0,0-2.27,3.44V57.25a3.67,3.67,0,0,0-1.47,2.95V83L108.11,66.89A3.84,3.84,0,0,0,105,65.79L88.27,49.08a3.66,3.66,0,0,0-4.12-.8,3.74,3.74,0,0,0-2.27,3.44V76.53l-9.46-9.46V51.72a3.75,3.75,0,1,0-7.49,0v7.86L50.18,44.84a3.78,3.78,0,0,0-5.34,5.34L59.58,64.93h-7.8a3.75,3.75,0,1,0,0,7.49H67.14l9.46,9.46H51.78a3.71,3.71,0,0,0-3.44,2.27,3.79,3.79,0,0,0,.8,4.12L65.85,105A3.84,3.84,0,0,0,67,108.11L83,124.2H60.26a3.58,3.58,0,0,0-2.95,1.47H33.6a3.71,3.71,0,0,0-3.44,2.27,3.79,3.79,0,0,0,.8,4.12l17.57,17.57H35.2L24.32,138.76a3.78,3.78,0,0,0-6.45,2.64A3.67,3.67,0,0,0,19,144l5.59,5.59H3.75A3.76,3.76,0,0,0,0,153.38a3.8,3.8,0,0,0,3.75,3.75H24.63L19,162.71a3.78,3.78,0,0,0-1.11,2.64A3.57,3.57,0,0,0,19,168a3.78,3.78,0,0,0,5.34,0l10.87-10.87H48.59L31,174.69a3.66,3.66,0,0,0-.8,4.12,3.74,3.74,0,0,0,3.44,2.27H57.31a3.67,3.67,0,0,0,2.95,1.47H83L66.89,198.77a3.84,3.84,0,0,0-1.11,3.13L49.14,218.61a3.66,3.66,0,0,0-.8,4.12A3.74,3.74,0,0,0,51.78,225H76.6l-9.46,9.46H51.78A3.76,3.76,0,0,0,48,238.2a3.8,3.8,0,0,0,3.75,3.75h7.86L44.9,256.69a3.78,3.78,0,0,0,2.64,6.45A3.57,3.57,0,0,0,50.18,262l14.74-14.74v7.86a3.75,3.75,0,1,0,7.49,0V239.8l9.46-9.46v24.82a3.71,3.71,0,0,0,2.27,3.44,3.79,3.79,0,0,0,4.12-.8L105,241.09a3.84,3.84,0,0,0,3.13-1.11l16.09-16.09v22.79a3.58,3.58,0,0,0,1.47,2.95v23.65a3.71,3.71,0,0,0,2.27,3.44,3.79,3.79,0,0,0,4.12-.8l17.57-17.57v13.33l-10.87,10.87a3.78,3.78,0,0,0-1.11,2.64,3.57,3.57,0,0,0,1.11,2.64,3.78,3.78,0,0,0,5.34,0l5.59-5.59v20.88a3.75,3.75,0,1,0,7.49,0V282.24l5.59,5.59a3.78,3.78,0,0,0,6.45-2.64,3.57,3.57,0,0,0-1.11-2.64l-10.87-10.87V258.35l17.57,17.57a3.66,3.66,0,0,0,4.12.8,3.74,3.74,0,0,0,2.27-3.44V249.63a3.67,3.67,0,0,0,1.47-2.95V223.89L198.77,240a3.84,3.84,0,0,0,3.13,1.11l16.71,16.71a3.66,3.66,0,0,0,4.12.8,3.74,3.74,0,0,0,2.27-3.44V230.34l9.46,9.46v15.36a3.76,3.76,0,0,0,3.75,3.75,3.8,3.8,0,0,0,3.75-3.75v-7.86L256.69,262a3.78,3.78,0,0,0,2.64,1.11A3.57,3.57,0,0,0,262,262a3.78,3.78,0,0,0,0-5.34l-14.74-14.74h7.86a3.76,3.76,0,0,0,3.75-3.75,3.8,3.8,0,0,0-3.75-3.75H239.74L230.28,225h24.82a3.71,3.71,0,0,0,3.44-2.27,3.79,3.79,0,0,0-.8-4.12L241,201.9a3.84,3.84,0,0,0-1.11-3.13l-16.09-16.09h22.79a3.58,3.58,0,0,0,2.95-1.47h23.65a3.71,3.71,0,0,0,3.44-2.27,3.79,3.79,0,0,0-.8-4.12l-17.57-17.57h13.33l10.87,10.87a3.78,3.78,0,0,0,6.45-2.64,3.67,3.67,0,0,0-1.11-2.64l-5.59-5.59h20.88a3.76,3.76,0,0,0,3.75-3.75A3.67,3.67,0,0,0,303.19,149.75Zm-38.94-16.46-16.46,16.46H228.44l16.46-16.46Zm-28.5-1.47-17.94,17.94H198.52l17.94-17.94Zm-60.63,74L157.25,187.9V162.59l17.94,17.94v25.25ZM149.69,187.9l-17.94,17.94V180.52l17.94-17.94Zm25.43-61.36-17.94,17.94V119.1l17.94-17.94v25.37Zm5.34,5.28h25.31l-17.94,17.94H162.53Zm-30.77,12.59-17.94-17.94V101.17l17.94,17.94Zm-5.28,5.34H119.1l-17.94-17.94h25.31Zm-25.31,7.49h25.31l-17.94,17.94H101.17Zm61.36,17.94-17.94-17.94h25.31l17.94,17.94Zm32.8-50.86H188l13.7-13.7H227Zm32.8-34.89-13.7,13.7H209.15l13.7-13.7ZM203.8,74.57l13.7-13.7V84.09l-13.7,13.7Zm-21.19,19.1L196.31,80v25.31L182.61,119Zm-7.49-22.42V90.54l-17.94,17.94V89.19Zm-1.41-28.5V62.1L157.25,78.56V59.27Zm-40.48,0,16.46,16.46V78.5L133.23,62.1Zm16.46,46.44v19.29L131.75,90.54V71.25ZM124.32,119l-13.7-13.7V80l13.7,13.7ZM89.43,60.87l13.7,13.7V97.79l-13.7-13.7ZM60.87,89.43H84.09l13.7,13.7H74.57ZM80,110.62h25.31l13.7,13.7H93.67ZM90.6,131.82l17.94,17.94H89.25L71.31,131.82Zm-47.91,1.47H62L78.5,149.75H59.21Zm0,40.42,16.46-16.46H78.44L62,173.71Zm28.5,1.47,17.94-17.94h19.29L90.48,175.18Zm22.48,7.49H119l-13.7,13.7H80Zm-32.8,34.89,13.7-13.7H97.79l-13.7,13.7Zm42.26,14.86-13.7,13.7V222.91l13.7-13.7Zm21.19-19.1L110.62,227V201.72l13.7-13.7Zm7.49,22.42V216.46l17.94-17.94v19.29Zm1.41,28.5V244.9l16.46-16.46v19.29Zm40.48,0-16.46-16.46V228.5L173.71,245Zm1.41-28.5-17.94-17.94V198.52l17.94,17.94Zm7.49-22.42V188l13.7,13.7V227Zm34.89,32.8-13.7-13.7V209.21l13.7,13.7Zm28.56-28.56H222.85l-13.7-13.7h23.22ZM227,196.37H201.65L188,182.67h25.31Zm-10.63-21.19L198.4,157.25h19.29l17.94,17.94Zm47.91-1.47H244.9l-16.46-16.46h19.29Z"/></g><path class="cls-2" d="M163.79,168.67a52.53,52.53,0,0,0-.28,22.82l-7,6.61-6-6.41c-6.62,4.1-15.85,6.14-23.5,6-18.52-.23-23.12-5.06-35.67-5.22-8.13-.1-14,.9-19.65,4.42-2.36-2.42-3.52-5.54-3.45-11.16.19-15.18,14.66-26.35,43.31-32.82l-3.33-10.92,10.8-3.81,3.8,12.12c14.39-3.65,22-7.38,22-13.24.08-6.93-8.57-12.29-22.92-12.35-21.27-.14-34.16,7.71-40.19,22.46l-10.93-5.15c2.95-6.66,3.09-17.89.3-24.26l8.19-5.52,7.65,9.77c8.32-6.35,19.12-9.45,30.71-9.31l4.9.06c29.4.36,41.34,11,41.4,25.25.07,13.51-12.69,21-36.89,26l3.22,10.44-11.15,3.09-3.45-11.4c-19.65,3.7-30.58,8.23-34.26,16.31a43,43,0,0,1,13.77-1.86c6.93.08,19.55,3.82,28.76,3.94,15.18.19,23.62-5.81,28.82-20.68Z"/><path class="cls-2" d="M214.42,162.36c2,15.68,12.25,24.29,26.81,26l-.13,10.75-2.39,0c-10.64-.13-19.2-3.46-25.83-8.8l-7,8.4L199,190.13c-6.76,5.18-15.4,8.3-26,8.17l-2.39,0,.13-10.75c14.6-1.38,25.1-9.73,27.44-25.36L181.8,162l.15-12,16.73.2,0-1.67c.17-14.1-3.67-22.87-13.11-23-3.23,0-5.63,1-9.36,3.35l-2.37-1.22.12-9.44c4.82-2.93,9.5-4.67,14.16-4.61a21.69,21.69,0,0,1,15,6.52l6.77-6.25,5.28,7.83a49.46,49.46,0,0,1,14.92-7.83l3,6.85c-9.28,6.34-16.9,13.9-18.65,29.65l16.49.2-.15,12Z"/><path class="cls-3" d="M163.55,162.24a52.92,52.92,0,0,0-.28,23l-7.07,6.66-6.06-6.46c-6.67,4.13-16,6.19-23.68,6.09-18.67-.23-23.3-5.1-36-5.26-8.19-.1-14.1.91-19.81,4.46-2.38-2.44-3.54-5.58-3.48-11.25.19-15.29,14.78-26.56,43.64-33.07l-3.36-11,10.89-3.84,3.83,12.21c14.5-3.68,22.13-7.44,22.21-13.34.08-7-8.64-12.39-23.09-12.45-21.44-.14-34.42,7.77-40.5,22.63l-11-5.19c3-6.71,3.11-18,.3-24.45l8.26-5.56,7.71,9.85c8.39-6.4,19.27-9.52,30.95-9.38L122,106c29.63.36,41.66,11.11,41.73,25.44.08,13.61-12.79,21.16-37.18,26.16l3.24,10.52-11.24,3.11L115,159.72c-19.8,3.73-30.82,8.3-34.53,16.44a43.33,43.33,0,0,1,13.88-1.88c7,.09,19.71,3.85,29,4,15.29.19,23.8-5.85,29-20.84Z"/><path class="cls-3" d="M214.57,155.88c2,15.8,12.35,24.48,27,26.23l-.13,10.84-2.41,0c-10.72-.13-19.35-3.49-26-8.87l-7.09,8.46-6.88-8.64c-6.81,5.22-15.52,8.36-26.24,8.23l-2.41,0,.13-10.84c14.71-1.39,25.29-9.81,27.65-25.56l-16.5-.2.15-12,16.86.21,0-1.68c.17-14.21-3.69-23.05-13.21-23.17-3.25,0-5.67,1-9.44,3.38l-2.39-1.23.12-9.51c4.85-3,9.57-4.7,14.27-4.64a21.88,21.88,0,0,1,15.1,6.57L210,107l5.32,7.89a49.83,49.83,0,0,1,15-7.89l3,6.9c-9.35,6.39-17,14-18.79,29.88l16.62.2-.15,12Z"/></g></g></svg>