<svg xmlns="http://www.w3.org/2000/svg" viewBox="0 0 282.59 464.26"><defs><style>.cls-1{fill:#fff;stroke:#fff;stroke-miterlimit:10;stroke-width:0.41px;}.cls-2,.cls-3{fill:none;}.cls-2{stroke:#e65c7d;stroke-linejoin:round;stroke-width:7.17px;}</style></defs><title>day22</title><g id="Layer_2" data-name="Layer 2"><g id="Layer_1-2" data-name="Layer 1"><path class="cls-1" d="M54.15,194.65a1.42,1.42,0,0,1,1.47-1.42H75.76a1.37,1.37,0,0,1,1.38,1.42,1.4,1.4,0,0,1-1.38,1.42H55.61A1.45,1.45,0,0,1,54.15,194.65Zm0,5.78A1.46,1.46,0,0,1,55.61,199h7.16a1.46,1.46,0,0,1,1.47,1.47v23a1.46,1.46,0,0,1-1.47,1.47,1.48,1.48,0,0,1-1.47-1.47V201.81h-5.7A1.41,1.41,0,0,1,54.15,200.43Zm23,0a1.36,1.36,0,0,1-1.38,1.38H70v21.62a1.45,1.45,0,1,1-2.89,0v-23A1.45,1.45,0,0,1,68.51,199h7.25A1.41,1.41,0,0,1,77.15,200.43Z"/><path class="cls-1" d="M116.72,193.14a1.39,1.39,0,0,1,.73,1.86l-12.25,30.12a1.45,1.45,0,0,1-2.68,0l-4.44-10.92-4.45,10.92a1.4,1.4,0,0,1-2.63,0L78.7,195a1.51,1.51,0,0,1,.82-1.86,1.4,1.4,0,0,1,1.86.78l11,26.88L96.74,210a1.44,1.44,0,0,1,2.72,0l4.44,10.83,10.92-26.88A1.46,1.46,0,0,1,116.72,193.14Zm-30.68,0a1.41,1.41,0,0,1,1.86.78l4.45,10.92,4.44-10.92a1.4,1.4,0,0,1,1.86-.78,1.6,1.6,0,0,1,.82.78l4.44,10.92,4.44-10.92a1.4,1.4,0,0,1,1.86-.78A1.45,1.45,0,0,1,111,195l-5.78,14.15a1.33,1.33,0,0,1-.78.82,1.5,1.5,0,0,1-1.9-.82l-4.44-10.87-4.45,10.87a1.38,1.38,0,0,1-.73.82,1.48,1.48,0,0,1-1.9-.82L85.22,195A1.43,1.43,0,0,1,86,193.14Z"/><path class="cls-1" d="M139.16,223.47a1.45,1.45,0,0,1-1.47,1.42H122.76a1.44,1.44,0,0,1-1.42-1.42V194.6a1.44,1.44,0,0,1,1.42-1.42h14.93a1.45,1.45,0,1,1,0,2.89H124.23V222h13.46A1.45,1.45,0,0,1,139.16,223.47Zm0-23.09a1.45,1.45,0,0,1-1.47,1.42H130v2.89h5a1.45,1.45,0,1,1,0,2.89h-6.47a1.45,1.45,0,0,1-1.47-1.42v-5.78a1.42,1.42,0,0,1,1.47-1.42h9.15A1.42,1.42,0,0,1,139.16,200.39Zm-2.67,11.52a1.46,1.46,0,0,1-1.47,1.47h-5v2.85h7.72a1.45,1.45,0,1,1,0,2.89h-9.15a1.45,1.45,0,0,1-1.47-1.42v-5.78a1.45,1.45,0,0,1,1.47-1.42H135A1.45,1.45,0,0,1,136.48,211.91Z"/><path class="cls-1" d="M146.36,224.94a1.47,1.47,0,0,1-1.42-1.47V194.6a1.4,1.4,0,0,1,1.42-1.38,1.37,1.37,0,0,1,1.42,1.38v28.87A1.45,1.45,0,0,1,146.36,224.94Zm4.4-31.46a1.36,1.36,0,0,1,2,.35l9.92,14.2V194.6a1.44,1.44,0,0,1,1.47-1.38,1.4,1.4,0,0,1,1.42,1.38v18a1.39,1.39,0,0,1-.65,1.21,1.4,1.4,0,0,1-2-.34l-12.51-18A1.39,1.39,0,0,1,150.77,193.48Zm14.76,31.2a1.5,1.5,0,0,1-2-.39l-9.92-14.2v13.38a1.45,1.45,0,0,1-1.47,1.42,1.4,1.4,0,0,1-1.38-1.42v-18a1.28,1.28,0,0,1,.6-1.17,1.34,1.34,0,0,1,2,.34l12.56,18A1.55,1.55,0,0,1,165.52,224.68Zm4.36.26a1.47,1.47,0,0,1-1.42-1.47V194.6a1.45,1.45,0,0,1,2.89,0v28.87A1.48,1.48,0,0,1,169.88,224.94Z"/><path class="cls-1" d="M175.71,194.65a1.42,1.42,0,0,1,1.47-1.42h20.15a1.37,1.37,0,0,1,1.38,1.42,1.4,1.4,0,0,1-1.38,1.42H177.18A1.45,1.45,0,0,1,175.71,194.65Zm0,5.78a1.46,1.46,0,0,1,1.47-1.47h7.16a1.46,1.46,0,0,1,1.47,1.47v23a1.46,1.46,0,0,1-1.47,1.47,1.48,1.48,0,0,1-1.47-1.47V201.81h-5.7A1.41,1.41,0,0,1,175.71,200.43Zm23,0a1.36,1.36,0,0,1-1.38,1.38h-5.78v21.62a1.45,1.45,0,1,1-2.89,0v-23a1.45,1.45,0,0,1,1.42-1.47h7.25A1.41,1.41,0,0,1,198.71,200.43Z"/><path class="cls-1" d="M211.7,225.37a1.46,1.46,0,0,1-1.47-1.47V210.61l-9.84-15.75a1.46,1.46,0,0,1,.47-2,1.4,1.4,0,0,1,2,.47l10,16a1.67,1.67,0,0,1,.26.86V223.9A1.45,1.45,0,0,1,211.7,225.37Zm-4.27-30.51a1.44,1.44,0,0,1,2.46-1.51l4.66,7.9,4.66-7.9a1.43,1.43,0,0,1,2-.47,1.45,1.45,0,0,1,.52,2l-5.87,9.84a1.43,1.43,0,0,1-2.59,0Zm20.84-2a1.45,1.45,0,0,1,.43,2l-9.8,15.75V223.9a1.47,1.47,0,1,1-2.93,0V210.27a1.93,1.93,0,0,1,.22-.82l10.1-16.1A1.39,1.39,0,0,1,228.27,192.88Z"/><path class="cls-1" d="M91.15,238.65a1.42,1.42,0,0,1,1.47-1.42h20.15a1.37,1.37,0,0,1,1.38,1.42,1.4,1.4,0,0,1-1.38,1.42H92.62A1.45,1.45,0,0,1,91.15,238.65Zm0,5.78A1.46,1.46,0,0,1,92.62,243h7.16a1.46,1.46,0,0,1,1.47,1.47v23a1.46,1.46,0,0,1-1.47,1.47,1.48,1.48,0,0,1-1.47-1.47V245.81h-5.7A1.41,1.41,0,0,1,91.15,244.43Zm23,0a1.36,1.36,0,0,1-1.38,1.38H107v21.62a1.45,1.45,0,1,1-2.89,0v-23a1.45,1.45,0,0,1,1.42-1.47h7.25A1.41,1.41,0,0,1,114.15,244.43Z"/><path class="cls-1" d="M153.72,237.14a1.39,1.39,0,0,1,.73,1.86L142.2,269.11a1.45,1.45,0,0,1-2.68,0l-4.44-10.92-4.45,10.92a1.4,1.4,0,0,1-2.63,0L115.7,239a1.51,1.51,0,0,1,.82-1.86,1.4,1.4,0,0,1,1.86.78l11,26.88,4.4-10.83a1.44,1.44,0,0,1,2.72,0l4.44,10.83,10.92-26.88A1.46,1.46,0,0,1,153.72,237.14Zm-30.68,0a1.41,1.41,0,0,1,1.86.78l4.45,10.92,4.44-10.92a1.4,1.4,0,0,1,1.86-.78,1.6,1.6,0,0,1,.82.78l4.44,10.92,4.44-10.92a1.4,1.4,0,0,1,1.86-.78A1.45,1.45,0,0,1,148,239l-5.78,14.15a1.33,1.33,0,0,1-.78.82,1.5,1.5,0,0,1-1.9-.82l-4.44-10.87-4.45,10.87a1.38,1.38,0,0,1-.73.82,1.48,1.48,0,0,1-1.9-.82L122.22,239A1.43,1.43,0,0,1,123,237.14Z"/><path class="cls-1" d="M188.68,249.87a1.45,1.45,0,0,1-1.86-.95,13.73,13.73,0,0,0-5-6.86,14,14,0,0,0-8.11-2.59c-18,0-18,27,0,27a13.68,13.68,0,0,0,8.11-2.59,13.37,13.37,0,0,0,5-6.86,1.47,1.47,0,1,1,2.8.91,16.57,16.57,0,0,1-6,8.33,17,17,0,0,1-9.88,3.19c-21.88,0-21.88-32.92,0-32.92a17,17,0,0,1,9.88,3.15,16.69,16.69,0,0,1,6,8.37A1.44,1.44,0,0,1,188.68,249.87Zm-23.35,6.34a1.43,1.43,0,0,1,2,.56,7.58,7.58,0,0,0,2.76,2.72,6.84,6.84,0,0,0,3.63,1,7.09,7.09,0,0,0,5.22-2.2,7.55,7.55,0,0,0,0-10.66,7.26,7.26,0,0,0-5.22-2.2,6.93,6.93,0,0,0-3.62,1,7.93,7.93,0,0,0-2.76,2.72,1.44,1.44,0,0,1-2,.6,1.47,1.47,0,0,1-.52-2,10.35,10.35,0,0,1,3.75-3.84,10.18,10.18,0,0,1,5.14-1.38,10.37,10.37,0,0,1,7.38,3.06,10.63,10.63,0,0,1,0,14.76,10.23,10.23,0,0,1-7.38,3.11,10.63,10.63,0,0,1-5.14-1.38,10.8,10.8,0,0,1-3.75-3.88A1.42,1.42,0,0,1,165.33,256.21Z"/><polyline class="cls-2" points="235.58 26.89 140.44 66.13 10.89 12.7"/><polyline class="cls-2" points="212.35 19.45 140.44 49.11 68.53 19.45"/><polyline class="cls-2" points="212.35 3.31 140.44 32.98 68.53 3.31"/><polyline class="cls-2" points="264.17 31.72 140.44 82.76 10.89 29.32"/><polyline class="cls-2" points="268.2 46.68 140.44 99.38 12.68 46.68"/><polyline class="cls-2" points="277.05 76.19 140.44 131.6 1.38 73.53"/><polyline class="cls-2" points="277.05 60.06 140.44 115.47 1.38 57.4"/><rect class="cls-3" x="18.43" y="33.63" width="245.74" height="138.02" transform="translate(282.59 205.28) rotate(180)"/><polyline class="cls-2" points="47.01 437.38 142.15 398.13 271.7 451.57"/><polyline class="cls-2" points="70.24 444.82 142.15 415.16 214.06 444.82"/><polyline class="cls-2" points="70.24 460.95 142.15 431.29 214.06 460.95"/><polyline class="cls-2" points="18.43 432.54 142.15 381.51 271.7 434.94"/><polyline class="cls-2" points="14.39 417.58 142.15 364.88 269.92 417.58"/><polyline class="cls-2" points="5.54 388.07 142.15 332.67 281.21 390.74"/><polyline class="cls-2" points="5.54 404.2 142.15 348.8 281.21 406.87"/><rect class="cls-3" x="18.43" y="292.62" width="245.74" height="138.02"/></g></g></svg>