<svg xmlns="http://www.w3.org/2000/svg" viewBox="0 0 114.87 93.9"><defs><style>.cls-1{fill:none;stroke-linejoin:round;stroke-width:3.14px;}.cls-1,.cls-2{stroke:#71518e;}.cls-2{fill:#98c1d7;stroke-width:2.72px;}.cls-2,.cls-3{stroke-miterlimit:10;}.cls-3{fill:#fff;stroke:#fff;stroke-width:0.25px;}</style></defs><title>day3</title><g id="Layer_2" data-name="Layer 2"><g id="Layer_1-2" data-name="Layer 1"><path class="cls-1" d="M71.11,45.92S75.62,37.08,68,26.45c0,0,15.5,2.16,16-15.68,0,0,10.46,11.72,29.2-9.19,0,0-13,22-2.16,32.63,0,0-13.34-.72-9.55,16.77,0,0-8.29-5-19.83,3.61L71.56,56.1Z"/><line class="cls-1" x1="71.56" y1="56.1" x2="113.3" y2="1.57"/><path class="cls-1" d="M61.39,70.57S52.7,75.34,53,88.39c0,0-11.6-10.51-22.09,3.94,0,0-2.05-15.57-29.32-8.83,0,0,23.1-10.88,20.14-25.76,0,0,10.62,8.1,17.33-8.49,0,0,4,8.84,18.42,8.17l9.28,4.46Z"/><line class="cls-1" x1="66.75" y1="61.9" x2="1.57" y2="83.5"/><circle class="cls-2" cx="64.9" cy="52.12" r="8.11"/><circle class="cls-2" cx="68.42" cy="66.07" r="8.11"/><circle class="cls-2" cx="78.22" cy="56.47" r="8.11"/><path class="cls-3" d="M14.23,28.81a.86.86,0,0,1,.89-.87H27.38a.84.84,0,0,1,.84.87.85.85,0,0,1-.84.87H15.12A.88.88,0,0,1,14.23,28.81Zm0,3.52a.89.89,0,0,1,.89-.89h4.36a.88.88,0,0,1,.89.89v14a.88.88,0,0,1-.89.89.9.9,0,0,1-.89-.89V33.17H15.12A.86.86,0,0,1,14.23,32.33Zm14,0a.83.83,0,0,1-.84.84H23.86V46.32a.88.88,0,1,1-1.76,0v-14a.88.88,0,0,1,.87-.89h4.41A.86.86,0,0,1,28.22,32.33Z"/><path class="cls-3" d="M31.95,47.21a.88.88,0,0,1-.89-.87V28.79a.88.88,0,0,1,1.76,0V46.35A.87.87,0,0,1,31.95,47.21Zm3.49-19.29a.88.88,0,0,1,.89.87v6.14h3.49V28.79a.88.88,0,0,1,1.76,0v7a.87.87,0,0,1-.87.87H35.44a.87.87,0,0,1-.87-.87v-7A.87.87,0,0,1,35.44,27.92Zm5.28,19.29a.88.88,0,0,1-.89-.87V40.21H36.33v6.14a.88.88,0,0,1-1.76,0v-7a.87.87,0,0,1,.87-.87h5.28a.87.87,0,0,1,.87.87v7A.87.87,0,0,1,40.72,47.21Zm3.49-19.29a.88.88,0,0,1,.89.87V46.35a.88.88,0,0,1-1.76,0V28.79A.87.87,0,0,1,44.21,27.92Z"/><path class="cls-3" d="M49.33,46.35V28.79a.9.9,0,0,1,.89-.87h6.9a6.16,6.16,0,0,1,4.3,10.47A6,6,0,0,1,58.67,40l4.07,5.83c.66.94-.79,2-1.42,1l-4.86-7a.87.87,0,0,1,.66-1.44,4.41,4.41,0,0,0,3-7.51,4.29,4.29,0,0,0-3-1.26h-6V46.35A.88.88,0,0,1,49.33,46.35ZM56,36.69C54.61,36.61,54.55,35,56,35c.81,0,1.79.13,1.79-.89a.89.89,0,0,0-.92-.89H53.71a.88.88,0,0,1,0-1.76h3.12a2.66,2.66,0,0,1,2.65,2.68,2.62,2.62,0,0,1-2.65,2.6C56.6,36.69,56.26,36.71,56,36.69Zm1,10.16-2.41-3.49v3a.88.88,0,0,1-1.76,0V40.63a.88.88,0,0,1,1.6-.55l4,5.75A.89.89,0,0,1,57,46.85Z"/><path class="cls-3" d="M76.55,46.35a.88.88,0,0,1-.89.87H66.58a.87.87,0,0,1-.87-.87V28.79a.88.88,0,0,1,.87-.87h9.08a.88.88,0,1,1,0,1.76H67.47V45.46h8.19A.89.89,0,0,1,76.55,46.35Zm0-14a.88.88,0,0,1-.89.87H71v1.76H74a.88.88,0,1,1,0,1.76H70.1a.88.88,0,0,1-.89-.87V32.3a.86.86,0,0,1,.89-.87h5.57A.86.86,0,0,1,76.55,32.3Zm-1.63,7a.89.89,0,0,1-.89.89H71v1.73h4.7a.88.88,0,1,1,0,1.76H70.1a.88.88,0,0,1-.89-.87V39.31a.88.88,0,0,1,.89-.87H74A.88.88,0,0,1,74.93,39.31Z"/><path class="cls-3" d="M90.91,46.35a.88.88,0,0,1-.89.87H80.94a.87.87,0,0,1-.87-.87V28.79a.87.87,0,0,1,.87-.87H90a.88.88,0,1,1,0,1.76H81.83V45.46H90A.89.89,0,0,1,90.91,46.35Zm0-14a.88.88,0,0,1-.89.87h-4.7v1.76h3.07a.88.88,0,1,1,0,1.76H84.46a.88.88,0,0,1-.89-.87V32.3a.86.86,0,0,1,.89-.87H90A.86.86,0,0,1,90.91,32.3Zm-1.63,7a.89.89,0,0,1-.89.89H85.32v1.73H90a.88.88,0,1,1,0,1.76H84.46a.88.88,0,0,1-.89-.87V39.31a.88.88,0,0,1,.89-.87h3.94A.88.88,0,0,1,89.29,39.31Z"/></g></g></svg>