<svg xmlns="http://www.w3.org/2000/svg" viewBox="0 0 194.71 98.09"><defs><style>.cls-1{fill:#e65c7d;}.cls-2{fill:#fff;}</style></defs><title>day4</title><g id="Layer_2" data-name="Layer 2"><g id="Layer_1-2" data-name="Layer 1"><path class="cls-1" d="M192.66,91.06l-96-39.59-70.22,29-2-5L95.66,46.09a2.68,2.68,0,0,1,2,0l97,40Z"/><path class="cls-1" d="M149.51,86,96.69,64.22,43.87,86l-2-5L95.66,58.84a2.68,2.68,0,0,1,2,0L151.55,81Z"/><path class="cls-1" d="M149.51,98.09,96.69,76.3,43.87,98.09l-2-5L95.66,70.91a2.68,2.68,0,0,1,2,0l53.84,22.21Z"/><path class="cls-1" d="M192.66,78.61,96.69,39,5.07,76.82l-2-5L95.66,33.64a2.68,2.68,0,0,1,2,0l97,40Z"/><path class="cls-1" d="M191.33,65.61l-94.64-39L2,65.61l-2-5L95.66,21.19a2.68,2.68,0,0,1,2,0l95.66,39.46Z"/><path class="cls-2" d="M100.68,24.23c1.07,7.8,6.25,12,13.51,12.8v5.36H113a20.38,20.38,0,0,1-12.92-4.23l-3.45,4.23-3.45-4.23a20.38,20.38,0,0,1-12.92,4.23H79.06V37c7.62-.83,13-5,14.11-12.8H65.91V18.87C78,15.72,85.32,9.53,88.47.12a19.33,19.33,0,0,1,5.6,3.45L97.52.12l3,4A25.06,25.06,0,0,1,108.18,0l1.55,3.39c-4.58,3.21-8.33,7-9.11,14.88h13v6Zm-7.44-6a22,22,0,0,0-2.08-8.51A24.12,24.12,0,0,1,81,18.28Z"/></g></g></svg>