<svg xmlns="http://www.w3.org/2000/svg" viewBox="0 0 64.88 96.61"><defs><style>.cls-1{fill:#71518e;stroke:#71518e;stroke-linejoin:round;stroke-width:0.69px;}.cls-2{fill:#fff;stroke:#fff;stroke-miterlimit:10;stroke-width:0.24px;}</style></defs><title>day5</title><g id="Layer_2" data-name="Layer 2"><g id="Layer_1-2" data-name="Layer 1"><path class="cls-1" d="M58.3,58.68l-4.25-21C53,28.07,43.8,20.55,32.66,20.55c-11.34,0-20.62,7.79-21.43,17.67L6.57,58.68c4.88,6.07,14.9,10,26.09,10s20.71-4,25.64-10Z"/><path class="cls-1" d="M62.18,64.67c-6.09,6.48-17,10.8-29.47,10.8S8.89,71.3,2.79,64.79L.35,70.67c5.79,7.2,19.07,10.67,32.36,10.67s26-3.58,31.83-10.66Z"/><circle class="cls-1" cx="32.69" cy="90.05" r="6.21"/><path class="cls-1" d="M14.24.58,6.68,10.83a.57.57,0,0,0,.31.89s21.51,5.74,21.56,5.74h9.13c.05,0,21.42-5.74,21.42-5.74a.57.57,0,0,0,.31-.89L51.87.58a.57.57,0,0,0-.78-.14L37.91,9.14a.57.57,0,0,1-.32.09H28.65a.57.57,0,0,1-.31-.09L15,.44A.57.57,0,0,0,14.24.58Z"/><path class="cls-2" d="M5.33,56.2a.82.82,0,0,1-.83-.83V38.52a.82.82,0,0,1,.83-.83H14a.84.84,0,1,1,0,1.69H6.16v16A.84.84,0,0,1,5.33,56.2Zm9.57-14.3a.84.84,0,0,1-.86.83H9.54v1.69h2.95a.84.84,0,0,1,0,1.69H8.7a.84.84,0,0,1-.86-.83V41.89a.83.83,0,0,1,.86-.83H14A.83.83,0,0,1,14.9,41.89Zm-1.59,6.72a.84.84,0,0,1-.83.86H9.54v5.89a.84.84,0,0,1-1.69,0V48.62a.84.84,0,0,1,.86-.83h3.78A.84.84,0,0,1,13.31,48.62Z"/><path class="cls-2" d="M20.71,56.2a.84.84,0,0,1-.86-.83V38.52a.84.84,0,0,1,1.69,0V55.36A.84.84,0,0,1,20.71,56.2Zm3.37,0a.84.84,0,0,1-.86-.83V38.52a.84.84,0,0,1,1.69,0V55.36A.84.84,0,0,1,24.09,56.2Z"/><path class="cls-2" d="M44.63,37.74a.85.85,0,0,1,.45,1.11l-7.18,17.6a.84.84,0,0,1-1.56,0l-7.18-17.6a.84.84,0,1,1,1.56-.63l6.42,15.71,6.4-15.71A.87.87,0,0,1,44.63,37.74Zm-11.2,0a.88.88,0,0,1,1.11.48l2.62,6.37,2.59-6.37a.85.85,0,0,1,1.08-.48.89.89,0,0,1,.48,1.11l-3.4,8.28a.85.85,0,0,1-1.56,0L33,38.85A.84.84,0,0,1,33.43,37.74Z"/><path class="cls-2" d="M59.74,55.36a.84.84,0,0,1-.86.83H50.17a.84.84,0,0,1-.83-.83V38.52a.84.84,0,0,1,.83-.83h8.71a.84.84,0,1,1,0,1.69H51V54.51h7.85A.85.85,0,0,1,59.74,55.36Zm0-13.47a.84.84,0,0,1-.86.83H54.38v1.69h2.95a.84.84,0,1,1,0,1.69H53.55a.84.84,0,0,1-.86-.83V41.89a.83.83,0,0,1,.86-.83h5.34A.83.83,0,0,1,59.74,41.89Zm-1.56,6.72a.85.85,0,0,1-.86.86H54.38v1.66h4.51a.84.84,0,1,1,0,1.69H53.55a.84.84,0,0,1-.86-.83V48.62a.84.84,0,0,1,.86-.83h3.78A.84.84,0,0,1,58.18,48.62Z"/></g></g></svg>