<svg xmlns="http://www.w3.org/2000/svg" viewBox="0 0 133.67 166.52"><defs><style>.cls-1{fill:#8cbdd6;}.cls-2{fill:#fff;}</style></defs><title>day6</title><g id="Layer_2" data-name="Layer 2"><g id="Layer_1-2" data-name="Layer 1"><rect class="cls-1" x="33.14" width="18.39" height="166.52"/><rect class="cls-1" x="59.36" y="-17.91" width="14.94" height="133.67" transform="translate(115.76 -17.91) rotate(90)"/><path class="cls-2" d="M35.61,89.56c1.17-.23,4.15-.12,5.09-.23.35-1.69-.23-7.77-.76-7.77l-1.23-3.86c-.88.82-5,6.9-6.55,8.71-.94,1.23-2.1,2.28-3,2.16-1.52-.12-2.69-1.23-2.28-2.22.76-1.7,2.16-2.81,3.16-4.27,1.58-2.34,4.15-6,7-10.46.41-1.17.29-4.38,2.92-4.44,1.75-.18,3.92.76,4,2.51s-1.58,2.63-1.52,4.15c1.4,4.56,3.57,7.89,3.68,12a15.5,15.5,0,0,1-.12,2.86l1.17-.35c3.92-2.28,3.62-2.57,7-6.25a.71.71,0,0,1,.53-.35c-.35,0,2-.35,2.1.88,0,0,.76.82.29,2.92-1.64,2.86-3.62,4.27-5.9,6a11.41,11.41,0,0,1-5.67,1.69c.12,2.46-2.81,5.2-4.38,6.31a12.33,12.33,0,0,1-6.66,1.52c-2.69,0-6.2-1.52-6.2-4.33C28.31,92.25,30.88,90.43,35.61,89.56Zm-.12,7.13c1.17-.18,4-1,4.27-2.63-4-.94-6.66,1.29-5.9,2.34A3.17,3.17,0,0,0,35.5,96.69Z"/><path class="cls-2" d="M50.87,94.82c0-4.79,2.86-11.46,5.38-15.61,1.11-2.4,1.58-3.16,2.34-4.68.53-1.05,2.69-3.45,4.33-3.45,1.23,0,1.75,1.4,1.75,3.45a2.89,2.89,0,0,1-.47,1.81l-2.4,3.57a31.91,31.91,0,0,0-5.2,11.52c-.88,2.28,1.75,3.22,2.86,2.86,3.86-.76,5.85-4.27,7.19-6.08l2.57-4.09a3.53,3.53,0,0,1,2.63-1.23c1.4,0,1.29,1.17,1.11,2.34C72,91,63.67,100,58.47,100,55.2,100,50.87,99.26,50.87,94.82ZM69.23,50.62c3.16-.06,5.2,2.57,5.32,5.9,0,1.81-1.93,4.33-3.8,4.33-5,0-5.9-3.86-6.43-5.44C65.08,53.55,66.13,50.68,69.23,50.62Z"/><path class="cls-2" d="M67.71,97.27c1.75,0,2.4,3.27,3.1,3.27,1.23,0,1.23-.29,1.58-.64,4-3.57,5.26-7,8.3-11.34,0-.12,1.05-1.4,1.11-1.58a22.42,22.42,0,0,0,.12-2.28c0-3.68-.47-8.71-1.7-8.71-.94,0-2.16,1.69-2.63,2.16-.29.29-2.16,2.86-2.4,3.27-1.05,1.81-4.15,8.89-5.73,8.89a2.05,2.05,0,0,1-2-1.93c0-1.58.88-2.51,1.46-4,0-.12,3.22-6.49,3.22-6.61,1.46-3.33,6.43-7.19,9.24-7.19h.35a2.28,2.28,0,0,0,.82-.12c.12.12,2.1.88,2.46,1.05,1.17.58,1.34,3.62,1.34,4.85a22,22,0,0,0,.82,5.09c1.46-.94,6-5.85,7-7.13,2.22-1.81,4-3.74,7.07-3.74,2.86,0,4.21,2.1,4.21,4.68,0,.94-.94,3.92-2.34,3.92-2.1,0-2.51-2-3.33-2-2.22,0-5.2,4.21-6.66,5.73s-2.69,3-3.51,3.86c-.06.06-1.4,1.46-1.52,1.52l1.17,3.39c0,1.17,2.22,4.15,3.92,4.15,2.16,0,8.53-6.49,9.12-8.48.29-.18,2.1-3.1,3.16-4,.7-.58,1.87-.29,2.22-.64a2.47,2.47,0,0,1,.53,1.93,7.49,7.49,0,0,1-1.23,3.86c-4.44,5.61-8.71,12.63-13.74,13a8.28,8.28,0,0,1-2.1-.53c-2.86-.35-6.9-6.61-7.07-7.89-.06.12-1.58,2.63-1.75,2.81-2.63,3.86-6.84,10.93-12.39,10.93-2.63,0-5.09-4-5.09-6.43A3.48,3.48,0,0,1,67.71,97.27Z"/></g></g></svg>