<svg xmlns="http://www.w3.org/2000/svg" viewBox="0 0 184.17 138"><defs><style>.cls-1{fill:#e65c7d;}.cls-2{fill:#34446a;}.cls-3{fill:#fff;}</style></defs><title>day8</title><g id="Layer_2" data-name="Layer 2"><g id="Layer_1-2" data-name="Layer 1"><rect class="cls-1" width="184" height="138"/><polygon class="cls-2" points="0.17 138 184.17 0 184.17 138 0.17 138"/><path class="cls-3" d="M131.16,71.68H117.41c4.55,2.48,7,5.67,7,10,0,8.55-10.15,14.38-32.52,14.38H91c-21.74,0-32.12-5.83-32.2-14.38-.08-4.32,2.48-7.51,7-10H52.85v-8H65.71C62,61.45,60,58.41,60,54.5,60,44.11,71.39,39.32,91.2,39.32H92c20.14,0,31.17,4.79,31.17,15.18,0,3.92-1.84,7-5.59,9.19h13.58ZM92,88.06c13.19,0,19.66-2.88,19.58-8.39S105.67,71.28,92,71.28h-.8c-13.34,0-19.18,3-19.58,8.39.24,5.51,6.71,8.39,19.58,8.39Zm-.8-40.75c-10.15,0-18.46,2.4-18.78,8,.32,6.71,8.63,8.79,18.78,8.79H92c10.55,0,18.78-2.08,18.78-8.79,0-5.59-8.23-8-18.78-8Z"/></g></g></svg>