<svg xmlns="http://www.w3.org/2000/svg" xmlns:xlink="http://www.w3.org/1999/xlink" viewBox="0 0 190.51 226.29"><defs><style>.cls-1{fill:none;}.cls-2{fill:#71518e;}.cls-3{fill:#fff;}.cls-4{clip-path:url(#clip-path);}.cls-5{fill:#e65c7d;}</style><clipPath id="clip-path"><rect class="cls-1" x="18.01" y="21.46" width="155.33" height="176.37"/></clipPath></defs><title>day9</title><g id="Layer_2" data-name="Layer 2"><g id="Layer_1-2" data-name="Layer 1"><rect class="cls-2" x="18.01" y="21.46" width="155.33" height="176.8"/><path class="cls-3" d="M93.74,149.82c-13,0-27-7.54-27-19.72,0-6.87,3.49-10.5,10.08-10.5,6,0,9.45,2.87,9.45,7.88a7.57,7.57,0,0,1-.28,2,6.56,6.56,0,0,0-.24,1.83c0,1.84,3.34,3,5.64,3,7.4,0,8.53-8,8.74-19.67a18,18,0,0,1-12.94,5.57c-14.38,0-23-11-23-21.61,0-15.3,10.7-24.44,28.63-24.44,10.36,0,19,3.89,25.06,11.25,5.48,6.68,8.5,16,8.5,26.28C126.45,135.59,114.22,149.82,93.74,149.82ZM76.87,121.53c-5.48,0-8.15,2.8-8.15,8.57,0,11,13,17.79,25,17.79,28.56,0,30.78-27.65,30.78-36.13,0-17.72-9.78-35.6-31.62-35.6-17,0-26.7,8.2-26.7,22.51,0,12.32,10.7,19.68,21,19.68a16,16,0,0,0,13.15-6.93l1.78-2.53,0,3.09c-.1,11.4-.22,24.32-10.71,24.32-3.05,0-7.57-1.57-7.57-4.95a8.38,8.38,0,0,1,.3-2.3,5.72,5.72,0,0,0,.22-1.58C84.39,122.56,80.3,121.53,76.87,121.53Zm16.77-13.1c-4.71,0-8.4-4.7-8.4-10.71S88.92,87,93.64,87s8.51,4.8,8.51,10.71S98.33,108.43,93.64,108.43Zm0-19.49c-3.63,0-6.47,3.86-6.47,8.78s2.84,8.78,6.47,8.78,6.58-3.94,6.58-8.78S97.26,88.94,93.64,88.94Z"/><g class="cls-4"><path class="cls-5" d="M88.66,225.79h0l-.89,0a1.64,1.64,0,1,1,.07-3.28l.86,0a1.64,1.64,0,0,1,0,3.28Zm8.74-.22a1.64,1.64,0,0,1-.11-3.28l.86-.06a1.64,1.64,0,0,1,.24,3.27l-.89.06Zm-18.35-.32H78.9l-.88-.09a1.64,1.64,0,0,1,.34-3.26l.86.09a1.64,1.64,0,0,1-.15,3.27Zm27.9-.77a1.64,1.64,0,0,1-.26-3.26l.85-.14a1.64,1.64,0,1,1,.55,3.23l-.88.15Zm-37.43-.53-.3,0-.88-.17a1.64,1.64,0,0,1,.65-3.22l.84.16a1.64,1.64,0,0,1-.3,3.25Zm46.83-1.49a1.64,1.64,0,0,1-.43-3.23l.83-.23a1.64,1.64,0,1,1,.89,3.16l-.86.24A1.64,1.64,0,0,1,116.35,222.45Zm-56.17-.86a1.63,1.63,0,0,1-.5-.08l-.84-.27a1.64,1.64,0,0,1,1-3.12l.82.26a1.64,1.64,0,0,1-.5,3.2Zm65.3-2.13a1.64,1.64,0,0,1-.59-3.17l.8-.32a1.64,1.64,0,0,1,1.22,3l-.83.33A1.64,1.64,0,0,1,125.49,219.46Zm-74.32-1.25a1.64,1.64,0,0,1-.65-.13l-.82-.36a1.64,1.64,0,0,1,1.33-3l.79.34a1.64,1.64,0,0,1-.65,3.15Zm83.08-2.72a1.64,1.64,0,0,1-.76-3.1l.76-.4a1.64,1.64,0,1,1,1.54,2.9l-.79.42A1.63,1.63,0,0,1,134.25,215.49Zm-91.71-1.54a1.63,1.63,0,0,1-.79-.21l-.78-.44a1.64,1.64,0,0,1,1.62-2.85l.75.42a1.64,1.64,0,0,1-.8,3.08Zm100-3.36a1.64,1.64,0,0,1-.91-3l.71-.48a1.64,1.64,0,1,1,1.86,2.71l-.74.5A1.63,1.63,0,0,1,142.52,210.59ZM34.35,208.87a1.63,1.63,0,0,1-.93-.29l-.73-.51a1.64,1.64,0,0,1,1.88-2.69l.71.5a1.64,1.64,0,0,1-.94,3ZM90,206.19h-.91a1.64,1.64,0,0,1,0-3.28h.89a1.64,1.64,0,0,1,0,3.28Zm8.73-.32a1.64,1.64,0,0,1-.14-3.28l.86-.08a1.64,1.64,0,1,1,.31,3.27l-.88.08Zm-18.34-.28h-.18l-.88-.1a1.64,1.64,0,1,1,.38-3.26l.86.1a1.64,1.64,0,0,1-.18,3.27Zm69.76-.79a1.64,1.64,0,0,1-1.06-2.9l.65-.56a1.64,1.64,0,1,1,2.14,2.49l-.68.58A1.64,1.64,0,0,1,150.2,204.8Zm-41.91-.33a1.64,1.64,0,0,1-.33-3.25l.84-.18a1.64,1.64,0,0,1,.7,3.21l-.87.19A1.65,1.65,0,0,1,108.29,204.48ZM71,204a1.61,1.61,0,0,1-.38,0l-.88-.22a1.64,1.64,0,1,1,.82-3.18l.82.2A1.64,1.64,0,0,1,71,204Zm-44.24-1a1.63,1.63,0,0,1-1.07-.39L25,202a1.64,1.64,0,1,1,2.15-2.48l.65.56A1.64,1.64,0,0,1,26.72,203Zm90.84-1.08a1.64,1.64,0,0,1-.54-3.19l.81-.28a1.64,1.64,0,0,1,1.11,3.09l-.84.3A1.65,1.65,0,0,1,117.56,201.93Zm-55.79-.82a1.62,1.62,0,0,1-.6-.11l-.83-.33a1.64,1.64,0,1,1,1.22-3l.8.32a1.64,1.64,0,0,1-.6,3.17Zm95.45-2.87a1.64,1.64,0,0,1-1.18-2.78l.59-.62a1.64,1.64,0,1,1,2.39,2.25l-.62.65A1.64,1.64,0,0,1,157.23,198.24Zm-30.81,0a1.64,1.64,0,0,1-.74-3.11l.77-.39a1.64,1.64,0,0,1,1.5,2.92l-.79.4A1.64,1.64,0,0,1,126.42,198.19ZM53,197.08a1.63,1.63,0,0,1-.77-.19l-.78-.42A1.64,1.64,0,0,1,53,193.59l.76.41a1.64,1.64,0,0,1-.78,3.09Zm-33.27-.71a1.64,1.64,0,0,1-1.2-.52l-.61-.66A1.64,1.64,0,0,1,20.38,193l.57.62a1.64,1.64,0,0,1-1.2,2.76Zm114.95-3.06a1.64,1.64,0,0,1-.93-3l.7-.49a1.64,1.64,0,1,1,1.88,2.69l-.74.51A1.63,1.63,0,0,1,134.7,193.31Zm-89.89-1.26a1.63,1.63,0,0,1-.93-.29l-.74-.52a1.64,1.64,0,0,1,1.91-2.67l.69.49a1.64,1.64,0,0,1-.93,3ZM163.54,191a1.64,1.64,0,0,1-1.29-2.66l.53-.67a1.64,1.64,0,1,1,2.6,2l-.55.71A1.64,1.64,0,0,1,163.54,191Zm-149.9-2a1.64,1.64,0,0,1-1.33-.68l-.52-.74a1.64,1.64,0,0,1,2.69-1.88l.49.69a1.64,1.64,0,0,1-1.33,2.6ZM92,188.6h-.89a1.64,1.64,0,1,1,0-3.28H92A1.66,1.66,0,0,1,93.62,187,1.62,1.62,0,0,1,92,188.6Zm8.72-.54a1.64,1.64,0,0,1-.2-3.27l.84-.11a1.64,1.64,0,1,1,.46,3.25l-.89.12ZM82.4,188h-.2l-.89-.11a1.64,1.64,0,0,1,.43-3.25l.85.11A1.64,1.64,0,0,1,82.4,188Zm59.87-.63a1.64,1.64,0,0,1-1.1-2.86l.63-.57a1.64,1.64,0,1,1,2.22,2.42l-.66.6A1.63,1.63,0,0,1,142.27,187.38Zm-32.13-1.24a1.64,1.64,0,0,1-.45-3.22l.82-.24a1.64,1.64,0,0,1,.94,3.15l-.86.25A1.65,1.65,0,0,1,110.14,186.14Zm-37.17,0a1.64,1.64,0,0,1-.47-.07l-.86-.26a1.64,1.64,0,1,1,1-3.13l.81.25a1.64,1.64,0,0,1-.46,3.21Zm-35.7,0a1.63,1.63,0,0,1-1.1-.42l-.66-.6a1.64,1.64,0,0,1,2.23-2.41l.63.58a1.64,1.64,0,0,1-1.1,2.86Zm131.85-2.92a1.64,1.64,0,0,1-1.38-2.53l.46-.72a1.64,1.64,0,1,1,2.78,1.75l-.48.76A1.64,1.64,0,0,1,169.12,183.16Zm-50-.39a1.64,1.64,0,0,1-.7-3.12l.77-.37a1.64,1.64,0,0,1,1.44,2.95l-.81.39A1.63,1.63,0,0,1,119.14,182.77ZM64,182.67a1.64,1.64,0,0,1-.7-.16l-.8-.39a1.64,1.64,0,0,1,1.44-3l.77.37a1.64,1.64,0,0,1-.71,3.12ZM8.61,180.75a1.64,1.64,0,0,1-1.46-.9l-.4-.8a1.64,1.64,0,1,1,2.94-1.45l.38.76a1.64,1.64,0,0,1-1.46,2.39ZM149,180.53a1.64,1.64,0,0,1-1.24-2.72l.56-.65a1.64,1.64,0,1,1,2.49,2.13l-.58.67A1.64,1.64,0,0,1,149,180.53Zm-118.4-1.38a1.64,1.64,0,0,1-1.26-.59l-.57-.7a1.64,1.64,0,1,1,2.56-2.06l.54.66a1.64,1.64,0,0,1-1.26,2.69ZM127.46,178a1.64,1.64,0,0,1-.94-3l.7-.49a1.64,1.64,0,0,1,1.91,2.67l-.74.52A1.63,1.63,0,0,1,127.46,178Zm-71.85,0a1.63,1.63,0,0,1-.91-.28l-.74-.5a1.64,1.64,0,0,1,1.86-2.71l.71.48a1.64,1.64,0,0,1-.91,3ZM174,174.84a1.64,1.64,0,0,1-1.45-2.4l.4-.76a1.64,1.64,0,1,1,2.92,1.5l-.41.79A1.64,1.64,0,0,1,174,174.84Zm-19.1-1.93a1.64,1.64,0,0,1-1.35-2.56l.48-.71a1.64,1.64,0,0,1,2.74,1.81l-.5.74A1.64,1.64,0,0,1,154.87,172.91ZM48,172a1.63,1.63,0,0,1-1.11-.43l-.65-.61a1.64,1.64,0,0,1,2.25-2.39l.62.58A1.64,1.64,0,0,1,48,172Zm86.84-.14a1.64,1.64,0,0,1-1.14-2.82l.61-.6a1.64,1.64,0,1,1,2.31,2.33l-.64.62A1.64,1.64,0,0,1,134.89,171.86ZM5,171.86a1.64,1.64,0,0,1-1.57-1.16q-.13-.43-.26-.86a1.64,1.64,0,0,1,3.15-.91l.24.81A1.64,1.64,0,0,1,5,171.86Zm20.12-.58a1.64,1.64,0,0,1-1.42-.82l-.45-.79a1.64,1.64,0,1,1,2.87-1.59l.41.73a1.64,1.64,0,0,1-1.42,2.46Zm68.41-.47a1.64,1.64,0,0,1,0-3.28l.85,0A1.62,1.62,0,0,1,96,169.09a1.64,1.64,0,0,1-1.59,1.69l-.9,0Zm-8.72-.54h-.22l-.88-.12-.22,0-.22,0-.9-.15a1.64,1.64,0,0,1,.57-3.23l.82.14.21,0,.21,0L85,167a1.64,1.64,0,0,1-.22,3.27Zm18.27-.47a1.64,1.64,0,0,1-.33-3.25l.83-.18a1.64,1.64,0,1,1,.71,3.2l-.88.19A1.68,1.68,0,0,1,103.06,169.79Zm-28.83-2.3a1.65,1.65,0,0,1-.61-.12l-.84-.35a1.64,1.64,0,0,1,1.29-3l.78.32a1.64,1.64,0,0,1-.61,3.16Zm38-.58a1.64,1.64,0,0,1-.65-3.15l.76-.34a1.64,1.64,0,0,1,1.38,3l-.83.37A1.64,1.64,0,0,1,112.22,166.91Zm65.86-.76a1.64,1.64,0,0,1-1.51-2.28l.33-.8a1.64,1.64,0,1,1,3,1.26l-.34.82A1.64,1.64,0,0,1,178.08,166.14ZM41.57,164.89a1.63,1.63,0,0,1-1.31-.65l-.54-.73a1.64,1.64,0,1,1,2.66-1.93l.5.68a1.64,1.64,0,0,1-1.31,2.63Zm99.7-.22A1.64,1.64,0,0,1,140,162l.51-.68a1.64,1.64,0,0,1,2.64,2l-.54.72A1.64,1.64,0,0,1,141.27,164.67Zm18.57,0a1.64,1.64,0,0,1-1.45-2.41l.4-.76A1.64,1.64,0,0,1,161.7,163l-.41.79A1.64,1.64,0,0,1,159.84,164.67ZM65.7,163.05a1.63,1.63,0,0,1-.89-.27l-.75-.5a1.64,1.64,0,0,1,1.83-2.72l.71.47a1.64,1.64,0,0,1-.9,3Zm-44.55-.54a1.64,1.64,0,0,1-1.56-1.13l-.27-.86a1.64,1.64,0,0,1,3.14-1l.25.8a1.64,1.64,0,0,1-1,2.07A1.62,1.62,0,0,1,21.15,162.51ZM3,162.45A1.64,1.64,0,0,1,1.41,161q0-.45-.09-.9a1.64,1.64,0,0,1,1.5-1.77,1.66,1.66,0,0,1,1.77,1.5c0,.28.05.56.08.84a1.64,1.64,0,0,1-1.46,1.8Zm117.5-.32a1.64,1.64,0,0,1-1-3l.68-.5a1.64,1.64,0,1,1,2,2.62l-.72.54A1.63,1.63,0,0,1,120.54,162.13Zm60.92-5a1.64,1.64,0,0,1-1.56-2.16l.27-.82a1.64,1.64,0,0,1,3.12,1L183,156A1.64,1.64,0,0,1,181.47,157.14ZM58.2,157a1.63,1.63,0,0,1-1.16-.48l-.64-.65a1.64,1.64,0,0,1,2.36-2.28l.59.6A1.64,1.64,0,0,1,58.2,157Zm88.35-.4a1.64,1.64,0,0,1-1.43-2.45l.42-.75a1.64,1.64,0,0,1,2.88,1.58l-.43.78A1.64,1.64,0,0,1,146.55,156.64Zm-109.88,0a1.64,1.64,0,0,1-1.51-1l-.35-.83a1.64,1.64,0,1,1,3-1.26l.33.77a1.64,1.64,0,0,1-1.5,2.3ZM163.92,156a1.64,1.64,0,0,1-1.52-2.26l.32-.8a1.64,1.64,0,1,1,3,1.21l-.33.82A1.64,1.64,0,0,1,163.92,156Zm-36.26-.27a1.64,1.64,0,0,1-1.22-2.74l.56-.64a1.64,1.64,0,1,1,2.48,2.15l-.6.68A1.63,1.63,0,0,1,127.66,155.69ZM19.24,153.11a1.64,1.64,0,0,1-1.63-1.51c0-.3,0-.6-.06-.91a1.64,1.64,0,1,1,3.28-.18c0,.28,0,.56.06.84a1.64,1.64,0,0,1-1.51,1.76Zm-16.17-.26H2.88A1.64,1.64,0,0,1,1.44,151c0-.3.07-.6.11-.9a1.64,1.64,0,0,1,3.25.43q-.06.42-.1.84A1.64,1.64,0,0,1,3.07,152.85Zm49.22-3.38a1.64,1.64,0,0,1-1.42-.82l-.45-.81a1.64,1.64,0,1,1,2.89-1.55c.13.24.26.48.4.72a1.64,1.64,0,0,1-1.42,2.46Zm98.43-1.5a1.64,1.64,0,0,1-1.52-2.26l.32-.79a1.64,1.64,0,0,1,3.06,1.2l-.33.83A1.64,1.64,0,0,1,150.73,148Zm-17.36,0a1.64,1.64,0,0,1-1.4-2.49l.43-.73a1.64,1.64,0,1,1,2.84,1.65l-.46.78A1.64,1.64,0,0,1,133.37,148Zm50.79-.05a1.64,1.64,0,0,1-1.59-2l.21-.84a1.64,1.64,0,1,1,3.19.78l-.21.86A1.64,1.64,0,0,1,184.16,147.9ZM34,147.41A1.64,1.64,0,0,1,32.42,146q-.06-.46-.11-.91a1.64,1.64,0,0,1,3.26-.35c0,.28.06.55.1.83a1.64,1.64,0,0,1-1.41,1.84Zm133.08-.53a1.64,1.64,0,0,1-1.57-2.12l.25-.83a1.64,1.64,0,0,1,3.15.92l-.25.85A1.64,1.64,0,0,1,167.12,146.88ZM19.74,143.53l-.31,0a1.64,1.64,0,0,1-1.31-1.92c.06-.3.12-.6.18-.89a1.64,1.64,0,1,1,3.21.69q-.09.41-.16.82A1.64,1.64,0,0,1,19.74,143.53Zm-14.58-.06a1.64,1.64,0,0,1-1.56-2.16l.29-.86A1.64,1.64,0,0,1,7,141.55l-.27.8A1.64,1.64,0,0,1,5.17,143.47Zm43.78-3a1.64,1.64,0,0,1-1.61-1.36q-.08-.46-.14-.92a1.64,1.64,0,1,1,3.25-.45c0,.27.08.54.12.8a1.64,1.64,0,0,1-1.33,1.9Zm88.66-1.17a1.64,1.64,0,0,1-1.53-2.24l.31-.79a1.64,1.64,0,1,1,3.07,1.16l-.32.84A1.64,1.64,0,0,1,137.61,139.33Zm16.21-.46a1.64,1.64,0,0,1-1.58-2.08l.22-.83a1.64,1.64,0,1,1,3.17.84l-.24.86A1.64,1.64,0,0,1,153.83,138.86Zm32.35-.38-.29,0a1.64,1.64,0,0,1-1.33-1.9l.15-.85a1.64,1.64,0,1,1,3.23.55l-.15.87A1.64,1.64,0,0,1,186.17,138.49Zm-151.87-.65a1.66,1.66,0,0,1-.31,0,1.64,1.64,0,0,1-1.3-1.92q.09-.46.19-.91a1.64,1.64,0,0,1,3.2.72c-.06.27-.12.54-.17.81A1.64,1.64,0,0,1,34.31,137.83Zm135.19-.27a1.59,1.59,0,0,1-.34,0,1.64,1.64,0,0,1-1.27-1.94l.17-.84a1.64,1.64,0,1,1,3.22.64l-.18.87A1.64,1.64,0,0,1,169.49,137.56ZM9,134.66a1.64,1.64,0,0,1-1.39-2.52c.15-.23.33-.5.56-.81a1.64,1.64,0,0,1,2.66,1.93c-.18.24-.32.45-.44.63A1.64,1.64,0,0,1,9,134.66Zm13.63-.29a1.64,1.64,0,0,1-1.5-2.31l.38-.82a1.64,1.64,0,1,1,3,1.39l-.35.77A1.64,1.64,0,0,1,22.64,134.37ZM49.3,131a1.64,1.64,0,0,1-1.59-2q.12-.46.25-.91a1.64,1.64,0,1,1,3.15.94c-.08.26-.15.52-.21.78A1.64,1.64,0,0,1,49.3,131Zm91.16-.82a1.61,1.61,0,0,1-.37,0,1.64,1.64,0,0,1-1.23-2l.19-.84a1.64,1.64,0,1,1,3.21.7l-.19.87A1.64,1.64,0,0,1,140.45,130.14Zm15.45-.67-.27,0a1.64,1.64,0,0,1-1.35-1.89l.14-.85a1.64,1.64,0,0,1,3.24.51l-.14.88A1.64,1.64,0,0,1,155.9,129.47Zm31.63-.51h-.18a1.64,1.64,0,0,1-1.46-1.81l.09-.86a1.64,1.64,0,1,1,3.26.34l-.09.88A1.64,1.64,0,0,1,187.54,129Zm-150-.18A1.64,1.64,0,0,1,36,126.4l.32-.61c0-.08.1-.18.18-.3a1.64,1.64,0,0,1,2.77,1.76l0,.07-.29.57A1.64,1.64,0,0,1,37.49,128.78Zm133.57-1.54h-.2a1.64,1.64,0,0,1-1.43-1.83l.1-.86a1.64,1.64,0,0,1,3.26.37l-.1.88A1.64,1.64,0,0,1,171.06,127.24Zm-156.29-.32a1.64,1.64,0,0,1-1.36-2.55l.46-.7a1.64,1.64,0,0,1,2.77,1.76l-.5.76A1.64,1.64,0,0,1,14.77,126.92Zm13.12-.59a1.64,1.64,0,0,1-1.33-2.61l.5-.7a1.64,1.64,0,1,1,2.67,1.9l-.52.72A1.64,1.64,0,0,1,27.88,126.33Zm25.67-3.91a1.64,1.64,0,0,1-1.3-2.64l.5-.67A1.64,1.64,0,1,1,55.4,121l-.55.73A1.64,1.64,0,0,1,53.55,122.42Zm-10.64-1.59a1.64,1.64,0,0,1-1.5-2.31,3.5,3.5,0,0,0,.2-.55,1.64,1.64,0,0,1,3.18.8,6.5,6.5,0,0,1-.39,1.09A1.64,1.64,0,0,1,42.91,120.83Zm99.05-.19h-.15a1.64,1.64,0,0,1-1.48-1.79c0-.28.05-.56.07-.85a1.64,1.64,0,0,1,3.27.25c0,.3,0,.6-.07.9A1.64,1.64,0,0,1,142,120.64Zm15-.73h-.1a1.64,1.64,0,0,1-1.54-1.74l.05-.86a1.64,1.64,0,1,1,3.28.18l-.05.89A1.64,1.64,0,0,1,157,119.91Zm.18-10.54h-.1a1.64,1.64,0,0,1-1.54-1.74l.05-.86a1.64,1.64,0,0,1,3.28.18l-.05.89A1.64,1.64,0,0,1,157.17,109.37Zm31.09,10h-.07a1.64,1.64,0,0,1-1.57-1.71l0-.86a1.64,1.64,0,1,1,3.28.12l0,.88A1.64,1.64,0,0,1,188.26,119.36ZM172,116.17h-.07a1.64,1.64,0,0,1-1.57-1.71l0-.85a1.62,1.62,0,0,1,1.69-1.59,1.64,1.64,0,0,1,1.59,1.69l0,.89A1.64,1.64,0,0,1,172,116.17Zm-156.43,2a1.64,1.64,0,0,1-1.49-1l-.37-.81a1.64,1.64,0,1,1,3-1.36l.36.79a1.64,1.64,0,0,1-.8,2.18A1.62,1.62,0,0,1,15.59,118.17Zm14.15-.42a1.64,1.64,0,0,1-1.49-1l-.37-.81a1.64,1.64,0,0,1,3-1.36l.36.79a1.64,1.64,0,0,1-1.49,2.33Zm24.13-3.93a1.64,1.64,0,0,1-1.51-1L52,112a1.64,1.64,0,0,1,3-1.27l.34.79a1.64,1.64,0,0,1-1.51,2.29ZM40,111.92a1.64,1.64,0,0,1-1.52-1l-.34-.81a1.64,1.64,0,0,1,3-1.25l.33.81A1.64,1.64,0,0,1,40,111.92ZM142.21,111a1.64,1.64,0,0,1-1.64-1.59q0-.42,0-.85a1.64,1.64,0,0,1,1.56-1.72,1.62,1.62,0,0,1,1.72,1.56c0,.3,0,.6,0,.9a1.64,1.64,0,0,1-1.59,1.69Zm46.16-1.28a1.64,1.64,0,0,1-1.64-1.61l0-.86a1.64,1.64,0,0,1,1.6-1.68,1.61,1.61,0,0,1,1.68,1.6l0,.89a1.64,1.64,0,0,1-1.61,1.67Zm-176.63-.42a1.64,1.64,0,0,1-1.52-1l-.33-.81a1.64,1.64,0,1,1,3-1.23l.33.81a1.64,1.64,0,0,1-1.52,2.26Zm14.18-.43a1.64,1.64,0,0,1-1.52-1l-.33-.83a1.64,1.64,0,1,1,3.05-1.21l.32.8a1.64,1.64,0,0,1-1.52,2.26Zm24.52-4.08a1.64,1.64,0,0,1-1.56-1.14l-.27-.86a1.64,1.64,0,1,1,3.13-1l.26.82a1.64,1.64,0,0,1-1.06,2.07A1.66,1.66,0,0,1,50.44,104.82Zm137.69-1.08a1.64,1.64,0,0,1-1.64-1.54l-.05-.86a1.64,1.64,0,1,1,3.28-.22l.05.88a1.64,1.64,0,0,1-1.54,1.73Zm-151.51-.82a1.64,1.64,0,0,1-1.55-1.12l-.28-.85a1.64,1.64,0,1,1,3.12-1l.27.82a1.64,1.64,0,0,1-1.55,2.17Zm104.62-1.47a1.64,1.64,0,0,1-1.62-1.36c0-.28-.1-.56-.15-.84a1.64,1.64,0,1,1,3.23-.6c.05.29.11.59.16.89a1.64,1.64,0,0,1-1.34,1.89Zm-133-1.12a1.64,1.64,0,0,1-1.54-1.09l-.3-.83a1.64,1.64,0,1,1,3.09-1.1l.29.82a1.64,1.64,0,0,1-1.54,2.19Zm14.31-.48A1.64,1.64,0,0,1,21,98.74l-.28-.84a1.64,1.64,0,1,1,3.12-1l.27.82a1.64,1.64,0,0,1-1,2.08A1.62,1.62,0,0,1,22.57,99.85Zm133.75-.8a1.64,1.64,0,0,1-1.62-1.38l-.14-.85a1.64,1.64,0,1,1,3.23-.56l.15.88A1.64,1.64,0,0,1,156.59,99Zm14.45-2.95a1.64,1.64,0,0,1-1.62-1.41l-.13-.86a1.64,1.64,0,1,1,3.25-.48l.13.87A1.64,1.64,0,0,1,171,96.09Zm1.15,9.86a1.64,1.64,0,0,1-1.45-1.58l0-.87a1.64,1.64,0,0,1,3.28-.11l0,.88a1.64,1.64,0,0,1-1.59,1.69ZM48.32,95.43a1.64,1.64,0,0,1-1.63-1.51c0-.32,0-.63-.06-.94a1.64,1.64,0,0,1,1.57-1.71,1.6,1.6,0,0,1,1.71,1.57c0,.26,0,.54.05.81a1.64,1.64,0,0,1-1.5,1.77Zm138.92-1.28a1.64,1.64,0,0,1-1.62-1.43l-.11-.86a1.64,1.64,0,0,1,3.25-.43l.11.87a1.64,1.64,0,0,1-1.42,1.84ZM34.06,93.63a1.64,1.64,0,0,1-1.61-1.32q-.09-.44-.17-.89a1.64,1.64,0,1,1,3.23-.59c.05.28.1.55.16.83a1.64,1.64,0,0,1-1.29,1.93A1.68,1.68,0,0,1,34.06,93.63Zm104.87-1.51A1.64,1.64,0,0,1,137.36,91l-.27-.8a1.64,1.64,0,1,1,3.1-1.09l.29.86a1.64,1.64,0,0,1-1,2.07A1.62,1.62,0,0,1,138.92,92.11ZM5.27,91.17A1.64,1.64,0,0,1,3.69,90l-.25-.86a1.64,1.64,0,1,1,3.16-.89l.24.82a1.64,1.64,0,0,1-1.58,2.1Zm14.64-.58a1.64,1.64,0,0,1-1.6-1.26q-.1-.44-.2-.88a1.64,1.64,0,1,1,3.21-.7c.06.27.12.55.19.83a1.64,1.64,0,0,1-1.6,2Zm134-2.12a1.64,1.64,0,0,1-1.58-1.2l-.24-.83a1.64,1.64,0,0,1,3.15-.91l.24.85a1.64,1.64,0,0,1-1.58,2.09ZM169,86.65a1.64,1.64,0,0,1-1.6-1.27l-.2-.84a1.64,1.64,0,0,1,3.19-.77l.21.86a1.64,1.64,0,0,1-1.23,2A1.67,1.67,0,0,1,169,86.65ZM49.31,85.9a1.64,1.64,0,0,1-1.59-2.05q.12-.44.24-.88a1.64,1.64,0,1,1,3.16.9q-.12.4-.22.81A1.64,1.64,0,0,1,49.31,85.9Zm136.37-1.25a1.64,1.64,0,0,1-1.61-1.32l-.17-.85a1.64,1.64,0,0,1,3.21-.67l.18.87A1.64,1.64,0,0,1,186,84.62,1.69,1.69,0,0,1,185.69,84.65Zm-152.2-.6h-.15a1.64,1.64,0,0,1-1.49-1.78c0-.3.05-.6.08-.9a1.64,1.64,0,0,1,3.26.34q0,.42-.08.85A1.64,1.64,0,0,1,33.48,84.05Zm101.66-.77a1.64,1.64,0,0,1-1.45-.87l-.4-.74a1.64,1.64,0,1,1,2.87-1.6l.44.8a1.64,1.64,0,0,1-1.45,2.41ZM3,81.81a1.64,1.64,0,0,1-1.61-1.35l-.16-.88A1.64,1.64,0,0,1,4.46,79l.15.85a1.64,1.64,0,0,1-1.32,1.91Zm15.57-.75a1.64,1.64,0,0,1-1.64-1.61v-.93a1.64,1.64,0,0,1,1.64-1.61h0a1.64,1.64,0,0,1,1.61,1.67v.82a1.64,1.64,0,0,1-1.61,1.67Zm132.15-1.68a1.64,1.64,0,0,1-1.51-1l-.34-.79a1.64,1.64,0,1,1,3-1.3l.35.82a1.64,1.64,0,0,1-1.51,2.28Zm15.64-2a1.64,1.64,0,0,1-1.56-1.12l-.28-.81a1.64,1.64,0,0,1,3.1-1.08l.29.85a1.64,1.64,0,0,1-1,2.08A1.62,1.62,0,0,1,166.36,77.39ZM53.11,77.1a1.64,1.64,0,0,1-1.39-2.52l.5-.77a1.64,1.64,0,0,1,2.73,1.82l-.46.7A1.64,1.64,0,0,1,53.11,77.1Zm130.33-1.81a1.64,1.64,0,0,1-1.58-1.2l-.24-.83a1.64,1.64,0,0,1,3.15-.91l.24.85a1.64,1.64,0,0,1-1.58,2.09Zm-53.62,0a1.64,1.64,0,0,1-1.27-.6L128,74a1.64,1.64,0,0,1,2.49-2.13l.58.69a1.64,1.64,0,0,1-1.26,2.68Zm-94.5-.65a1.64,1.64,0,0,1-1.57-2.13c.09-.29.19-.58.28-.87a1.64,1.64,0,1,1,3.11,1l-.26.8A1.64,1.64,0,0,1,35.32,74.63ZM2.14,72.24H2.09A1.64,1.64,0,0,1,.5,70.54l0-.89a1.62,1.62,0,0,1,1.71-1.57A1.64,1.64,0,0,1,3.81,69.8l0,.85A1.64,1.64,0,0,1,2.14,72.24Zm17.31-.74-.29,0a1.64,1.64,0,0,1-1.33-1.9c.05-.3.11-.59.17-.89a1.64,1.64,0,0,1,3.22.64c-.05.27-.11.55-.16.83A1.64,1.64,0,0,1,19.45,71.5Zm127-.71A1.64,1.64,0,0,1,145,70l-.44-.73a1.64,1.64,0,1,1,2.8-1.71l.46.77a1.64,1.64,0,0,1-1.41,2.48Zm-87.06-1A1.64,1.64,0,0,1,58.28,67l.69-.59a1.64,1.64,0,1,1,2.1,2.52l-.63.54A1.63,1.63,0,0,1,59.36,69.83ZM123,68.56a1.63,1.63,0,0,1-1-.35l-.67-.51a1.64,1.64,0,0,1,2-2.63l.72.55a1.64,1.64,0,0,1-1,2.94Zm39.89-.13a1.64,1.64,0,0,1-1.5-1l-.36-.77a1.64,1.64,0,0,1,3-1.4l.38.82a1.64,1.64,0,0,1-1.49,2.32Zm17.63-2.3a1.64,1.64,0,0,1-1.54-1.07l-.3-.82a1.64,1.64,0,1,1,3.07-1.15l.31.83a1.64,1.64,0,0,1-1.54,2.21ZM39.26,65.87a1.64,1.64,0,0,1-1.41-2.49l.48-.77a1.64,1.64,0,1,1,2.78,1.75l-.44.71A1.64,1.64,0,0,1,39.26,65.87Zm28.07-1.41a1.64,1.64,0,0,1-.75-3.1l.82-.41a1.64,1.64,0,0,1,1.43,3l-.74.37A1.64,1.64,0,0,1,67.32,64.47Zm47.44-.92a1.64,1.64,0,0,1-.7-.16L113.3,63a1.64,1.64,0,1,1,1.34-3l.82.38a1.64,1.64,0,0,1-.7,3.13Zm26.17-.66a1.64,1.64,0,0,1-1.27-.6l-.54-.65a1.64,1.64,0,1,1,2.51-2.11l.57.69a1.64,1.64,0,0,1-1.27,2.68ZM3.11,62.67l-.28,0a1.64,1.64,0,0,1-1.33-1.9l.16-.88a1.64,1.64,0,0,1,3.23.6l-.15.84A1.64,1.64,0,0,1,3.11,62.67ZM22,62.24a1.62,1.62,0,0,1-.59-.11A1.64,1.64,0,0,1,20.48,60l.33-.84a1.64,1.64,0,0,1,3,1.22l-.31.79A1.64,1.64,0,0,1,22,62.24ZM76.28,61a1.64,1.64,0,0,1-.44-3.22l.88-.24a1.64,1.64,0,0,1,.83,3.17l-.81.22A1.63,1.63,0,0,1,76.28,61Zm29.43-.63a1.65,1.65,0,0,1-.4-.05l-.81-.2a1.64,1.64,0,0,1,.73-3.2l.89.21a1.64,1.64,0,0,1-.4,3.23Zm52.67-.45a1.64,1.64,0,0,1-1.41-.8l-.44-.73a1.64,1.64,0,1,1,2.79-1.73l.47.77a1.64,1.64,0,0,1-1.41,2.48Zm-72.66-.76a1.64,1.64,0,0,1-.18-3.27l.9-.1A1.64,1.64,0,0,1,86.74,59l-.84.09Zm10.49-.26h-.1l-.86,0a1.64,1.64,0,1,1,.17-3.28l.89.05a1.64,1.64,0,0,1-.1,3.28Zm-51.09-.62a1.64,1.64,0,0,1-1.18-2.78l.64-.65a1.64,1.64,0,1,1,2.31,2.33l-.59.6A1.63,1.63,0,0,1,45.11,58.27Zm131.65-1a1.64,1.64,0,0,1-1.49-.95l-.37-.77a1.64,1.64,0,0,1,3-1.43l.38.81a1.64,1.64,0,0,1-1.48,2.34ZM134.26,56a1.63,1.63,0,0,1-1.08-.41l-.64-.55a1.64,1.64,0,1,1,2.12-2.5l.68.59A1.64,1.64,0,0,1,134.26,56Zm-108-2.34a1.64,1.64,0,0,1-1.39-2.5l.48-.76a1.64,1.64,0,1,1,2.76,1.77l-.45.71A1.64,1.64,0,0,1,26.28,53.63ZM5.46,53.35A1.64,1.64,0,0,1,3.9,51.19l.29-.85a1.64,1.64,0,1,1,3.1,1.09L7,52.23A1.64,1.64,0,0,1,5.46,53.35Zm47-1.29a1.64,1.64,0,0,1-.93-3l.75-.51a1.64,1.64,0,0,1,1.81,2.74l-.7.47A1.63,1.63,0,0,1,52.45,52.07ZM153,52a1.64,1.64,0,0,1-1.3-.63l-.53-.67a1.64,1.64,0,0,1,2.57-2l.55.7A1.64,1.64,0,0,1,153,52Zm-26.43-1.7a1.63,1.63,0,0,1-.86-.24l-.73-.44a1.64,1.64,0,1,1,1.67-2.83l.77.46a1.64,1.64,0,0,1-.86,3Zm45.74-1.53a1.64,1.64,0,0,1-1.42-.81l-.44-.74a1.64,1.64,0,1,1,2.82-1.69l.45.76a1.64,1.64,0,0,1-1.41,2.47ZM60.82,47.33a1.64,1.64,0,0,1-.69-3.13l.82-.37a1.64,1.64,0,1,1,1.33,3l-.78.35A1.64,1.64,0,0,1,60.82,47.33ZM32.07,46a1.64,1.64,0,0,1-1.21-2.75l.61-.66a1.64,1.64,0,1,1,2.39,2.25l-.58.62A1.64,1.64,0,0,1,32.07,46Zm85.87,0a1.64,1.64,0,0,1-.62-.12l-.8-.32a1.64,1.64,0,1,1,1.2-3.05l.83.33a1.64,1.64,0,0,1-.62,3.16Zm28.64-1.18a1.63,1.63,0,0,1-1.15-.47l-.61-.6a1.64,1.64,0,1,1,2.28-2.36l.64.62a1.64,1.64,0,0,1-1.15,2.81ZM9.21,44.5a1.64,1.64,0,0,1-1.45-2.4l.42-.79a1.64,1.64,0,1,1,2.89,1.55l-.4.75A1.64,1.64,0,0,1,9.21,44.5ZM69.84,44a1.64,1.64,0,0,1-.46-3.22l.87-.24a1.64,1.64,0,0,1,.86,3.17l-.82.23A1.62,1.62,0,0,1,69.84,44Zm38.94-1a1.65,1.65,0,0,1-.39,0l-.83-.2a1.64,1.64,0,0,1,.73-3.2l.88.21a1.64,1.64,0,0,1-.39,3.23ZM79.24,41.94A1.64,1.64,0,0,1,79,38.67l.88-.13a1.64,1.64,0,1,1,.48,3.25l-.85.13Zm20.07-.57h-.17l-.85-.08A1.64,1.64,0,0,1,98.57,38l.9.09a1.64,1.64,0,0,1-.17,3.27ZM88.81,41a1.64,1.64,0,0,1-.06-3.28l.89,0h0a1.64,1.64,0,0,1,0,3.28l-.86,0ZM167,40.69a1.64,1.64,0,0,1-1.33-.67l-.51-.69a1.64,1.64,0,0,1,2.63-2l.53.71A1.64,1.64,0,0,1,167,40.69ZM39.12,39.43a1.64,1.64,0,0,1-1-2.93l.71-.55a1.64,1.64,0,0,1,2,2.61l-.68.52A1.63,1.63,0,0,1,39.12,39.43Zm100.18-.93a1.64,1.64,0,0,1-1-.33l-.69-.51A1.64,1.64,0,1,1,139.56,35l.72.53a1.64,1.64,0,0,1-1,3Zm-125-2.14A1.64,1.64,0,0,1,13,33.74l.54-.72a1.64,1.64,0,0,1,2.61,2l-.51.68A1.64,1.64,0,0,1,14.29,36.36Zm32.82-2.28A1.64,1.64,0,0,1,46.3,31l.78-.44a1.64,1.64,0,1,1,1.59,2.87l-.75.42A1.63,1.63,0,0,1,47.11,34.07Zm84.1-.79a1.64,1.64,0,0,1-.79-.2l-.76-.41a1.64,1.64,0,0,1,1.55-2.89l.78.42a1.64,1.64,0,0,1-.79,3.08Zm29.7-.05a1.63,1.63,0,0,1-1.22-.54l-.58-.63a1.64,1.64,0,1,1,2.4-2.23l.6.66a1.64,1.64,0,0,1-1.22,2.74ZM55.77,29.89a1.64,1.64,0,0,1-.62-3.16L56,26.4a1.64,1.64,0,0,1,1.2,3.05l-.8.32A1.64,1.64,0,0,1,55.77,29.89Zm66.72-.68a1.63,1.63,0,0,1-.6-.11l-.8-.31a1.64,1.64,0,1,1,1.16-3.07l.84.32a1.64,1.64,0,0,1-.6,3.17ZM20.56,29.06a1.64,1.64,0,0,1-1.16-2.8l.63-.63A1.64,1.64,0,0,1,22.33,28l-.61.61A1.64,1.64,0,0,1,20.56,29.06Zm44.33-2.24a1.64,1.64,0,0,1-.43-3.22l.86-.23a1.64,1.64,0,1,1,.83,3.17l-.83.22A1.61,1.61,0,0,1,64.89,26.82Zm89.19-.35a1.63,1.63,0,0,1-1.09-.41l-.65-.56A1.64,1.64,0,0,1,154.49,23l.67.59a1.64,1.64,0,0,1-1.09,2.87Zm-40.73-.24a1.64,1.64,0,0,1-.42-.05l-.83-.21a1.64,1.64,0,0,1,.79-3.18l.87.22a1.64,1.64,0,0,1-.41,3.23ZM74.29,24.76A1.64,1.64,0,0,1,74,21.5l.89-.15a1.64,1.64,0,1,1,.52,3.24l-.84.14Zm29.64-.44-.24,0-.85-.12a1.64,1.64,0,0,1,.44-3.25l.88.12a1.64,1.64,0,0,1-.23,3.26Zm-20.08-.71a1.64,1.64,0,0,1-.11-3.28l.89-.06a1.64,1.64,0,0,1,.2,3.28l-.86.06Zm10.5-.17h-.07l-.86,0a1.64,1.64,0,0,1,.1-3.28l.89,0a1.64,1.64,0,0,1-.07,3.28Zm-66.55-.73a1.64,1.64,0,0,1-1-2.94l.72-.54a1.64,1.64,0,1,1,2,2.63l-.68.51A1.63,1.63,0,0,1,27.79,22.71Zm118.73-2.18a1.63,1.63,0,0,1-.94-.29l-.71-.49A1.64,1.64,0,0,1,146.73,17l.73.51a1.64,1.64,0,0,1-.94,3ZM35.78,17.34A1.64,1.64,0,0,1,35,14.29l.77-.45a1.64,1.64,0,1,1,1.63,2.85l-.74.43A1.63,1.63,0,0,1,35.78,17.34Zm102.55-1.86a1.64,1.64,0,0,1-.78-.2l-.75-.4a1.64,1.64,0,0,1,1.53-2.9l.78.42a1.64,1.64,0,0,1-.78,3.09Zm-94-2.54a1.64,1.64,0,0,1-.67-3.14l.82-.36a1.64,1.64,0,0,1,1.31,3l-.79.35A1.64,1.64,0,0,1,44.34,12.95Zm85.29-1.57a1.65,1.65,0,0,1-.62-.12l-.79-.32a1.64,1.64,0,0,1,1.22-3l.83.33a1.64,1.64,0,0,1-.62,3.16ZM53.32,9.48a1.64,1.64,0,0,1-.52-3.2L53.65,6a1.64,1.64,0,0,1,1,3.13l-.81.26A1.65,1.65,0,0,1,53.32,9.48Zm67.24-1.31a1.62,1.62,0,0,1-.47-.07l-.83-.25a1.64,1.64,0,1,1,.93-3.15L121,5a1.64,1.64,0,0,1-.47,3.21Zm-58-1.28a1.64,1.64,0,0,1-.37-3.24l.86-.2a1.64,1.64,0,1,1,.72,3.2L63,6.86A1.61,1.61,0,0,1,62.59,6.9Zm48.64-1a1.64,1.64,0,0,1-.32,0L110,5.66a1.64,1.64,0,0,1,.63-3.22l.86.17a1.64,1.64,0,0,1-.32,3.25ZM72,5.1a1.64,1.64,0,0,1-.24-3.26l.88-.13A1.64,1.64,0,1,1,73.14,5l-.86.12Zm29.67-.68h-.18l-.86-.09A1.64,1.64,0,0,1,101,1l.88.09a1.64,1.64,0,0,1-.17,3.27Zm-20.1-.36A1.64,1.64,0,0,1,81.49.77l.89-.06A1.64,1.64,0,0,1,82.58,4L81.72,4ZM92.1,3.8h-.9a1.64,1.64,0,0,1-1.62-1.66A1.67,1.67,0,0,1,91.25.5l.89,0a1.64,1.64,0,0,1,0,3.28Z"/><path class="cls-5" d="M88.66,226.29l-.92,0a2.14,2.14,0,0,1,.09-4.28l.86,0a2.14,2.14,0,0,1,0,4.28Zm-.88-3.3a1.15,1.15,0,0,0-1.14,1.12,1.14,1.14,0,0,0,1.12,1.17l.88,0,0,.5v-.5a1.14,1.14,0,0,0,0-2.28l-.87,0Zm9.62,3.08a2.14,2.14,0,0,1-.14-4.28l.86-.06a2.09,2.09,0,0,1,1.55.5A2.14,2.14,0,0,1,98.44,226Zm.89-3.34H98.2l-.87.06a1.14,1.14,0,0,0,.07,2.28l1-.06a1.14,1.14,0,0,0,1.05-1.22A1.15,1.15,0,0,0,99,223,1.11,1.11,0,0,0,98.29,222.72Zm-19.23,3h-.21l-.88-.09a2.14,2.14,0,0,1,.43-4.26l.86.08a2.14,2.14,0,0,1-.2,4.27Zm-.87-3.37a1.14,1.14,0,0,0-.12,2.28l.88.09h.11a1.14,1.14,0,0,0,.11-2.28l-.86-.08ZM107,225a2.14,2.14,0,0,1-.34-4.25l.85-.14a2.14,2.14,0,0,1,.72,4.22l-.88.15A2,2,0,0,1,107,225Zm.87-3.43-.2,0-.85.14a1.14,1.14,0,0,0,.36,2.25l.88-.15a1.14,1.14,0,0,0,.93-1.32A1.13,1.13,0,0,0,107.83,221.55Zm-38.3,2.9a2.13,2.13,0,0,1-.4,0l-.89-.17a2.14,2.14,0,0,1,.84-4.2l.83.16a2.14,2.14,0,0,1-.39,4.25ZM68.66,221a1.14,1.14,0,0,0-.23,2.26l.87.17a1.14,1.14,0,1,0,.42-2.24l-.85-.16Zm47.69,2a2.14,2.14,0,0,1-.55-4.21l.82-.23a2.14,2.14,0,0,1,1.16,4.12l-.87.24A2.16,2.16,0,0,1,116.35,223Zm.85-3.51a1.13,1.13,0,0,0-.31,0l-.83.23a1.14,1.14,0,0,0-.81,1.4,1.16,1.16,0,0,0,1.4.81l.86-.24a1.14,1.14,0,0,0-.31-2.24Zm-57,2.65a2.1,2.1,0,0,1-.65-.1l-.84-.27A2.14,2.14,0,1,1,60,217.64l.82.27a2.14,2.14,0,0,1-.65,4.18Zm-.83-3.55a1.15,1.15,0,0,0-1.09.79,1.14,1.14,0,0,0,.73,1.44l.84.27a1.16,1.16,0,0,0,1.43-.74,1.14,1.14,0,0,0-.74-1.43l-.82-.27A1.15,1.15,0,0,0,59.36,218.54ZM125.49,220a2.14,2.14,0,0,1-.78-4.14l.8-.31a2.14,2.14,0,0,1,1.58,4l-.83.33A2.13,2.13,0,0,1,125.49,220Zm.81-3.6a1.13,1.13,0,0,0-.42.08l-.8.32a1.14,1.14,0,0,0-.65,1.48,1.17,1.17,0,0,0,1.48.65l.83-.33a1.14,1.14,0,0,0-.43-2.2Zm-75.13,2.35a2.13,2.13,0,0,1-.84-.17l-.82-.36a2.14,2.14,0,1,1,1.74-3.92l.78.34a2.14,2.14,0,0,1-.85,4.11Zm-.8-3.63a1.14,1.14,0,0,0-.46,2.18l.82.36a1.18,1.18,0,0,0,1.5-.6,1.14,1.14,0,0,0-.6-1.5l-.79-.35A1.14,1.14,0,0,0,50.37,215.08Zm83.88.92a2.14,2.14,0,0,1-1-4l.76-.4a2.14,2.14,0,0,1,2,3.78l-.79.42A2.15,2.15,0,0,1,134.25,216Zm.77-3.69a1.13,1.13,0,0,0-.54.14l-.76.4a1.14,1.14,0,0,0-.49,1.54,1.16,1.16,0,0,0,1.54.49l.79-.42a1.14,1.14,0,0,0-.54-2.15Zm-92.48,2.15a2.14,2.14,0,0,1-1-.27l-.78-.44A2.14,2.14,0,0,1,42.83,210l.75.42a2.14,2.14,0,0,1-1,4Zm-.76-3.71a1.14,1.14,0,0,0-.57,2.13l.78.44a1.17,1.17,0,0,0,1.55-.45,1.14,1.14,0,0,0-.44-1.55l-.75-.42A1.14,1.14,0,0,0,41.78,210.74Zm100.74.35a2.14,2.14,0,0,1-1.19-3.92l.71-.48a2.14,2.14,0,0,1,2.42,3.53l-.74.5A2.14,2.14,0,0,1,142.52,211.09Zm.72-3.77a1.14,1.14,0,0,0-.65.2l-.71.48a1.14,1.14,0,0,0-.31,1.58,1.17,1.17,0,0,0,1.58.31l.74-.5a1.14,1.14,0,0,0-.65-2.08ZM34.35,209.37a2.13,2.13,0,0,1-1.22-.38l-.73-.51A2.14,2.14,0,1,1,34.86,205l.71.5a2.14,2.14,0,0,1-1.22,3.9Zm-.72-3.78a1.14,1.14,0,0,0-.66,2.07l.73.5a1.17,1.17,0,0,0,1.59-.29,1.14,1.14,0,0,0-.29-1.59l-.71-.5A1.14,1.14,0,0,0,33.64,205.59ZM90,206.69h-.92a2.14,2.14,0,0,1,0-4.28h.9a2.14,2.14,0,0,1,0,4.28Zm-.85-3.3A1.15,1.15,0,0,0,88,204.51a1.14,1.14,0,0,0,1.12,1.17H90v0a1.14,1.14,0,0,0,0-2.28Zm9.58,3a2.14,2.14,0,0,1-.19-4.27l.86-.08a2.14,2.14,0,0,1,2.33,1.93,2.14,2.14,0,0,1-1.93,2.34l-.89.08Zm.88-3.36h-.11l-.86.08a1.14,1.14,0,0,0,.1,2.28l1-.08a1.14,1.14,0,0,0,.61-2A1.12,1.12,0,0,0,99.66,203Zm-19.22,3.08h-.23l-.89-.1a2.15,2.15,0,0,1-1.06-3.83,2.09,2.09,0,0,1,1.57-.42l.85.09a2.14,2.14,0,0,1-.23,4.27Zm-.89-3.38a1.1,1.1,0,0,0-.68.23,1.14,1.14,0,0,0-.44.78,1.14,1.14,0,0,0,1,1.27l.88.1h.13a1.14,1.14,0,0,0,.12-2.28l-.86-.1Zm70.65,2.6a2.14,2.14,0,0,1-1.38-3.78l.65-.55a2.14,2.14,0,0,1,3,.23,2.14,2.14,0,0,1-.23,3l-.68.58A2.15,2.15,0,0,1,150.2,205.3Zm.66-3.85a1.14,1.14,0,0,0-.74.28l-.65.56a1.14,1.14,0,0,0-.14,1.61,1.17,1.17,0,0,0,1.61.14l.68-.58a1.14,1.14,0,0,0-.75-2ZM108.29,205a2.14,2.14,0,0,1-.44-4.24l.84-.18a2.14,2.14,0,0,1,.91,4.18l-.87.19A2.18,2.18,0,0,1,108.29,205Zm.86-3.47-.25,0-.85.18a1.15,1.15,0,0,0-.89,1.35,1.18,1.18,0,0,0,1.35.88l.87-.19a1.14,1.14,0,0,0-.24-2.26Zm-38.2,3a2.07,2.07,0,0,1-.5-.06l-.88-.22a2.14,2.14,0,1,1,1.07-4.15l.81.2A2.14,2.14,0,0,1,71,204.5ZM70.1,201a1.14,1.14,0,0,0-.28,2.25l.87.21a1.16,1.16,0,0,0,1.37-.85,1.14,1.14,0,0,0-.85-1.37l-.83-.21A1.14,1.14,0,0,0,70.1,201Zm-43.39,2.5a2.14,2.14,0,0,1-1.39-.51l-.67-.58a2.14,2.14,0,0,1,1.25-3.75,2.17,2.17,0,0,1,1.55.52l.65.56a2.14,2.14,0,0,1-1.39,3.77Zm-.66-3.85H26a1.14,1.14,0,0,0-.67,2l.67.58a1.17,1.17,0,0,0,1.61-.13,1.14,1.14,0,0,0-.12-1.61l-.65-.56A1.13,1.13,0,0,0,26.06,199.66Zm91.5,2.77a2.14,2.14,0,0,1-.7-4.17l.8-.28a2.14,2.14,0,0,1,1.44,4l-.85.3A2.16,2.16,0,0,1,117.56,202.43Zm.82-3.57a1.14,1.14,0,0,0-.38.07l-.81.29a1.14,1.14,0,1,0,.74,2.16l.84-.29a1.14,1.14,0,0,0-.39-2.21Zm-56.61,2.75a2.11,2.11,0,0,1-.78-.15l-.83-.33a2.14,2.14,0,0,1,0-4,2.1,2.1,0,0,1,1.63,0l.79.31a2.14,2.14,0,0,1-.78,4.13ZM61,198a1.15,1.15,0,0,0-1.06.72,1.14,1.14,0,0,0,.63,1.48l.83.33a1.18,1.18,0,0,0,1.48-.65,1.14,1.14,0,0,0-.65-1.48l-.8-.32A1.13,1.13,0,0,0,61,198Zm96.27.73a2.14,2.14,0,0,1-1.54-3.63l.58-.61a2.14,2.14,0,1,1,3.12,2.93l-.62.65A2.12,2.12,0,0,1,157.23,198.74Zm.6-3.91a1.14,1.14,0,0,0-.83.36l-.59.62a1.14,1.14,0,0,0,0,1.61,1.17,1.17,0,0,0,1.61,0l.61-.64a1.14,1.14,0,0,0-.83-1.92Zm-31.41,3.87a2.14,2.14,0,0,1-1-4.05l.77-.39a2.14,2.14,0,0,1,2,3.81l-.79.4A2.16,2.16,0,0,1,126.42,198.69Zm.78-3.68a1.15,1.15,0,0,0-.52.13l-.77.39a1.14,1.14,0,0,0-.51,1.53,1.16,1.16,0,0,0,1.53.5l.79-.4a1.14,1.14,0,0,0-.53-2.15ZM53,197.58a2.16,2.16,0,0,1-1-.25l-.78-.42a2.14,2.14,0,1,1,2-3.76l.76.41a2.14,2.14,0,0,1-1,4Zm-.77-3.7a1.14,1.14,0,0,0-.55,2.14l.78.42A1.17,1.17,0,0,0,54,196a1.14,1.14,0,0,0-.47-1.54l-.76-.41A1.14,1.14,0,0,0,52.26,193.88Zm-32.5,3a2.15,2.15,0,0,1-1.56-.67l-.61-.67a2.14,2.14,0,1,1,3.17-2.88l.57.61a2.14,2.14,0,0,1-1.56,3.61ZM19.16,193a1.14,1.14,0,0,0-.84,1.91l.6.65a1.17,1.17,0,0,0,1.61,0,1.14,1.14,0,0,0,0-1.61l-.58-.63A1.14,1.14,0,0,0,19.16,193Zm115.54.86a2.14,2.14,0,0,1-1.21-3.91l.7-.48a2.14,2.14,0,0,1,2.46,3.51l-.75.52A2.13,2.13,0,0,1,134.7,193.81Zm.72-3.78a1.14,1.14,0,0,0-.65.21l-.71.49a1.14,1.14,0,0,0-.3,1.58,1.17,1.17,0,0,0,1.58.3l.73-.51a1.14,1.14,0,0,0-.66-2.08Zm-90.61,2.52a2.13,2.13,0,0,1-1.21-.38l-.75-.52a2.14,2.14,0,0,1,2.48-3.49l.69.49a2.14,2.14,0,0,1-1.22,3.9Zm-.71-3.79a1.14,1.14,0,0,0-.66,2.07l.73.51a1.17,1.17,0,0,0,1.59-.29,1.14,1.14,0,0,0-.29-1.59l-.7-.49A1.14,1.14,0,0,0,44.1,188.77Zm119.44,2.72a2.15,2.15,0,0,1-1.33-.46,2.14,2.14,0,0,1-.35-3l.52-.67a2.14,2.14,0,0,1,3.39,2.62l-.56.71A2.13,2.13,0,0,1,163.54,191.49Zm.54-4h-.15a1.14,1.14,0,0,0-.76.44l-.53.68a1.14,1.14,0,0,0,.19,1.6,1.17,1.17,0,0,0,1.6-.19l.55-.7a1.14,1.14,0,0,0-.9-1.84ZM13.64,189.45a2.15,2.15,0,0,1-1.74-.89l-.53-.74a2.14,2.14,0,0,1,3.51-2.45l.49.69a2.14,2.14,0,0,1-1.74,3.39Zm-.51-4a1.14,1.14,0,0,0-.93,1.79l.52.73a1.17,1.17,0,0,0,1.59.26,1.14,1.14,0,0,0,.26-1.59l-.5-.7A1.14,1.14,0,0,0,13.13,185.45ZM92,189.1h-.9a2.14,2.14,0,0,1,0-4.28H92A2.15,2.15,0,0,1,94.12,187,2.13,2.13,0,0,1,92,189.1Zm-.86-3.29a1.14,1.14,0,1,0,0,2.28H92A1.12,1.12,0,0,0,93.12,187,1.17,1.17,0,0,0,92,185.82Zm9.58,2.74a2.14,2.14,0,0,1-.26-4.27l.83-.11a2.14,2.14,0,0,1,2.42,1.82,2.14,2.14,0,0,1-1.82,2.42l-.9.12Zm.87-3.4h-.16l-.85.11a1.14,1.14,0,0,0-1,1.27,1.15,1.15,0,0,0,1.28,1l.88-.12a1.14,1.14,0,0,0-.16-2.27ZM82.4,188.51l-.26,0-.89-.11a2.14,2.14,0,0,1,.56-4.25l.84.11a2.14,2.14,0,0,1-.25,4.27Zm-.88-3.39a1.13,1.13,0,0,0-1.12,1,1.14,1.14,0,0,0,1,1.28l.88.11h.14a1.14,1.14,0,0,0,.13-2.27l-.85-.11Zm60.74,2.76a2.14,2.14,0,0,1-1.43-3.74l.63-.57a2.14,2.14,0,0,1,2.89,3.16l-.66.6A2.13,2.13,0,0,1,142.27,187.88Zm.64-3.87a1.14,1.14,0,0,0-.77.3l-.64.58a1.14,1.14,0,0,0-.09,1.61,1.17,1.17,0,0,0,1.61.09l.66-.6a1.14,1.14,0,0,0-.77-2Zm-32.77,2.63a2.15,2.15,0,0,1-2.06-1.55,2.14,2.14,0,0,1,1.47-2.64l.82-.24a2.11,2.11,0,0,1,1.62.17,2.14,2.14,0,0,1-.4,3.94l-.86.25A2.19,2.19,0,0,1,110.14,186.64Zm.84-3.53a1.15,1.15,0,0,0-.33,0l-.82.24a1.14,1.14,0,0,0-.69.54,1.13,1.13,0,0,0-.1.87,1.16,1.16,0,0,0,1.41.79l.85-.25a1.14,1.14,0,0,0-.32-2.24Zm-38,3.51a2.13,2.13,0,0,1-.61-.09l-.87-.26a2.14,2.14,0,0,1-.35-3.94,2.11,2.11,0,0,1,1.63-.14l.8.25A2.14,2.14,0,0,1,75,185.09,2.15,2.15,0,0,1,73,186.62Zm-.84-3.54a1.14,1.14,0,0,0-.33,2.23l.85.26a1.16,1.16,0,0,0,1.42-.77,1.14,1.14,0,0,0-.77-1.42l-.82-.25A1.15,1.15,0,0,0,72.13,183.08Zm-34.85,3.49a2.13,2.13,0,0,1-1.43-.55l-.67-.61a2.14,2.14,0,1,1,2.91-3.14l.62.57a2.14,2.14,0,0,1-1.43,3.73Zm-.64-3.87a1.14,1.14,0,0,0-.78,2l.66.6a1.17,1.17,0,0,0,1.61-.08,1.14,1.14,0,0,0-.08-1.61L37.4,183A1.14,1.14,0,0,0,36.63,182.7Zm132.49,1a2.14,2.14,0,0,1-1.8-3.3l.45-.71a2.14,2.14,0,1,1,3.63,2.28l-.49.76A2.13,2.13,0,0,1,169.12,183.66Zm.47-4a1.14,1.14,0,0,0-1,.53l-.46.72a1.14,1.14,0,0,0,.34,1.58,1.17,1.17,0,0,0,1.58-.34l.48-.75a1.14,1.14,0,0,0-1-1.75Zm-50.46,3.63a2.14,2.14,0,0,1-.92-4.08l.76-.37a2.14,2.14,0,1,1,1.88,3.84l-.81.39A2.11,2.11,0,0,1,119.14,183.27Zm.79-3.66a1.14,1.14,0,0,0-.5.12l-.77.37a1.14,1.14,0,0,0-.54,1.52,1.17,1.17,0,0,0,1.52.54l.8-.39a1.14,1.14,0,0,0-.13-2.1A1.15,1.15,0,0,0,119.93,179.6ZM64,183.17a2.13,2.13,0,0,1-.92-.21l-.81-.39a2.14,2.14,0,1,1,1.87-3.85l.77.37a2.14,2.14,0,0,1-.92,4.07Zm-.79-3.66a1.14,1.14,0,0,0-.5,2.17l.8.39a1.17,1.17,0,0,0,1.52-.54,1.14,1.14,0,0,0-.54-1.52l-.78-.37A1.15,1.15,0,0,0,63.2,179.51ZM8.61,181.25a2.13,2.13,0,0,1-1.91-1.17l-.41-.81a2.14,2.14,0,0,1,3.84-1.9l.38.76a2.14,2.14,0,0,1-1.91,3.11Zm-.4-4.06a1.15,1.15,0,0,0-1.08.78,1.13,1.13,0,0,0,.06.87l.4.8a1.16,1.16,0,0,0,1.53.5,1.14,1.14,0,0,0,.5-1.53l-.39-.77a1.13,1.13,0,0,0-.66-.57A1.14,1.14,0,0,0,8.22,177.19ZM149,181a2.14,2.14,0,0,1-1.62-3.54l.56-.65a2.12,2.12,0,0,1,1.46-.74,2.15,2.15,0,0,1,1.56.51,2.14,2.14,0,0,1,.24,3l-.58.67A2.14,2.14,0,0,1,149,181Zm.57-3.94h-.09a1.13,1.13,0,0,0-.78.4l-.56.65a1.14,1.14,0,0,0,.11,1.61,1.17,1.17,0,0,0,1.61-.11l.57-.67a1.14,1.14,0,0,0-.87-1.88Zm-119,2.57a2.13,2.13,0,0,1-1.65-.77l-.57-.7a2.14,2.14,0,1,1,3.33-2.69l.54.65a2.14,2.14,0,0,1-1.65,3.51Zm-.56-4a1.14,1.14,0,0,0-.89,1.86l.56.69a1.18,1.18,0,0,0,1.61.15,1.14,1.14,0,0,0,.15-1.61l-.54-.66a1.13,1.13,0,0,0-.77-.42Zm97.42,2.77a2.14,2.14,0,0,1-1.22-3.9l.69-.49a2.14,2.14,0,1,1,2.49,3.48l-.74.52A2.13,2.13,0,0,1,127.46,178.46Zm.71-3.79a1.13,1.13,0,0,0-.66.21l-.7.5a1.14,1.14,0,0,0-.29,1.59,1.17,1.17,0,0,0,1.59.29l.73-.51a1.14,1.14,0,0,0-.66-2.07Zm-72.56,3.76a2.14,2.14,0,0,1-1.19-.36l-.74-.5A2.14,2.14,0,1,1,56.1,174l.71.48a2.14,2.14,0,0,1-1.19,3.92Zm-.72-3.77a1.14,1.14,0,0,0-.65,2.08l.74.5a1.17,1.17,0,0,0,1.58-.31,1.14,1.14,0,0,0-.31-1.58l-.71-.48A1.14,1.14,0,0,0,54.89,174.66Zm119.07.69a2.14,2.14,0,0,1-1.89-3.14l.4-.76a2.14,2.14,0,0,1,3.81,2l-.41.79A2.14,2.14,0,0,1,174,175.34Zm.41-4.06a1.14,1.14,0,0,0-1,.62l-.4.77a1.14,1.14,0,0,0,.48,1.54,1.16,1.16,0,0,0,1.54-.48l.41-.79a1.14,1.14,0,0,0-1-1.66Zm-19.5,2.12a2.14,2.14,0,0,1-1.77-3.35l.47-.7a2.14,2.14,0,1,1,3.57,2.36l-.51.75A2.14,2.14,0,0,1,154.87,173.41Zm.49-4a1.14,1.14,0,0,0-1,.51l-.48.71a1.14,1.14,0,0,0,.3,1.58,1.17,1.17,0,0,0,1.59-.3l.5-.74a1.14,1.14,0,0,0-.32-1.58A1.13,1.13,0,0,0,155.36,169.4ZM48,172.5a2.13,2.13,0,0,1-1.45-.57l-.66-.61a2.15,2.15,0,0,1-.09-3,2.12,2.12,0,0,1,1.5-.67,2.07,2.07,0,0,1,1.53.58l.62.58a2.14,2.14,0,0,1,.12,3A2.15,2.15,0,0,1,48,172.5Zm-.64-3.88h0a1.14,1.14,0,0,0-.75,2l.65.6a1.17,1.17,0,0,0,1.61-.07,1.14,1.14,0,0,0-.07-1.61l-.63-.59A1.13,1.13,0,0,0,47.4,168.62Zm87.48,3.74a2.14,2.14,0,0,1-1.49-3.68l.6-.59a2.14,2.14,0,0,1,3,3l-.64.63A2.13,2.13,0,0,1,134.89,172.36Zm.62-3.89a1.14,1.14,0,0,0-.8.33l-.61.6a1.14,1.14,0,0,0,0,1.61,1.17,1.17,0,0,0,1.61,0l.63-.62a1.14,1.14,0,0,0-.8-2ZM5,172.36a2.13,2.13,0,0,1-2-1.51c-.09-.29-.18-.58-.26-.87a2.14,2.14,0,0,1,1.46-2.65,2.11,2.11,0,0,1,1.62.17,2.13,2.13,0,0,1,1,1.29l.24.8a2.14,2.14,0,0,1-2,2.77Zm-.24-4.12a1.14,1.14,0,0,0-1.1,1.46c.08.29.17.57.26.85a1.15,1.15,0,0,0,1.43.76,1.14,1.14,0,0,0,.75-1.43l-.24-.82a1.14,1.14,0,0,0-.55-.69A1.12,1.12,0,0,0,4.73,168.24Zm20.36,3.54a2.15,2.15,0,0,1-1.85-1.07l-.45-.8a2.14,2.14,0,1,1,3.75-2.07l.41.72a2.14,2.14,0,0,1-1.85,3.21Zm-.43-4a1.14,1.14,0,0,0-1,1.69l.44.78a1.17,1.17,0,0,0,1.56.41,1.14,1.14,0,0,0,.41-1.56l-.42-.74A1.14,1.14,0,0,0,24.66,167.73Zm68.87,3.57h0a2.14,2.14,0,0,1,0-4.28l.84,0a2,2,0,0,1,1.48.53,2.18,2.18,0,0,1,.72,1.55,2.14,2.14,0,0,1-2.08,2.2l-.91,0Zm.91-3.3h-.07l-.88,0a1.14,1.14,0,0,0,0,2.28h0l.88,0a1.14,1.14,0,0,0,1.11-1.17,1.17,1.17,0,0,0-.39-.84A1,1,0,0,0,94.44,168Zm-9.66,2.77-.29,0-.88-.12-.23,0-.23,0-.91-.15a2.14,2.14,0,1,1,.75-4.21l.81.13.21,0,.21,0,.84.12a2.14,2.14,0,0,1,1.83,2.41A2.15,2.15,0,0,1,84.78,170.77Zm-2.16-3.61a1.14,1.14,0,0,0-.2,2.26l.89.15h.15l.13,0,.16,0,.88.12a1.12,1.12,0,0,0,1.28-1,1.14,1.14,0,0,0-1-1.28l-.85-.12h-.15l-.13,0-.14,0-.84-.14Zm20.44,3.14a2.14,2.14,0,0,1-.43-4.24l.82-.18a2.14,2.14,0,1,1,.93,4.18l-.89.19A2.15,2.15,0,0,1,103.06,170.29Zm.85-3.46-.24,0-.83.18a1.14,1.14,0,1,0,.46,2.24l.87-.19a1.14,1.14,0,0,0-.26-2.25ZM74.23,168a2.15,2.15,0,0,1-.8-.15l-.85-.35a2.14,2.14,0,1,1,1.68-3.94l.77.32a2.14,2.14,0,0,1-.8,4.13Zm-.81-3.62a1.14,1.14,0,0,0-.45,2.19l.83.34a1.16,1.16,0,0,0,1.48-.63,1.14,1.14,0,0,0-.63-1.48l-.79-.33A1.13,1.13,0,0,0,73.42,164.37Zm38.79,3a2.14,2.14,0,0,1-.85-4.11l.75-.34a2.14,2.14,0,1,1,1.8,3.89l-.84.38A2.14,2.14,0,0,1,112.22,167.41Zm.79-3.64a1.13,1.13,0,0,0-.48.1l-.78.35a1.14,1.14,0,0,0-.59,1.5,1.16,1.16,0,0,0,1.5.59l.82-.37a1.14,1.14,0,0,0-.48-2.18Zm65.07,2.88a2.14,2.14,0,0,1-2-3l.33-.8a2.14,2.14,0,0,1,4,1.64l-.34.82A2.14,2.14,0,0,1,178.08,166.64Zm.34-4.09a1.15,1.15,0,0,0-1.06.7l-.33.8a1.14,1.14,0,0,0,.61,1.5,1.16,1.16,0,0,0,1.5-.61l.34-.82a1.14,1.14,0,0,0-1.05-1.58ZM41.57,165.39a2.12,2.12,0,0,1-1.71-.86l-.54-.73a2.14,2.14,0,1,1,3.47-2.51l.5.67a2.14,2.14,0,0,1-1.71,3.43Zm-.52-4a1.14,1.14,0,0,0-.92,1.81l.53.72a1.16,1.16,0,0,0,1.6.23,1.14,1.14,0,0,0,.23-1.6l-.51-.69a1.13,1.13,0,0,0-.74-.46Zm100.22,3.77a2.14,2.14,0,0,1-1.7-3.44l.51-.67a2.14,2.14,0,1,1,3.44,2.55l-.55.73A2.13,2.13,0,0,1,141.27,165.17Zm.53-4h-.17a1.13,1.13,0,0,0-.75.45l-.52.68a1.14,1.14,0,0,0,.21,1.6,1.16,1.16,0,0,0,1.6-.21l.54-.71a1.14,1.14,0,0,0-.91-1.82Zm18,4a2.14,2.14,0,0,1-1.89-3.14l.4-.76a2.14,2.14,0,0,1,3.8,2l-.41.79A2.14,2.14,0,0,1,159.84,165.17Zm.41-4.06a1.15,1.15,0,0,0-1,.61l-.4.76a1.15,1.15,0,0,0,.47,1.55,1.17,1.17,0,0,0,1.54-.47l.41-.78a1.14,1.14,0,0,0-1-1.67ZM65.7,163.55a2.13,2.13,0,0,1-1.17-.35l-.76-.5a2.14,2.14,0,0,1,2.39-3.55l.7.47a2.14,2.14,0,0,1-1.17,3.93ZM65,159.79a1.14,1.14,0,0,0-.64,2.09l.74.49a1.17,1.17,0,0,0,1.58-.33,1.14,1.14,0,0,0-.33-1.58l-.72-.47A1.14,1.14,0,0,0,65,159.79ZM21.15,163a2.14,2.14,0,0,1-2-1.47c-.1-.29-.19-.58-.28-.87a2.14,2.14,0,1,1,4.09-1.26c.08.26.16.53.25.79a2.14,2.14,0,0,1-2,2.81Zm-.27-4.11a1.14,1.14,0,0,0-1.09,1.48q.13.43.27.85a1.15,1.15,0,0,0,1.44.73,1.14,1.14,0,0,0,.73-1.44c-.09-.27-.17-.54-.26-.81A1.14,1.14,0,0,0,20.88,158.9ZM3,163A2.13,2.13,0,0,1,.92,161c0-.3-.06-.61-.09-.91a2.14,2.14,0,0,1,4.27-.36c0,.28,0,.56.08.83a2.14,2.14,0,0,1-1.91,2.35Zm-.1-4.15H2.86a1.14,1.14,0,0,0-1,1.23c0,.3.05.6.08.89a1.14,1.14,0,1,0,2.27-.24c0-.28-.06-.57-.08-.85A1.16,1.16,0,0,0,2.95,158.8Zm117.59,3.83a2.14,2.14,0,0,1-1.27-3.87l.67-.5a2.14,2.14,0,1,1,2.58,3.42l-.73.54A2.12,2.12,0,0,1,120.54,162.63Zm.7-3.8a1.13,1.13,0,0,0-.69.23l-.69.51a1.14,1.14,0,0,0-.25,1.59,1.17,1.17,0,0,0,1.59.25l.71-.53a1.14,1.14,0,0,0-.53-2Zm60.23-1.19a2.14,2.14,0,0,1-2-2.82l.27-.82a2.14,2.14,0,0,1,4.08,1.32l-.28.85A2.14,2.14,0,0,1,181.47,157.64Zm.28-4.11a1.15,1.15,0,0,0-1.09.79l-.27.82a1.14,1.14,0,0,0,.72,1.45,1.16,1.16,0,0,0,1.44-.72l.28-.84a1.14,1.14,0,0,0-1.08-1.49Zm-123.54,4a2.13,2.13,0,0,1-1.51-.62l-.65-.66a2.14,2.14,0,0,1,.06-3,2.15,2.15,0,0,1,3,.06l.58.59a2.14,2.14,0,0,1-1.51,3.66Zm-.61-3.9a1.14,1.14,0,0,0-.82,1.93l.63.64a1.17,1.17,0,0,0,1.61,0,1.14,1.14,0,0,0,0-1.61l-.6-.61A1.14,1.14,0,0,0,57.59,153.63Zm89,3.51a2.14,2.14,0,0,1-1.86-3.19l.41-.75a2.14,2.14,0,0,1,3.75,2.06l-.44.79A2.15,2.15,0,0,1,146.55,157.14Zm.43-4a1.14,1.14,0,0,0-.32,0,1.12,1.12,0,0,0-.68.55l-.42.75A1.14,1.14,0,0,0,146,156a1.17,1.17,0,0,0,1.55-.43l.43-.78a1.14,1.14,0,0,0-1-1.69Zm-110.3,4a2.14,2.14,0,0,1-2-1.28l-.36-.84a2.14,2.14,0,1,1,4-1.64l.33.77a2.14,2.14,0,0,1-2,3ZM36.34,153a1.14,1.14,0,0,0-1.05,1.58l.35.82a1.16,1.16,0,0,0,1.5.59,1.14,1.14,0,0,0,.59-1.5l-.33-.78a1.14,1.14,0,0,0-1.05-.71Zm127.58,3.42a2.14,2.14,0,0,1-2-2.95l.32-.8a2.14,2.14,0,0,1,4,1.58l-.33.83A2.14,2.14,0,0,1,163.92,156.46Zm.33-4.09a1.14,1.14,0,0,0-1.06.72l-.32.8a1.14,1.14,0,0,0,.63,1.49,1.17,1.17,0,0,0,1.49-.63l.33-.82a1.14,1.14,0,0,0-1.06-1.56Zm-36.59,3.83a2.14,2.14,0,0,1-1.59-3.57l.55-.63a2.14,2.14,0,0,1,3.24,2.8l-.61.69A2.14,2.14,0,0,1,127.66,156.19Zm.58-3.94a1.14,1.14,0,0,0-.86.39l-.57.64a1.14,1.14,0,0,0,.09,1.61,1.17,1.17,0,0,0,1.61-.09l.6-.67a1.14,1.14,0,0,0-.86-1.89Zm-109,1.36a2.15,2.15,0,0,1-2.13-2c0-.31,0-.61-.06-.92a2.15,2.15,0,0,1,2-2.26,2.18,2.18,0,0,1,2.26,2c0,.28,0,.55.05.83a2.14,2.14,0,0,1-2,2.3Zm-.08-4.15h0a1.14,1.14,0,0,0-1.07,1.2c0,.3,0,.6.06.9a1.14,1.14,0,0,0,1.13,1.05h.08a1.14,1.14,0,0,0,1.06-1.22c0-.28,0-.57-.06-.85A1.16,1.16,0,0,0,19.17,149.46ZM3.07,153.35H2.82A2.14,2.14,0,0,1,.94,151c0-.3.07-.6.11-.91a2.14,2.14,0,1,1,4.25.57q-.06.41-.1.83A2.14,2.14,0,0,1,3.07,153.35Zm.1-4.15a1.14,1.14,0,0,0-1.13,1c0,.29-.08.59-.11.89a1.14,1.14,0,0,0,1,1.26h.13a1.14,1.14,0,0,0,1.13-1c0-.28.07-.57.11-.85a1.14,1.14,0,0,0-1-1.28Zm49.12.77a2.15,2.15,0,0,1-1.85-1.07l-.46-.82a2.14,2.14,0,1,1,3.77-2c.13.24.26.47.4.71A2.14,2.14,0,0,1,52.29,150Zm-.43-4a1.14,1.14,0,0,0-1,1.68l.44.8a1.18,1.18,0,0,0,1.56.42,1.14,1.14,0,0,0,.42-1.56c-.14-.24-.28-.49-.41-.73A1.14,1.14,0,0,0,51.86,145.92Zm98.86,2.55a2.14,2.14,0,0,1-2-2.95l.32-.79a2.14,2.14,0,1,1,4,1.56l-.33.84A2.14,2.14,0,0,1,150.73,148.47Zm.33-4.09a1.14,1.14,0,0,0-.46.1,1.13,1.13,0,0,0-.6.63l-.32.8a1.14,1.14,0,0,0,.63,1.49,1.17,1.17,0,0,0,1.49-.63l.33-.83a1.14,1.14,0,0,0-1.06-1.56Zm-17.69,4.07a2.14,2.14,0,0,1-1.83-3.25l.43-.72a2.14,2.14,0,1,1,3.7,2.15l-.46.78A2.13,2.13,0,0,1,133.37,148.45Zm.45-4a1.15,1.15,0,0,0-1,.57l-.44.74a1.14,1.14,0,0,0,.39,1.57,1.17,1.17,0,0,0,1.57-.39l.45-.77a1.14,1.14,0,0,0-1-1.71Zm50.34,4a2.19,2.19,0,0,1-.53-.07,2.14,2.14,0,0,1-1.55-2.6l.21-.84a2.14,2.14,0,0,1,4.16,1l-.22.86A2.14,2.14,0,0,1,184.16,148.4Zm.21-4.13a1.14,1.14,0,0,0-1.11.87l-.21.84a1.14,1.14,0,1,0,2.21.56l.21-.86a1.14,1.14,0,0,0-.84-1.38A1.17,1.17,0,0,0,184.37,144.27ZM34,147.91a2.15,2.15,0,0,1-2.12-1.86c0-.31-.08-.62-.11-.93a2.14,2.14,0,0,1,1.9-2.35,2.09,2.09,0,0,1,1.56.45,2.13,2.13,0,0,1,.79,1.45c0,.27.06.54.1.82a2.15,2.15,0,0,1-1.84,2.4ZM34,143.76h-.13a1.14,1.14,0,0,0-1,1.25q0,.45.11.9a1.14,1.14,0,0,0,2.26-.3c0-.28-.07-.56-.1-.84a1.14,1.14,0,0,0-.43-.78A1.11,1.11,0,0,0,34,143.76Zm133.16,3.63a2.14,2.14,0,0,1-2-2.76l.24-.82a2.14,2.14,0,0,1,4.11,1.21l-.26.86A2.13,2.13,0,0,1,167.12,147.38Zm.25-4.12a1.15,1.15,0,0,0-1.1.82l-.25.83a1.14,1.14,0,0,0,.76,1.42,1.16,1.16,0,0,0,1.42-.76l.25-.85a1.14,1.14,0,0,0-1.09-1.46ZM19.74,144a2.14,2.14,0,0,1-2.11-2.54c.06-.3.12-.61.18-.91a2.14,2.14,0,0,1,4.19.9q-.08.4-.16.81A2.14,2.14,0,0,1,19.74,144Zm.17-4.14a1.14,1.14,0,0,0-1.11.9c-.06.29-.12.59-.18.88a1.14,1.14,0,0,0,2.24.43c.05-.28.11-.56.17-.83a1.14,1.14,0,0,0-.88-1.35ZM5.17,144a2.18,2.18,0,0,1-.67-.11,2.15,2.15,0,0,1-1.36-2.71l.3-.87a2.14,2.14,0,1,1,4,1.42l-.27.79A2.14,2.14,0,0,1,5.17,144Zm.29-4.11a1.15,1.15,0,0,0-1.08.76l-.29.85a1.14,1.14,0,0,0,.72,1.44,1.16,1.16,0,0,0,1.44-.72l.28-.81a1.14,1.14,0,0,0-.7-1.46A1.13,1.13,0,0,0,5.45,139.86ZM49,141a2.14,2.14,0,0,1-2.11-1.77q-.08-.47-.15-.94a2.14,2.14,0,1,1,4.24-.58c0,.26.08.52.12.78A2.15,2.15,0,0,1,49.32,141,2.06,2.06,0,0,1,49,141Zm-.15-4.14h-.14a1.14,1.14,0,0,0-1,1.29q.06.45.14.9a1.14,1.14,0,1,0,2.25-.39c0-.27-.09-.55-.13-.82A1.16,1.16,0,0,0,48.8,136.86Zm88.81,3a2.14,2.14,0,0,1-2-2.93l.27-.7a2.19,2.19,0,0,1,1.16-1.28,2.14,2.14,0,0,1,2.88,2.71l-.33.85A2.13,2.13,0,0,1,137.61,139.83Zm.32-4.1a1.14,1.14,0,0,0-.47.1,1.13,1.13,0,0,0-.6.63l-.31.8a1.14,1.14,0,0,0,.64,1.48,1.16,1.16,0,0,0,1.48-.64l.32-.83a1.14,1.14,0,0,0-1.06-1.54Zm15.9,3.64a2.14,2.14,0,0,1-2.06-2.71l.22-.82a2.14,2.14,0,0,1,4.14,1.1l-.24.87A2.15,2.15,0,0,1,153.83,139.36Zm.23-4.13a1.14,1.14,0,0,0-1.1.85l-.23.83a1.14,1.14,0,1,0,2.2.61l.23-.86a1.14,1.14,0,0,0-1.1-1.43ZM186.18,139a2.18,2.18,0,0,1-.38,0,2.14,2.14,0,0,1-1.73-2.48l.15-.85a2.14,2.14,0,0,1,4.22.72l-.15.88A2.14,2.14,0,0,1,186.18,139Zm.15-4.14a1.15,1.15,0,0,0-1.13.95l-.15.85a1.14,1.14,0,1,0,2.25.4l.15-.87a1.14,1.14,0,0,0-.93-1.32Zm-152,3.49a2.18,2.18,0,0,1-.41,0,2.14,2.14,0,0,1-1.69-2.51c.06-.31.12-.62.19-.92a2.14,2.14,0,1,1,4.18.94c-.06.26-.11.53-.17.79A2.14,2.14,0,0,1,34.31,138.33Zm.17-4.14a1.14,1.14,0,0,0-1.11.89q-.1.45-.19.89a1.14,1.14,0,0,0,2.24.43c.05-.28.11-.55.17-.82a1.14,1.14,0,0,0-.86-1.36Zm135,3.87a2.09,2.09,0,0,1-.44,0,2.14,2.14,0,0,1-1.65-2.53l.17-.84a2.14,2.14,0,0,1,4.2.84l-.18.88A2.15,2.15,0,0,1,169.49,138.06Zm.17-4.14a1.15,1.15,0,0,0-1.12.92l-.17.84a1.14,1.14,0,0,0,.88,1.35,1.17,1.17,0,0,0,1.35-.88l.18-.87a1.14,1.14,0,0,0-.9-1.34ZM9,135.16a2.14,2.14,0,0,1-1.81-3.29c.15-.24.34-.52.57-.83a2.14,2.14,0,1,1,3.47,2.52c-.17.23-.31.43-.42.61A2.13,2.13,0,0,1,9,135.16Zm.5-4a1.14,1.14,0,0,0-.93.47c-.21.3-.4.56-.54.78A1.14,1.14,0,0,0,8.4,134a1.17,1.17,0,0,0,1.57-.35c.12-.19.27-.41.46-.66a1.14,1.14,0,0,0-.92-1.81Zm13.13,3.72a2.14,2.14,0,0,1-2-3l.38-.83a2.14,2.14,0,1,1,3.88,1.81l-.35.76A2.14,2.14,0,0,1,22.64,134.87Zm.36-4.08a1.14,1.14,0,0,0-1,.66l-.37.82a1.14,1.14,0,0,0,.58,1.5,1.16,1.16,0,0,0,1.51-.58l.36-.78a1.14,1.14,0,0,0-.55-1.52A1.15,1.15,0,0,0,23,130.79Zm26.29.66a2.11,2.11,0,0,1-.53-.07,2.14,2.14,0,0,1-1.55-2.6q.12-.47.26-.93a2.14,2.14,0,1,1,4.1,1.22c-.08.25-.14.5-.21.76A2.14,2.14,0,0,1,49.3,131.46Zm.23-4.13a1.12,1.12,0,0,0-.54.14,1.13,1.13,0,0,0-.55.68q-.13.44-.24.89a1.14,1.14,0,0,0,.83,1.39,1.17,1.17,0,0,0,1.38-.83c.07-.27.14-.53.22-.8a1.15,1.15,0,0,0-1.1-1.47Zm90.93,3.31a2.17,2.17,0,0,1-.48-.05,2.14,2.14,0,0,1-1.61-2.57l.19-.83a2.14,2.14,0,0,1,4.18.91l-.2.88A2.13,2.13,0,0,1,140.45,130.64Zm.19-4.14a1.14,1.14,0,0,0-1.12.9l-.19.84a1.14,1.14,0,0,0,.86,1.37,1.17,1.17,0,0,0,1.37-.86l.19-.87a1.14,1.14,0,0,0-.87-1.35ZM155.9,130l-.35,0a2.14,2.14,0,0,1-1.76-2.46l.14-.84a2.14,2.14,0,0,1,4.23.66l-.14.88A2.13,2.13,0,0,1,155.9,130Zm.14-4.14a1.15,1.15,0,0,0-1.13,1l-.14.85a1.14,1.14,0,0,0,.94,1.32A1.16,1.16,0,0,0,157,128l.14-.88a1.14,1.14,0,0,0-1-1.3Zm31.49,3.63h-.23a2.14,2.14,0,0,1-1.9-2.36l.09-.86a2.14,2.14,0,1,1,4.26.44l-.09.88A2.14,2.14,0,0,1,187.54,129.46Zm.1-4.15a1.15,1.15,0,0,0-1.14,1l-.09.87a1.14,1.14,0,0,0,1,1.26h.12a1.14,1.14,0,0,0,1.13-1l.09-.88a1.14,1.14,0,0,0-1-1.25Zm-150.14,4a2.16,2.16,0,0,1-1-.23,2.14,2.14,0,0,1-.95-2.88l.32-.62c0-.08.11-.2.19-.33a2.14,2.14,0,0,1,3-.66,2.15,2.15,0,0,1,.66,3l-.31.59A2.13,2.13,0,0,1,37.49,129.28Zm.42-4.05-.25,0a1.13,1.13,0,0,0-.72.5c-.06.1-.12.19-.15.26l-.32.61a1.14,1.14,0,0,0,.5,1.53,1.17,1.17,0,0,0,1.53-.5l.3-.57.05-.09a1.15,1.15,0,0,0-.34-1.59A1.13,1.13,0,0,0,37.91,125.23Zm133.15,2.51h-.25a2.15,2.15,0,0,1-1.88-2.39l.1-.85a2.14,2.14,0,0,1,4.25.49l-.1.88A2.14,2.14,0,0,1,171.06,127.74Zm.09-4.15a1.12,1.12,0,0,0-.7.24,1.15,1.15,0,0,0-.42.77l-.1.86a1.15,1.15,0,0,0,1,1.27h.14a1.14,1.14,0,0,0,1.13-1l.1-.88a1.14,1.14,0,0,0-1-1.26ZM14.77,127.42A2.14,2.14,0,0,1,13,124.1l.45-.69a2.14,2.14,0,0,1,3.62,2.29l-.51.78A2.14,2.14,0,0,1,14.77,127.42Zm.48-4-.25,0a1.13,1.13,0,0,0-.71.5l-.46.71a1.14,1.14,0,0,0,.32,1.58,1.17,1.17,0,0,0,1.58-.32l.49-.76a1.14,1.14,0,0,0-.35-1.58A1.13,1.13,0,0,0,15.25,123.41Zm12.63,3.42a2.14,2.14,0,0,1-1.73-3.4l.5-.7a2.14,2.14,0,0,1,3.49,2.49l-.53.73A2.15,2.15,0,0,1,27.88,126.83Zm.51-4-.19,0a1.13,1.13,0,0,0-.74.46L27,124a1.14,1.14,0,0,0,.25,1.59,1.17,1.17,0,0,0,1.59-.25l.52-.72a1.14,1.14,0,0,0-.93-1.8Zm25.15.08a2.14,2.14,0,0,1-1.7-3.44l.49-.66a2.14,2.14,0,0,1,3.47,2.51l-.55.75A2.13,2.13,0,0,1,53.55,122.92Zm.53-4h-.18a1.13,1.13,0,0,0-.74.46l-.51.68a1.14,1.14,0,0,0,.21,1.6,1.16,1.16,0,0,0,1.6-.21l.54-.72a1.14,1.14,0,0,0-.92-1.81Zm-11.17,2.39a2.14,2.14,0,0,1-2-3,3.11,3.11,0,0,0,.17-.47,2.14,2.14,0,1,1,4.15,1,7,7,0,0,1-.42,1.18A2.14,2.14,0,0,1,42.91,121.33Zm.29-4.11a1.14,1.14,0,0,0-1.1.86,4,4,0,0,1-.23.63,1.14,1.14,0,0,0,.57,1.51,1.17,1.17,0,0,0,1.51-.57,6,6,0,0,0,.36-1,1.14,1.14,0,0,0-.83-1.39A1.17,1.17,0,0,0,43.2,117.22ZM142,121.14h-.19a2.15,2.15,0,0,1-1.94-2.33q0-.42.07-.84a2.17,2.17,0,0,1,.77-1.49,2.06,2.06,0,0,1,1.54-.48,2.14,2.14,0,0,1,2,2.3c0,.3,0,.6-.08.9A2.13,2.13,0,0,1,142,121.14Zm0-4.16a1.08,1.08,0,0,0-.7.25,1.17,1.17,0,0,0-.41.8c0,.29,0,.57-.07.86a1.14,1.14,0,0,0,1,1.24H142a1.13,1.13,0,0,0,1.13-1c0-.29.05-.59.07-.89a1.14,1.14,0,0,0-1-1.23Zm15,3.43h-.13a2.14,2.14,0,0,1-2-2.27l.05-.86a2.14,2.14,0,0,1,4.28.24l-.05.89A2.14,2.14,0,0,1,157,120.41Zm.07-4.16a1.16,1.16,0,0,0-1.16,1.08l-.05.86a1.14,1.14,0,0,0,1.07,1.21H157a1.14,1.14,0,0,0,1.14-1.07l.05-.88a1.14,1.14,0,0,0-1.08-1.2Zm31.2,3.61h-.11a2.14,2.14,0,0,1-2-2.23l0-.85a2.14,2.14,0,0,1,4.28.16l0,.89A2.14,2.14,0,0,1,188.26,119.86Zm0-4.15a1.12,1.12,0,0,0-.75.3,1.14,1.14,0,0,0-.38.8l0,.86a1.14,1.14,0,0,0,1.09,1.19l.05.5v-.5a1.14,1.14,0,0,0,1.14-1.09l0-.88a1.14,1.14,0,0,0-1.1-1.18Zm-172.69,3a2.15,2.15,0,0,1-1.94-1.24l-.37-.81a2.14,2.14,0,1,1,3.9-1.77l.36.79a2.14,2.14,0,0,1-1,2.84A2.11,2.11,0,0,1,15.59,118.67Zm-.37-4.08a1.14,1.14,0,0,0-1,1.61l.37.81a1.17,1.17,0,0,0,1.51.56,1.14,1.14,0,0,0,.56-1.51l-.36-.79A1.15,1.15,0,0,0,15.22,114.59Zm14.52,3.67A2.15,2.15,0,0,1,27.79,117l-.37-.81a2.14,2.14,0,1,1,3.9-1.77l.36.79a2.14,2.14,0,0,1-1.94,3Zm-.37-4.08a1.12,1.12,0,0,0-.47.1,1.14,1.14,0,0,0-.57,1.51l.37.8a1.16,1.16,0,0,0,1.51.56,1.14,1.14,0,0,0,.56-1.51l-.36-.79a1.14,1.14,0,0,0-.64-.6A1.15,1.15,0,0,0,29.37,114.17ZM172,116.67h-.09a2.15,2.15,0,0,1-2-2.24l0-.85a2.17,2.17,0,0,1,.7-1.52,2,2,0,0,1,1.52-.54,2.14,2.14,0,0,1,2.06,2.21l0,.89A2.14,2.14,0,0,1,172,116.67Zm0-4.15a1.08,1.08,0,0,0-.74.28,1.17,1.17,0,0,0-.37.82l0,.86a1.14,1.14,0,0,0,1.09,1.19l.05.5v-.5a1.14,1.14,0,0,0,1.14-1.09l0-.89a1.14,1.14,0,0,0-1.1-1.17ZM53.87,114.32a2.14,2.14,0,0,1-2-1.29l-.35-.82a2.14,2.14,0,1,1,3.95-1.66l.33.79a2.14,2.14,0,0,1-1.12,2.81A2.09,2.09,0,0,1,53.87,114.32Zm-.35-4.09a1.14,1.14,0,0,0-1.05,1.58l.35.82a1.17,1.17,0,0,0,1.5.59,1.14,1.14,0,0,0,.6-1.5l-.34-.79A1.15,1.15,0,0,0,53.52,110.24ZM40,112.42a2.14,2.14,0,0,1-2-1.32l-.34-.81a2.14,2.14,0,1,1,4-1.63l.33.81a2.14,2.14,0,0,1-2,3Zm-.34-4.09a1.14,1.14,0,0,0-1.05,1.58l.34.81a1.17,1.17,0,0,0,1.49.62,1.14,1.14,0,0,0,.62-1.49l-.33-.81A1.14,1.14,0,0,0,39.7,108.33Zm102.51,3.19a2.13,2.13,0,0,1-2.14-2.07l0-.84a2.14,2.14,0,0,1,4.28-.2c0,.3,0,.6,0,.9a2.14,2.14,0,0,1-2.07,2.21Zm0-4.16h-.06a1.14,1.14,0,0,0-1.08,1.19l0,.86a1.14,1.14,0,0,0,1.14,1.1v.5l0-.5a1.15,1.15,0,0,0,.82-.36,1.13,1.13,0,0,0,.31-.82c0-.29,0-.59,0-.89A1.11,1.11,0,0,0,142.19,107.36Zm46.22,2.88h0a2.15,2.15,0,0,1-2.14-2.1l0-.86a2.14,2.14,0,0,1,2.09-2.19,2,2,0,0,1,1.49.54,2.19,2.19,0,0,1,.7,1.55l0,.89a2.15,2.15,0,0,1-2.1,2.18Zm0-4.16h-.07a1.15,1.15,0,0,0-1.13,1.17l0,.86a1.15,1.15,0,0,0,1.14,1.12h0a1.14,1.14,0,0,0,1.11-1.16l0-.88a1.18,1.18,0,0,0-.38-.83A1,1,0,0,0,188.41,106.08Zm-31.24,3.79H157a2.14,2.14,0,0,1-2-2.27l.05-.86a2.19,2.19,0,0,1,2.25-2,2.15,2.15,0,0,1,2,2.25l-.05.89A2.14,2.14,0,0,1,157.17,109.87Zm.07-4.15a1.16,1.16,0,0,0-1.16,1.08l-.05.86a1.14,1.14,0,0,0,1.07,1.21h.07a1.14,1.14,0,0,0,1.14-1.07l.05-.88a1.14,1.14,0,0,0-1.08-1.2Zm-145.5,4.11a2.13,2.13,0,0,1-2-1.33l-.33-.81a2.14,2.14,0,1,1,4-1.61l.33.81a2.14,2.14,0,0,1-2,2.95Zm-.33-4.09a1.14,1.14,0,0,0-1.06,1.57l.33.81a1.16,1.16,0,0,0,1.49.63,1.14,1.14,0,0,0,.63-1.49l-.33-.81a1.14,1.14,0,0,0-1.06-.71Zm14.51,3.67a2.13,2.13,0,0,1-2-1.33l-.33-.83a2.14,2.14,0,0,1,1.2-2.78,2.15,2.15,0,0,1,2.78,1.2l.32.8a2.14,2.14,0,0,1-1.18,2.79A2.11,2.11,0,0,1,25.92,109.39Zm-.33-4.09a1.14,1.14,0,0,0-.42.08,1.14,1.14,0,0,0-.64,1.48l.33.83a1.16,1.16,0,0,0,1.48.63,1.14,1.14,0,0,0,.63-1.49l-.32-.8A1.15,1.15,0,0,0,25.59,105.3Zm146.52,1.18h-.24a2.15,2.15,0,0,1-1.9-2.06l0-.87a2.14,2.14,0,1,1,4.28-.14l0,.88a2.14,2.14,0,0,1-2.07,2.21Zm0-4.16h0a1.14,1.14,0,0,0-1.1,1.18l0,.87a1.14,1.14,0,0,0,1,1.1h.16a1.14,1.14,0,0,0,1.11-1.18l0-.88A1.14,1.14,0,0,0,172.09,102.32Zm-121.64,3a2.13,2.13,0,0,1-2-1.48l-.27-.86a2.14,2.14,0,1,1,4.09-1.26l.26.81a2.14,2.14,0,0,1-2,2.8Zm-.26-4.12a1.14,1.14,0,0,0-1.09,1.48l.27.85a1.14,1.14,0,1,0,2.17-.7l-.26-.82a1.14,1.14,0,0,0-1.09-.81Zm138,3a2.14,2.14,0,0,1-2.14-2l-.05-.86a2.14,2.14,0,0,1,4.27-.28l.05.89a2.14,2.14,0,0,1-2,2.26Zm-.06-4.15H188a1.14,1.14,0,0,0-1.06,1.21l.05.86a1.14,1.14,0,0,0,1.14,1.08v.5l.07-.5a1.14,1.14,0,0,0,1.07-1.21l-.05-.88A1.16,1.16,0,0,0,188.07,100.08ZM36.62,103.41a2.14,2.14,0,0,1-2-1.46l-.28-.85a2.14,2.14,0,1,1,4.07-1.33l.27.81a2.14,2.14,0,0,1-2,2.82Zm-.28-4.12a1.14,1.14,0,0,0-1.09,1.5l.28.85a1.17,1.17,0,0,0,1.44.71,1.14,1.14,0,0,0,.72-1.45l-.27-.82a1.14,1.14,0,0,0-.57-.67A1.13,1.13,0,0,0,36.35,99.3Zm104.89,2.65a2.13,2.13,0,0,1-2.11-1.78c0-.28-.1-.55-.15-.83a2.14,2.14,0,0,1,1.71-2.5,2.14,2.14,0,0,1,2.5,1.71q.08.45.16.89a2.14,2.14,0,0,1-1.75,2.47A2.2,2.2,0,0,1,141.24,101.95Zm-.15-4.14-.21,0a1.14,1.14,0,0,0-.91,1.33c.05.28.1.56.15.84a1.14,1.14,0,0,0,1.32.93,1.14,1.14,0,0,0,.93-1.32c-.05-.29-.1-.59-.16-.88a1.15,1.15,0,0,0-1.12-.93Zm-132.82,3a2.15,2.15,0,0,1-2-1.42L6,98.59a2.14,2.14,0,1,1,4-1.44l.29.82A2.14,2.14,0,0,1,9,100.71,2.17,2.17,0,0,1,8.27,100.83ZM8,96.72A1.14,1.14,0,0,0,6.9,98.25l.3.83a1.16,1.16,0,0,0,1.46.69,1.14,1.14,0,0,0,.69-1.46L9,97.48a1.14,1.14,0,0,0-.59-.65A1.13,1.13,0,0,0,8,96.72Zm14.6,3.63a2.14,2.14,0,0,1-2-1.46L20.26,98a2.14,2.14,0,1,1,4.07-1.33l.27.82a2.14,2.14,0,0,1-1.35,2.71A2.08,2.08,0,0,1,22.57,100.35Zm-.27-4.12a1.11,1.11,0,0,0-.35.06,1.14,1.14,0,0,0-.73,1.44l.28.84a1.17,1.17,0,0,0,1.44.72,1.14,1.14,0,0,0,.72-1.45L23.38,97a1.14,1.14,0,0,0-.57-.67A1.12,1.12,0,0,0,22.3,96.24Zm134,3.32a2.13,2.13,0,0,1-2.11-1.8l-.14-.84a2.14,2.14,0,0,1,1.74-2.47,2.1,2.1,0,0,1,1.59.35,2.13,2.13,0,0,1,.88,1.39l.15.88a2.14,2.14,0,0,1-1.77,2.46A2.1,2.1,0,0,1,156.33,99.56Zm-.14-4.15-.2,0a1.14,1.14,0,0,0-.93,1.32l.14.85a1.14,1.14,0,1,0,2.25-.36l-.15-.88a1.14,1.14,0,0,0-1.12-.94Zm14.59,1.2a2.15,2.15,0,0,1-2.12-1.83l-.13-.86a2.14,2.14,0,1,1,4.24-.63l.13.87a2.14,2.14,0,0,1-1.81,2.43Zm-.12-4.15h-.17a1.14,1.14,0,0,0-1,1.3l.13.86a1.14,1.14,0,1,0,2.26-.32l-.13-.87A1.14,1.14,0,0,0,170.65,92.46ZM48.32,95.93a2.15,2.15,0,0,1-2.13-2c0-.33,0-.64-.06-1a2.14,2.14,0,0,1,2-2.23,2,2,0,0,1,1.5.5,2.19,2.19,0,0,1,.73,1.54c0,.26,0,.52.05.79a2.14,2.14,0,0,1-2,2.31Zm0-4.16h-.09a1.15,1.15,0,0,0-.81.37,1.13,1.13,0,0,0-.3.82c0,.3,0,.61.06.92a1.15,1.15,0,0,0,1.13,1h.11a1.14,1.14,0,0,0,1-1.23c0-.28,0-.56-.05-.83A1.18,1.18,0,0,0,49,92,1,1,0,0,0,48.32,91.77Zm138.92,2.88a2.15,2.15,0,0,1-2.12-1.87l-.11-.86a2.14,2.14,0,0,1,4.25-.56l.11.88a2.14,2.14,0,0,1-1.85,2.4Zm-.11-4.15H187a1.14,1.14,0,0,0-1,1.28l.11.86a1.14,1.14,0,1,0,2.26-.29l-.11-.87A1.15,1.15,0,0,0,187.13,90.5ZM34.06,94.13A2.15,2.15,0,0,1,32,92.41c-.06-.3-.12-.6-.17-.89A2.14,2.14,0,0,1,33.51,89,2.15,2.15,0,0,1,36,90.74c0,.27.1.55.16.83a2.14,2.14,0,0,1-1.68,2.52A2.17,2.17,0,0,1,34.06,94.13ZM33.89,90l-.21,0a1.14,1.14,0,0,0-.92,1.33c.05.29.11.58.17.88a1.15,1.15,0,0,0,1.34.9,1.14,1.14,0,0,0,.89-1.34c-.06-.28-.11-.56-.16-.84A1.14,1.14,0,0,0,33.89,90Zm105,2.63a2.14,2.14,0,0,1-2-1.47l-.27-.79a2.14,2.14,0,1,1,4-1.42l.29.87a2.14,2.14,0,0,1-1.37,2.7A2.1,2.1,0,0,1,138.92,92.61Zm-.28-4.11A1.14,1.14,0,0,0,137.56,90l.27.8a1.16,1.16,0,0,0,1.44.73,1.14,1.14,0,0,0,.73-1.44l-.29-.85a1.14,1.14,0,0,0-1.08-.76ZM5.27,91.67a2.15,2.15,0,0,1-2.05-1.54L3,89.28a2.14,2.14,0,1,1,4.12-1.16l.24.82a2.14,2.14,0,0,1-2.06,2.74ZM5,87.55a1.15,1.15,0,0,0-.31,0A1.14,1.14,0,0,0,3.93,89l.25.85a1.17,1.17,0,0,0,1.42.77,1.14,1.14,0,0,0,.77-1.42l-.24-.82A1.14,1.14,0,0,0,5,87.55Zm14.88,3.54a2.13,2.13,0,0,1-2.08-1.65c-.07-.3-.14-.59-.2-.89A2.15,2.15,0,0,1,19.26,86a2.14,2.14,0,0,1,2.55,1.64c.06.27.12.55.19.82a2.14,2.14,0,0,1-2.08,2.63ZM19.72,87l-.25,0a1.14,1.14,0,0,0-.87,1.36q.1.44.2.87a1.16,1.16,0,0,0,1.37.85A1.14,1.14,0,0,0,21,88.69c-.07-.28-.13-.56-.19-.83a1.14,1.14,0,0,0-.5-.72A1.13,1.13,0,0,0,19.72,87Zm134.16,2a2.15,2.15,0,0,1-2.06-1.56l-.24-.83a2.14,2.14,0,0,1,4.12-1.19l.24.86A2.14,2.14,0,0,1,153.88,89Zm-.24-4.13a1.15,1.15,0,0,0-1.1,1.46l.24.83a1.17,1.17,0,0,0,1.41.79,1.14,1.14,0,0,0,.79-1.41l-.24-.85a1.15,1.15,0,0,0-1.1-.82ZM169,87.15a2.13,2.13,0,0,1-2.08-1.65l-.2-.84a2.14,2.14,0,0,1,4.16-1l.21.86A2.14,2.14,0,0,1,169,87.15Zm-.2-4.13a1.14,1.14,0,0,0-1.11,1.41l.2.84a1.14,1.14,0,1,0,2.22-.52l-.21-.86A1.14,1.14,0,0,0,168.79,83ZM49.31,86.4a2.14,2.14,0,0,1-2.07-2.68q.12-.45.24-.89A2.14,2.14,0,1,1,51.6,84c-.08.26-.15.53-.22.79A2.14,2.14,0,0,1,49.31,86.4Zm.23-4.12a1.15,1.15,0,0,0-1.1.83q-.12.43-.24.87A1.14,1.14,0,0,0,49,85.36a1.16,1.16,0,0,0,1.39-.82c.07-.27.15-.55.22-.82a1.14,1.14,0,0,0-.78-1.41A1.17,1.17,0,0,0,49.55,82.28Zm136.14,2.87a2.15,2.15,0,0,1-2.1-1.72l-.17-.84a2.14,2.14,0,1,1,4.19-.88l.18.87a2.15,2.15,0,0,1-1.68,2.52A2.3,2.3,0,0,1,185.69,85.15ZM185.52,81l-.24,0a1.14,1.14,0,0,0-.89,1.35l.17.85a1.16,1.16,0,0,0,1.35.89,1.14,1.14,0,0,0,.89-1.34l-.18-.87a1.14,1.14,0,0,0-.5-.72A1.12,1.12,0,0,0,185.52,81Zm-152,3.54h-.2a2.14,2.14,0,0,1-1.94-2.32c0-.3.05-.61.08-.9a2.14,2.14,0,1,1,4.26.44c0,.28-.05.56-.08.84A2.15,2.15,0,0,1,33.48,84.55Zm.09-4.15a1.15,1.15,0,0,0-1.15,1c0,.29-.06.59-.08.89a1.14,1.14,0,0,0,1,1.24h.1a1.15,1.15,0,0,0,1.13-1q0-.43.08-.85a1.14,1.14,0,0,0-1-1.25Zm101.57,3.38a2.14,2.14,0,0,1-1.89-1.14l-.4-.73a2.14,2.14,0,0,1,.82-2.91,2.15,2.15,0,0,1,2.91.83l.44.81a2.14,2.14,0,0,1-.89,2.9A2.15,2.15,0,0,1,135.15,83.78Zm-.42-4a1.14,1.14,0,0,0-1,1.7l.41.75a1.16,1.16,0,0,0,1.54.47,1.14,1.14,0,0,0,.47-1.54l-.43-.79A1.14,1.14,0,0,0,134.72,79.73ZM3,82.31a2.14,2.14,0,0,1-2.1-1.76l-.16-.88A2.14,2.14,0,1,1,5,78.95l.15.84a2.14,2.14,0,0,1-1.72,2.49A2.24,2.24,0,0,1,3,82.31Zm-.15-4.14-.19,0a1.14,1.14,0,0,0-.93,1.32l.16.88a1.14,1.14,0,0,0,1.33.92A1.14,1.14,0,0,0,4.12,80L4,79.12A1.15,1.15,0,0,0,2.85,78.17ZM18.6,81.57h0a2.15,2.15,0,0,1-2.14-2.11v-.95a2.14,2.14,0,1,1,4.28.08v.8a2.14,2.14,0,0,1-2.1,2.17Zm0-4.16a1.15,1.15,0,0,0-1.16,1.12v.92a1.14,1.14,0,0,0,1.14,1.12h0a1.14,1.14,0,0,0,1.11-1.16v-.83A1.14,1.14,0,0,0,18.59,77.41Zm132.13,2.48a2.14,2.14,0,0,1-2-1.31l-.34-.79a2.14,2.14,0,0,1,3.93-1.69l.35.82a2.14,2.14,0,0,1-2,3Zm-.35-4.09a1.13,1.13,0,0,0-.45.09,1.14,1.14,0,0,0-.6,1.5l.34.8a1.16,1.16,0,0,0,1.49.61,1.14,1.14,0,0,0,.61-1.49l-.35-.82A1.14,1.14,0,0,0,150.38,75.8Zm16,2.09a2.14,2.14,0,0,1-2-1.46l-.28-.81a2.14,2.14,0,0,1,4-1.4l.29.85A2.14,2.14,0,0,1,167,77.78,2.11,2.11,0,0,1,166.36,77.89Zm-.28-4.11A1.15,1.15,0,0,0,165,75.29l.28.82a1.17,1.17,0,0,0,1.44.72,1.14,1.14,0,0,0,.72-1.45l-.29-.84a1.14,1.14,0,0,0-1.07-.76Zm-113,3.83a2.14,2.14,0,0,1-1.81-3.29l.5-.78a2.14,2.14,0,0,1,3.57,2.37l-.45.69A2.13,2.13,0,0,1,53.11,77.6Zm.48-4a1.14,1.14,0,0,0-1,.51l-.49.75a1.14,1.14,0,0,0,.35,1.58,1.17,1.17,0,0,0,1.57-.35l.46-.71a1.14,1.14,0,0,0-.32-1.58A1.13,1.13,0,0,0,53.59,73.59Zm129.85,2.2a2.15,2.15,0,0,1-2.06-1.56l-.24-.83a2.14,2.14,0,0,1,4.11-1.19l.24.86A2.15,2.15,0,0,1,184,75.71,2.12,2.12,0,0,1,183.44,75.79Zm-.24-4.12a1.13,1.13,0,0,0-.31,0,1.14,1.14,0,0,0-.78,1.41l.24.83a1.18,1.18,0,0,0,1.41.79,1.14,1.14,0,0,0,.79-1.41l-.24-.85A1.15,1.15,0,0,0,183.19,71.67Zm-53.37,4.12a2.13,2.13,0,0,1-1.65-.78l-.54-.64a2.14,2.14,0,1,1,3.25-2.78l.59.7a2.14,2.14,0,0,1-1.65,3.5Zm-.56-4a1.14,1.14,0,0,0-.87,1.88l.55.65a1.17,1.17,0,0,0,1.61.16,1.14,1.14,0,0,0,.15-1.61l-.58-.69A1.14,1.14,0,0,0,129.26,71.83Zm-93.94,3.3a2.14,2.14,0,0,1-2-2.78c.09-.29.19-.59.29-.88a2.14,2.14,0,1,1,4.06,1.37c-.09.26-.17.52-.26.79A2.13,2.13,0,0,1,35.32,75.13ZM35.59,71a1.14,1.14,0,0,0-1.08.78c-.1.28-.19.57-.28.86A1.14,1.14,0,0,0,35,74.08a1.16,1.16,0,0,0,1.43-.75l.26-.81A1.14,1.14,0,0,0,36,71.08,1.15,1.15,0,0,0,35.59,71ZM2.14,72.74H2.06A2.14,2.14,0,0,1,0,70.53l0-.89A2.18,2.18,0,0,1,.77,68.1a2,2,0,0,1,1.52-.51,2.14,2.14,0,0,1,2,2.23l0,.85A2.13,2.13,0,0,1,2.14,72.74Zm0-4.16a1,1,0,0,0-.7.27,1.17,1.17,0,0,0-.4.82l0,.89a1.14,1.14,0,0,0,1.1,1.17l0,.5v-.5a1.14,1.14,0,0,0,1.14-1.1l0-.86a1.14,1.14,0,0,0-1.09-1.19ZM19.45,72a2.21,2.21,0,0,1-.37,0,2.14,2.14,0,0,1-1.74-2.49c.05-.3.11-.6.17-.9a2.14,2.14,0,1,1,4.2.83c-.05.27-.11.54-.16.82A2.14,2.14,0,0,1,19.45,72Zm.16-4.14a1.15,1.15,0,0,0-1.12.92q-.09.44-.17.88A1.14,1.14,0,0,0,19.25,71a1.17,1.17,0,0,0,1.32-.92c0-.28.1-.56.16-.84a1.14,1.14,0,0,0-.9-1.34Zm126.81,3.43a2.15,2.15,0,0,1-1.84-1l-.44-.73a2.14,2.14,0,0,1,3.65-2.23l.47.78a2.14,2.14,0,0,1-1.84,3.23Zm-.45-4A1.14,1.14,0,0,0,145,69l.44.74a1.17,1.17,0,0,0,1.56.4,1.14,1.14,0,0,0,.4-1.56l-.46-.77A1.14,1.14,0,0,0,146,67.25Zm-86.6,3.08A2.14,2.14,0,0,1,58,66.58l.7-.6a2.14,2.14,0,0,1,2.74,3.29l-.63.53A2.14,2.14,0,0,1,59.36,70.33ZM60,66.48a1.14,1.14,0,0,0-.73.26l-.68.58a1.14,1.14,0,0,0-.11,1.61,1.17,1.17,0,0,0,1.61.11l.64-.55a1.14,1.14,0,0,0-.63-2ZM123,69.06a2.15,2.15,0,0,1-1.31-.45l-.67-.51a2.14,2.14,0,1,1,2.57-3.43l.72.55A2.14,2.14,0,0,1,123,69.06Zm-.69-3.81h-.16a1.14,1.14,0,0,0-.52,2l.68.52a1.16,1.16,0,0,0,1.6-.2,1.14,1.14,0,0,0-.2-1.6l-.71-.54A1.13,1.13,0,0,0,122.26,65.25Zm40.58,3.68a2.15,2.15,0,0,1-2-1.26l-.35-.77a2.14,2.14,0,0,1,3.87-1.83l.38.82a2.14,2.14,0,0,1-1.95,3Zm-.37-4.08A1.12,1.12,0,0,0,162,65a1.14,1.14,0,0,0-.55,1.52l.36.78a1.16,1.16,0,0,0,1.51.57,1.14,1.14,0,0,0,.56-1.51l-.37-.81a1.13,1.13,0,0,0-.65-.59A1.15,1.15,0,0,0,162.47,64.85Zm18,1.78a2.15,2.15,0,0,1-2-1.4l-.3-.81a2.14,2.14,0,0,1,4-1.5l.31.83a2.14,2.14,0,0,1-2,2.89Zm-.31-4.1a1.14,1.14,0,0,0-1.07,1.54l.3.82a1.17,1.17,0,0,0,1.47.67,1.14,1.14,0,0,0,.67-1.47l-.31-.83a1.14,1.14,0,0,0-1.07-.74ZM39.26,66.38a2.14,2.14,0,0,1-1.83-3.24l.48-.78a2.14,2.14,0,1,1,3.62,2.28l-.43.7A2.15,2.15,0,0,1,39.26,66.38Zm.46-4-.25,0a1.13,1.13,0,0,0-.71.5l-.47.76a1.14,1.14,0,0,0,.39,1.56,1.17,1.17,0,0,0,1.57-.39l.44-.72a1.14,1.14,0,0,0-1-1.75ZM67.32,65a2.14,2.14,0,0,1-1-4l.83-.42A2.14,2.14,0,1,1,69,64.36l-.73.37A2.15,2.15,0,0,1,67.32,65Zm.78-3.67a1.14,1.14,0,0,0-.5.11l-.81.41a1.14,1.14,0,0,0-.49,1.54,1.17,1.17,0,0,0,1.54.49l.75-.38a1.14,1.14,0,0,0-.5-2.17ZM114.76,64a2.14,2.14,0,0,1-.91-.2l-.76-.35a2.14,2.14,0,0,1,.11-4,2.12,2.12,0,0,1,1.64,0l.83.38a2.14,2.14,0,0,1-.91,4.08ZM114,60.4a1.14,1.14,0,0,0-.46,2.18l.77.35a1.16,1.16,0,0,0,1.52-.55,1.14,1.14,0,0,0-.55-1.52l-.82-.37A1.13,1.13,0,0,0,114,60.4Zm27,3a2.13,2.13,0,0,1-1.66-.79l-.54-.65a2.14,2.14,0,0,1,.26-3,2.09,2.09,0,0,1,1.56-.5,2.13,2.13,0,0,1,1.45.75l.58.7a2.14,2.14,0,0,1-1.66,3.5Zm-.56-4a1.13,1.13,0,0,0-.73.27,1.14,1.14,0,0,0-.14,1.61L140,62a1.17,1.17,0,0,0,1.61.16,1.14,1.14,0,0,0,.16-1.61l-.57-.69a1.14,1.14,0,0,0-.78-.4ZM3.11,63.17a2,2,0,0,1-.37,0A2.14,2.14,0,0,1,1,60.67l.16-.88a2.14,2.14,0,1,1,4.21.78l-.15.84A2.13,2.13,0,0,1,3.11,63.17ZM3.26,59a1.13,1.13,0,0,0-.64.2,1.14,1.14,0,0,0-.48.73L2,60.84a1.14,1.14,0,0,0,.93,1.32,1.11,1.11,0,0,0,1.32-.93l.15-.84a1.14,1.14,0,0,0-.91-1.33ZM22,62.74a2.14,2.14,0,0,1-2-2.91l.33-.84a2.14,2.14,0,1,1,4,1.59l-.31.79A2.15,2.15,0,0,1,22,62.74Zm.32-4.1a1.15,1.15,0,0,0-1.06.72l-.32.83a1.14,1.14,0,0,0,.66,1.47A1.16,1.16,0,0,0,23.08,61l.31-.8a1.14,1.14,0,0,0-1.06-1.56Zm53.94,2.83a2.15,2.15,0,0,1-2.06-1.56,2.14,2.14,0,0,1,1.48-2.64l.89-.24a2.14,2.14,0,0,1,1.08,4.14l-.8.22A2.15,2.15,0,0,1,76.28,61.48ZM77.13,58a1.14,1.14,0,0,0-.29,0l-.87.24a1.14,1.14,0,0,0-.79,1.41,1.17,1.17,0,0,0,1.41.79l.82-.22A1.14,1.14,0,0,0,77.13,58Zm28.58,2.88a2.17,2.17,0,0,1-.53-.06l-.8-.19a2.14,2.14,0,1,1,1-4.17l.9.22a2.14,2.14,0,0,1-.53,4.22Zm-.86-3.49a1.14,1.14,0,0,0-.25,2.25l.83.2a1.17,1.17,0,0,0,1.39-.83A1.14,1.14,0,0,0,106,57.6l-.88-.21A1.18,1.18,0,0,0,104.85,57.36Zm53.53,3a2.15,2.15,0,0,1-1.84-1l-.44-.72a2.14,2.14,0,1,1,3.64-2.25l.47.78a2.14,2.14,0,0,1-1.84,3.24Zm-.46-4a1.14,1.14,0,0,0-1,1.74l.44.73a1.16,1.16,0,0,0,1.57.4,1.14,1.14,0,0,0,.39-1.56l-.46-.77A1.14,1.14,0,0,0,157.92,56.37ZM85.71,59.64a2.14,2.14,0,0,1-.24-4.27l.91-.1a2.14,2.14,0,1,1,.41,4.26l-.83.09Zm.88-3.37h-.12l-.9.09a1.14,1.14,0,0,0,.26,2.27l.85-.09a1.14,1.14,0,0,0,1-1.24,1.14,1.14,0,0,0-.42-.78A1.11,1.11,0,0,0,86.6,56.27Zm9.6,3.11-1-.05a2.14,2.14,0,0,1,.21-4.28l.9.05a2.14,2.14,0,0,1-.13,4.28Zm-.86-3.33a1.13,1.13,0,0,0-1.15,1.08,1.14,1.14,0,0,0,1.08,1.2l.93.05a1.14,1.14,0,0,0,.07-2.28l-.89-.05ZM45.11,58.77a2.14,2.14,0,0,1-1.54-3.62l.65-.66a2.13,2.13,0,0,1,1.51-.62h0a2.14,2.14,0,0,1,1.5,3.66l-.58.59A2.12,2.12,0,0,1,45.11,58.77Zm.61-3.91a1.13,1.13,0,0,0-.8.33l-.63.64a1.14,1.14,0,0,0,0,1.61,1.16,1.16,0,0,0,1.61,0l.6-.61a1.14,1.14,0,0,0-.8-2Zm131,2.89a2.15,2.15,0,0,1-1.94-1.23l-.36-.77a2.14,2.14,0,1,1,3.86-1.86l.39.82a2.14,2.14,0,0,1-1.94,3Zm-.38-4.07a1.14,1.14,0,0,0-1,1.64l.37.78a1.17,1.17,0,0,0,1.52.55,1.14,1.14,0,0,0,.55-1.52l-.38-.8a1.14,1.14,0,0,0-1-.65Zm-42.12,2.79a2.14,2.14,0,0,1-1.41-.53l-.63-.55A2.14,2.14,0,1,1,135,52.12l.69.6a2.14,2.14,0,0,1-1.41,3.75Zm-.66-3.86h-.1a1.14,1.14,0,0,0-.64,2l.65.56a1.17,1.17,0,0,0,1.61-.1,1.14,1.14,0,0,0-.1-1.61l-.68-.59A1.13,1.13,0,0,0,133.6,52.61ZM26.28,54.13a2.14,2.14,0,0,1-1.82-3.27l.48-.77a2.14,2.14,0,1,1,3.6,2.31l-.45.71A2.13,2.13,0,0,1,26.28,54.13Zm.47-4a1.15,1.15,0,0,0-1,.52l-.47.75A1.14,1.14,0,0,0,25.68,53a1.17,1.17,0,0,0,1.57-.37l.46-.72a1.14,1.14,0,0,0-1-1.75ZM5.46,53.85a2.1,2.1,0,0,1-.68-.11A2.14,2.14,0,0,1,3.43,51l.29-.86a2.14,2.14,0,1,1,4,1.42l-.27.8A2.14,2.14,0,0,1,5.46,53.85Zm.28-4.11a1.13,1.13,0,0,0-.49.11,1.14,1.14,0,0,0-.59.65l-.29.84a1.14,1.14,0,0,0,.72,1.44,1.17,1.17,0,0,0,1.44-.72l.28-.81a1.14,1.14,0,0,0-1.08-1.52Zm46.71,2.82a2.14,2.14,0,0,1-1.22-3.9l.76-.52a2.14,2.14,0,0,1,2.36,3.57l-.69.46A2.14,2.14,0,0,1,52.45,52.57Zm.72-3.77a1.14,1.14,0,0,0-.63.19l-.74.5a1.14,1.14,0,0,0-.29,1.59,1.17,1.17,0,0,0,1.59.29l.71-.48a1.14,1.14,0,0,0-.63-2.09ZM153,52.46a2.13,2.13,0,0,1-1.69-.83l-.53-.67a2.14,2.14,0,0,1,3.35-2.66l.55.7a2.14,2.14,0,0,1-.38,3A2.12,2.12,0,0,1,153,52.46Zm-.54-4a1.14,1.14,0,0,0-.89,1.85l.53.68a1.17,1.17,0,0,0,1.6.2,1.14,1.14,0,0,0,.2-1.6l-.55-.7A1.14,1.14,0,0,0,152.41,48.49Zm-25.89,2.27a2.14,2.14,0,0,1-1.12-.31l-.72-.43a2.14,2.14,0,1,1,2.17-3.69l.78.47a2.14,2.14,0,0,1-1.12,4ZM125.78,47a1.14,1.14,0,0,0-.58,2.12l.73.44a1.16,1.16,0,0,0,1.57-.38,1.14,1.14,0,0,0-.38-1.57l-.77-.46A1.13,1.13,0,0,0,125.78,47Zm46.49,2.2a2.15,2.15,0,0,1-1.85-1.05l-.44-.74a2.14,2.14,0,0,1,3.67-2.2l.45.76a2.14,2.14,0,0,1-1.84,3.23Zm-.45-4a1.14,1.14,0,0,0-1,1.73l.44.75a1.17,1.17,0,0,0,1.56.4,1.14,1.14,0,0,0,.4-1.56l-.45-.76A1.14,1.14,0,0,0,171.82,45.2Zm-111,2.63a2.14,2.14,0,0,1-.9-4.09l.82-.37a2.14,2.14,0,1,1,1.74,3.91l-.77.35A2.14,2.14,0,0,1,60.82,47.83Zm.8-3.64a1.13,1.13,0,0,0-.46.1l-.82.37a1.14,1.14,0,0,0-.56,1.51,1.17,1.17,0,0,0,1.51.56l.78-.35A1.14,1.14,0,0,0,62,44.26,1.14,1.14,0,0,0,61.62,44.19ZM32.07,46.46a2.14,2.14,0,0,1-1.58-3.58l.62-.67a2.12,2.12,0,0,1,1.49-.67,2.23,2.23,0,0,1,1.53.58,2.14,2.14,0,0,1,.09,3l-.57.62A2.15,2.15,0,0,1,32.07,46.46Zm.59-3.92h0a1.13,1.13,0,0,0-.79.36l-.57.61a1.14,1.14,0,1,0,1.65,1.58l.58-.63a1.14,1.14,0,0,0-.83-1.92Zm85.27,3.91a2.13,2.13,0,0,1-.81-.16l-.79-.32a2.14,2.14,0,0,1,1.57-4l.83.33a2.14,2.14,0,0,1-.8,4.13Zm-.81-3.61a1.15,1.15,0,0,0-.46.1,1.14,1.14,0,0,0,0,2.11l.8.32a1.16,1.16,0,0,0,1.49-.63,1.14,1.14,0,0,0-.63-1.49l-.83-.33A1.12,1.12,0,0,0,117.12,42.84Zm29.46,2.42a2.13,2.13,0,0,1-1.51-.62l-.61-.6a2.14,2.14,0,0,1,1.46-3.68,2.24,2.24,0,0,1,1.52.6l.64.62a2.14,2.14,0,0,1-1.5,3.67ZM146,41.37h0a1.13,1.13,0,0,0-.8.35,1.14,1.14,0,0,0,0,1.61l.61.6a1.17,1.17,0,0,0,1.62,0,1.14,1.14,0,0,0,0-1.61l-.63-.62A1.13,1.13,0,0,0,146,41.37ZM9.21,45a2.14,2.14,0,0,1-1.9-3.13l.42-.8a2.14,2.14,0,1,1,3.77,2l-.4.75A2.13,2.13,0,0,1,9.21,45ZM9.62,41a1.14,1.14,0,0,0-1,.6l-.42.78a1.14,1.14,0,0,0,.48,1.54,1.17,1.17,0,0,0,1.54-.49l.4-.76a1.14,1.14,0,0,0-1-1.68ZM69.84,44.5A2.15,2.15,0,0,1,67.78,43a2.14,2.14,0,0,1,1.46-2.65l.88-.25a2.14,2.14,0,0,1,1.13,4.13l-.81.23A2.15,2.15,0,0,1,69.84,44.5ZM70.68,41a1.13,1.13,0,0,0-.3,0l-.86.24a1.14,1.14,0,0,0-.78,1.41,1.17,1.17,0,0,0,1.41.78l.83-.23a1.14,1.14,0,0,0-.3-2.24Zm38.1,2.52a2.11,2.11,0,0,1-.51-.06l-.82-.19a2.14,2.14,0,1,1,1-4.17l.88.21a2.14,2.14,0,0,1-.51,4.22ZM107.92,40a1.12,1.12,0,0,0-.59.17,1.14,1.14,0,0,0,.35,2.08l.83.2a1.14,1.14,0,0,0,.54-2.22l-.87-.21A1.13,1.13,0,0,0,107.92,40ZM79.24,42.44a2.14,2.14,0,0,1-.33-4.26l.88-.13a2.1,2.1,0,0,1,1.58.39,2.14,2.14,0,0,1-.95,3.85l-.85.13ZM80.12,39h-.17l-.88.13a1.15,1.15,0,0,0-.95,1.3,1.16,1.16,0,0,0,1.31,1l.85-.13a1.14,1.14,0,0,0,.51-2.05A1.11,1.11,0,0,0,80.12,39ZM99.3,41.86h-.22l-.84-.08a2.14,2.14,0,0,1-1.95-2.32,2.15,2.15,0,0,1,2.32-1.94l.9.09a2.14,2.14,0,0,1-.22,4.27Zm-.87-3.37a1.14,1.14,0,0,0-.1,2.28l.7.07.15,0a1.14,1.14,0,0,0,.23-2.27l-.89-.08Zm-9.62,3a2.14,2.14,0,0,1-.08-4.28l.9,0h0a2.14,2.14,0,1,1,.11,4.28Zm.88-3.31-.92,0a1.14,1.14,0,0,0,0,2.28V41l0-.5.87,0a1.14,1.14,0,0,0,0-2.28Zm77.3,3a2.15,2.15,0,0,1-1.73-.88l-.51-.69a2.14,2.14,0,1,1,3.44-2.55l.53.72A2.14,2.14,0,0,1,167,41.19Zm-.52-4a1.14,1.14,0,0,0-.91,1.82l.51.7a1.17,1.17,0,0,0,1.6.25,1.14,1.14,0,0,0,.25-1.59l-.53-.71a1.13,1.13,0,0,0-.75-.45ZM39.12,39.92a2.14,2.14,0,0,1-1.32-3.82l.72-.56A2.14,2.14,0,0,1,41.11,39l-.67.52A2.15,2.15,0,0,1,39.12,39.92Zm.69-3.82a1.12,1.12,0,0,0-.69.23l-.71.55a1.14,1.14,0,0,0-.19,1.6,1.17,1.17,0,0,0,1.6.19l.68-.53a1.14,1.14,0,0,0-.54-2ZM139.29,39a2.13,2.13,0,0,1-1.28-.42l-.69-.51a2.14,2.14,0,0,1,2.52-3.46l.73.54a2.14,2.14,0,0,1,.43,3A2.15,2.15,0,0,1,139.29,39Zm-.7-3.8a1.14,1.14,0,0,0-.67,2.06l.69.51a1.16,1.16,0,0,0,1.6-.23,1.14,1.14,0,0,0-.23-1.6l-.72-.53A1.14,1.14,0,0,0,138.59,35.19ZM14.29,36.86a2.14,2.14,0,0,1-1.72-3.41l.54-.73a2.14,2.14,0,1,1,3.41,2.59L16,36A2.15,2.15,0,0,1,14.29,36.86Zm.53-4a1.14,1.14,0,0,0-.91.45l-.53.71a1.14,1.14,0,0,0,.24,1.59,1.17,1.17,0,0,0,1.6-.24l.51-.69a1.14,1.14,0,0,0-.91-1.83Zm32.29,1.7a2.14,2.14,0,0,1-1.06-4l.78-.44a2.14,2.14,0,1,1,2.07,3.75l-.75.42A2.13,2.13,0,0,1,47.11,34.57Zm.76-3.71a1.14,1.14,0,0,0-.55.14l-.78.44A1.14,1.14,0,0,0,46.12,33a1.17,1.17,0,0,0,1.55.43l.75-.42a1.14,1.14,0,0,0-.55-2.14Zm83.34,2.92a2.14,2.14,0,0,1-1-.26l-.75-.41a2.14,2.14,0,0,1,2-3.77l.79.43a2.14,2.14,0,0,1-1,4Zm-.77-3.7a1.14,1.14,0,0,0-.54,2.15l.76.41a1.16,1.16,0,0,0,1.55-.45,1.14,1.14,0,0,0-.45-1.55l-.78-.42A1.13,1.13,0,0,0,130.45,30.08Zm30.47,3.65a2.14,2.14,0,0,1-1.59-.71l-.57-.62a2.14,2.14,0,1,1,3.13-2.92l.61.67a2.14,2.14,0,0,1-1.59,3.58Zm-.59-3.92a1.14,1.14,0,0,0-.83,1.92l.53.58a1.15,1.15,0,0,0,1.66.14,1.14,1.14,0,0,0,.08-1.61l-.6-.66A1.14,1.14,0,0,0,160.33,29.8Zm-104.55.58a2.14,2.14,0,0,1-.8-4.13l.83-.33a2.14,2.14,0,1,1,1.57,4l-.8.32A2.15,2.15,0,0,1,55.77,30.39Zm.81-3.6a1.13,1.13,0,0,0-.42.08l-.82.33a1.14,1.14,0,0,0-.63,1.48,1.17,1.17,0,0,0,1.49.63L57,29a1.14,1.14,0,0,0-.42-2.2Zm65.92,2.92a2.11,2.11,0,0,1-.79-.15l-.79-.31a2.14,2.14,0,0,1,1.52-4l.85.33a2.14,2.14,0,0,1-.79,4.13Zm-.82-3.6a1.14,1.14,0,0,0-1,1.61,1.13,1.13,0,0,0,.64.6l.75.29a1.21,1.21,0,0,0,.47.1,1.14,1.14,0,0,0,.42-2.2l-.83-.32A1.12,1.12,0,0,0,121.68,26.11ZM20.56,29.56A2.14,2.14,0,0,1,19,25.91l.63-.63a2.14,2.14,0,1,1,3,3l-.61.61A2.13,2.13,0,0,1,20.56,29.56Zm.62-3.9a1.14,1.14,0,0,0-.8.33l-.63.63a1.14,1.14,0,0,0,0,1.61,1.17,1.17,0,0,0,1.61,0l.61-.61a1.14,1.14,0,0,0-.8-2Zm43.71,1.66a2.14,2.14,0,0,1-.56-4.21l.87-.23A2.14,2.14,0,1,1,66.28,27l-.82.22A2.11,2.11,0,0,1,64.89,27.32Zm.85-3.51a1.14,1.14,0,0,0-.29,0l-.86.23a1.14,1.14,0,0,0-.8,1.4,1.18,1.18,0,0,0,1.4.8l.83-.22a1.14,1.14,0,0,0-.28-2.25ZM154.08,27a2.14,2.14,0,0,1-1.42-.54l-.64-.56a2.14,2.14,0,0,1,2.8-3.24l.67.59A2.14,2.14,0,0,1,154.08,27Zm-.66-3.86h-.08a1.14,1.14,0,0,0-.66,2l.65.57a1.18,1.18,0,0,0,1.61-.1,1.14,1.14,0,0,0-.1-1.61l-.67-.59A1.13,1.13,0,0,0,153.42,23.12Zm-40.07,3.61a2.17,2.17,0,0,1-.54-.07l-.83-.21a2.14,2.14,0,0,1-.57-3.92A2.11,2.11,0,0,1,113,22.3l.86.22a2.14,2.14,0,0,1-.54,4.21Zm-.85-3.5a1.11,1.11,0,0,0-.57.16,1.14,1.14,0,0,0,.31,2.09l.83.21a1.14,1.14,0,0,0,1.39-.81,1.14,1.14,0,0,0-.81-1.39l-.86-.22A1.13,1.13,0,0,0,112.5,23.23Zm-38.21,2A2.14,2.14,0,0,1,73.92,21l.89-.15a2.14,2.14,0,0,1,.67,4.23l-.83.14A2,2,0,0,1,74.29,25.26Zm.87-3.42H75l-.88.15a1.14,1.14,0,0,0,.39,2.25l.85-.14a1.14,1.14,0,0,0,.95-1.31,1.14,1.14,0,0,0-1.12-1Zm28.77,3-.31,0-.85-.12a2.14,2.14,0,0,1-1-3.84,2.12,2.12,0,0,1,1.58-.41l.88.12a2.14,2.14,0,0,1-.3,4.26ZM103,21.42a1.11,1.11,0,0,0-.67.22,1.15,1.15,0,0,0,.53,2l.85.12a1.12,1.12,0,0,0,1.29-1,1.14,1.14,0,0,0-1-1.29l-.88-.12Zm-19.2,2.7a2.15,2.15,0,0,1-2.13-2,2.14,2.14,0,0,1,2-2.28l.89-.06a2.16,2.16,0,0,1,2.27,2,2.14,2.14,0,0,1-2,2.27l-.86.06Zm.86-3.34h-.06l-.88.06a1.14,1.14,0,0,0-1.06,1.22,1.14,1.14,0,0,0,1.14,1.06l.94-.06a1.14,1.14,0,0,0,1.07-1.21A1.15,1.15,0,0,0,84.7,20.78Zm9.64,3.17-.94,0a2.14,2.14,0,0,1-2.07-2.2A2.17,2.17,0,0,1,92,20.2a2.08,2.08,0,0,1,1.52-.56l.88,0a2.14,2.14,0,0,1-.08,4.28Zm-.9-3.31a1.1,1.1,0,0,0-.74.3,1.16,1.16,0,0,0-.38.81,1.14,1.14,0,0,0,1.11,1.17l.86,0,0,.5v-.5a1.14,1.14,0,0,0,0-2.28l-.89,0ZM27.79,23.21a2.14,2.14,0,0,1-1.31-3.84l.73-.55a2.14,2.14,0,0,1,3,.44,2.14,2.14,0,0,1-.44,3l-.67.51A2.12,2.12,0,0,1,27.79,23.21Zm.7-3.81a1.14,1.14,0,0,0-.68.23l-.71.54a1.14,1.14,0,0,0-.21,1.6,1.16,1.16,0,0,0,1.6.21l.69-.52a1.14,1.14,0,0,0,.23-1.6,1.13,1.13,0,0,0-.75-.45Zm118,1.63a2.12,2.12,0,0,1-1.22-.38l-.71-.49A2.14,2.14,0,0,1,147,16.62l.73.51a2.14,2.14,0,0,1-1.22,3.9Zm-.71-3.78a1.14,1.14,0,0,0-.65,2.08l.71.49a1.16,1.16,0,0,0,1.59-.28,1.14,1.14,0,0,0-.28-1.59l-.73-.51A1.13,1.13,0,0,0,145.8,17.25Zm-110,.59a2.14,2.14,0,0,1-1.09-4l.77-.45a2.14,2.14,0,1,1,2.13,3.71l-.74.43A2.14,2.14,0,0,1,35.78,17.84Zm.75-3.72a1.12,1.12,0,0,0-.56.15l-.77.45a1.14,1.14,0,0,0-.4,1.56,1.17,1.17,0,0,0,1.56.41l.74-.43a1.14,1.14,0,0,0-.27-2.09A1.14,1.14,0,0,0,36.54,14.12ZM138.33,16a2.14,2.14,0,0,1-1-.26l-.75-.4a2.14,2.14,0,0,1,.37-3.94,2.12,2.12,0,0,1,1.63.15l.79.42a2.14,2.14,0,0,1-1,4Zm-.76-3.69a1.17,1.17,0,0,0-.34.05,1.14,1.14,0,0,0-.2,2.1l.76.4a1.16,1.16,0,0,0,1.55-.46,1.14,1.14,0,0,0-.46-1.55l-.78-.42A1.12,1.12,0,0,0,137.57,12.29ZM44.34,13.45a2.14,2.14,0,0,1-.87-4.1L44.29,9A2.14,2.14,0,1,1,46,12.92l-.79.34A2.13,2.13,0,0,1,44.34,13.45Zm.8-3.63a1.14,1.14,0,0,0-.45.09l-.81.36a1.14,1.14,0,0,0-.58,1.51,1.16,1.16,0,0,0,1.51.58l.79-.35a1.14,1.14,0,0,0-.46-2.19Zm84.5,2.06a2.14,2.14,0,0,1-.81-.16L128,11.4a2.14,2.14,0,0,1,1.59-4l.83.33a2.14,2.14,0,0,1-.81,4.12Zm-.81-3.61a1.14,1.14,0,0,0-.42,2.2l.8.32a1.15,1.15,0,0,0,1.49-.62,1.14,1.14,0,0,0-.62-1.49l-.82-.33A1.12,1.12,0,0,0,128.83,8.27ZM53.32,10a2.14,2.14,0,0,1-.67-4.17l.85-.28a2.14,2.14,0,0,1,2.69,1.39A2.14,2.14,0,0,1,54.8,9.61L54,9.87A2.15,2.15,0,0,1,53.32,10Zm.83-3.55a1.16,1.16,0,0,0-.35.05L53,6.76a1.14,1.14,0,0,0,.72,2.16l.82-.27a1.14,1.14,0,0,0,.18-2.1A1.13,1.13,0,0,0,54.15,6.43Zm66.41,2.25a2.12,2.12,0,0,1-.61-.09l-.83-.25a2.14,2.14,0,0,1,1.21-4.11l.85.25a2.14,2.14,0,0,1-.61,4.19Zm-.84-3.53a1.14,1.14,0,0,0-.33,2.24l.83.25a1.16,1.16,0,0,0,1.42-.77,1.14,1.14,0,0,0-.77-1.42L120,5.19A1.15,1.15,0,0,0,119.72,5.14ZM62.59,7.4a2.14,2.14,0,0,1-.48-4.23L63,3a2.14,2.14,0,1,1,.94,4.18l-.85.19A2.06,2.06,0,0,1,62.59,7.4Zm.86-3.48a1.18,1.18,0,0,0-.26,0l-.86.2a1.14,1.14,0,0,0,.25,2.25l.25,0,.85-.19a1.14,1.14,0,0,0-.24-2.25Zm47.77,2.44a2.11,2.11,0,0,1-.42,0L110,6.15a2.14,2.14,0,0,1,.82-4.2l.87.17a2.14,2.14,0,0,1-.41,4.24Zm-.86-3.45a1.14,1.14,0,0,0-.22,2.26l.85.17a1.14,1.14,0,1,0,.44-2.24l-.86-.17ZM72,5.59a2.15,2.15,0,0,1-2.12-1.82,2.14,2.14,0,0,1,1.8-2.43l.88-.13a2.11,2.11,0,0,1,1.58.4,2.14,2.14,0,0,1-1,3.84l-.85.13Zm.88-3.41h-.17l-.88.13a1.14,1.14,0,0,0,.34,2.26l.86-.13a1.14,1.14,0,0,0,.52-2A1.12,1.12,0,0,0,72.92,2.19Zm28.79,2.72h-.23l-.85-.09a2.14,2.14,0,0,1-1.92-2.34A2.16,2.16,0,0,1,101,.55l.89.09a2.14,2.14,0,0,1-.22,4.27Zm-.87-3.37a1.14,1.14,0,0,0-.12,2.28l.86.09h.13a1.14,1.14,0,0,0,.12-2.28l-.88-.09Zm-19.23,3A2.14,2.14,0,0,1,81.46.27l.89-.06a2.14,2.14,0,1,1,.26,4.27Zm.89-3.34h-.08l-.89.06a1.14,1.14,0,0,0,.08,2.28v.5l.06-.5.89-.06a1.15,1.15,0,0,0,.69-2A1.11,1.11,0,0,0,82.5,1.21ZM92.1,4.3l-.91,0a2.14,2.14,0,0,1-2.11-2.17A2.17,2.17,0,0,1,91.25,0l.9,0a2.14,2.14,0,0,1,0,4.28ZM91.24,1a1.16,1.16,0,0,0-1.16,1.12,1.14,1.14,0,0,0,1.12,1.16h.86l0,.5V3.3a1.14,1.14,0,0,0,0-2.28Z"/></g></g></g></svg>