<svg xmlns="http://www.w3.org/2000/svg" viewBox="0 0 62.18 75.59"><defs><style>.cls-1{fill:#fff;}</style></defs><title>day9</title><g id="Layer_2" data-name="Layer 2"><g id="Layer_1-2" data-name="Layer 1"><path class="cls-1" d="M29.47,75.59c-13,0-27-7.54-27-19.72C2.51,49,6,45.37,12.6,45.37c6,0,9.45,2.87,9.45,7.88a7.57,7.57,0,0,1-.28,2,6.56,6.56,0,0,0-.24,1.83c0,1.84,3.34,3,5.64,3,7.4,0,8.53-8,8.74-19.67A18,18,0,0,1,23,46C8.59,46,0,35.06,0,24.44,0,9.13,10.7,0,28.63,0,39,0,47.65,3.89,53.68,11.25c5.48,6.68,8.5,16,8.5,26.28C62.18,61.37,50,75.59,29.47,75.59ZM12.6,47.3c-5.48,0-8.15,2.8-8.15,8.57,0,11,13,17.79,25,17.79C58,73.66,60.25,46,60.25,37.53c0-17.72-9.78-35.6-31.62-35.6-17,0-26.7,8.2-26.7,22.51,0,12.32,10.7,19.68,21,19.68a16,16,0,0,0,13.15-6.93l1.78-2.53,0,3.09c-.1,11.4-.22,24.32-10.71,24.32-3.05,0-7.57-1.57-7.57-4.95a8.38,8.38,0,0,1,.3-2.3,5.72,5.72,0,0,0,.22-1.58C20.12,48.33,16,47.3,12.6,47.3ZM29.36,34.2c-4.71,0-8.4-4.7-8.4-10.71s3.69-10.71,8.4-10.71,8.51,4.8,8.51,10.71S34.05,34.2,29.36,34.2Zm0-19.49c-3.63,0-6.47,3.86-6.47,8.78s2.84,8.78,6.47,8.78,6.58-3.94,6.58-8.78S33,14.71,29.36,14.71Z"/></g></g></svg>