<?xml version="1.0" encoding="UTF-8"?>
<svg width="160px" height="222px" viewBox="0 0 160 222" version="1.1" xmlns="http://www.w3.org/2000/svg" xmlns:xlink="http://www.w3.org/1999/xlink">
    <!-- Generator: Sketch 47.1 (45422) - http://www.bohemiancoding.com/sketch -->
    <title>logo</title>
    <desc>Created with Sketch.</desc>
    <defs>
        <polygon id="path-1" points="0 0 58 0 58 100.999495 0 100.999495"></polygon>
        <polygon id="path-3" points="58 108 1.79180342e-14 108 0 0.000508235294 58 0.000508235294"></polygon>
    </defs>
    <g id="NorthStar" stroke="none" stroke-width="1" fill="none" fill-rule="evenodd">
        <g id="Closed" transform="translate(-640.000000, -65.000000)">
            <g id="logo" transform="translate(640.000000, 65.000000)">
                <g id="Group-3" transform="translate(14.000000, 0.000000)">
                    <mask id="mask-2" fill="white">
                        <use xlink:href="#path-1"></use>
                    </mask>
                    <g id="Clip-2"></g>
                    <path d="M41.6086957,2.6520075 L41.6086957,65.523245 C41.6086957,66.987745 40.4234783,68.174495 38.9596087,68.174495 L2.64908696,68.174495 C1.18521739,68.174495 0,69.3625075 0,70.8270075 L0,97.1804325 C0,97.1804325 1.12091304,99.8342075 2.58352174,99.736995 L41.0677826,100.999495 L55.350913,100.999495 C56.8135217,100.999495 58,99.812745 58,98.348245 L58,69.0468825 L58,2.6520075 C58,1.1875075 56.8135217,-0.000505 55.350913,-0.000505 L44.2577826,-0.000505 C42.793913,-0.000505 41.6086957,1.1875075 41.6086957,2.6520075" id="Fill-1" fill="#FFFFFF" mask="url(#mask-2)"></path>
                </g>
                <g id="Group-6" transform="translate(86.000000, 114.000000)">
                    <mask id="mask-4" fill="white">
                        <use xlink:href="#path-3"></use>
                    </mask>
                    <g id="Clip-5"></g>
                    <path d="M16.3913043,105.331002 L16.3913043,31.8922729 C16.3913043,30.4183906 17.5765217,29.2240376 19.0403913,29.2240376 L55.350913,29.2240376 C56.8147826,29.2240376 58,28.0284141 58,26.5545318 L58,2.66874353 C58,1.19486118 56.8147826,0.000508235294 55.350913,0.000508235294 L16.3913043,0.000508235294 L2.64908696,0.000508235294 C1.18521739,0.000508235294 0,1.19486118 0,2.66874353 L0,29.1312847 L0,105.331002 C0,106.804885 1.18521739,108.000508 2.64908696,108.000508 L13.7422174,108.000508 C15.206087,108.000508 16.3913043,106.804885 16.3913043,105.331002" id="Fill-4" fill="#FFFFFF" mask="url(#mask-4)"></path>
                </g>
                <path d="M114.068966,86.7768437 L114.068966,62.690625 C114.068966,61.204375 112.869655,60 111.388379,60 L88.6805862,60 C87.1993103,60 86,61.204375 86,62.690625 L86,98.3080937 C86,99.7943437 87.1993103,101 88.6805862,101 L157.319414,101 C158.80069,101 160,99.7943437 160,98.3080937 L160,92.159375 C160,90.673125 158.80069,89.46875 157.319414,89.46875 L116.749552,89.46875 C115.268276,89.46875 114.068966,88.2630937 114.068966,86.7768437" id="Fill-7" fill="#FFFFFF"></path>
                <path d="M45.4736842,130.507263 L45.4736842,174.354 C45.4736842,175.8156 46.6610526,177 48.1275789,177 L69.3461053,177 C70.8126316,177 72,175.8156 72,174.354 L72,116.643484 C72,115.183144 70.8113684,113.997484 69.3461053,114.000004 L2.65389474,114.084424 C1.18736842,114.086944 0,115.271344 0,116.734204 L0,125.214003 C0,126.675603 1.18736842,127.860003 2.65389474,127.860003 L42.8197895,127.860003 C44.2863158,127.860003 45.4736842,129.045663 45.4736842,130.507263" id="Fill-9" fill="#FFFFFF"></path>
                <path d="M111.326,46 L88.6727273,46 C87.1963636,46 86,44.8036364 86,43.326 L86,20.674 C86,19.1963636 87.1963636,18 88.6727273,18 L111.326,18 C112.802364,18 114,19.1963636 114,20.674 L114,43.326 C114,44.8036364 112.802364,46 111.326,46" id="Fill-11" fill="#FFFFFF"></path>
                <path d="M144.338733,79 L130.66,79 C129.190667,79 128,77.8093333 128,76.3387333 L128,62.6612667 C128,61.1906667 129.190667,60 130.66,60 L144.338733,60 C145.808067,60 147,61.1906667 147,62.6612667 L147,76.3387333 C147,77.8093333 145.808067,79 144.338733,79" id="Fill-13" fill="#FFFFFF"></path>
            </g>
        </g>
    </g>
</svg>