<?xml version="1.0" encoding="UTF-8"?>
<svg width="371px" height="72px" viewBox="0 0 371 72" version="1.1" xmlns="http://www.w3.org/2000/svg" xmlns:xlink="http://www.w3.org/1999/xlink">
    <!-- Generator: Sketch 47.1 (45422) - http://www.bohemiancoding.com/sketch -->
    <title>wordmark</title>
    <desc>Created with Sketch.</desc>
    <defs>
        <polygon id="path-1" points="0 71.7413793 370.887576 71.7413793 370.887576 0.356189655 0 0.356189655"></polygon>
    </defs>
    <g id="NorthStar" stroke="none" stroke-width="1" fill="none" fill-rule="evenodd">
        <g id="Closed-Copy" transform="translate(-535.000000, -766.000000)">
            <g id="wordmark" transform="translate(535.000000, 765.000000)">
                <polygon id="Fill-1" fill="#FFFFFF" points="0 2.01492586 0 46.0955983 30.6868215 46.0955983 30.6868215 39.0422879 7.68731987 39.0422879 7.68731987 2.01492586"></polygon>
                <path d="M54.1884848,1.70001897 L34.9377071,46.0966052 L42.814899,46.0966052 L47.3131178,35.45245 L68.0004276,35.45245 L72.439936,46.0966052 L80.5632121,46.0966052 L61.3136835,1.70001897 L54.1884848,1.70001897 Z M57.6261684,10.9571741 L65.1885724,28.5891914 L50.1262222,28.5891914 L57.6261684,10.9571741 Z" id="Fill-2" fill="#FFFFFF"></path>
                <polygon id="Fill-3" fill="#FFFFFF" points="116.565952 2.01492586 95.7524768 24.1804948 95.7524768 2.01492586 88.0651569 2.01492586 88.0651569 46.0955983 95.7524768 46.0955983 95.7524768 33.3117879 102.564137 26.2597362 117.50282 46.0955983 126.815295 46.0955983 107.815598 20.9697534 126.003342 2.01492586"></polygon>
                <polygon id="Fill-4" fill="#FFFFFF" points="133.378997 2.01492586 133.378997 46.0955983 166.129428 46.0955983 166.129428 39.16815 141.066317 39.16815 141.066317 27.3295638 163.004034 27.3295638 163.004034 20.4021155 141.066317 20.4021155 141.066317 8.94237414 165.817138 8.94237414 165.817138 2.01492586"></polygon>
                <g id="Group-33" transform="translate(0.000000, 0.902179)">
                    <path d="M194.194141,22.9636603 C199.694185,22.9636603 203.194327,20.0663155 203.194327,15.5956948 L203.194327,15.4698328 C203.194327,10.7474879 199.819101,8.16479828 194.131684,8.16479828 L182.944222,8.16479828 L182.944222,22.9636603 L194.194141,22.9636603 Z M175.256902,1.11274655 L194.756263,1.11274655 C200.257556,1.11274655 204.56965,2.74895345 207.382754,5.52043621 C209.693697,7.91307414 211.006562,11.1880052 211.006562,15.0293155 L211.006562,15.1551776 C211.006562,22.397281 206.694468,26.7420397 200.569845,28.5053672 L212.381886,45.193419 L203.319242,45.193419 L192.568987,29.8281776 L182.944222,29.8281776 L182.944222,45.193419 L175.256902,45.193419 L175.256902,1.11274655 Z" id="Fill-5" fill="#FFFFFF"></path>
                    <mask id="mask-2" fill="white">
                        <use xlink:href="#path-1"></use>
                    </mask>
                    <g id="Clip-8"></g>
                    <polygon id="Fill-7" fill="#FFFFFF" mask="url(#mask-2)" points="220.883657 45.1932931 228.570976 45.1932931 228.570976 1.11262069 220.883657 1.11262069"></polygon>
                    <path d="M256.570234,38.1408638 C265.757793,38.1408638 271.7575,31.9069155 271.7575,23.2778121 L271.7575,23.1532086 C271.7575,14.5253638 265.757793,8.16555345 256.570234,8.16555345 L247.946045,8.16555345 L247.946045,38.1408638 L256.570234,38.1408638 Z M240.257476,1.1122431 L256.570234,1.1122431 C270.320968,1.1122431 279.819567,10.6211224 279.819567,23.0260879 L279.819567,23.1532086 C279.819567,35.5581741 270.320968,45.1941741 256.570234,45.1941741 L240.257476,45.1941741 L240.257476,1.1122431 Z" id="Fill-9" fill="#FFFFFF" mask="url(#mask-2)"></path>
                    <path d="M287.197845,23.2783155 L287.197845,23.1524534 C287.197845,10.810419 296.572778,0.356315517 309.760142,0.356315517 C317.385004,0.356315517 322.073095,2.49722931 326.572563,6.33853966 L321.697098,12.1949017 C318.323122,9.29881552 315.010354,7.4725569 309.447852,7.4725569 C301.384536,7.4725569 295.259913,14.5887983 295.259913,23.0265914 L295.259913,23.1524534 C295.259913,32.2208155 301.197162,38.8965397 310.134889,38.8965397 C314.25961,38.8965397 318.009583,37.5737293 320.696522,35.5586776 L320.696522,27.308419 L309.509061,27.308419 L309.509061,20.5710224 L328.13401,20.5710224 L328.13401,39.0853328 C323.821916,42.800781 317.634835,45.94985 309.885058,45.94985 C296.198031,45.94985 287.197845,36.1250569 287.197845,23.2783155" id="Fill-10" fill="#FFFFFF" mask="url(#mask-2)"></path>
                    <polygon id="Fill-11" fill="#FFFFFF" mask="url(#mask-2)" points="338.137644 1.11236897 370.575786 1.11236897 370.575786 8.03981724 345.824964 8.03981724 345.824964 19.4995586 367.762681 19.4995586 367.762681 26.4270069 345.824964 26.4270069 345.824964 38.2668517 370.888075 38.2668517 370.888075 45.1930414 338.137644 45.1930414"></polygon>
                    <path d="M0.564744444,64.7586776 L0.564744444,55.4411086 L2.35978485,55.4411086 L2.35978485,64.6441431 C2.35978485,68.1003155 4.1773101,70.0461431 7.22150875,70.0461431 C10.1532832,70.0461431 12.0157781,68.2601603 12.0157781,64.7586776 L12.0157781,55.4411086 L13.8108185,55.4411086 L13.8108185,64.6214879 C13.8108185,69.2922293 11.1526098,71.7175914 7.17653906,71.7175914 C3.24543805,71.7175914 0.564744444,69.2922293 0.564744444,64.7586776" id="Fill-12" fill="#FFFFFF" mask="url(#mask-2)"></path>
                    <polygon id="Fill-13" fill="#FFFFFF" mask="url(#mask-2)" points="19.3156091 55.440731 20.9969761 55.440731 31.0164744 68.2836966 31.0164744 55.440731 32.7665451 55.440731 32.7665451 71.4654897 31.3350098 71.4654897 21.0644306 58.3254897 21.0644306 71.4654897 19.3156091 71.4654897"></polygon>
                    <polygon id="Fill-14" fill="#FFFFFF" mask="url(#mask-2)" points="38.678936 71.4657414 40.4739764 71.4657414 40.4739764 55.4409828 38.678936 55.4409828"></polygon>
                    <polygon id="Fill-15" fill="#FFFFFF" mask="url(#mask-2)" points="50.5872865 57.112431 45.2496333 57.112431 45.2496333 55.4409828 57.7437141 55.4409828 57.7437141 57.112431 52.4048118 57.112431 52.4048118 71.4657414 50.5872865 71.4657414"></polygon>
                    <polygon id="Fill-16" fill="#FFFFFF" mask="url(#mask-2)" points="62.3627266 55.440731 73.85873 55.440731 73.85873 57.0907828 64.157767 57.0907828 64.157767 62.5607483 72.8369185 62.5607483 72.8369185 64.2095414 64.157767 64.2095414 64.157767 69.8179552 73.9724034 69.8179552 73.9724034 71.4654897 62.3627266 71.4654897"></polygon>
                    <path d="M84.3621522,69.794419 C88.3831926,69.794419 90.9502128,67.04685 90.9502128,63.4987983 L90.9502128,63.4534879 C90.9502128,59.9054362 88.3831926,57.1125569 84.3621522,57.1125569 L80.6359131,57.1125569 L80.6359131,69.794419 L84.3621522,69.794419 Z M78.8408727,55.4411086 L84.3621522,55.4411086 C89.3600343,55.4411086 92.8139569,58.8985397 92.8139569,63.4081776 L92.8139569,63.4534879 C92.8139569,67.9631259 89.3600343,71.4658672 84.3621522,71.4658672 L78.8408727,71.4658672 L78.8408727,55.4411086 Z" id="Fill-17" fill="#FFFFFF" mask="url(#mask-2)"></path>
                    <polygon id="Fill-18" fill="#FFFFFF" mask="url(#mask-2)" points="105.931992 55.440731 107.749518 55.440731 113.543113 64.1856276 119.336709 55.440731 121.155484 55.440731 121.155484 71.4654897 119.359194 71.4654897 119.359194 58.4865931 113.565598 67.0703862 113.47441 67.0703862 107.680814 58.5092483 107.680814 71.4654897 105.931992 71.4654897"></polygon>
                    <polygon id="Fill-19" fill="#FFFFFF" mask="url(#mask-2)" points="126.910356 55.440731 138.406359 55.440731 138.406359 57.0907828 128.705396 57.0907828 128.705396 62.5607483 137.384548 62.5607483 137.384548 64.2095414 128.705396 64.2095414 128.705396 69.8179552 138.520033 69.8179552 138.520033 71.4654897 126.910356 71.4654897"></polygon>
                    <polygon id="Fill-20" fill="#FFFFFF" mask="url(#mask-2)" points="147.592169 57.112431 142.253267 57.112431 142.253267 55.4409828 154.748597 55.4409828 154.748597 57.112431 149.409695 57.112431 149.409695 71.4657414 147.592169 71.4657414"></polygon>
                    <polygon id="Fill-21" fill="#FFFFFF" mask="url(#mask-2)" points="159.365236 55.440731 161.160276 55.440731 161.160276 62.5607483 170.339091 62.5607483 170.339091 55.440731 172.134132 55.440731 172.134132 71.4654897 170.339091 71.4654897 170.339091 64.2548517 161.160276 64.2548517 161.160276 71.4654897 159.365236 71.4654897"></polygon>
                    <path d="M191.544552,63.4989241 L191.544552,63.4536138 C191.544552,59.8136828 188.908828,56.8383034 185.272528,56.8383034 C181.637478,56.8383034 179.047973,59.7683724 179.047973,63.4083034 L179.047973,63.4536138 C179.047973,67.0935448 181.682447,70.0701828 185.318747,70.0701828 C188.953798,70.0701828 191.544552,67.1401138 191.544552,63.4989241 M177.184229,63.4989241 L177.184229,63.4536138 C177.184229,59.0358552 180.479508,55.1668552 185.318747,55.1668552 C190.157986,55.1668552 193.407047,58.9892862 193.407047,63.4083034 L193.407047,63.4536138 C193.407047,67.872631 190.113016,71.741631 185.272528,71.741631 C180.433289,71.741631 177.184229,67.9179414 177.184229,63.4989241" id="Fill-22" fill="#FFFFFF" mask="url(#mask-2)"></path>
                    <path d="M203.979922,69.794419 C208.000963,69.794419 210.567983,67.04685 210.567983,63.4987983 L210.567983,63.4534879 C210.567983,59.9054362 208.000963,57.1125569 203.979922,57.1125569 L200.253683,57.1125569 L200.253683,69.794419 L203.979922,69.794419 Z M198.458643,55.4411086 L203.979922,55.4411086 C208.977804,55.4411086 212.431727,58.8985397 212.431727,63.4081776 L212.431727,63.4534879 C212.431727,67.9631259 208.977804,71.4658672 203.979922,71.4658672 L198.458643,71.4658672 L198.458643,55.4411086 Z" id="Fill-23" fill="#FFFFFF" mask="url(#mask-2)"></path>
                    <polygon id="Fill-24" fill="#FFFFFF" mask="url(#mask-2)" points="217.640842 71.4657414 219.435882 71.4657414 219.435882 55.4409828 217.640842 55.4409828"></polygon>
                    <path d="M224.300729,69.1307483 L225.414978,67.8029034 C227.072611,69.3145069 228.66279,70.0696793 230.867554,70.0696793 C233.003614,70.0696793 234.411416,68.9255931 234.411416,67.3460241 L234.411416,67.2994552 C234.411416,65.8117655 233.615702,64.9634552 230.275453,64.2548517 C226.617918,63.4531103 224.9378,62.2637138 224.9378,59.6306793 L224.9378,59.585369 C224.9378,57.066869 227.140066,55.2116621 230.161779,55.2116621 C232.480217,55.2116621 234.139099,55.8762138 235.751763,57.1814034 L234.706217,58.5772138 C233.229712,57.3639034 231.753207,56.8378 230.11681,56.8378 C228.049453,56.8378 226.731591,57.9831448 226.731591,59.4242655 L226.731591,59.4695759 C226.731591,60.9811793 227.551039,61.828231 231.048682,62.5846621 C234.592544,63.3624897 236.228941,64.6664207 236.228941,67.1156966 L236.228941,67.1622655 C236.228941,69.9098345 233.956722,71.6945586 230.79885,71.6945586 C228.278049,71.6945586 226.209443,70.8475069 224.300729,69.1307483" id="Fill-25" fill="#FFFFFF" mask="url(#mask-2)"></path>
                    <polygon id="Fill-26" fill="#FFFFFF" mask="url(#mask-2)" points="245.004528 57.112431 239.666874 57.112431 239.666874 55.4409828 252.160955 55.4409828 252.160955 57.112431 246.822053 57.112431 246.822053 71.4657414 245.004528 71.4657414"></polygon>
                    <path d="M264.144505,63.4989241 L264.144505,63.4536138 C264.144505,58.9213207 267.50599,55.1668552 272.186586,55.1668552 C275.072141,55.1668552 276.799727,56.1964069 278.388657,57.7067517 L277.163232,59.0358552 C275.822886,57.7545793 274.322646,56.8383034 272.164101,56.8383034 C268.642724,56.8383034 266.007,59.7218034 266.007,63.4083034 L266.007,63.4536138 C266.007,67.1615103 268.665209,70.0701828 272.164101,70.0701828 C274.345131,70.0701828 275.777916,69.223131 277.298141,67.7580966 L278.481094,68.9260966 C276.820963,70.6189414 275.003438,71.741631 272.119131,71.741631 C267.529724,71.741631 264.144505,68.1004414 264.144505,63.4989241" id="Fill-27" fill="#FFFFFF" mask="url(#mask-2)"></path>
                    <polygon id="Fill-28" fill="#FFFFFF" mask="url(#mask-2)" points="282.870886 55.440731 284.665927 55.440731 284.665927 62.5607483 293.844741 62.5607483 293.844741 55.440731 295.639782 55.440731 295.639782 71.4654897 293.844741 71.4654897 293.844741 64.2548517 284.665927 64.2548517 284.665927 71.4654897 282.870886 71.4654897"></polygon>
                    <path d="M301.144697,64.7586776 L301.144697,55.4411086 L302.939738,55.4411086 L302.939738,64.6441431 C302.939738,68.1003155 304.757263,70.0461431 307.801462,70.0461431 C310.733236,70.0461431 312.595731,68.2601603 312.595731,64.7586776 L312.595731,55.4411086 L314.390771,55.4411086 L314.390771,64.6214879 C314.390771,69.2922293 311.732563,71.7175914 307.756492,71.7175914 C303.825391,71.7175914 301.144697,69.2922293 301.144697,64.7586776" id="Fill-29" fill="#FFFFFF" mask="url(#mask-2)"></path>
                    <path d="M326.575561,63.6144655 C328.960204,63.6144655 330.664056,62.3785 330.664056,60.3181379 L330.664056,60.271569 C330.664056,58.3030862 329.165066,57.112431 326.598045,57.112431 L321.690103,57.112431 L321.690103,63.6144655 L326.575561,63.6144655 Z M319.895062,55.4409828 L326.734204,55.4409828 C328.687887,55.4409828 330.255581,56.0363103 331.254907,57.0432069 C332.028136,57.8222931 332.48283,58.9437241 332.48283,60.2023448 L332.48283,60.2489138 C332.48283,62.9046034 330.664056,64.4615172 328.16449,64.9183966 L333.051197,71.4657414 L330.846433,71.4657414 L326.23454,65.2393448 L321.690103,65.2393448 L321.690103,71.4657414 L319.895062,71.4657414 L319.895062,55.4409828 Z" id="Fill-30" fill="#FFFFFF" mask="url(#mask-2)"></path>
                    <path d="M336.873871,63.4989241 L336.873871,63.4536138 C336.873871,58.9213207 340.236605,55.1668552 344.917201,55.1668552 C347.802757,55.1668552 349.530342,56.1964069 351.119272,57.7067517 L349.893847,59.0358552 C348.553501,57.7545793 347.052012,56.8383034 344.894716,56.8383034 C341.373339,56.8383034 338.737615,59.7218034 338.737615,63.4083034 L338.737615,63.4536138 C338.737615,67.1615103 341.395824,70.0701828 344.894716,70.0701828 C347.075746,70.0701828 348.507282,69.223131 350.028757,67.7580966 L351.211709,68.9260966 C349.551578,70.6189414 347.734053,71.741631 344.849746,71.741631 C340.260339,71.741631 336.873871,68.1004414 336.873871,63.4989241" id="Fill-31" fill="#FFFFFF" mask="url(#mask-2)"></path>
                    <polygon id="Fill-32" fill="#FFFFFF" mask="url(#mask-2)" points="355.601501 55.440731 357.396542 55.440731 357.396542 62.5607483 366.575357 62.5607483 366.575357 55.440731 368.370397 55.440731 368.370397 71.4654897 366.575357 71.4654897 366.575357 64.2548517 357.396542 64.2548517 357.396542 71.4654897 355.601501 71.4654897"></polygon>
                </g>
            </g>
        </g>
    </g>
</svg>