<svg id="Layer_1" data-name="Layer 1" xmlns="http://www.w3.org/2000/svg" viewBox="0 0 93 103"><defs><style>.cls-1{fill:#8abcd6;}.cls-2{fill:#34446a;}.cls-3{fill:#fff;}</style></defs><title>1</title><path class="cls-1" d="M90.52,70.12A6,6,0,0,0,82.37,68a4.61,4.61,0,0,0-.48.33L79.51,67l5.15-1.32a.52.52,0,0,0,.37-.63l-.92-3.58a.52.52,0,0,0-.63-.37l-9.93,2.55L60.39,56.25l9.15-5.51a.52.52,0,0,0,0-.9l-9.11-5,12.87-7.61,9.8,2.52a.52.52,0,0,0,.63-.37l.92-3.58a.52.52,0,0,0-.37-.63L79,33.78l2.72-1.61a5.95,5.95,0,1,0-2.55-4l-2.59,1.53L78,24.49a.52.52,0,0,0-.37-.63L74,22.94a.52.52,0,0,0-.63.37l-2.52,9.8L57.93,40.77l0-10.47a.52.52,0,0,0-.26-.45.52.52,0,0,0-.52,0L48,35.18l-.15-14.61L55,13.39a.52.52,0,0,0,0-.73L52.38,10a.52.52,0,0,0-.73,0L47.74,14l0-2.51a6,6,0,0,0,.78-.38A5.95,5.95,0,1,0,40.34,9,5.85,5.85,0,0,0,43,11.32l0,2.43L39.3,10a.52.52,0,0,0-.73,0L36,12.65a.52.52,0,0,0,0,.73l7.12,7.12.16,15.19-8.74-5.07a.52.52,0,0,0-.78.45l0,10.14-13.2-7.44L17.81,24a.52.52,0,0,0-.64-.36l-3.57,1a.52.52,0,0,0-.36.64l1.44,5.25-2.8-1.58A5.93,5.93,0,1,0,9,33.35l.42-.28,2.71,1.53L7.13,36a.52.52,0,0,0-.36.64l1,3.57a.52.52,0,0,0,.64.36l9.75-2.67,13,7.34-9,5.17a.52.52,0,0,0,0,.9l9.1,5.25L18.22,64.25l-9.7-2.49a.52.52,0,0,0-.63.37L7,65.72a.52.52,0,0,0,.37.63l5.12,1.31L9.74,69.27a5.95,5.95,0,1,0,2.7,3.9L15,71.66,13.63,77a.52.52,0,0,0,.37.63l3.58.92a.53.53,0,0,0,.39-.06.52.52,0,0,0,.24-.32l2.54-9.9,12.92-7.64.12,10a.52.52,0,0,0,.78.44l9-5.31.16,15.35-7.15,7.15a.52.52,0,0,0,0,.73l2.62,2.62a.52.52,0,0,0,.73,0l3.87-3.87,0,3.44a5,5,0,0,0-.6.3,6,6,0,1,0,5.34-.34l0-3.27,3.74,3.74a.52.52,0,0,0,.73,0L55.6,89a.52.52,0,0,0,0-.73l-7.16-7.16-.16-15.07,9.34,5a.52.52,0,0,0,.76-.47L58.1,60.39l13.2,7.44,2.48,9.67a.52.52,0,0,0,.63.37L78,77a.52.52,0,0,0,.37-.63L77,71.05l2.49,1.41a5.94,5.94,0,1,0,11-2.33Zm-6.24,1.09a2.22,2.22,0,0,1,1.14-.31,2.24,2.24,0,0,1,1.14,4.17,2.24,2.24,0,0,1-2.28-3.86ZM44.33,4a2.24,2.24,0,1,1-.79,3.07A2.24,2.24,0,0,1,44.33,4Zm.76,90.71a2.24,2.24,0,1,1-1,1.37A2.23,2.23,0,0,1,45.09,94.7ZM83.93,25.33A2.22,2.22,0,0,1,85.07,25a2.27,2.27,0,0,1,.56.07,2.24,2.24,0,1,1-1.7.24Zm-79.07,1A2.22,2.22,0,0,1,6,26a2.27,2.27,0,0,1,.56.07,2.24,2.24,0,1,1-1.7.24Zm2.9,49.94a2.24,2.24,0,1,1,.79-3.07A2.23,2.23,0,0,1,7.76,76.24Z"/><path class="cls-2" d="M22.47,34.64,25,36c4.55,0,4,1.68,4,6.45l2.49,17.28c0,4.77-5.49,8.29-10,8.29H21c-4.55,0-8.49-1.89-8.49-6.66V42.44C12.55,37.62,17.93,34.64,22.47,34.64ZM21.21,63.42c1.63,0,1.31-.63,1.31-2.88V43.25c0-2.25.32-2.88-1.31-2.88s-2.75.63-2.75,2.88V60.54C18.46,62.79,19.58,63.42,21.21,63.42Z"/><path class="cls-2" d="M41.66,67.65h-2.6c-1.12,0-2.43-.63-2.43-1.8V37.94c0-1.8,2.57-2.44,4.38-3h1.8c1,0-.32,1.68,0,2.67l5.07,18V37.94c0-1.17,1.67-2.6,4.56-3h1.12c1.12,0-.36,1.82-.36,3l2.48,26.37c0,1.17-1.65,3.35-2.77,3.35h-3A1.87,1.87,0,0,1,48,66.17l-6.09-19,2.38,17.17C44.27,65.51,42.77,67.65,41.66,67.65Z"/><path class="cls-2" d="M74.43,67.65H62.85c-1.12,0-2.74-.63-2.74-1.8v-27c0-2.05,2.9-3.9,5.44-3.9l7,1.19c1.12,0,4.48-.67,4.48.5v1c0,1.17-1.29,3.1-2.41,3.1H66.11v8.64h5.15c1.12,0,4.44-.49,4.44.68v1c0,1.17-1.4,3-2.51,3L66.11,54v9.09h6.61c1.12,0,4.48-1,4.48.19v1C77.2,65.41,75.55,67.65,74.43,67.65Z"/><path class="cls-3" d="M23.5,34.6h.35c4.57,0,7.59,1.81,7.59,6.39V59.11c0,4.57-3,6.39-7.59,6.39H23.5c-4.57,0-7.59-1.81-7.59-6.39V41C15.91,36.37,18.93,34.6,23.5,34.6Zm.17,26.49c1.64,0,2.76-.6,2.76-2.76V41.77c0-2.16-1.12-2.76-2.76-2.76s-2.76.6-2.76,2.76V58.34C20.92,60.49,22,61.1,23.68,61.1Z"/><path class="cls-3" d="M42.75,65.15H41.62a1.55,1.55,0,0,1-1.73-1.73V36.67a1.55,1.55,0,0,1,1.73-1.73h1.81a1.87,1.87,0,0,1,1.94,1.42l5.87,17.26v-17A1.55,1.55,0,0,1,53,34.95h1.12a1.55,1.55,0,0,1,1.73,1.73V63.43a1.55,1.55,0,0,1-1.73,1.73H52.54a1.87,1.87,0,0,1-1.94-1.42L44.47,45.52V63.43A1.55,1.55,0,0,1,42.75,65.15Z"/><path class="cls-3" d="M75.47,65.15H65.55a1.55,1.55,0,0,1-1.73-1.73V36.67a1.55,1.55,0,0,1,1.73-1.73h9.79a1.55,1.55,0,0,1,1.73,1.73v.95a1.55,1.55,0,0,1-1.73,1.73H68.83v8.28H74a1.55,1.55,0,0,1,1.73,1.73v.95A1.55,1.55,0,0,1,74,52H68.83v8.72h6.65a1.55,1.55,0,0,1,1.73,1.73v.95A1.55,1.55,0,0,1,75.47,65.15Z"/></svg>