<?xml version="1.0" encoding="UTF-8"?>
<svg width="1440px" height="335px" viewBox="0 0 1440 335" version="1.1" xmlns="http://www.w3.org/2000/svg" xmlns:xlink="http://www.w3.org/1999/xlink">
    <!-- Generator: Sketch 47.1 (45422) - http://www.bohemiancoding.com/sketch -->
    <title>background</title>
    <desc>Created with Sketch.</desc>
    <defs></defs>
    <g id="NorthStar" stroke="none" stroke-width="1" fill="none" fill-rule="evenodd">
        <g id="Closed-Copy" transform="translate(0.000000, -295.000000)">
            <g id="background" transform="translate(-22.000000, 295.000000)">
                <g id="Group">
                    <path d="M0,92.1664894 C48.1165054,77.8664351 101.682807,84.9979336 119.652293,73.5018922 C162.995074,45.7705748 228.240099,67.6632867 276.826557,52.7991359 C307.892868,43.3000788 517.808955,22.527325 539.789525,22.527325 C557.577626,22.527325 572.401731,19.4350876 589.583842,17.2857561 C618.955852,13.612952 649.300745,18.7268787 678.549084,21.1932572 C703.39059,23.2808263 728.112547,19.0892181 754.240238,19.0233382 C763.635159,19.0027508 774.777972,20.3285836 784.045099,21.7820587 C795.727945,23.6061083 805.271271,20.6456306 817.733248,21.2138447 C830.792972,21.8149987 845.394468,22.4120352 858.4006,21.2426671 C875.578588,19.7233121 889.236057,24.6848915 906.092499,22.1938081 C933.860901,18.0927847 957.346142,22.1938081 985.535026,22.1938081 C1013.24571,22.1938081 1038.35518,37.025019 1066.17305,37.025019 C1085.01648,37.025019 1105.22854,46.6928933 1122.40241,54.544953 C1151.15194,67.7003442 1220.91922,61.9811459 1245.28253,73.5018922 C1302.0643,100.352066 1445.66354,73.8889366 1460.67727,82.7168423 C1467.28546,86.5914035 1475.00257,95.0199123 1483,98.7709487 L1462,290.005847 L0,290.005847 L0,92.1664894 Z" id="Fill-1" fill="#272067"></path>
                    <path d="M398.804997,51.6146072 C416.661745,56.1536685 436.760093,62.7083129 456.121915,69.0669979 C465.604684,72.1903519 480.131055,76.1055422 504.464426,76.5414521 C528.817812,76.9933586 533.052835,85.8955175 537.367915,87.5511751 C543.956619,90.0586566 552.975057,91.9942563 558.895284,92.2901951 C572.689131,92.982052 586.515001,92.6461214 600.248805,94.1538096 C609.635506,95.1775979 618.377747,97.7850587 627.552297,99.5806873 C639.360727,101.896208 651.713546,101.540282 663.71011,102.328119 C672.216182,102.876006 680.7863,103.62785 689.096233,105.379488 C693.179147,106.23931 700.140117,107.491051 703.838757,110.486432 C716.447759,111.822156 728.848611,113.077896 741.009293,114.253653 C749.667474,112.086101 758.3897,111.038318 766.831727,112.538008 C782.635009,115.357424 798.090042,118.264823 813.673167,120.536353 C834.259863,122.116027 854.106031,123.463748 873.127611,124.591515 C891.164487,124.135609 909.145323,122.575932 927.170191,124.191597 C938.306141,125.191391 949.362033,126.883041 960.405918,128.614683 C1001.15101,129.930411 1036.96857,130.27034 1067.74254,130.086378 C1068.77528,130.014393 1069.80001,129.950407 1070.81674,129.88642 C1091.73968,128.738657 1112.81472,125.951234 1133.68962,125.163397 C1149.08061,124.575518 1165.06402,125.335361 1181.07545,126.851047 C1194.01269,126.231176 1201.83427,125.87125 1204.33205,126.215179 C1222.78523,128.746655 1342.55873,94.7656831 1378.32026,72.8382179 C1391.85392,71.0265926 1405.4076,61.2366173 1419.01732,61.1206413 C1434.4043,60.9886686 1448.67849,51.6466006 1462,56.4935982 L1462,335 L22,335 L22,0.749126751 C154.234401,-6.8652985 376.485063,45.94378 398.804997,51.6146072" id="Fill-1" fill="#1E1759"></path>
                </g>
            </g>
        </g>
    </g>
</svg>