<?xml version="1.0" encoding="UTF-8"?>
<svg width="1437px" height="475px" viewBox="0 0 1437 475" version="1.1" xmlns="http://www.w3.org/2000/svg" xmlns:xlink="http://www.w3.org/1999/xlink">
    <!-- Generator: Sketch 47.1 (45422) - http://www.bohemiancoding.com/sketch -->
    <title>foreground</title>
    <desc>Created with Sketch.</desc>
    <defs>
        <polygon id="path-1" points="718.5 475 1437 475 1437 0 5.5195596e-14 0 0 475"></polygon>
    </defs>
    <g id="NorthStar" stroke="none" stroke-width="1" fill="none" fill-rule="evenodd">
        <g id="Closed-Copy" transform="translate(-1.000000, -417.000000)">
            <g id="foreground" transform="translate(1.000000, 417.000000)">
                <mask id="mask-2" fill="white">
                    <use xlink:href="#path-1"></use>
                </mask>
                <g id="Clip-2"></g>
                <path d="M1437,96.1660704 C1390.37598,78.1090481 1338.47121,87.1135898 1321.05911,72.5960635 C1279.06074,37.5846159 1215.8355,65.2254427 1168.75611,46.4653151 C1138.65342,34.472576 935.25255,8.23396495 913.953778,8.23396495 C896.717432,8.23396495 882.353144,4.33492652 865.703991,1.62237827 C837.243049,-3.01172478 807.839399,3.44006524 779.498292,6.55210514 C755.431319,9.19274489 731.472198,3.89948063 706.154941,3.82357722 C697.051434,3.79161789 686.254251,5.46948278 677.274574,7.29515959 C665.954109,9.60022637 656.706799,5.86098459 644.63137,6.58406447 C631.972742,7.34309859 617.828152,8.09014796 605.225447,6.62401363 C588.584284,4.69846391 575.34645,10.9664878 559.012865,7.81849364 C532.105789,2.64108196 509.349019,7.81849364 482.034502,7.81849364 C455.18335,7.81849364 430.852739,26.5466618 403.89773,26.5466618 C385.642781,26.5466618 366.053663,38.7551264 349.408506,48.6665141 C321.558724,65.2733817 253.951501,58.0585626 230.343898,72.5960635 C175.319409,106.504914 36.1823468,73.0874382 21.6263221,84.2372499 C15.2271038,89.1270276 7.75336004,99.7654901 0,104.499466 L0,475 L1437,475 L1437,96.1660704 Z" id="Fill-1" fill="#00002E" mask="url(#mask-2)"></path>
            </g>
        </g>
    </g>
</svg>