<?xml version="1.0" encoding="UTF-8"?>
<svg width="350px" height="249px" viewBox="0 0 350 249" version="1.1" xmlns="http://www.w3.org/2000/svg" xmlns:xlink="http://www.w3.org/1999/xlink">
    <!-- Generator: Sketch 47.1 (45422) - http://www.bohemiancoding.com/sketch -->
    <title>Page 1</title>
    <desc>Created with Sketch.</desc>
    <defs></defs>
    <g id="NorthStar" stroke="none" stroke-width="1" fill="none" fill-rule="evenodd">
        <g id="Closed" transform="translate(-545.000000, -460.000000)" fill="#00002E">
            <path d="M869.403661,577.069822 L845.134061,692.00286 L843.516087,690.384085 C843.516087,690.384085 846.752034,643.439605 845.134061,636.964504 C843.516087,630.489403 830.5723,599.732675 832.190274,593.257574 C832.190274,593.257574 845.134061,596.495124 851.605954,601.35145 C851.605954,601.35145 861.313794,585.163698 861.313794,568.975946 C861.313794,568.975946 871.021635,565.738396 869.403661,577.069822 M888.010355,521.222078 C878.302515,521.222078 878.302515,527.697179 878.302515,527.697179 L871.830621,561.691458 L857.268861,561.691458 L852.414941,558.453907 C852.414941,558.453907 849.178994,558.453907 842.707101,556.835132 C836.235207,555.216357 837.85318,545.503706 837.85318,540.64738 C837.85318,535.791054 834.617234,535.791054 834.617234,535.791054 L834.617234,524.459628 L836.235207,521.222078 L837.85318,522.840853 L842.707101,524.459628 L845.943047,522.840853 C845.943047,522.840853 844.325074,517.984527 844.325074,516.365752 C844.325074,514.746977 842.707101,511.509427 842.707101,511.509427 L842.707101,508.271876 C842.707101,508.271876 844.325074,509.890651 845.943047,508.271876 C847.561021,506.653101 845.943047,505.034326 845.943047,505.034326 L843.516087,500.987388 L843.516087,494.512287 C843.516087,491.274737 843.516087,481.562086 830.5723,479.94331 C817.628513,478.324535 812.774593,488.037186 812.774593,488.037186 C812.774593,488.037186 814.392567,496.131062 809.538646,497.749837 C804.684726,499.368613 803.066753,515.556365 799.830806,518.793915 C796.594859,522.031465 793.358913,523.650241 793.358913,523.650241 C793.358913,523.650241 791.740939,538.219217 791.740939,539.837992 C791.740939,541.456768 790.122966,543.075543 788.504993,544.694318 C786.887019,546.313093 778.797152,565.738396 778.797152,565.738396 C774.752219,579.497985 782.842086,590.829411 782.842086,590.829411 L779.606139,600.542062 C779.606139,600.542062 779.599667,600.669945 779.586723,600.904668 C777.570729,601.633117 774.731185,602.160837 770.707286,602.160837 C769.08284,602.160837 767.694619,601.506852 766.458487,600.160031 C759.675943,592.762229 760.107942,568.561539 760.858682,559.637232 C766.829003,560.610116 771.516272,561.691458 771.516272,561.691458 L771.516272,558.453907 L776.370192,556.835132 L776.370192,548.741256 C776.370192,545.503706 773.134246,543.88493 773.134246,543.88493 C773.134246,543.88493 758.572485,539.028605 756.954512,532.553504 C755.336538,526.078403 748.864645,522.840853 748.864645,522.840853 L737.538831,514.746977 C737.538831,514.746977 747.246672,511.509427 745.628698,508.271876 C744.010725,505.034326 745.628698,490.465349 745.628698,490.465349 C745.628698,490.465349 752.100592,483.990248 745.628698,485.609024 C739.156805,487.227799 735.920858,505.034326 735.920858,505.034326 L732.684911,500.178 C732.684911,485.609024 727.830991,477.515148 727.830991,482.371473 C727.830991,487.227799 726.213018,495.321675 722.977071,498.559225 C719.741124,501.796775 721.359098,509.890651 721.359098,509.890651 L718.123151,511.509427 C700.325444,524.459628 685.763683,548.741256 685.763683,548.741256 C685.763683,548.741256 677.673817,561.691458 677.673817,563.310233 C677.673817,564.929008 671.201923,566.547783 671.201923,566.547783 C671.201923,566.547783 672.819896,563.310233 672.819896,547.122481 C672.819896,530.934729 661.494083,524.459628 661.494083,524.459628 L661.494083,509.890651 C661.494083,505.034326 651.786243,493.702899 651.786243,493.702899 L651.786243,487.227799 L656.640163,485.609024 L656.640163,479.133923 C656.640163,471.040047 653.404216,471.040047 653.404216,471.040047 C653.404216,461.327396 650.977256,460.518008 650.977256,460.518008 C650.977256,460.518008 631.561575,457.280458 629.943602,466.993109 C628.325629,476.70576 628.325629,479.94331 628.325629,479.94331 C628.325629,479.94331 628.325629,484.799636 626.707655,484.799636 C625.089682,484.799636 610.527922,523.650241 610.527922,523.650241 C617.808802,524.459628 616.190828,532.553504 616.190828,532.553504 C616.190828,532.553504 614.572855,540.64738 612.954882,540.64738 C611.336908,540.64738 609.718935,550.360031 609.718935,550.360031 L606.482988,564.929008 C606.482988,564.929008 601.629068,566.547783 588.685281,566.547783 C575.741494,566.547783 566.033654,576.260434 561.179734,582.735535 C556.325814,589.210636 559.56176,613.492264 561.179734,628.06124 C562.797707,642.630217 545,653.961643 545,653.961643 L551.471893,655.580419 L551.471893,660.436744 C567.651627,653.961643 567.651627,637.773892 567.651627,634.536341 C567.651627,631.957632 566.625832,615.009056 566.206777,609.034157 C566.705113,613.306105 568.263221,622.811552 570.887574,628.06124 C574.123521,634.536341 570.887574,647.486543 567.651627,652.342868 C564.41568,657.199194 561.179734,675.005721 561.179734,675.005721 L559.56176,697.668574 L556.325814,705.76245 L567.651627,705.76245 L567.651627,701.108471 L567.651627,700.906124 L567.651627,684.718372 C567.651627,665.29307 575.741494,658.817969 582.213388,652.342868 C588.685281,645.867768 590.303254,636.155116 590.303254,636.155116 C590.303254,636.155116 590.303254,641.011442 591.921228,642.630217 C593.539201,644.248992 609.718935,666.911845 609.718935,670.149395 C609.718935,673.386946 614.572855,679.862047 614.572855,679.862047 C614.572855,679.862047 614.572855,683.099597 616.190828,684.718372 C617.808802,686.337147 621.044749,696.049798 621.044749,696.049798 L621.044749,704.143674 L632.370562,704.143674 L632.370562,697.668574 L624.280695,692.812248 L624.280695,683.099597 C624.280695,679.862047 616.190828,670.149395 616.190828,665.29307 C616.190828,660.436744 611.336908,657.199194 609.718935,653.961643 C608.100962,650.724093 609.718935,639.392667 609.718935,644.248992 C609.718935,649.105318 622.662722,652.342868 622.662722,652.342868 C622.662722,652.342868 622.662722,655.580419 624.280695,657.199194 C625.898669,658.817969 638.842456,658.817969 638.842456,658.817969 L638.842456,663.674295 C650.168269,665.29307 663.112056,662.055519 663.112056,658.817969 C663.112056,655.580419 653.404216,658.817969 653.404216,658.817969 L653.404216,655.580419 C653.404216,655.580419 661.494083,653.961643 663.112056,652.342868 C664.73003,650.724093 663.112056,639.392667 663.112056,636.155116 C663.112056,632.917566 669.58395,631.298791 671.201923,634.536341 C672.819896,637.773892 667.965976,660.436744 664.73003,666.911845 C661.494083,673.386946 659.876109,692.812248 659.876109,692.812248 L656.640163,697.668574 L656.640163,702.524899 L666.348003,702.524899 L666.348003,697.668574 C666.348003,697.668574 664.73003,699.287349 667.965976,681.480822 C671.201923,663.674295 687.381657,628.06124 690.617604,628.06124 C693.85355,628.06124 708.415311,657.199194 710.033284,663.674295 C711.651257,670.149395 716.505178,681.480822 718.123151,683.099597 C719.741124,684.718372 722.977071,691.193473 722.977071,691.193473 L721.359098,694.431023 L721.359098,704.143674 L732.684911,704.143674 L729.448964,692.812248 L724.595044,681.480822 L713.269231,652.342868 C713.269231,652.342868 705.179364,629.680016 708.415311,621.58614 C711.651257,613.492264 711.651257,598.923287 711.651257,598.923287 C721.359098,589.210636 731.066938,551.978806 731.066938,551.978806 C731.066938,551.978806 731.066938,560.072682 740.774778,558.453907 C745.298632,557.699558 752.281805,558.351924 758.452755,559.263295 L756.037121,559.054473 C755.915773,560.430432 753.225083,592.9063 762.881148,603.441289 C765.055705,605.814413 767.689765,607.017163 770.707286,607.017163 C774.17622,607.017163 776.996348,606.657795 779.29387,606.073417 C778.745377,615.306911 777.557785,633.450143 776.370192,639.392667 C774.752219,647.486543 761.808432,681.480822 761.808432,681.480822 L758.572485,684.718372 L758.572485,691.193473 L755.336538,691.193473 L753.718565,697.668574 C753.718565,697.668574 755.336538,702.524899 756.954512,702.524899 C758.572485,702.524899 758.572485,709 758.572485,709 L862.122781,707.381225 C862.122781,702.524899 858.886834,699.287349 858.886834,699.287349 L849.178994,696.049798 L862.122781,637.773892 L873.448595,574.641659 C878.302515,574.641659 879.920488,566.547783 879.920488,566.547783 L878.302515,563.310233 L876.684541,563.310233 L879.920488,543.88493 C879.920488,543.88493 881.538462,526.078403 886.392382,526.078403 C891.246302,526.078403 891.246302,535.791054 891.246302,535.791054 L894.482249,535.791054 C894.482249,535.791054 897.718195,521.222078 888.010355,521.222078" id="Page-1"></path>
        </g>
    </g>
</svg>