<?xml version="1.0" encoding="UTF-8"?>
<svg width="1440px" height="335px" viewBox="0 0 1440 335" version="1.1" xmlns="http://www.w3.org/2000/svg" xmlns:xlink="http://www.w3.org/1999/xlink">
    <!-- Generator: Sketch 47.1 (45422) - http://www.bohemiancoding.com/sketch -->
    <title>Fill 1</title>
    <desc>Created with Sketch.</desc>
    <defs></defs>
    <g id="NorthStar" stroke="none" stroke-width="1" fill="none" fill-rule="evenodd">
        <g id="Closed" transform="translate(0.000000, -575.000000)" fill="#1E1759">
            <g id="middleground" transform="translate(0.000000, 575.000000)">
                <path d="M376.804997,51.6146072 C394.661745,56.1536685 414.760093,62.7083129 434.121915,69.0669979 C443.604684,72.1903519 458.131055,76.1055422 482.464426,76.5414521 C506.817812,76.9933586 511.052835,85.8955175 515.367915,87.5511751 C521.956619,90.0586566 530.975057,91.9942563 536.895284,92.2901951 C550.689131,92.982052 564.515001,92.6461214 578.248805,94.1538096 C587.635506,95.1775979 596.377747,97.7850587 605.552297,99.5806873 C617.360727,101.896208 629.713546,101.540282 641.71011,102.328119 C650.216182,102.876006 658.7863,103.62785 667.096233,105.379488 C671.179147,106.23931 678.140117,107.491051 681.838757,110.486432 C694.447759,111.822156 706.848611,113.077896 719.009293,114.253653 C727.667474,112.086101 736.3897,111.038318 744.831727,112.538008 C760.635009,115.357424 776.090042,118.264823 791.673167,120.536353 C812.259863,122.116027 832.106031,123.463748 851.127611,124.591515 C869.164487,124.135609 887.145323,122.575932 905.170191,124.191597 C916.306141,125.191391 927.362033,126.883041 938.405918,128.614683 C979.151005,129.930411 1014.96857,130.27034 1045.74254,130.086378 C1046.77528,130.014393 1047.80001,129.950407 1048.81674,129.88642 C1069.73968,128.738657 1090.81472,125.951234 1111.68962,125.163397 C1127.08061,124.575518 1143.06402,125.335361 1159.07545,126.851047 C1172.01269,126.231176 1179.83427,125.87125 1182.33205,126.215179 C1200.78523,128.746655 1320.55873,94.7656831 1356.32026,72.8382179 C1369.85392,71.0265926 1383.4076,61.2366173 1397.01732,61.1206413 C1412.4043,60.9886686 1426.67849,51.6466006 1440,56.4935982 L1440,335 L0,335 L0,0.749126751 C132.234401,-6.8652985 354.485063,45.94378 376.804997,51.6146072" id="Fill-1"></path>
            </g>
        </g>
    </g>
</svg>